<?xml version="1.0" encoding="utf-8"?>
<!-- Generator: Adobe Illustrator 15.0.2, SVG Export Plug-In  -->
<!DOCTYPE svg PUBLIC "-//W3C//DTD SVG 1.1//EN" "http://www.w3.org/Graphics/SVG/1.1/DTD/svg11.dtd" [
	<!ENTITY ns_flows "http://ns.adobe.com/Flows/1.0/">
]>
<svg version="1.1"
	 xmlns="http://www.w3.org/2000/svg" xmlns:xlink="http://www.w3.org/1999/xlink" xmlns:a="http://ns.adobe.com/AdobeSVGViewerExtensions/3.0/"
	 x="0px" y="0px" width="620px" height="482px" viewBox="-3.376 -1.965 620 482"
	 overflow="visible" enable-background="new -3.376 -1.965 620 482" xml:space="preserve">
<defs>
</defs>
<path fill="#3E4041" d="M143.791,210.705h-1.154v4.476h-1.235v-10.184h2.633c1.69,0,2.486,0.982,2.486,2.761
	c0,1.591-0.553,2.448-1.593,2.713l2.113,4.71h-1.349L143.791,210.705z M142.637,209.738h1.3c1.024,0,1.381-0.608,1.381-1.902
	c0-1.311-0.39-1.794-1.349-1.794h-1.333V209.738z"/>
<path fill="#3E4041" d="M153.717,204.997v1.076h-3.478v3.354h2.779v0.967h-2.779v3.727h3.656v1.061h-4.892v-10.184H153.717z"/>
<path fill="#3E4041" d="M158.817,204.997c1.853,0,2.909,1.154,2.909,3.104v4.008c0,1.918-1.056,3.072-2.909,3.072h-2.812v-10.184
	H158.817z M158.817,206.058h-1.576v8.094h1.576c1.105,0,1.674-0.64,1.674-2.059v-3.945
	C160.491,206.713,159.938,206.058,158.817,206.058z"/>
<rect x="78.906" y="51.588" fill="#CA312A" width="145.006" height="138.078"/>
<path fill="#3E4041" d="M224.412,231.748H78.406V51.088h146.006V231.748z M79.406,230.748h144.006V52.088H79.406V230.748z"/>
<rect x="78.951" y="300.376" fill="#0D4266" width="145.005" height="138.077"/>
<path fill="#3E4041" d="M224.457,480.535H78.451V299.876h146.005V480.535z M79.451,479.535h144.005V300.876H79.451V479.535z"/>
<path fill="#3E4041" d="M138.34,453.784l3.494,7.221v-7.221h1.089v10.184h-0.861l-3.559-7.376v7.376h-1.105v-10.184H138.34z"/>
<path fill="#3E4041" d="M146.218,463.968h-1.251l2.681-10.184h1.43l2.681,10.184h-1.251l-0.634-2.651h-3.023L146.218,463.968z
	 M147.063,460.381h2.584l-1.284-5.411L147.063,460.381z"/>
<path fill="#3E4041" d="M156.161,463.968h-1.284l-2.681-10.184h1.316l2.015,8.608l1.999-8.608h1.333L156.161,463.968z"/>
<path fill="#3E4041" d="M163.73,460.521v3.446h-1.235v-3.399l-2.617-6.784h1.365l1.869,5.521l1.885-5.521h1.349L163.73,460.521z"/>
<rect x="278.155" y="51.588" fill="#982821" width="145.007" height="138.078"/>
<path fill="#3E4041" d="M423.662,231.748H277.655V51.088h146.007V231.748z M278.655,230.748h144.007V52.088H278.655V230.748z"/>
<path fill="#3E4041" d="M330.441,206.978l-0.942,0.312c-0.179-0.904-0.666-1.388-1.463-1.388c-1.04,0-1.543,0.717-1.543,2.043v4.397
	c0,1.169,0.52,1.965,1.527,1.965c0.845,0,1.283-0.359,1.495-1.497l0.942,0.28c-0.276,1.591-1.138,2.23-2.519,2.23
	c-1.674,0-2.682-1.201-2.682-2.979v-4.383c0-1.934,1.008-3.103,2.697-3.103C329.271,204.857,330.198,205.746,330.441,206.978z"/>
<path fill="#3E4041" d="M335.005,210.705h-1.153v4.476h-1.235v-10.184h2.633c1.69,0,2.486,0.982,2.486,2.761
	c0,1.591-0.553,2.448-1.593,2.713l2.112,4.71h-1.349L335.005,210.705z M333.852,209.738h1.3c1.023,0,1.382-0.608,1.382-1.902
	c0-1.311-0.391-1.794-1.35-1.794h-1.332V209.738z"/>
<path fill="#3E4041" d="M341.665,204.997v10.184h-1.251v-10.184H341.665z"/>
<path fill="#3E4041" d="M352.08,204.997v10.184h-1.121v-7.313l-2.372,5.442h-0.569l-2.356-5.442v7.313h-1.121v-10.184h1.121
	l2.649,6.534l2.648-6.534H352.08z"/>
<path fill="#3E4041" d="M359.308,206.854l-0.895,0.358c-0.243-0.873-0.796-1.341-1.592-1.341c-0.943,0-1.333,0.562-1.333,1.435
	c0,2.292,3.852,2.151,3.852,5.271c0,1.778-1.008,2.745-2.584,2.745c-1.284,0-2.34-0.796-2.616-2.277l0.959-0.312
	c0.26,1.107,0.894,1.575,1.657,1.575c0.926,0,1.397-0.53,1.397-1.591c0-2.448-3.884-2.23-3.884-5.349c0-1.45,0.91-2.511,2.47-2.511
	C358.104,204.857,358.949,205.637,359.308,206.854z"/>
<path fill="#3E4041" d="M366.894,207.898v4.366c0,1.918-0.975,3.057-2.859,3.057c-1.869,0-2.86-1.139-2.86-3.041v-4.366
	c0-1.919,0.991-3.057,2.86-3.057C365.919,204.857,366.894,205.995,366.894,207.898z M365.675,207.914
	c0-1.373-0.536-2.012-1.641-2.012c-1.089,0-1.625,0.623-1.625,2.012v4.366c0,1.388,0.52,2.012,1.625,2.012
	c1.104,0,1.641-0.624,1.641-2.027V207.914z"/>
<path fill="#3E4041" d="M370.238,204.997l3.494,7.221v-7.221h1.089v10.184h-0.861l-3.559-7.376v7.376h-1.105v-10.184H370.238z"/>
<rect x="278.199" y="300.376" fill="#377FC0" width="145.007" height="138.077"/>
<path fill="#3E4041" d="M423.706,480.535H277.699V299.876h146.007V480.535z M278.699,479.535h144.007V300.876H278.699V479.535z"/>
<path fill="#3E4041" d="M339.379,455.641l-0.895,0.358c-0.243-0.873-0.796-1.341-1.592-1.341c-0.943,0-1.333,0.562-1.333,1.435
	c0,2.292,3.852,2.151,3.852,5.271c0,1.778-1.008,2.745-2.584,2.745c-1.284,0-2.34-0.796-2.616-2.277l0.959-0.312
	c0.26,1.107,0.894,1.575,1.657,1.575c0.926,0,1.397-0.53,1.397-1.591c0-2.448-3.884-2.23-3.884-5.349c0-1.45,0.91-2.511,2.47-2.511
	C338.176,453.645,339.021,454.424,339.379,455.641z"/>
<path fill="#3E4041" d="M346.088,453.784v1.076h-2.064v9.107h-1.234v-9.107h-2.064v-1.076H346.088z"/>
<path fill="#3E4041" d="M352.699,453.784v1.076h-3.478v3.354H352v0.967h-2.778v3.727h3.656v1.061h-4.892v-10.184H352.699z"/>
<path fill="#3E4041" d="M359.716,453.784v1.076h-3.478v3.354h2.778v0.967h-2.778v3.727h3.656v1.061h-4.892v-10.184H359.716z"/>
<path fill="#3E4041" d="M363.224,453.784v9.092h3.314v1.092h-4.518v-10.184H363.224z"/>
<rect x="470.631" y="51.588" fill="#471816" width="145.007" height="138.078"/>
<path fill="#3E4041" d="M616.138,231.748H470.131V51.088h146.007V231.748z M471.131,230.748h144.007V52.088H471.131V230.748z"/>
<path fill="#3E4041" d="M516.771,209.832c1.121,0.265,1.642,1.107,1.642,2.433c0,1.949-0.699,2.916-2.649,2.916h-2.746v-10.184
	h2.438c1.771,0,2.584,0.967,2.584,2.573C518.039,208.818,517.682,209.52,516.771,209.832z M514.221,209.427h1.283
	c1.057,0,1.382-0.593,1.382-1.747c0-1.17-0.406-1.622-1.382-1.622h-1.283V209.427z M514.221,214.136h1.511
	c1.008,0,1.479-0.421,1.479-1.934c0-1.341-0.487-1.824-1.462-1.824h-1.527V214.136z"/>
<path fill="#3E4041" d="M526.275,204.997v7.361c0,1.902-1.008,2.963-2.844,2.963c-1.853,0-2.876-1.045-2.876-2.932v-7.393h1.234
	v7.408c0,1.372,0.716,1.809,1.642,1.809c1.04,0,1.625-0.499,1.625-1.809v-7.408H526.275z"/>
<path fill="#3E4041" d="M531.229,210.705h-1.153v4.476h-1.235v-10.184h2.633c1.69,0,2.486,0.982,2.486,2.761
	c0,1.591-0.553,2.448-1.593,2.713l2.112,4.71h-1.349L531.229,210.705z M530.075,209.738h1.3c1.023,0,1.382-0.608,1.382-1.902
	c0-1.311-0.391-1.794-1.35-1.794h-1.332V209.738z"/>
<path fill="#3E4041" d="M541.806,207.009l-0.943,0.281c-0.309-0.982-0.845-1.403-1.657-1.403c-1.219,0-1.787,0.779-1.787,2.261
	v4.039c0,1.388,0.617,2.074,1.738,2.074c0.699,0,1.203-0.25,1.593-0.998v-2.168h-1.187v-0.873h2.275v4.959h-1.008v-0.779
	c-0.487,0.623-1.153,0.904-1.966,0.904c-1.674,0-2.682-1.076-2.682-3.104v-4.055c0-1.98,0.942-3.306,2.925-3.306
	C540.505,204.842,541.513,205.652,541.806,207.009z"/>
<path fill="#3E4041" d="M549.895,204.997v7.361c0,1.902-1.008,2.963-2.844,2.963c-1.853,0-2.876-1.045-2.876-2.932v-7.393h1.234
	v7.408c0,1.372,0.716,1.809,1.642,1.809c1.04,0,1.625-0.499,1.625-1.809v-7.408H549.895z"/>
<path fill="#3E4041" d="M553.418,204.997l3.494,7.221v-7.221h1.089v10.184h-0.861l-3.559-7.376v7.376h-1.105v-10.184H553.418z"/>
<path fill="#3E4041" d="M563.49,204.997c1.853,0,2.909,1.154,2.909,3.104v4.008c0,1.918-1.057,3.072-2.909,3.072h-2.812v-10.184
	H563.49z M563.49,206.058h-1.576v8.094h1.576c1.105,0,1.674-0.64,1.674-2.059v-3.945
	C565.164,206.713,564.611,206.058,563.49,206.058z"/>
<path fill="#3E4041" d="M571.482,211.734v3.446h-1.235v-3.399l-2.616-6.784h1.365l1.869,5.521l1.885-5.521h1.349L571.482,211.734z"
	/>
<rect x="470.676" y="300.376" fill="#85C6ED" width="145.006" height="138.077"/>
<path fill="#3E4041" d="M616.182,480.535H470.176V299.876h146.006V480.535z M471.176,479.535h144.006V300.876H471.176V479.535z"/>
<path fill="#3E4041" d="M520.829,455.765l-0.942,0.312c-0.179-0.904-0.666-1.388-1.463-1.388c-1.04,0-1.543,0.717-1.543,2.043v4.397
	c0,1.169,0.52,1.965,1.527,1.965c0.845,0,1.283-0.359,1.495-1.497l0.942,0.28c-0.276,1.591-1.138,2.23-2.519,2.23
	c-1.674,0-2.682-1.201-2.682-2.979v-4.383c0-1.934,1.008-3.103,2.697-3.103C519.659,453.645,520.586,454.533,520.829,455.765z"/>
<path fill="#3E4041" d="M523.476,463.968h-1.252l2.682-10.184h1.43l2.682,10.184h-1.251l-0.634-2.651h-3.022L523.476,463.968z
	 M524.32,460.381h2.584l-1.284-5.411L524.32,460.381z"/>
<path fill="#3E4041" d="M533.32,459.492h-1.153v4.476h-1.235v-10.184h2.633c1.69,0,2.486,0.982,2.486,2.761
	c0,1.591-0.553,2.448-1.593,2.713l2.112,4.71h-1.349L533.32,459.492z M532.167,458.525h1.3c1.023,0,1.382-0.608,1.382-1.902
	c0-1.311-0.391-1.794-1.35-1.794h-1.332V458.525z"/>
<path fill="#3E4041" d="M543.993,456.686v4.366c0,1.918-0.975,3.057-2.859,3.057c-1.869,0-2.86-1.139-2.86-3.041v-4.366
	c0-1.919,0.991-3.057,2.86-3.057C543.019,453.645,543.993,454.782,543.993,456.686z M542.774,456.701
	c0-1.373-0.536-2.012-1.641-2.012c-1.089,0-1.625,0.623-1.625,2.012v4.366c0,1.388,0.52,2.012,1.625,2.012
	c1.104,0,1.641-0.624,1.641-2.027V456.701z"/>
<path fill="#3E4041" d="M547.615,453.784v9.092h3.314v1.092h-4.518v-10.184H547.615z"/>
<path fill="#3E4041" d="M554.389,453.784v10.184h-1.251v-10.184H554.389z"/>
<path fill="#3E4041" d="M558.206,453.784l3.494,7.221v-7.221h1.089v10.184h-0.861l-3.559-7.376v7.376h-1.105v-10.184H558.206z"/>
<path fill="#3E4041" d="M566.085,463.968h-1.252l2.682-10.184h1.43l2.682,10.184h-1.251l-0.634-2.651h-3.022L566.085,463.968z
	 M566.93,460.381h2.584l-1.284-5.411L566.93,460.381z"/>
<polygon fill="#3E4041" points="545.759,286.681 544.759,286.681 544.759,272.887 150.288,272.887 150.288,286.681 149.288,286.681 
	149.288,271.887 545.759,271.887 "/>
<polygon fill="#3E4041" points="545.759,33.743 544.759,33.743 544.759,19.95 150.288,19.95 150.288,33.743 149.288,33.743 
	149.288,18.95 545.759,18.95 "/>
<path fill="#231F20" d="M226.485,0.156v4.257h2.448V0.156h1.513v10.199h-1.513V5.801h-2.448v4.554h-1.513V0.156H226.485z"/>
<path fill="#231F20" d="M239.786,0.156v1.388h-3.103v2.932h2.417v1.216h-2.417v3.291h3.244v1.372h-4.756V0.156H239.786z"/>
<path fill="#231F20" d="M245.009,10.354h-1.528l2.433-10.199h1.762l2.448,10.199h-1.56l-0.515-2.448h-2.542L245.009,10.354z
	 M245.742,6.721h2.074l-1.045-5.037L245.742,6.721z"/>
<path fill="#231F20" d="M256.875,10.354h-1.606l-2.511-10.199h1.637l1.684,8.171l1.653-8.171h1.653L256.875,10.354z"/>
<path fill="#231F20" d="M266.575,7.126v3.228h-1.513V7.126l-2.448-6.971h1.668l1.544,5.302l1.544-5.302h1.653L266.575,7.126z"/>
<path fill="#231F20" d="M281.45,0.156c1.824,0,2.869,1.185,2.869,3.181v3.852c0,1.98-1.045,3.166-2.869,3.166h-2.792V0.156H281.45z
	 M281.45,1.512h-1.279v7.517h1.279c0.904,0,1.341-0.515,1.341-1.871V3.399C282.791,2.058,282.354,1.512,281.45,1.512z"/>
<path fill="#231F20" d="M294.361,0.156v7.267c0,1.98-1.014,3.072-2.823,3.072c-1.825,0-2.838-1.076-2.838-3.009v-7.33h1.528v7.33
	c0,1.185,0.546,1.59,1.31,1.59c0.842,0,1.31-0.437,1.31-1.59v-7.33H294.361z"/>
<path fill="#231F20" d="M303.561,0.156v1.403h-1.871v8.795h-1.528V1.559h-1.872V0.156H303.561z"/>
<path fill="#231F20" d="M310.936,7.126v3.228h-1.513V7.126l-2.448-6.971h1.668l1.544,5.302l1.544-5.302h1.653L310.936,7.126z"/>
<path fill="#231F20" d="M327.901,2.276l-1.154,0.375c-0.156-0.858-0.546-1.294-1.201-1.294c-0.842,0-1.247,0.624-1.247,1.793v4.366
	c0,1.014,0.405,1.685,1.231,1.685c0.687,0,1.045-0.343,1.232-1.388l1.154,0.359c-0.266,1.637-1.107,2.323-2.511,2.323
	c-1.622,0-2.62-1.185-2.62-2.979V3.15c0-1.949,1.014-3.135,2.651-3.135C326.747,0.015,327.667,0.951,327.901,2.276z"/>
<path fill="#231F20" d="M337.585,3.166V7.36c0,1.965-0.983,3.134-2.839,3.134s-2.822-1.169-2.822-3.134V3.166
	c0-1.98,0.967-3.15,2.822-3.15S337.585,1.185,337.585,3.166z M336.057,3.166c0-1.279-0.406-1.809-1.311-1.809
	c-0.889,0-1.31,0.53-1.31,1.809V7.36c0,1.294,0.405,1.825,1.31,1.825c0.889,0,1.311-0.53,1.311-1.825V3.166z"/>
<path fill="#231F20" d="M347.47,3.166V7.36c0,1.965-0.982,3.134-2.838,3.134s-2.822-1.169-2.822-3.134V3.166
	c0-1.98,0.967-3.15,2.822-3.15S347.47,1.185,347.47,3.166z M345.942,3.166c0-1.279-0.406-1.809-1.311-1.809
	c-0.889,0-1.31,0.53-1.31,1.809V7.36c0,1.294,0.405,1.825,1.31,1.825c0.889,0,1.311-0.53,1.311-1.825V3.166z"/>
<path fill="#231F20" d="M353.411,0.156v8.795h2.963v1.403h-4.429V0.156H353.411z"/>
<path fill="#231F20" d="M362.206,0.156v10.199h-1.544V0.156H362.206z"/>
<path fill="#231F20" d="M368.209,0.156l3.01,6.44v-6.44h1.325v10.199h-1.029l-3.103-6.643v6.643h-1.342V0.156H368.209z"/>
<path fill="#231F20" d="M382.586,2.276l-1.154,0.375c-0.28-0.936-0.733-1.31-1.403-1.31c-1.014,0-1.481,0.67-1.481,2.027v3.914
	c0,1.263,0.515,1.84,1.45,1.84c0.546,0,0.951-0.187,1.278-0.795V6.378h-1.014V5.286h2.34v5.068h-1.248V9.715
	c-0.452,0.514-1.061,0.779-1.762,0.779c-1.56,0-2.558-1.076-2.558-3.197V3.353c0-1.996,0.92-3.353,2.885-3.353
	C381.307,0,382.305,0.842,382.586,2.276z"/>
<path fill="#231F20" d="M398.085,3.353c0,1.996-0.857,3.15-2.433,3.15h-1.326v3.852h-1.513V0.156h2.761
	C397.196,0.156,398.085,1.278,398.085,3.353z M394.326,5.255h1.201c0.732,0,1.045-0.53,1.045-1.887c0-1.388-0.312-1.871-1.045-1.871
	h-1.201V5.255z"/>
<path fill="#231F20" d="M402.139,10.354h-1.528l2.433-10.199h1.762l2.448,10.199h-1.559l-0.515-2.448h-2.542L402.139,10.354z
	 M402.871,6.721h2.074L403.9,1.684L402.871,6.721z"/>
<path fill="#231F20" d="M413.693,6.05h-0.905v4.304h-1.513V0.156h2.636c1.731,0,2.511,1.029,2.511,2.854
	c0,1.513-0.483,2.371-1.372,2.683l1.824,4.663h-1.622L413.693,6.05z M412.788,4.818h1.029c0.827,0,1.107-0.499,1.107-1.684
	c0-1.248-0.312-1.637-1.092-1.637h-1.045V4.818z"/>
<path fill="#231F20" d="M424.936,0.156v1.403h-1.871v8.795h-1.528V1.559h-1.871V0.156H424.936z"/>
<path fill="#231F20" d="M433.465,2.121l-1.092,0.452c-0.218-0.857-0.701-1.263-1.356-1.263c-0.748,0-1.061,0.468-1.061,1.232
	c0,2.043,3.54,2.027,3.54,5.146c0,1.809-0.998,2.807-2.558,2.807c-1.278,0-2.354-0.842-2.619-2.37l1.185-0.375
	c0.234,1.045,0.796,1.451,1.419,1.451c0.765,0,1.123-0.421,1.123-1.31c0-2.261-3.603-2.199-3.603-5.271
	c0-1.481,0.92-2.604,2.464-2.604C432.296,0.015,433.091,0.826,433.465,2.121z"/>
<path fill="#231F20" d="M437.644,8.951h1.279v1.403h-1.279V8.951z"/>
<path fill="#231F20" d="M448.481,2.276l-1.154,0.375c-0.156-0.858-0.546-1.294-1.201-1.294c-0.842,0-1.247,0.624-1.247,1.793v4.366
	c0,1.014,0.405,1.685,1.231,1.685c0.687,0,1.045-0.343,1.232-1.388l1.154,0.359c-0.266,1.637-1.107,2.323-2.511,2.323
	c-1.622,0-2.62-1.185-2.62-2.979V3.15c0-1.949,1.014-3.135,2.651-3.135C447.327,0.015,448.247,0.951,448.481,2.276z"/>
<path fill="#231F20" d="M458.165,3.166V7.36c0,1.965-0.983,3.134-2.839,3.134s-2.822-1.169-2.822-3.134V3.166
	c0-1.98,0.967-3.15,2.822-3.15S458.165,1.185,458.165,3.166z M456.637,3.166c0-1.279-0.406-1.809-1.311-1.809
	c-0.889,0-1.31,0.53-1.31,1.809V7.36c0,1.294,0.405,1.825,1.31,1.825c0.889,0,1.311-0.53,1.311-1.825V3.166z"/>
<path fill="#231F20" d="M470.093,0.156v10.199h-1.372V3.773l-2.027,4.866h-0.686l-2.012-4.866v6.581h-1.373V0.156h1.404l2.323,6.238
	l2.339-6.238H470.093z"/>
<path fill="#231F20" d="M262.536,256.086l-1.154,0.374c-0.156-0.857-0.546-1.294-1.201-1.294c-0.842,0-1.248,0.624-1.248,1.793
	v4.367c0,1.014,0.405,1.684,1.232,1.684c0.686,0,1.044-0.343,1.232-1.388l1.154,0.358c-0.265,1.638-1.107,2.324-2.511,2.324
	c-1.622,0-2.62-1.186-2.62-2.979v-4.367c0-1.949,1.014-3.134,2.651-3.134C261.382,253.825,262.302,254.761,262.536,256.086z"/>
<path fill="#231F20" d="M267.634,264.164h-1.528l2.433-10.199h1.762l2.448,10.199h-1.56l-0.515-2.448h-2.542L267.634,264.164z
	 M268.367,260.53h2.074l-1.045-5.037L268.367,260.53z"/>
<path fill="#231F20" d="M279.188,259.86h-0.904v4.304h-1.513v-10.199h2.635c1.731,0,2.511,1.029,2.511,2.854
	c0,1.513-0.483,2.37-1.372,2.682l1.824,4.663h-1.622L279.188,259.86z M278.284,258.628h1.029c0.826,0,1.107-0.499,1.107-1.685
	c0-1.247-0.312-1.637-1.091-1.637h-1.045V258.628z"/>
<path fill="#231F20" d="M291.882,256.975v4.195c0,1.965-0.982,3.135-2.838,3.135c-1.855,0-2.822-1.17-2.822-3.135v-4.195
	c0-1.98,0.967-3.149,2.822-3.149C290.899,253.825,291.882,254.994,291.882,256.975z M290.354,256.975
	c0-1.278-0.405-1.809-1.31-1.809c-0.889,0-1.31,0.53-1.31,1.809v4.195c0,1.294,0.405,1.824,1.31,1.824c0.889,0,1.31-0.53,1.31-1.824
	V256.975z"/>
<path fill="#231F20" d="M297.822,253.965v8.796h2.963v1.403h-4.429v-10.199H297.822z"/>
<path fill="#231F20" d="M306.617,253.965v10.199h-1.544v-10.199H306.617z"/>
<path fill="#231F20" d="M312.604,253.965l3.01,6.441v-6.441h1.325v10.199h-1.029l-3.103-6.644v6.644h-1.342v-10.199H312.604z"/>
<path fill="#231F20" d="M322.646,264.164h-1.528l2.433-10.199h1.762l2.448,10.199h-1.559l-0.515-2.448h-2.542L322.646,264.164z
	 M323.379,260.53h2.074l-1.045-5.037L323.379,260.53z"/>
<path fill="#231F20" d="M342.356,256.086l-1.154,0.374c-0.156-0.857-0.546-1.294-1.201-1.294c-0.842,0-1.247,0.624-1.247,1.793
	v4.367c0,1.014,0.405,1.684,1.231,1.684c0.687,0,1.045-0.343,1.232-1.388l1.154,0.358c-0.266,1.638-1.107,2.324-2.511,2.324
	c-1.622,0-2.62-1.186-2.62-2.979v-4.367c0-1.949,1.014-3.134,2.651-3.134C341.202,253.825,342.122,254.761,342.356,256.086z"/>
<path fill="#231F20" d="M348.077,253.965v8.796h2.963v1.403h-4.429v-10.199H348.077z"/>
<path fill="#231F20" d="M359.804,253.965v1.389H356.7v2.932h2.418v1.216H356.7v3.291h3.244v1.372h-4.757v-10.199H359.804z"/>
<path fill="#231F20" d="M365.028,264.164H363.5l2.433-10.199h1.762l2.448,10.199h-1.559l-0.515-2.448h-2.542L365.028,264.164z
	 M365.761,260.53h2.074l-1.045-5.037L365.761,260.53z"/>
<path fill="#231F20" d="M375.304,253.965l3.01,6.441v-6.441h1.325v10.199h-1.029l-3.103-6.644v6.644h-1.342v-10.199H375.304z"/>
<path fill="#231F20" d="M392.83,253.965c1.824,0,2.869,1.186,2.869,3.182v3.852c0,1.98-1.045,3.166-2.869,3.166h-2.792v-10.199
	H392.83z M392.83,255.322h-1.279v7.517h1.279c0.904,0,1.341-0.515,1.341-1.872v-3.758
	C394.171,255.868,393.734,255.322,392.83,255.322z"/>
<path fill="#231F20" d="M401.874,253.965v10.199h-1.544v-10.199H401.874z"/>
<path fill="#231F20" d="M411.354,253.965v1.389h-3.104v2.932h2.418v1.216h-2.418v3.291h3.244v1.372h-4.757v-10.199H411.354z"/>
<path fill="#231F20" d="M420.32,255.93l-1.092,0.453c-0.218-0.858-0.701-1.264-1.356-1.264c-0.748,0-1.061,0.468-1.061,1.232
	c0,2.043,3.54,2.027,3.54,5.146c0,1.81-0.998,2.808-2.558,2.808c-1.278,0-2.354-0.843-2.619-2.371l1.185-0.374
	c0.234,1.045,0.796,1.45,1.419,1.45c0.765,0,1.123-0.421,1.123-1.31c0-2.262-3.603-2.199-3.603-5.271
	c0-1.482,0.92-2.604,2.464-2.604C419.151,253.825,419.946,254.636,420.32,255.93z"/>
<path fill="#231F20" d="M429.161,253.965v1.389h-3.104v2.932h2.418v1.216h-2.418v3.291h3.244v1.372h-4.757v-10.199H429.161z"/>
<path fill="#231F20" d="M435.009,253.965v8.796h2.963v1.403h-4.429v-10.199H435.009z"/>
<polygon fill="#3E4041" points="51.477,464.047 36.684,464.047 36.684,67.576 51.477,67.576 51.477,68.576 37.684,68.576 
	37.684,463.047 51.477,463.047 "/>
<path fill="#231F20" d="M6.035,354.056v0.905h4.304v1.513H0.141v-2.636c0-1.731,1.029-2.511,2.854-2.511
	c1.513,0,2.371,0.483,2.683,1.372l4.663-1.824v1.622L6.035,354.056z M4.803,354.961v-1.029c0-0.827-0.499-1.107-1.684-1.107
	c-1.248,0-1.638,0.312-1.638,1.092v1.045H4.803z"/>
<path fill="#231F20" d="M3.15,341.363h4.195c1.965,0,3.134,0.982,3.134,2.838s-1.169,2.822-3.134,2.822H3.15
	c-1.98,0-3.15-0.967-3.15-2.822S1.17,341.363,3.15,341.363z M3.15,342.891c-1.279,0-1.809,0.406-1.809,1.311
	c0,0.889,0.53,1.31,1.809,1.31h4.195c1.294,0,1.825-0.405,1.825-1.31c0-0.889-0.53-1.311-1.825-1.311H3.15z"/>
<path fill="#231F20" d="M2.261,332.007l0.375,1.154c-0.858,0.156-1.294,0.546-1.294,1.201c0,0.842,0.624,1.247,1.793,1.247h4.366
	c1.014,0,1.685-0.405,1.685-1.231c0-0.687-0.343-1.045-1.388-1.232l0.359-1.154c1.637,0.266,2.323,1.107,2.323,2.511
	c0,1.622-1.185,2.62-2.979,2.62H3.135c-1.949,0-3.135-1.014-3.135-2.651C0,333.161,0.936,332.241,2.261,332.007z"/>
<path fill="#231F20" d="M10.339,323.557l-4.522,2.012l1.216,0.702h3.306v1.481H0.141v-1.481h5.053l-5.053-2.495v-1.7l4.538,2.495
	l5.661-2.698V323.557z"/>
<path fill="#231F20" d="M7.111,314.684h3.228v1.513H7.111l-6.971,2.448v-1.669l5.302-1.543l-5.302-1.544v-1.653L7.111,314.684z"/>
<path fill="#231F20" d="M0.141,295.131h10.199v1.372H3.758l4.866,2.027v0.686l-4.866,2.012h6.581v1.373H0.141v-1.404l6.238-2.323
	l-6.238-2.339V295.131z"/>
<path fill="#231F20" d="M3.15,284.994h4.195c1.965,0,3.134,0.983,3.134,2.839s-1.169,2.822-3.134,2.822H3.15
	c-1.98,0-3.15-0.967-3.15-2.822S1.17,284.994,3.15,284.994z M3.15,286.522c-1.279,0-1.809,0.406-1.809,1.311
	c0,0.889,0.53,1.31,1.809,1.31h4.195c1.294,0,1.825-0.405,1.825-1.31c0-0.889-0.53-1.311-1.825-1.311H3.15z"/>
<path fill="#231F20" d="M0.141,274.984h7.267c1.98,0,3.072,1.014,3.072,2.822c0,1.824-1.076,2.838-3.01,2.838H0.141v-1.528H7.47
	c1.186,0,1.591-0.545,1.591-1.31c0-0.842-0.437-1.31-1.591-1.31H0.141V274.984z"/>
<path fill="#231F20" d="M0.141,269.23l6.44-3.01h-6.44v-1.325h10.199v1.029l-6.643,3.103h6.643v1.342H0.141V269.23z"/>
<path fill="#231F20" d="M0.141,255.789h1.403v1.871h8.795v1.528H1.544v1.871H0.141V255.789z"/>
<path fill="#231F20" d="M6.035,243.938v0.905h4.304v1.513H0.141v-2.636c0-1.731,1.029-2.511,2.854-2.511
	c1.513,0,2.371,0.483,2.683,1.372l4.663-1.824v1.622L6.035,243.938z M4.803,244.844v-1.029c0-0.827-0.499-1.107-1.684-1.107
	c-1.248,0-1.638,0.312-1.638,1.092v1.045H4.803z"/>
<path fill="#231F20" d="M10.339,235.831v1.528l-10.199-2.433v-1.762l10.199-2.448v1.559l-2.448,0.515v2.542L10.339,235.831z
	 M6.706,235.099v-2.074l-5.037,1.045L6.706,235.099z"/>
<path fill="#231F20" d="M0.141,223.902c0-1.824,1.185-2.869,3.181-2.869h3.852c1.98,0,3.166,1.045,3.166,2.869v2.792H0.141V223.902z
	 M1.497,223.902v1.279h7.517v-1.279c0-0.904-0.515-1.341-1.871-1.341H3.384C2.043,222.562,1.497,222.998,1.497,223.902z"/>
<path fill="#231F20" d="M0.141,214.858h10.199v1.544H0.141V214.858z"/>
<path fill="#231F20" d="M10.339,209.026v1.528l-10.199-2.433v-1.762l10.199-2.448v1.559l-2.448,0.515v2.542L10.339,209.026z
	 M6.706,208.294v-2.074l-5.037,1.045L6.706,208.294z"/>
<path fill="#231F20" d="M0.141,196.272h1.403v1.871h8.795v1.528H1.544v1.871H0.141V196.272z"/>
<path fill="#231F20" d="M3.15,186.994h4.195c1.965,0,3.134,0.982,3.134,2.839c0,1.855-1.169,2.822-3.134,2.822H3.15
	c-1.98,0-3.15-0.967-3.15-2.822C0,187.977,1.17,186.994,3.15,186.994z M3.15,188.522c-1.279,0-1.809,0.405-1.809,1.311
	c0,0.889,0.53,1.31,1.809,1.31h4.195c1.294,0,1.825-0.405,1.825-1.31c0-0.89-0.53-1.311-1.825-1.311H3.15z"/>
<path fill="#231F20" d="M6.035,180.103v0.904h4.304v1.513H0.141v-2.636c0-1.73,1.029-2.511,2.854-2.511
	c1.513,0,2.371,0.483,2.683,1.372l4.663-1.824v1.622L6.035,180.103z M4.803,181.007v-1.029c0-0.826-0.499-1.107-1.684-1.107
	c-1.248,0-1.638,0.312-1.638,1.092v1.045H4.803z"/>
<rect x="15.006" y="267.092" fill="#3E4041" width="22.178" height="1"/>
</svg>
