<?xml version="1.0" encoding="utf-8"?>
<!-- Generator: Adobe Illustrator 15.0.2, SVG Export Plug-In  -->
<!DOCTYPE svg PUBLIC "-//W3C//DTD SVG 1.1//EN" "http://www.w3.org/Graphics/SVG/1.1/DTD/svg11.dtd" [
	<!ENTITY ns_flows "http://ns.adobe.com/Flows/1.0/">
]>
<svg version="1.1"
	 xmlns="http://www.w3.org/2000/svg" xmlns:xlink="http://www.w3.org/1999/xlink" xmlns:a="http://ns.adobe.com/AdobeSVGViewerExtensions/3.0/"
	 x="0px" y="0px" width="620px" height="371px" viewBox="-3.168 -9.85 620 371"
	 overflow="visible" enable-background="new -3.168 -9.85 620 371" xml:space="preserve">
<defs>
</defs>
<path display="none" fill="#0C4167" d="M17.11,169.905c-5.037,0-8.851-4.036-8.851-9.351c0-5.221,3.814-9.21,8.851-9.21
	c2.813,0,5.901,1.585,7.989,4.128l4.674-5.538c-3.178-3.268-8.077-5.355-12.799-5.355c-9.666,0-16.974,6.9-16.974,16.066
	c0,9.307,7.126,16.339,16.704,16.339c4.672,0,9.71-2.315,13.115-5.808l-4.72-4.994C22.875,168.456,19.789,169.905,17.11,169.905"/>
<path display="none" fill="#0C4167" d="M44.707,144.852L30.999,176.62h8.307l2.315-5.852h13.887l2.269,5.852h8.626l-13.389-31.768
	H44.707z M43.98,164.64l4.63-11.756l4.536,11.756H43.98z"/>
<path display="none" fill="#0C4167" d="M97.673,155.927c0-7.085-4.809-11.075-13.206-11.075H70.261v31.77h8.078v-8.938h6.128h0.226
	l4.72,8.938h9.167l-6.67-10.486C95.63,164.279,97.673,160.784,97.673,155.927 M84.467,161.327h-6.128v-10.123h6.128
	c3.494,0,5.533,1.678,5.533,4.995C90,159.555,87.961,161.327,84.467,161.327"/>
<path display="none" fill="#0C4167" d="M118.373,144.579c-9.805,0-17.159,6.854-17.159,16.111c0,9.31,7.354,16.294,17.159,16.294
	c9.85,0,17.204-7.032,17.204-16.294C135.576,151.479,128.222,144.579,118.373,144.579 M118.463,170.225
	c-4.856,0-8.986-4.131-8.986-9.49c0-5.356,4.082-9.391,8.986-9.391c4.902,0,8.805,4.034,8.805,9.391
	C127.268,166.094,123.365,170.225,118.463,170.225"/>
<polygon display="none" fill="#0C4167" points="149.736,144.852 141.658,144.852 141.658,176.622 163.216,176.622 163.216,169.861 
	149.736,169.861 "/>
<rect x="168.891" y="144.852" display="none" fill="#0C4167" width="8.076" height="31.77"/>
<polygon display="none" fill="#0C4167" points="206.92,164.456 192.263,144.852 185.138,144.852 185.138,176.62 192.719,176.62 
	192.719,157.061 207.332,176.62 214.458,176.62 214.458,144.852 206.92,144.852 "/>
<path display="none" fill="#0C4167" d="M232.025,144.852l-13.708,31.768h8.306l2.316-5.852h13.885l2.268,5.852h8.623l-13.389-31.768
	H232.025z M231.3,164.64l4.626-11.756l4.539,11.756H231.3z"/>
<path display="none" fill="#0C4167" d="M283.129,169.905c-5.037,0-8.849-4.036-8.849-9.351c0-5.221,3.812-9.21,8.849-9.21
	c2.815,0,5.903,1.585,7.99,4.128l4.674-5.538c-3.178-3.268-8.078-5.355-12.8-5.355c-9.667,0-16.975,6.9-16.975,16.066
	c0,9.307,7.127,16.339,16.705,16.339c4.672,0,9.714-2.315,13.115-5.808l-4.719-4.994
	C288.896,168.456,285.807,169.905,283.129,169.905"/>
<polygon display="none" fill="#0C4167" points="309.409,144.852 301.332,144.852 301.332,176.622 322.891,176.622 322.891,169.861 
	309.409,169.861 "/>
<polygon display="none" fill="#0C4167" points="336.643,163.867 351.804,163.867 351.804,157.514 336.643,157.514 336.643,151.206 
	353.434,151.206 353.434,144.852 328.562,144.852 328.562,176.622 353.939,176.622 353.939,170.268 336.643,170.268 "/>
<path display="none" fill="#0C4167" d="M371.273,144.852l-13.705,31.768h8.301l2.316-5.852h13.887l2.273,5.852h8.625l-13.391-31.768
	H371.273z M370.547,164.64l4.631-11.756l4.539,11.756H370.547z"/>
<polygon display="none" fill="#0C4167" points="418.615,164.456 403.955,144.852 396.824,144.852 396.824,176.62 404.406,176.62 
	404.406,157.061 419.025,176.62 425.99,176.62 425.99,144.852 418.615,144.852 "/>
<path display="none" fill="#0C4167" d="M457.598,144.852h-13.658v31.77h13.342c10.217,0,17.203-6.492,17.203-15.887
	C474.484,151.294,467.59,144.852,457.598,144.852 M457.783,170.176h-5.764v-18.882h5.398c5.135,0,8.85,3.862,8.85,9.487
	C466.268,166.364,462.732,170.176,457.783,170.176"/>
<rect x="480.326" y="144.852" display="none" fill="#0C4167" width="8.08" height="31.77"/>
<polygon display="none" fill="#0C4167" points="504.648,163.868 519.812,163.868 519.812,157.514 504.648,157.514 504.648,151.206 
	521.447,151.206 521.447,144.852 496.568,144.852 496.568,176.622 521.943,176.622 521.943,170.268 504.648,170.268 "/>
<path display="none" fill="#0C4167" d="M537.014,153.341c0-1.545,1.406-2.315,3.494-2.315c2.588,0,6.807,1.358,10.168,3.311
	l3.043-6.307c-3.266-2.137-7.947-3.543-12.527-3.543c-7.629,0-12.666,3.725-12.666,9.576c0,11.258,16.797,7.901,16.797,13.527
	c0,1.816-1.596,2.768-4.131,2.768c-3.314,0-8.217-1.902-11.486-4.763l-3.127,6.219c3.768,3.083,9.211,5.079,14.521,5.079
	c7.078,0,12.705-3.355,12.705-9.709C553.805,155.698,537.014,158.831,537.014,153.341"/>
<polygon display="none" fill="#0C4167" points="568.104,163.868 583.266,163.868 583.266,157.514 568.104,157.514 568.104,151.206 
	584.9,151.206 584.9,144.852 560.023,144.852 560.023,176.622 585.395,176.622 585.395,170.268 568.104,170.268 "/>
<polygon display="none" fill="#0C4167" points="600.18,169.861 600.18,144.852 592.104,144.852 592.104,176.622 613.664,176.622 
	613.664,169.861 "/>
<rect x="4.583" y="83.035" display="none" fill="#0C4167" width="421.408" height="46.733"/>
<path display="none" fill="#0C4167" d="M596.867,129.766c2.057,0,3.826-0.76,4.988-2.138c1.152-1.385,1.596-3.264,1.238-5.289
	l-6.334-35.772c-0.295-1.63-1.678-3.042-3.275-3.533H443.855v46.731H596.867z"/>
<rect x="4.583" y="30.905" display="none" fill="#377FC0" width="421.408" height="46.474"/>
<path display="none" fill="#377FC0" d="M534.141,34.662c-0.398-2.036-2.492-3.757-4.564-3.757h-85.721v46.474h98.734L534.141,34.662
	z"/>
<path display="none" fill="#85C6ED" d="M476.826,3.694c-0.297-2-2.258-3.694-4.277-3.694h-28.693v25.195H480L476.826,3.694z"/>
<rect x="4.583" display="none" fill="#85C6ED" width="421.408" height="25.194"/>
<path display="none" fill="#85C6ED" d="M171.813,247.298c11.385,0,23.88,6.428,32.334,16.712l18.915-22.411
	c-12.859-13.218-32.691-21.665-51.796-21.665c-31.333,0-56.529,17.924-65.32,44.119h35.7
	C147.906,253.856,158.849,247.298,171.813,247.298"/>
<path display="none" fill="#0C4167" d="M170.159,351.063c18.927,0,39.314-9.373,53.087-23.514l-19.101-20.201
	c-9.002,9.186-21.491,15.06-32.33,15.06c-12.368,0-22.896-6.042-29.275-15.588h-36.448
	C114.874,333.084,139.384,351.063,170.159,351.063"/>
<path display="none" fill="#0C4167" d="M300.93,351.063c18.915,0,39.303-9.373,53.075-23.514l-19.1-20.201
	c-8.991,9.186-21.492,15.06-32.322,15.06c-12.379,0-22.896-6.042-29.283-15.588h-36.448
	C245.643,333.084,270.146,351.063,300.93,351.063"/>
<path display="none" fill="#85C6ED" d="M302.583,247.298c11.387,0,23.88,6.428,32.322,16.712l18.914-22.411
	c-12.854-13.218-32.685-21.665-51.784-21.665c-31.343,0-56.526,17.924-65.319,44.119h35.699
	C278.669,253.856,289.611,247.298,302.583,247.298"/>
<path display="none" fill="#0C4167" d="M428.574,323.515h-23.321V306.82h-32.697v42.771h53.99c32.965,0,57.603-16.719,66.238-42.771
	h-35.13C451.758,317.225,441.336,323.515,428.574,323.515"/>
<path display="none" fill="#85C6ED" d="M405.253,247.115h21.849c13.263,0,24.178,6.392,30.344,16.938h35.493
	c-8.415-26.281-32.742-43.021-65.105-43.021h-55.277v43.021h32.697V247.115z"/>
<path display="none" fill="#377FC0" d="M141.646,264.053h-35.698c-2.184,6.506-3.368,13.514-3.368,20.892
	c0,7.739,1.242,15.077,3.512,21.875h36.449c-4.127-6.174-6.541-13.8-6.541-22.237C136.001,276.893,138.068,269.881,141.646,264.053"
	/>
<path display="none" fill="#377FC0" d="M272.415,264.053h-35.696c-2.183,6.506-3.377,13.514-3.377,20.892
	c0,7.739,1.24,15.077,3.51,21.875H273.3c-4.117-6.174-6.529-13.8-6.529-22.237C266.771,276.893,268.829,269.881,272.415,264.053"/>
<path display="none" fill="#377FC0" d="M492.938,264.053h-35.493c3.488,5.958,5.47,13.218,5.47,21.442
	c0,8.19-1.901,15.415-5.258,21.324h35.127c2.194-6.611,3.368-13.814,3.368-21.509C496.152,277.705,495.035,270.59,492.938,264.053"
	/>
<rect x="372.556" y="264.053" display="none" fill="#377FC0" width="32.697" height="42.767"/>
<path fill="#471816" d="M308.869,175.969c5.531,0,9.938-4.658,9.938-10.706c0-6.047-4.406-10.602-9.938-10.602
	c-5.538,0-10.149,4.555-10.149,10.602C298.72,171.311,303.382,175.969,308.869,175.969"/>
<path fill="#471816" d="M158.298,135.295H88.082l12.262,54.677c0.584,2.611,3.633,4.817,6.635,4.817h51.319h2.683h346.035
	c3.002,0,6.052-2.206,6.63-4.817l12.264-54.677H160.981H158.298z M331.768,147.286h9.988l9.73,21.361l9.734-21.361h9.938v35.911
	h-8.043l-0.052-23.309l-8.604,19.72h-5.945l-8.604-19.72v23.309h-8.142V147.286z M308.764,147.032
	c11.116,0,19.414,7.783,19.414,18.183c0,10.455-8.298,18.392-19.414,18.392c-11.065,0-19.361-7.893-19.361-18.392
	C289.402,154.767,297.698,147.032,308.764,147.032 M273.728,147.032c5.326,0,10.859,2.355,14.442,6.045l-5.274,6.242
	c-2.356-2.864-5.841-4.657-9.015-4.657c-5.69,0-9.99,4.512-9.99,10.396c0,6,4.3,10.557,9.99,10.557c3.027,0,6.502-1.635,9.015-4.2
	l5.33,5.633c-3.844,3.947-9.528,6.559-14.804,6.559c-10.814,0-18.854-7.937-18.854-18.441
	C254.567,154.815,262.821,147.032,273.728,147.032 M247.084,175.047c2.516,0,4.31,1.747,4.31,4.255c0,2.558-1.794,4.304-4.31,4.304
	c-2.506,0-4.248-1.746-4.248-4.304C242.836,176.794,244.578,175.047,247.084,175.047"/>
<polygon fill="#CA312A" points="231.291,22.434 226.064,35.703 236.413,35.703 "/>
<path fill="#CA312A" d="M357.815,31.351c0-6.354-4.2-10.707-9.989-10.707h-6.097V41.96h6.507
	C353.817,41.96,357.815,37.65,357.815,31.351"/>
<path fill="#CA312A" d="M160.981,59.931H525.91L513.646,5.25c-0.578-2.606-3.628-4.814-6.63-4.814H160.981h-2.683h-51.319
	c-3.002,0-6.051,2.208-6.635,4.814L88.082,59.931h70.216H160.981z M447.305,13.37l8.657,15.623l8.453-15.623h9.118l-13.009,24.281
	v11.58h-9.066V37.91l-13.275-24.54H447.305z M407.502,13.317h30.64v7.38h-10.812v28.534h-9.118V20.697h-10.709V13.317z
	 M371.286,13.37h9.115v20.8c0,4.867,3.13,7.835,7.481,7.835c4.306,0,7.223-2.968,7.223-7.835v-20.8h9.069v20.8
	c0,9.477-6.302,15.467-16.343,15.467c-10.09,0-16.546-5.991-16.546-15.467V13.37z M332.614,13.37h15.412
	c11.272,0,19.058,7.274,19.058,17.93c0,10.608-7.89,17.932-19.416,17.932h-15.054V13.37z M254.647,13.37l9.169,26.381l9.169-26.381
	h9.063h0.311h8.81l8.659,15.623l8.449-15.623h9.12L304.39,37.651v11.58h-9.072V37.91L282.23,13.702l-13.959,35.529h-9.425
	L244.909,13.37H254.647z M226.885,13.37h9.37l15.116,35.861h-9.736l-2.558-6.606h-15.675l-2.613,6.606h-9.38L226.885,13.37z
	 M180.728,13.37H208.8v7.176h-18.951v7.121h17.107v7.169h-17.107v7.22h19.52v7.176h-28.641V13.37z M149.587,35.297v13.934h-9.118
	V13.37h9.118v14.758l14.85-0.034V13.37h9.126v14.724h3.599v7.188h-3.599v13.95h-9.126V35.297H149.587z"/>
<polygon fill="#FFFFFF" points="164.437,35.297 164.437,49.231 173.562,49.231 173.562,35.281 177.16,35.281 177.16,28.094 
	173.562,28.094 173.562,13.37 164.437,13.37 164.437,28.094 149.587,28.127 149.587,13.37 140.471,13.37 140.471,49.231 
	149.587,49.231 149.587,35.297 "/>
<polygon fill="#FFFFFF" points="209.369,42.057 189.849,42.057 189.849,34.835 206.957,34.835 206.957,27.666 189.849,27.666 
	189.849,20.542 208.8,20.542 208.8,13.37 180.728,13.37 180.728,49.231 209.369,49.231 "/>
<path fill="#FFFFFF" d="M223.4,42.624h15.676l2.558,6.608h9.736L236.257,13.37h-9.372l-15.476,35.862h9.38L223.4,42.624z
	 M231.291,22.434l5.123,13.269h-10.349L231.291,22.434z"/>
<polygon fill="#FFFFFF" points="268.271,49.231 282.23,13.702 295.318,37.91 295.318,49.231 304.39,49.231 304.39,37.65 
	317.401,13.37 308.278,13.37 299.829,28.993 291.17,13.37 282.36,13.37 282.051,13.37 272.985,13.37 263.815,39.751 254.647,13.37 
	244.909,13.37 258.846,49.231 "/>
<path fill="#FFFFFF" d="M367.086,31.299c0-10.655-7.787-17.931-19.06-17.931h-15.412v35.862h15.054
	C359.196,49.231,367.086,41.91,367.086,31.299 M341.729,20.644h6.097c5.789,0,9.989,4.353,9.989,10.707
	c0,6.3-3.998,10.609-9.579,10.609h-6.507V20.644z"/>
<path fill="#FFFFFF" d="M387.832,49.637c10.044,0,16.343-5.991,16.343-15.464V13.37h-9.069v20.803c0,4.864-2.915,7.832-7.223,7.832
	c-4.352,0-7.481-2.968-7.481-7.832V13.37h-9.115v20.803C371.286,43.646,377.745,49.637,387.832,49.637"/>
<polygon fill="#FFFFFF" points="418.211,49.231 427.329,49.231 427.329,20.696 438.142,20.696 438.142,13.318 407.5,13.318 
	407.5,20.696 418.211,20.696 "/>
<polygon fill="#FFFFFF" points="451.457,49.231 460.521,49.231 460.521,37.65 473.533,13.37 464.418,13.37 455.962,28.993 
	447.305,13.37 438.183,13.37 451.457,37.91 "/>
<path fill="#982620" d="M191.798,87.678c-5.538,0-10.147,4.557-10.147,10.601c0,6.054,4.662,10.707,10.147,10.707
	c5.526,0,9.937-4.653,9.937-10.707C201.735,92.235,197.324,87.678,191.798,87.678"/>
<path fill="#982620" d="M366.27,87.528h-6.046V98.95h6.046c3.995,0,6.294-2,6.294-5.79C372.563,89.424,370.265,87.528,366.27,87.528
	"/>
<path fill="#982620" d="M151.22,87.678c-5.534,0-10.143,4.557-10.143,10.601c0,6.054,4.664,10.707,10.143,10.707
	c5.537,0,9.938-4.653,9.938-10.707C161.158,92.235,156.757,87.678,151.22,87.678"/>
<path fill="#982620" d="M436.702,87.528h-6.917V98.95h6.917c3.944,0,6.249-2,6.249-5.79
	C442.951,89.424,440.646,87.528,436.702,87.528"/>
<path fill="#982620" d="M533.413,95.39l-5.065-26.95H85.314l-5.062,26.95c-0.275,1.449-0.275,3.804,0.003,5.264l5.058,26.731
	h443.033l5.063-26.731C533.686,99.194,533.686,96.839,533.413,95.39 M115.774,116.624c-10.811,0-18.85-7.936-18.85-18.441
	c0-10.353,8.248-18.133,19.155-18.133c5.328,0,10.864,2.352,14.446,6.043l-5.275,6.247c-2.355-2.867-5.837-4.662-9.014-4.662
	c-5.688,0-9.989,4.514-9.989,10.4c0,5.994,4.301,10.552,9.989,10.552c3.023,0,6.507-1.637,9.014-4.204l5.326,5.641
	C126.737,114.004,121.049,116.624,115.774,116.624 M151.121,116.624c-11.065,0-19.365-7.891-19.365-18.389
	c0-10.454,8.3-18.186,19.365-18.186c11.117,0,19.411,7.78,19.411,18.186C170.532,108.688,162.237,116.624,151.121,116.624
	 M191.691,116.624c-11.065,0-19.368-7.891-19.368-18.389c0-10.454,8.303-18.186,19.368-18.186c11.117,0,19.414,7.78,19.414,18.186
	C211.105,108.688,202.808,116.624,191.691,116.624 M240.251,116.215h-24.33V80.351h9.115v28.229h15.214V116.215z M253.721,116.215
	h-9.117V80.351h9.117V116.215z M293.988,116.215h-8.044l-16.496-22.077v22.077h-8.548V80.351h8.036l16.546,22.133V80.351h8.506
	V116.215z M318.628,108.985c1.845,0,4.197-0.666,6.352-1.735v-9.269h7.89v13.982c-3.845,2.716-9.89,4.661-14.911,4.661
	c-10.904,0-19.153-7.891-19.153-18.345c0-10.396,8.453-18.229,19.775-18.229c5.325,0,10.96,2.047,14.648,5.327l-5.123,6.196
	c-2.616-2.412-6.251-3.895-9.58-3.895c-5.893,0-10.399,4.61-10.399,10.601C308.126,104.377,312.684,108.985,318.628,108.985
	 M360.226,106.122v10.093h-9.12V80.351h15.622c9.169,0,14.448,4.513,14.448,12.504c0,8.401-5.279,13.266-14.448,13.266H360.226z
	 M407.605,116.215l-2.562-6.61h-15.676l-2.61,6.61h-9.371l15.466-35.864h9.375l15.114,35.864H407.605z M442.288,116.215
	l-5.328-10.093h-0.258h-6.917v10.093h-9.12V80.351h16.037c9.478,0,14.904,4.513,14.904,12.504c0,5.476-2.306,9.42-6.507,11.521
	l7.533,11.838H442.288z M485.165,87.678h-10.811v28.537h-9.117V87.678h-10.705v-7.381h30.633V87.678z M502.729,116.521
	c-5.992,0-12.14-2.252-16.393-5.737l3.533-7.02c3.691,3.229,9.225,5.379,12.964,5.379c2.871,0,4.66-1.075,4.66-3.124
	c0-6.354-18.954-2.562-18.954-15.269c0-6.602,5.689-10.81,14.294-10.81c5.176,0,10.451,1.588,14.137,3.998l-3.433,7.118
	c-3.79-2.203-8.554-3.736-11.473-3.736c-2.356,0-3.939,0.874-3.939,2.612c0,6.198,18.948,2.661,18.948,15.629
	C517.074,112.732,510.728,116.521,502.729,116.521"/>
<polygon fill="#982620" points="392.031,102.689 402.381,102.689 397.258,89.424 "/>
<path fill="#FFFFFF" d="M116.238,108.63c-5.691,0-9.992-4.558-9.992-10.552c0-5.887,4.301-10.4,9.992-10.4
	c3.174,0,6.656,1.794,9.011,4.662l5.275-6.246c-3.583-3.692-9.118-6.044-14.447-6.044c-10.906,0-19.153,7.78-19.153,18.133
	c0,10.506,8.036,18.438,18.849,18.438c5.275,0,10.963-2.614,14.803-6.553l-5.327-5.641
	C122.742,106.993,119.259,108.63,116.238,108.63"/>
<path fill="#FFFFFF" d="M151.121,80.049c-11.065,0-19.365,7.732-19.365,18.186c0,10.496,8.3,18.386,19.365,18.386
	c11.117,0,19.411-7.933,19.411-18.386C170.532,87.828,162.237,80.049,151.121,80.049 M151.22,108.985
	c-5.479,0-10.143-4.656-10.143-10.706c0-6.044,4.609-10.604,10.143-10.604c5.537,0,9.938,4.56,9.938,10.604
	C161.158,104.329,156.757,108.985,151.22,108.985"/>
<path fill="#FFFFFF" d="M191.691,80.049c-11.065,0-19.368,7.732-19.368,18.186c0,10.496,8.303,18.386,19.368,18.386
	c11.117,0,19.414-7.933,19.414-18.386C211.105,87.828,202.808,80.049,191.691,80.049 M191.798,108.985
	c-5.486,0-10.147-4.656-10.147-10.706c0-6.044,4.61-10.604,10.147-10.604c5.526,0,9.937,4.56,9.937,10.604
	C201.735,104.329,197.324,108.985,191.798,108.985"/>
<polygon fill="#FFFFFF" points="225.04,80.35 215.921,80.35 215.921,116.215 240.251,116.215 240.251,108.581 225.04,108.581 "/>
<rect x="244.603" y="80.35" fill="#FFFFFF" width="9.117" height="35.865"/>
<polygon fill="#FFFFFF" points="285.481,102.484 268.934,80.35 260.898,80.35 260.898,116.215 269.45,116.215 269.45,94.138 
	285.946,116.215 293.988,116.215 293.988,80.35 285.481,80.35 "/>
<path fill="#FFFFFF" d="M318.527,87.678c3.327,0,6.962,1.483,9.581,3.893l5.12-6.194c-3.691-3.28-9.323-5.327-14.651-5.327
	c-11.318,0-19.772,7.833-19.772,18.229c0,10.453,8.248,18.342,19.153,18.342c5.021,0,11.064-1.942,14.911-4.658V97.981h-7.89v9.271
	c-2.151,1.069-4.507,1.732-6.354,1.732c-5.942,0-10.5-4.608-10.5-10.707C308.126,92.288,312.633,87.678,318.527,87.678"/>
<path fill="#FFFFFF" d="M381.176,92.855c0-7.991-5.279-12.504-14.448-12.504h-15.622v35.866h9.118v-10.099h6.504
	C375.896,106.119,381.176,101.256,381.176,92.855 M366.27,98.95h-6.046V87.528h6.046c3.995,0,6.294,1.893,6.294,5.632
	C372.563,96.951,370.265,98.95,366.27,98.95"/>
<path fill="#FFFFFF" d="M392.852,80.351l-15.466,35.866h9.371l2.61-6.613h15.676l2.562,6.613h9.733l-15.112-35.866H392.852z
	 M392.031,102.689l5.227-13.265l5.123,13.265H392.031z"/>
<path fill="#FFFFFF" d="M451.606,92.855c0-7.991-5.427-12.504-14.904-12.504h-16.037v35.866h9.12v-10.099h6.917h0.258l5.326,10.099
	h10.347l-7.533-11.84C449.301,102.279,451.606,98.33,451.606,92.855 M436.702,98.95h-6.917V87.528h6.917
	c3.944,0,6.249,1.893,6.249,5.632C442.951,96.951,440.646,98.95,436.702,98.95"/>
<polygon fill="#FFFFFF" points="454.53,87.678 465.237,87.678 465.237,116.215 474.354,116.215 474.354,87.678 485.165,87.678 
	485.165,80.297 454.53,80.297 "/>
<path fill="#FFFFFF" d="M498.126,89.934c0-1.74,1.583-2.61,3.939-2.61c2.919,0,7.683,1.533,11.473,3.733l3.433-7.115
	c-3.686-2.412-8.961-4-14.137-4c-8.604,0-14.294,4.208-14.294,10.81c0,12.706,18.954,8.916,18.954,15.269
	c0,2.049-1.789,3.122-4.66,3.122c-3.739,0-9.272-2.148-12.961-5.377l-3.539,7.02c4.256,3.485,10.403,5.737,16.396,5.737
	c7.998,0,14.345-3.789,14.345-10.958C517.074,92.593,498.126,96.13,498.126,89.934"/>
<path fill="#FFFFFF" d="M247.084,183.606c2.516,0,4.31-1.746,4.31-4.304c0-2.508-1.794-4.255-4.31-4.255
	c-2.506,0-4.248,1.747-4.248,4.255C242.836,181.86,244.578,183.606,247.084,183.606"/>
<path fill="#FFFFFF" d="M273.421,183.606c5.276,0,10.96-2.611,14.801-6.559l-5.326-5.633c-2.514,2.564-5.989,4.2-9.016,4.2
	c-5.69,0-9.99-4.557-9.99-10.557c0-5.888,4.3-10.397,9.99-10.397c3.174,0,6.658,1.794,9.016,4.659l5.276-6.243
	c-3.586-3.689-9.119-6.045-14.445-6.045c-10.907,0-19.16,7.782-19.16,18.131C254.567,175.667,262.605,183.606,273.421,183.606"/>
<path fill="#FFFFFF" d="M308.764,183.606c11.116,0,19.414-7.937,19.414-18.392c0-10.399-8.298-18.183-19.414-18.183
	c-11.065,0-19.359,7.735-19.359,18.183C289.404,175.71,297.698,183.606,308.764,183.606 M308.869,154.662
	c5.531,0,9.938,4.553,9.938,10.602c0,6.048-4.406,10.706-9.938,10.706c-5.487,0-10.149-4.658-10.149-10.706
	C298.72,159.214,303.332,154.662,308.869,154.662"/>
<polygon fill="#FFFFFF" points="339.909,159.888 348.514,179.608 354.459,179.608 363.063,159.888 363.115,183.197 371.161,183.197 
	371.161,147.286 361.221,147.286 351.484,168.647 341.756,147.286 331.765,147.286 331.765,183.197 339.909,183.197 "/>
<rect x="72.65" y="286.276" fill="#471816" width="12.843" height="16.647"/>
<rect x="106.421" y="252.401" fill="#CA312A" width="12.85" height="16.647"/>
<rect x="72.65" y="252.401" fill="#CA312A" width="12.843" height="16.647"/>
<rect x="106.424" y="286.276" fill="#471816" width="12.848" height="16.647"/>
<polygon fill="#982620" points="119.271,269.048 106.424,269.048 106.424,273.139 91.936,273.139 91.936,273.19 85.493,273.19 
	85.493,269.048 72.65,269.048 72.65,286.276 85.493,286.276 85.493,283.294 106.424,283.294 106.424,286.276 119.271,286.276 
	119.271,283.282 124.343,283.282 124.343,273.139 119.271,273.139 "/>
<polygon fill="#471816" points="142.22,286.276 129.373,286.276 129.373,302.923 169.715,302.923 169.715,292.819 142.22,292.819 
	"/>
<polygon fill="#982620" points="142.22,282.645 166.323,282.645 166.323,272.54 142.22,272.54 142.22,269.048 129.373,269.048 
	129.373,286.276 142.22,286.276 "/>
<polygon fill="#CA312A" points="142.22,262.507 168.924,262.507 168.924,252.401 129.373,252.401 129.373,269.048 142.22,269.048 
	"/>
<polygon fill="#CA312A" points="200.602,265.179 202.098,269.048 214.62,269.048 207.603,252.401 194.396,252.401 187.211,269.048 
	199.078,269.048 "/>
<polygon fill="#982620" points="214.62,269.048 202.098,269.048 207.819,283.871 193.238,283.871 199.078,269.048 187.213,269.048 
	179.783,286.276 221.881,286.276 "/>
<polygon fill="#471816" points="179.782,286.276 172.597,302.923 185.81,302.923 189.485,293.615 211.57,293.615 215.183,302.923 
	228.896,302.923 221.881,286.276 "/>
<polygon fill="#CA312A" points="233.511,252.401 219.795,252.401 226.267,269.048 239.294,269.048 "/>
<polygon fill="#CA312A" points="259.345,252.401 253.561,269.048 266.014,269.048 272.371,252.87 272.119,252.401 "/>
<polygon fill="#471816" points="246.428,289.574 245.284,286.276 232.958,286.276 239.428,302.923 252.707,302.923 259.249,286.276 
	247.573,286.276 "/>
<polygon fill="#982620" points="247.573,286.276 259.249,286.276 266.016,269.048 253.561,269.048 "/>
<polygon fill="#982620" points="239.294,269.048 226.267,269.048 232.958,286.276 245.284,286.276 "/>
<polygon fill="#CA312A" points="300.064,269.048 312.993,269.048 321.916,252.401 309.068,252.401 "/>
<polygon fill="#CA312A" points="284.963,252.401 272.555,252.401 272.371,252.87 281.117,269.048 294.189,269.048 "/>
<polygon fill="#982620" points="297.162,274.413 294.189,269.048 281.117,269.048 290.43,286.276 303.764,286.276 312.993,269.048 
	300.064,269.048 "/>
<polygon fill="#471816" points="290.811,286.975 290.811,302.923 303.582,302.923 303.582,286.611 303.764,286.276 290.433,286.276 
	"/>
<polygon fill="#471816" points="272.116,252.401 272.371,252.87 272.555,252.401 "/>
<path fill="#CA312A" d="M356.193,262.65h8.589c5.104,0,9.336,2.404,11.782,6.398h14.003c-3.384-10.176-12.889-16.647-25.495-16.647
	h-21.729v16.647h12.85V262.65z"/>
<path fill="#982620" d="M376.567,269.048c1.458,2.39,2.288,5.34,2.288,8.688c0,3.289-0.774,6.187-2.149,8.539h13.837
	c0.895-2.642,1.374-5.527,1.374-8.616c0-3.088-0.473-5.971-1.35-8.611H376.567z"/>
<path fill="#471816" d="M365.358,292.674h-9.165v-6.398h-12.848v16.649h21.223c12.884,0,22.534-6.502,25.978-16.649h-13.841
	C374.37,290.271,370.311,292.674,365.358,292.674"/>
<rect x="343.346" y="269.048" fill="#982620" width="12.848" height="17.228"/>
<path fill="#982620" d="M431.395,281.706c0,1.694-0.254,3.223-0.726,4.57h13.12c0.243-1.448,0.378-2.975,0.378-4.57v-12.657h-12.772
	V281.706z"/>
<rect x="431.395" y="252.401" fill="#CA312A" width="12.772" height="16.647"/>
<path fill="#982620" d="M410.681,281.706v-12.657h-12.848v12.657c0,1.596,0.138,3.122,0.391,4.57h13.229
	C410.95,284.928,410.681,283.4,410.681,281.706"/>
<path fill="#471816" d="M421.218,292.747c-4.619,0-8.257-2.372-9.766-6.471h-13.229c1.868,10.673,10.408,17.223,22.925,17.223
	c12.451,0,20.811-6.55,22.638-17.223h-13.117C429.236,290.375,425.779,292.747,421.218,292.747"/>
<rect x="397.833" y="252.401" fill="#CA312A" width="12.848" height="16.647"/>
<rect x="463.937" y="286.276" fill="#471816" width="12.849" height="16.647"/>
<rect x="463.937" y="269.048" fill="#982620" width="12.849" height="17.228"/>
<polygon fill="#CA312A" points="448.856,262.722 463.937,262.722 463.937,269.048 476.788,269.048 476.788,262.722 492.015,262.722 
	492.015,252.332 448.856,252.332 "/>
<polygon fill="#CA312A" points="504.928,252.401 492.082,252.401 501.085,269.048 514.151,269.048 "/>
<polygon fill="#471816" points="510.776,286.975 510.776,302.923 523.549,302.923 523.549,286.611 523.729,286.276 510.397,286.276 
	"/>
<polygon fill="#982620" points="517.126,274.413 514.153,269.048 501.085,269.048 510.397,286.276 523.729,286.276 532.958,269.048 
	520.029,269.048 "/>
<polygon fill="#CA312A" points="520.029,269.048 532.961,269.048 541.881,252.401 529.036,252.401 "/>
<path fill="#461917" d="M88.217,343.828c-2.896,0-5.363-1.396-6.88-3.606c-1.02-1.483-1.619-3.322-1.619-5.374
	c0-1.893,0.521-3.613,1.432-5.021c1.498-2.336,4.051-3.824,7.067-3.824c2.646,0,5.535,1.467,7.537,3.824
	c0.04,0.048,0.087,0.091,0.133,0.14l0.116-0.14l4.372-5.177c-3.051-3.136-7.759-5.139-12.292-5.139
	c-7.37,0-13.312,4.18-15.444,10.315c-0.549,1.584-0.855,3.303-0.855,5.111c0,1.873,0.307,3.646,0.868,5.284
	c2.108,6.182,7.906,10.405,15.172,10.405c4.491,0,9.326-2.224,12.594-5.581l-4.53-4.793
	C93.752,342.431,90.787,343.828,88.217,343.828"/>
<path fill="#461917" d="M117.89,319.51c-7.474,0-13.462,4.15-15.611,10.315c-0.556,1.596-0.859,3.322-0.859,5.152
	c0,1.855,0.309,3.618,0.878,5.245c2.163,6.189,8.139,10.4,15.592,10.4c7.482,0,13.463-4.231,15.633-10.4
	c0.575-1.629,0.885-3.39,0.885-5.245c0-1.825-0.304-3.555-0.87-5.152C131.387,323.68,125.395,319.51,117.89,319.51 M124.959,340.223
	c-1.519,2.38-4.062,3.909-6.98,3.909c-2.891,0-5.511-1.529-7.085-3.909c-0.967-1.461-1.544-3.245-1.544-5.2
	c0-1.969,0.577-3.751,1.555-5.197c1.567-2.344,4.172-3.824,7.075-3.824c2.906,0,5.442,1.48,6.961,3.824
	c0.941,1.446,1.493,3.229,1.493,5.197C126.433,336.978,125.889,338.762,124.959,340.223"/>
<path fill="#461917" d="M152.404,319.51c-7.476,0-13.462,4.15-15.611,10.315c-0.558,1.596-0.859,3.322-0.859,5.152
	c0,1.855,0.308,3.618,0.876,5.245c2.165,6.189,8.138,10.4,15.594,10.4c7.485,0,13.459-4.231,15.632-10.4
	c0.573-1.629,0.888-3.39,0.888-5.245c0-1.825-0.31-3.555-0.87-5.155C165.897,323.68,159.908,319.51,152.404,319.51 M159.472,340.223
	c-1.515,2.38-4.063,3.909-6.979,3.909c-2.892,0-5.513-1.529-7.087-3.909c-0.964-1.461-1.542-3.245-1.542-5.2
	c0-1.969,0.577-3.751,1.553-5.197c1.567-2.344,4.173-3.824,7.076-3.824c2.906,0,5.442,1.48,6.96,3.821
	c0.941,1.449,1.494,3.231,1.494,5.2C160.946,336.978,160.403,338.762,159.472,340.223"/>
<polygon fill="#461917" points="180.77,340.223 180.77,329.823 180.77,319.767 173.015,319.767 173.015,329.823 173.015,340.223 
	173.015,350.277 193.715,350.277 193.715,343.782 180.77,343.782 "/>
<polygon fill="#461917" points="197.416,329.823 197.416,340.223 197.416,350.277 205.173,350.277 205.173,340.223 205.173,329.823 
	205.173,319.767 197.416,319.767 "/>
<polygon fill="#461917" points="232.192,329.823 232.192,338.596 225.634,329.823 218.115,319.767 211.277,319.767 211.277,329.823 
	211.277,340.223 211.277,350.277 218.551,350.277 218.551,340.223 218.551,331.495 225.073,340.223 232.585,350.277 
	239.426,350.277 239.426,340.223 239.426,329.823 239.426,319.767 232.192,319.767 "/>
<path fill="#461917" d="M260.3,326.001c2.832,0,5.929,1.264,8.15,3.311l4.354-5.272c-3.134-2.79-7.928-4.529-12.46-4.529
	c-7.621,0-13.719,4.18-15.929,10.312c-0.58,1.613-0.893,3.356-0.893,5.198c0,1.845,0.302,3.587,0.865,5.2
	c2.142,6.182,8.069,10.405,15.429,10.405c4.272,0,9.415-1.661,12.683-3.969v-6.437v-5.458h-6.713v5.458v2.428
	c-1.83,0.916-3.83,1.48-5.401,1.48c-3.142,0-5.832-1.517-7.408-3.908c-0.966-1.456-1.524-3.235-1.524-5.2
	c0-1.96,0.571-3.742,1.553-5.198C254.579,327.49,257.211,326.001,260.3,326.001"/>
<path fill="#461917" d="M313.591,330.402c0-0.195-0.019-0.387-0.026-0.579c-0.246-6.432-4.691-10.056-12.264-10.056h-13.288v10.056
	v10.4v10.054h7.758v-8.585h5.53c2.718,0,5.02-0.517,6.883-1.469C311.674,338.429,313.591,335.062,313.591,330.402 M300.912,335.587
	h-5.142v-5.765v-3.953h5.142c3.082,0,4.972,1.333,5.302,3.953c0.037,0.269,0.058,0.545,0.058,0.842
	C306.272,333.887,304.31,335.587,300.912,335.587"/>
<path fill="#461917" d="M335.737,329.823l-4.231-10.056h-7.977l-4.338,10.056l-4.486,10.4l-4.338,10.051h7.976l2.22-5.621h13.34
	l2.172,5.621h8.284l-4.236-10.051L335.737,329.823z M322.826,338.772l3.525-8.949l0.926-2.339l0.902,2.339l3.454,8.949H322.826z"/>
<path fill="#461917" d="M367.978,340.207c3.575-1.784,5.533-5.141,5.533-9.805c0-0.195-0.02-0.387-0.021-0.579
	c-0.269-6.432-4.837-10.056-12.658-10.056h-13.645v10.056v10.4v10.054h7.755v-8.585h5.89h0.218l4.53,8.585h8.804l-6.4-10.054
	L367.978,340.207z M360.831,335.587h-5.89v-5.765v-3.953h5.89c3.045,0,4.931,1.333,5.256,3.953c0.034,0.269,0.056,0.545,0.056,0.842
	C366.143,333.887,364.188,335.587,360.831,335.587"/>
<polygon fill="#461917" points="375.996,326.001 385.102,326.001 385.102,329.823 385.102,340.221 385.102,350.274 392.859,350.274 
	392.859,340.221 392.859,329.823 392.859,326.001 402.057,326.001 402.057,319.724 375.996,319.724 "/>
<path fill="#461917" d="M414.08,329.823c-0.629-0.499-1.003-1.106-1.003-1.904c0-1.482,1.35-2.224,3.355-2.224
	c2.48,0,6.531,1.31,9.762,3.184l2.922-6.057c-3.144-2.047-7.628-3.399-12.03-3.399c-7.322,0-12.16,3.573-12.16,9.195
	c0,0.424,0.034,0.821,0.082,1.205c1.046,8.383,13.096,7.038,15.591,10.4c0.287,0.392,0.451,0.842,0.451,1.379
	c0,1.744-1.526,2.657-3.964,2.657c-2.97,0-7.264-1.594-10.374-4.036c-0.227-0.173-0.442-0.356-0.653-0.538l-0.271,0.538
	l-2.734,5.432c3.619,2.966,8.85,4.882,13.942,4.882c6.801,0,12.203-3.226,12.203-9.327c0-0.343-0.013-0.671-0.046-0.986
	C428.359,331.909,417.467,332.5,414.08,329.823"/>
<path fill="#461917" d="M435.649,343.348c-2.136,0-3.623,1.48-3.623,3.619c0,2.177,1.487,3.659,3.623,3.659
	c2.137,0,3.657-1.482,3.657-3.659C439.307,344.829,437.786,343.348,435.649,343.348"/>
<path fill="#461917" d="M458.443,343.828c-2.896,0-5.363-1.396-6.883-3.606c-1.021-1.483-1.617-3.322-1.617-5.374
	c0-1.893,0.521-3.613,1.43-5.021c1.502-2.336,4.053-3.824,7.07-3.824c2.643,0,5.531,1.467,7.532,3.824
	c0.044,0.048,0.092,0.091,0.132,0.14l0.126-0.14l4.361-5.177c-3.05-3.134-7.754-5.139-12.288-5.139
	c-7.373,0-13.315,4.18-15.443,10.315c-0.555,1.584-0.85,3.303-0.85,5.111c0,1.873,0.297,3.646,0.863,5.284
	c2.107,6.182,7.901,10.405,15.174,10.405c4.484,0,9.323-2.224,12.595-5.581l-4.538-4.793
	C463.975,342.431,461.012,343.828,458.443,343.828"/>
<path fill="#461917" d="M488.114,319.51c-7.474,0-13.467,4.15-15.615,10.312c-0.554,1.599-0.858,3.325-0.858,5.155
	c0,1.855,0.312,3.618,0.88,5.245c2.163,6.189,8.14,10.4,15.594,10.4c7.483,0,13.457-4.231,15.63-10.4
	c0.573-1.629,0.887-3.39,0.887-5.245c0-1.825-0.309-3.555-0.873-5.155C501.605,323.68,495.619,319.51,488.114,319.51
	 M495.183,340.223c-1.519,2.38-4.064,3.909-6.981,3.909c-2.893,0-5.507-1.529-7.083-3.909c-0.967-1.461-1.546-3.245-1.546-5.2
	c0-1.969,0.579-3.751,1.549-5.2c1.573-2.341,4.175-3.821,7.08-3.821c2.899,0,5.443,1.48,6.96,3.821
	c0.945,1.449,1.497,3.231,1.497,5.2C496.658,336.978,496.111,338.762,495.183,340.223"/>
<polygon fill="#461917" points="532.734,319.724 528.137,329.823 524.455,337.897 520.776,329.823 516.177,319.724 507.681,319.724 
	507.681,329.823 507.681,340.223 507.681,350.277 514.604,350.277 514.604,340.223 514.604,330.447 518.872,340.223 
	521.926,347.222 526.984,347.222 530.039,340.223 534.301,330.447 534.327,340.223 534.352,350.277 541.193,350.277 
	541.193,340.223 541.193,329.823 541.193,319.724 "/>
</svg>
