<?xml version="1.0" encoding="utf-8"?>
<!-- Generator: Adobe Illustrator 15.0.2, SVG Export Plug-In  -->
<!DOCTYPE svg PUBLIC "-//W3C//DTD SVG 1.1//EN" "http://www.w3.org/Graphics/SVG/1.1/DTD/svg11.dtd" [
	<!ENTITY ns_flows "http://ns.adobe.com/Flows/1.0/">
]>
<svg version="1.1"
	 xmlns="http://www.w3.org/2000/svg" xmlns:xlink="http://www.w3.org/1999/xlink" xmlns:a="http://ns.adobe.com/AdobeSVGViewerExtensions/3.0/"
	 x="0px" y="0px" width="736px" height="225px" viewBox="-1.444 -77.466 736 225"
	 overflow="visible" enable-background="new -1.444 -77.466 736 225" xml:space="preserve">
<defs>
</defs>
<path fill="none" d="M301.867,14.318h-13.25v21.891h13.25c7.553,0,11.975-3.824,11.975-11.094
	C313.842,17.955,309.42,14.318,301.867,14.318z"/>
<polygon fill="none" points="346.709,42.264 363.578,42.264 363.578,14.02 361.611,14.02 "/>
<polygon fill="none" points="504.879,43.373 524.703,43.373 514.879,17.955 "/>
<path fill="none" d="M416.09,14.52h-11.686v40.828h12.457c10.705,0,18.361-8.254,18.361-20.318
	C435.223,22.857,427.184,14.52,416.09,14.52z"/>
<path fill="none" d="M157.154,14.48h-13.23v21.842h13.23c7.541,0,11.953-3.824,11.953-11.066
	C169.107,18.104,164.695,14.48,157.154,14.48z"/>
<path fill="none" d="M630.273,14.615c-10.596,0-19.428,8.736-19.428,20.318c0,11.576,8.932,20.514,19.428,20.514
	c10.605,0,19.047-8.938,19.047-20.514C649.32,23.352,640.879,14.615,630.273,14.615z"/>
<path fill="none" d="M702.596,14.318H689.34v21.891h13.256c7.555,0,11.967-3.824,11.967-11.094
	C714.562,17.955,710.15,14.318,702.596,14.318z"/>
<path fill="#0C4166" d="M59.164,53.553c-0.104,0.176-0.174,0.371-0.275,0.551c-0.09-0.18-0.16-0.375-0.264-0.551
	c-5.447-9.395-15.564-15.715-27.199-15.715H0c0,5.736,1.561,11.088,4.24,15.715c5.434,9.389,15.564,15.715,27.186,15.715H54.93h7.93
	h23.504c11.615,0,21.746-6.326,27.18-15.715c2.691-4.627,4.246-9.979,4.246-15.715H86.363
	C74.729,37.838,64.605,44.158,59.164,53.553z"/>
<path fill="#CA302A" d="M86.363,0.299H62.859h-7.93H31.426c-11.621,0-21.752,6.324-27.186,15.713C1.561,20.635,0,25.994,0,31.727
	h31.426c11.635,0,21.752-6.334,27.199-15.715c0.104-0.176,0.174-0.367,0.264-0.549c0.102,0.182,0.172,0.373,0.275,0.549
	c5.441,9.381,15.564,15.715,27.199,15.715h31.426c0-5.732-1.555-11.092-4.246-15.715C108.109,6.623,97.979,0.299,86.363,0.299z"/>
<path fill="#0C4166" d="M416.479,0.586h-29.541v68.703h28.85c22.096,0,37.205-14.043,37.205-34.355
	C452.992,14.52,438.07,0.586,416.479,0.586z M416.861,55.348h-12.457V14.52h11.686c11.094,0,19.133,8.338,19.133,20.51
	C435.223,47.094,427.566,55.348,416.861,55.348z"/>
<rect x="456.559" y="0.586" fill="#0C4166" width="17.48" height="68.703"/>
<path fill="#0C4166" d="M506.436,0.586l-29.623,68.703h17.965l4.99-12.674h30.039l4.91,12.674h18.648L524.408,0.586H506.436z
	 M504.879,43.373l10-25.418l9.824,25.418H504.879z"/>
<polygon fill="#0C4166" points="597.166,0.494 538.484,0.494 538.484,14.615 558.994,14.615 558.994,69.289 576.469,69.289 
	576.469,14.615 597.166,14.615 "/>
<path fill="#0C4166" d="M630.086,0c-21.201,0-37.098,14.818-37.098,34.832c0,20.125,15.896,35.236,37.098,35.236
	c21.289,0,37.199-15.211,37.199-35.236C667.285,14.91,651.375,0,630.086,0z M630.273,55.447c-10.496,0-19.428-8.938-19.428-20.514
	c0-11.582,8.832-20.318,19.428-20.318c10.605,0,19.047,8.736,19.047,20.318C649.32,46.51,640.879,55.447,630.273,55.447z"/>
<path fill="#0C4166" d="M718.688,46.609c8.045-4.016,12.449-11.58,12.449-22.082c0-15.303-10.389-23.941-28.541-23.941h-30.717
	v68.703h17.461V49.953h13.256h0.496l10.201,19.336h19.818L718.688,46.609z M702.596,36.209H689.34V14.318h13.256
	c7.555,0,11.967,3.637,11.967,10.797C714.562,32.385,710.15,36.209,702.596,36.209z"/>
<path fill="#0C4166" d="M353.275,0.666l-30.451,53.572l-4.855-7.629c8.039-4.023,12.457-11.58,12.457-22.082
	c0-15.303-10.398-23.941-28.559-23.941h-30.721v68.703h17.471V49.953h13.25h0.498l10.203,19.336h1.693l-0.014,0.033h18.146
	l7.645-14.52h23.539v14.52h17.355V55.588V41.666V28.039V14.42V0.666h-17.355H353.275z M301.867,36.209h-13.25V14.318h13.25
	c7.553,0,11.975,3.637,11.975,10.797C313.842,32.385,309.42,36.209,301.867,36.209z M363.578,42.264h-16.869l14.902-28.244h1.967
	V42.264z"/>
<path fill="#CA302A" d="M246.971,0.766l-21.48,37.803V28.086V14.459V0.713h-17.354v0.053l-30.271,53.252l-4.654-7.307
	c8.049-4.016,12.455-11.553,12.455-22.051c0-15.281-10.383-23.906-28.512-23.906h-30.678v68.588h17.447V50.035h13.23h0.482
	l10.195,19.307h1.322h18.137h0.336l-0.186-0.281l7.484-14.217l6.672-12.545l6.539-12.393v12.393v12.545v14.244l-0.145,0.254h0.145
	h17.354h0.627l7.65-14.498l6.664-12.545l6.539-12.393v12.393v12.545v14.498h17.359V55.623V41.715V28.086V14.459V0.713h-17.359V0.766
	z M157.154,36.322h-13.23V14.48h13.23c7.541,0,11.953,3.623,11.953,10.775C169.107,32.498,164.695,36.322,157.154,36.322z"/>
</svg>
