<?xml version="1.0" encoding="utf-8"?>
<!-- Generator: Adobe Illustrator 15.0.2, SVG Export Plug-In  -->
<!DOCTYPE svg PUBLIC "-//W3C//DTD SVG 1.1//EN" "http://www.w3.org/Graphics/SVG/1.1/DTD/svg11.dtd" [
	<!ENTITY ns_flows "http://ns.adobe.com/Flows/1.0/">
]>
<svg version="1.1"
	 xmlns="http://www.w3.org/2000/svg" xmlns:xlink="http://www.w3.org/1999/xlink" xmlns:a="http://ns.adobe.com/AdobeSVGViewerExtensions/3.0/"
	 x="0px" y="0px" width="736px" height="344px" viewBox="-1.444 0.071 736 344"
	 overflow="visible" enable-background="new -1.444 0.071 736 344" xml:space="preserve">
<defs>
</defs>
<path display="none" fill="none" d="M301.867,151.918h-13.25v21.891h13.25c7.553,0,11.975-3.824,11.975-11.094
	C313.842,155.555,309.42,151.918,301.867,151.918z"/>
<polygon display="none" fill="none" points="346.709,179.863 363.578,179.863 363.578,151.619 361.611,151.619 "/>
<polygon display="none" fill="none" points="504.879,180.973 524.703,180.973 514.879,155.555 "/>
<path display="none" fill="none" d="M416.09,152.119h-11.686v40.828h12.457c10.705,0,18.361-8.254,18.361-20.318
	C435.223,160.457,427.184,152.119,416.09,152.119z"/>
<path display="none" fill="none" d="M157.154,152.08h-13.23v21.842h13.23c7.541,0,11.953-3.824,11.953-11.066
	C169.107,155.703,164.695,152.08,157.154,152.08z"/>
<path display="none" fill="none" d="M630.273,152.215c-10.596,0-19.428,8.736-19.428,20.318c0,11.576,8.932,20.514,19.428,20.514
	c10.605,0,19.047-8.938,19.047-20.514C649.32,160.951,640.879,152.215,630.273,152.215z"/>
<path display="none" fill="none" d="M702.596,151.918H689.34v21.891h13.256c7.555,0,11.967-3.824,11.967-11.094
	C714.562,155.555,710.15,151.918,702.596,151.918z"/>
<path display="none" fill="#0C4166" d="M59.164,191.152c-0.104,0.176-0.174,0.371-0.275,0.551c-0.09-0.18-0.16-0.375-0.264-0.551
	c-5.447-9.395-15.564-15.715-27.199-15.715H0c0,5.736,1.561,11.088,4.24,15.715c5.434,9.389,15.564,15.715,27.186,15.715H54.93h7.93
	h23.504c11.615,0,21.746-6.326,27.18-15.715c2.691-4.627,4.246-9.979,4.246-15.715H86.363
	C74.729,175.438,64.605,181.758,59.164,191.152z"/>
<path display="none" fill="#CA302A" d="M86.363,137.898H62.859h-7.93H31.426c-11.621,0-21.752,6.324-27.186,15.713
	C1.561,158.234,0,163.594,0,169.326h31.426c11.635,0,21.752-6.334,27.199-15.715c0.104-0.176,0.174-0.367,0.264-0.549
	c0.102,0.182,0.172,0.373,0.275,0.549c5.441,9.381,15.564,15.715,27.199,15.715h31.426c0-5.732-1.555-11.092-4.246-15.715
	C108.109,144.223,97.979,137.898,86.363,137.898z"/>
<path display="none" fill="#0C4166" d="M416.479,138.186h-29.541v68.703h28.85c22.096,0,37.205-14.043,37.205-34.355
	C452.992,152.119,438.07,138.186,416.479,138.186z M416.861,192.947h-12.457v-40.828h11.686c11.094,0,19.133,8.338,19.133,20.51
	C435.223,184.693,427.566,192.947,416.861,192.947z"/>
<rect x="456.559" y="138.186" display="none" fill="#0C4166" width="17.48" height="68.703"/>
<path display="none" fill="#0C4166" d="M506.436,138.186l-29.623,68.703h17.965l4.99-12.674h30.039l4.91,12.674h18.648
	l-28.957-68.703H506.436z M504.879,180.973l10-25.418l9.824,25.418H504.879z"/>
<polygon display="none" fill="#0C4166" points="597.166,138.094 538.484,138.094 538.484,152.215 558.994,152.215 558.994,206.889 
	576.469,206.889 576.469,152.215 597.166,152.215 "/>
<path display="none" fill="#0C4166" d="M630.086,137.6c-21.201,0-37.098,14.818-37.098,34.832c0,20.125,15.896,35.236,37.098,35.236
	c21.289,0,37.199-15.211,37.199-35.236C667.285,152.51,651.375,137.6,630.086,137.6z M630.273,193.047
	c-10.496,0-19.428-8.938-19.428-20.514c0-11.582,8.832-20.318,19.428-20.318c10.605,0,19.047,8.736,19.047,20.318
	C649.32,184.109,640.879,193.047,630.273,193.047z"/>
<path display="none" fill="#0C4166" d="M718.688,184.209c8.045-4.016,12.449-11.58,12.449-22.082
	c0-15.303-10.389-23.941-28.541-23.941h-30.717v68.703h17.461v-19.336h13.256h0.496l10.201,19.336h19.818L718.688,184.209z
	 M702.596,173.809H689.34v-21.891h13.256c7.555,0,11.967,3.637,11.967,10.797C714.562,169.984,710.15,173.809,702.596,173.809z"/>
<path display="none" fill="#0C4166" d="M353.275,138.266l-30.451,53.572l-4.855-7.629c8.039-4.023,12.457-11.58,12.457-22.082
	c0-15.303-10.398-23.941-28.559-23.941h-30.721v68.703h17.471v-19.336h13.25h0.498l10.203,19.336h1.693l-0.014,0.033h18.146
	l7.645-14.52h23.539v14.52h17.355v-13.734v-13.922v-13.627V152.02v-13.754h-17.355H353.275z M301.867,173.809h-13.25v-21.891h13.25
	c7.553,0,11.975,3.637,11.975,10.797C313.842,169.984,309.42,173.809,301.867,173.809z M363.578,179.863h-16.869l14.902-28.244
	h1.967V179.863z"/>
<path display="none" fill="#CA302A" d="M246.971,138.365l-21.48,37.803v-10.482v-13.627v-13.746h-17.354v0.053l-30.271,53.252
	l-4.654-7.307c8.049-4.016,12.455-11.553,12.455-22.051c0-15.281-10.383-23.906-28.512-23.906h-30.678v68.588h17.447v-19.307h13.23
	h0.482l10.195,19.307h1.322h18.137h0.336l-0.186-0.281l7.484-14.217l6.672-12.545l6.539-12.393v12.393v12.545v14.244l-0.145,0.254
	h0.145h17.354h0.627l7.65-14.498l6.664-12.545l6.539-12.393v12.393v12.545v14.498h17.359v-13.719v-13.908v-13.629v-13.627v-13.746
	h-17.359V138.365z M157.154,173.922h-13.23V152.08h13.23c7.541,0,11.953,3.623,11.953,10.775
	C169.107,170.098,164.695,173.922,157.154,173.922z"/>
<polygon display="none" fill="none" points="368.938,260.485 386.093,260.485 377.599,238.489 "/>
<path display="none" fill="none" d="M433.351,184.932c-5.646,0-10.338,4.637-10.338,10.796c0,6.15,4.746,10.896,10.338,10.896
	c5.621,0,10.102-4.746,10.102-10.896C443.452,189.568,438.972,184.932,433.351,184.932z"/>
<path display="none" fill="none" d="M193.241,235.345h-11.47v18.938h11.47c6.551,0,10.367-3.314,10.367-9.6
	C203.608,238.489,199.792,235.345,193.241,235.345z"/>
<path display="none" fill="none" d="M292.091,235.511h-10.099v35.332h10.78c9.263,0,15.878-7.132,15.878-17.576
	C308.651,242.731,301.697,235.511,292.091,235.511z"/>
<path display="none" fill="none" d="M189.477,190.507c0-3.801-2.333-5.737-6.354-5.737h-7.041V196.4h7.041
	C187.144,196.4,189.477,194.367,189.477,190.507z"/>
<path display="none" fill="none" d="M540.048,235.345h-11.461v18.938h11.461c6.539,0,10.367-3.314,10.367-9.6
	C550.415,238.489,546.587,235.345,540.048,235.345z"/>
<polygon display="none" fill="none" points="232.055,259.523 246.654,259.523 246.654,235.079 244.948,235.079 "/>
<path display="none" fill="none" d="M477.476,235.593c-9.184,0-16.828,7.563-16.828,17.583c0,10.021,7.742,17.756,16.828,17.756
	c9.162,0,16.48-7.734,16.48-17.756C493.956,243.156,486.638,235.593,477.476,235.593z"/>
<path display="none" fill="none" d="M221.971,206.624c5.639,0,10.119-4.746,10.119-10.896c0-6.159-4.48-10.796-10.119-10.796
	c-5.63,0-10.332,4.637-10.332,10.796C211.639,201.878,216.396,206.624,221.971,206.624z"/>
<path display="none" fill="#CA302A" d="M176.082,203.698h7.041h0.258l5.427,10.278h10.532l-7.66-12.046
	c4.276-2.136,6.619-6.148,6.619-11.735c0-8.129-5.524-12.734-15.176-12.734h-16.329v36.516h9.288V203.698z M176.082,184.77h7.041
	c4.021,0,6.354,1.937,6.354,5.737c0,3.86-2.333,5.894-6.354,5.894h-7.041V184.77z"/>
<path display="none" fill="#CA302A" d="M221.866,214.401c11.327,0,19.778-8.095,19.778-18.726c0-10.597-8.451-18.521-19.778-18.521
	c-11.259,0-19.706,7.882-19.706,18.521C202.16,206.358,210.607,214.401,221.866,214.401z M221.971,184.932
	c5.639,0,10.119,4.637,10.119,10.796c0,6.15-4.48,10.896-10.119,10.896c-5.575,0-10.332-4.746-10.332-10.896
	C211.639,189.568,216.341,184.932,221.971,184.932z"/>
<path display="none" fill="#CA302A" d="M272.307,201.985c-2.555,2.605-6.106,4.278-9.184,4.278c-5.797,0-10.17-4.643-10.17-10.747
	c0-6,4.373-10.585,10.17-10.585c3.234,0,6.788,1.819,9.184,4.743l5.373-6.361c-3.659-3.756-9.289-6.159-14.716-6.159
	c-11.107,0-19.492,7.925-19.492,18.467c0,10.686,8.173,18.78,19.185,18.78c5.372,0,11.161-2.66,15.075-6.682L272.307,201.985z"/>
<polygon display="none" fill="#CA302A" points="281.947,177.461 281.947,213.977 291.235,213.977 291.235,205.007 296.086,199.636 
	305.737,213.977 316.845,213.977 302.386,192.59 315.96,177.47 305.207,177.47 291.235,193.271 291.235,177.47 "/>
<polygon display="none" fill="#CA302A" points="339.731,213.977 339.731,202.188 352.978,177.47 343.701,177.47 335.102,193.379 
	326.274,177.47 316.985,177.47 330.506,202.453 330.506,213.977 "/>
<path display="none" fill="#CA302A" d="M433.235,177.154c-11.266,0-19.713,7.882-19.713,18.521c0,10.683,8.447,18.726,19.713,18.726
	c11.328,0,19.768-8.088,19.768-18.726C453.003,185.079,444.563,177.154,433.235,177.154z M433.351,206.624
	c-5.592,0-10.338-4.746-10.338-10.896c0-6.159,4.691-10.796,10.338-10.796c5.621,0,10.102,4.637,10.102,10.796
	C443.452,201.878,438.972,206.624,433.351,206.624z"/>
<path display="none" fill="#CA302A" d="M457.28,177.47v21.176c0,9.646,6.576,15.756,16.844,15.756
	c10.215,0,16.633-6.109,16.633-15.756V177.47h-9.227v21.176c0,4.955-2.98,7.979-7.359,7.979c-4.438,0-7.609-3.023-7.609-7.979
	V177.47H457.28z"/>
<polygon display="none" fill="#CA302A" points="506.14,191.495 522.94,213.977 531.122,213.977 531.122,177.47 522.472,177.47 
	522.472,200.006 505.628,177.47 497.435,177.47 497.435,213.977 506.14,213.977 "/>
<polygon display="none" fill="#CA302A" points="546.048,213.977 555.329,213.977 555.329,184.932 566.321,184.932 566.321,177.418 
	535.136,177.418 535.136,184.932 546.048,184.932 "/>
<polygon display="none" fill="#CA302A" points="399.337,206.243 399.337,213.968 408.581,213.968 408.581,206.661 408.581,199.254 
	408.581,191.999 408.581,184.752 408.581,177.434 399.337,177.434 399.337,177.461 387.903,197.575 387.903,191.999 
	387.903,184.752 387.903,177.434 378.667,177.434 378.667,177.461 357.918,213.968 367.569,213.968 371.642,206.243 
	375.194,199.572 378.667,192.972 378.667,199.572 378.667,206.243 378.667,213.824 378.589,213.968 378.667,213.968 
	387.903,213.968 388.247,213.968 392.312,206.243 395.864,199.572 399.337,192.972 399.337,199.572 "/>
<path display="none" fill="#0C4166" d="M292.436,223.448h-25.563v59.457h24.974c19.104,0,32.184-12.142,32.184-29.729
	C324.03,235.511,311.125,223.448,292.436,223.448z M292.773,270.843h-10.78v-35.332h10.099c9.605,0,16.56,7.221,16.56,17.756
	C308.651,263.711,302.036,270.843,292.773,270.843z"/>
<rect x="327.123" y="223.448" display="none" fill="#0C4166" width="15.118" height="59.457"/>
<path display="none" fill="#0C4166" d="M370.3,223.448l-25.655,59.457h15.545l4.337-10.96h25.992l4.25,10.96h16.137l-25.062-59.457
	H370.3z M368.938,260.485l8.66-21.996l8.494,21.996H368.938z"/>
<polygon display="none" fill="#0C4166" points="448.813,223.371 398.021,223.371 398.021,235.593 415.774,235.593 415.774,282.905 
	430.903,282.905 430.903,235.593 448.813,235.593 "/>
<path display="none" fill="#0C4166" d="M477.296,222.938c-18.352,0-32.104,12.83-32.104,30.149c0,17.42,13.752,30.498,32.104,30.498
	c18.426,0,32.193-13.167,32.193-30.498C509.489,235.847,495.722,222.938,477.296,222.938z M477.476,270.932
	c-9.086,0-16.828-7.734-16.828-17.756c0-10.02,7.645-17.583,16.828-17.583c9.162,0,16.48,7.563,16.48,17.583
	C493.956,263.197,486.638,270.932,477.476,270.932z"/>
<path display="none" fill="#0C4166" d="M553.985,263.286c6.963-3.48,10.779-10.02,10.779-19.114
	c0-13.246-8.994-20.724-24.717-20.724h-26.58v59.457h15.119v-16.729h11.461h0.424l8.838,16.729h17.15L553.985,263.286z
	 M540.048,254.282h-11.461v-18.938h11.461c6.539,0,10.367,3.145,10.367,9.338C550.415,250.968,546.587,254.282,540.048,254.282z"/>
<path display="none" fill="#0C4166" d="M237.736,223.52l-26.361,46.376l-4.205-6.609c6.964-3.48,10.79-10.02,10.79-19.114
	c0-13.246-9.006-20.724-24.719-20.724h-26.588v59.457h15.118v-16.729h11.47h0.433l8.821,16.729h1.485l-0.01,0.027h15.695
	l6.619-12.558h20.369v12.558h15.014v-11.878v-12.044v-11.808v-11.781V223.52h-15.014H237.736z M193.241,254.282h-11.47v-18.938
	h11.47c6.551,0,10.367,3.145,10.367,9.338C203.608,250.968,199.792,254.282,193.241,254.282z M246.654,259.523h-14.599
	l12.893-24.444h1.706V259.523z"/>
<path display="none" fill="#0C4166" d="M323.975,167.979h36.438h12.299h36.434c18.021,0,33.723-9.816,42.162-24.375
	c4.162-7.179,6.572-15.472,6.572-24.371h-48.734c-18.035,0-33.74,9.811-42.16,24.371c-0.159,0.276-0.273,0.576-0.426,0.844
	c-0.148-0.268-0.265-0.567-0.423-0.844c-8.43-14.561-24.134-24.371-42.162-24.371h-48.733c0,8.899,2.419,17.192,6.572,24.371
	C290.238,158.163,305.94,167.979,323.975,167.979z"/>
<path display="none" fill="#CA302A" d="M366.137,85.393c0.158-0.271,0.274-0.57,0.423-0.849c0.152,0.278,0.267,0.578,0.426,0.849
	c8.419,14.554,24.125,24.362,42.16,24.362h48.734c0-8.89-2.41-17.19-6.572-24.362c-8.439-14.558-24.141-24.363-42.162-24.363
	h-36.434h-12.299h-36.438c-18.035,0-33.737,9.806-42.161,24.363c-4.153,7.172-6.572,15.473-6.572,24.362h48.733
	C342.003,109.755,357.708,99.946,366.137,85.393z"/>
<path display="none" fill="none" d="M441.003,151.382h-13.078v21.627h13.078c7.467,0,11.836-3.781,11.836-10.963
	C452.839,154.978,448.47,151.382,441.003,151.382z"/>
<polygon display="none" fill="none" points="485.302,178.989 501.962,178.989 501.962,151.093 500.024,151.093 "/>
<path display="none" fill="none" d="M553.837,151.581H542.3v40.324h12.303c10.574,0,18.139-8.139,18.139-20.064
	C572.741,159.817,564.8,151.581,553.837,151.581z"/>
<path display="none" fill="none" d="M298.058,151.544h-13.074v21.58h13.074c7.449,0,11.811-3.781,11.811-10.941
	C309.868,155.122,305.507,151.544,298.058,151.544z"/>
<path display="none" fill="#0C4166" d="M201.267,190.149c-0.104,0.166-0.178,0.359-0.273,0.525c-0.096-0.166-0.162-0.359-0.27-0.525
	c-5.375-9.285-15.377-15.535-26.861-15.535h-31.043c0,5.666,1.541,10.963,4.188,15.535c5.375,9.268,15.369,15.521,26.855,15.521
	h23.213h7.836h23.221c11.475,0,21.477-6.254,26.848-15.521c2.654-4.572,4.191-9.869,4.191-15.535h-31.039
	C216.64,174.614,206.63,180.864,201.267,190.149z"/>
<path display="none" fill="#CA302A" d="M228.132,137.534h-23.221h-7.836h-23.213c-11.486,0-21.48,6.248-26.855,15.521
	c-2.646,4.568-4.188,9.855-4.188,15.525h31.043c11.484,0,21.486-6.254,26.861-15.525c0.107-0.174,0.174-0.361,0.27-0.539
	c0.096,0.178,0.17,0.365,0.273,0.539c5.363,9.271,15.373,15.525,26.865,15.525h31.039c0-5.67-1.537-10.957-4.191-15.525
	C249.608,143.782,239.606,137.534,228.132,137.534z"/>
<path display="none" fill="#0C4166" d="M554.222,137.819h-29.176v67.863h28.502c21.816,0,36.744-13.869,36.744-33.938
	C590.292,151.581,575.55,137.819,554.222,137.819z M554.603,191.905H542.3v-40.324h11.537c10.963,0,18.904,8.236,18.904,20.26
	C572.741,183.767,565.177,191.905,554.603,191.905z"/>
<path display="none" fill="#0C4166" d="M491.792,137.894l-30.082,52.926l-4.797-7.537c7.943-3.975,12.309-11.441,12.309-21.816
	c0-15.111-10.275-23.646-28.219-23.646h-30.34v67.863h17.262v-19.1h13.078h0.492l10.084,19.1h1.674l-0.012,0.033h17.922
	l7.551-14.342h23.248v14.342h17.143v-13.566v-13.754v-13.459v-13.451v-13.592h-17.143H491.792z M441.003,173.009h-13.078v-21.627
	h13.078c7.467,0,11.836,3.596,11.836,10.664C452.839,169.228,448.47,173.009,441.003,173.009z M501.962,178.989h-16.66
	l14.723-27.896h1.938V178.989z"/>
<path display="none" fill="#CA302A" d="M386.78,137.997l-21.215,37.342v-10.361v-13.451v-13.582h-17.146v0.053l-29.908,52.604
	l-4.588-7.219c7.947-3.967,12.299-11.412,12.299-21.779c0-15.094-10.254-23.621-28.164-23.621h-30.307v67.752h17.232v-19.066h13.074
	h0.48l10.07,19.066h1.305h17.912h0.326l-0.178-0.277l7.396-14.043l6.594-12.393l6.455-12.24v12.24v12.393v14.076l-0.141,0.244h0.141
	h17.146h0.611l7.555-14.32l6.592-12.393l6.457-12.24v12.24v12.393v14.32h17.141v-13.547v-13.74v-13.469v-13.451v-13.582H386.78
	V137.997z M298.058,173.124h-13.074v-21.58h13.074c7.449,0,11.811,3.578,11.811,10.639
	C309.868,169.343,305.507,173.124,298.058,173.124z"/>
<polygon fill="#084266" points="94.882,179.679 104.511,172.161 94.882,164.643 85.253,172.161 "/>
<polygon fill="#084266" points="364.365,172.161 373.994,179.679 383.621,172.161 373.994,164.643 "/>
<path fill="#084266" d="M108.496,221.571c5.735-1.676,7.83-6.524,5.84-13.327l-3.365-11.505l-25.737,7.529l1.912,6.547l7.243-2.119
	l1.45,4.965l0.056,0.179l-6.123,5.95l2.172,7.431l6.913-7.892C101.248,221.901,104.562,222.726,108.496,221.571 M107.732,204.794
	l1.458,4.963c0.829,2.822-0.051,4.879-2.737,5.666c-2.722,0.8-4.634-0.439-5.463-3.269l-1.454-4.964L107.732,204.794z"/>
<path fill="#084266" d="M124.177,231.946l-29.021,3.43l3.521,6.066l5.25-0.784l5.873,10.147l-3.315,4.132l3.652,6.31l17.554-23.228
	L124.177,231.946z M113.286,246.495l-3.884-6.709l10.548-1.582L113.286,246.495z"/>
<path fill="#084266" d="M143.909,258.869l-8.019-8.286l-19.286,18.636l7.829,8.101c5.984,6.198,14.035,6.64,19.729,1.125
	C149.906,272.902,149.766,264.937,143.909,258.869 M139.322,273.485c-3.39,3.277-7.788,3.358-10.695,0.357l-3.368-3.502
	l11.457-11.074l3.169,3.281C142.894,265.66,142.733,270.183,139.322,273.485"/>
<polygon fill="#084266" points="159.456,272.692 143.981,294.604 149.555,298.533 165.03,276.63 "/>
<path fill="#084266" d="M158.087,304.696l6.388,2.884l3.82-3.695l10.686,4.835l-0.299,5.299l6.628,2.998l0.776-29.094l-6.39-2.886
	L158.087,304.696z M179.293,303.188l-7.053-3.193l7.658-7.43L179.293,303.188z"/>
<polygon fill="#084266" points="194.888,297.455 202.697,299.179 198.089,320.018 204.758,321.488 209.368,300.657 217.255,302.401 
	218.443,297.017 196.077,292.065 "/>
<path fill="#084266" d="M234.229,297.294c-8.282,0.133-14.398,6.02-14.268,13.835c0.122,7.856,6.42,13.657,14.701,13.522
	c8.32-0.133,14.427-6.17,14.297-13.983C248.84,302.892,242.539,297.163,234.229,297.294 M234.653,318.944
	c-4.106,0.066-7.647-3.369-7.728-7.893c-0.061-4.521,3.319-7.984,7.466-8.05c4.134-0.069,7.496,3.292,7.557,7.815
	C242.025,315.337,238.789,318.878,234.653,318.944"/>
<path fill="#084266" d="M278.771,299.983c-1.447-5.809-6.196-8.1-13.078-6.385l-11.643,2.897l6.48,26.041l6.619-1.649l-1.82-7.328
	l5.02-1.25l0.182-0.047l5.695,6.355l7.506-1.863l-7.596-7.235C278.812,307.239,279.758,303.954,278.771,299.983 M269.053,307.1
	l-5.021,1.251l-2.062-8.297l5.021-1.252c2.856-0.708,4.88,0.252,5.555,2.966C273.227,304.521,271.92,306.386,269.053,307.1"/>
<path fill="#084266" d="M322.197,283.79l-5.172-0.155c0.494,1.567,0.785,3.117,0.885,4.577c-2.373-0.451-4.325-0.899-5.986-1.316
	c1.771-3.158,3.27-6.505,1.188-9.63c-1.952-2.937-5.948-3.263-9.71-0.763c-3.895,2.586-4.979,6.355-2.816,9.611
	c1.057,1.59,2.598,2.73,5.211,3.75c-1.488,2.881-2.454,5.92-0.464,8.918c2.526,3.798,7.558,4.366,11.923,1.463
	c2.295-1.531,3.945-3.822,4.779-6.59l5.203,0.959l0.966-4.561l-5.425-0.948C322.82,287.431,322.631,285.615,322.197,283.79
	 M304.902,283.244c-0.887-1.31-0.725-2.798,0.623-3.688c1.207-0.807,2.545-0.543,3.311,0.607c1.016,1.537,0.382,3.425-0.695,5.471
	C306.541,284.959,305.506,284.169,304.902,283.244 M314.911,296.231c-1.88,1.258-4.124,1-5.331-0.82
	c-0.824-1.248-0.563-2.71,0.109-4.318c2.084,0.557,4.629,1.066,7.709,1.686C316.916,294.26,316.059,295.465,314.911,296.231"/>
<path fill="#084266" d="M333.176,249.476l14.646,25.281l4.179-5.638l-2.809-4.513l6.984-9.425l5.12,1.405l4.337-5.843l-28.282-6.903
	L333.176,249.476z M350.834,253.708l-4.607,6.21l-5.646-9.046L350.834,253.708z"/>
<polygon fill="#084266" points="345.65,220.36 372.221,246.753 374.617,241.733 348.036,215.34 "/>
<path fill="#084266" d="M375.161,201.109c1.358,2.317,1.86,5.151,1.268,7.335c-1.106,4.105-5.232,6.324-9.567,5.154
	c-4.258-1.148-6.672-5.131-5.564-9.242c0.623-2.295,2.597-4.461,5.12-5.604l-3.479-5.031c-3.371,1.875-6.148,5.416-7.186,9.258
	c-2.134,7.883,1.893,15.359,9.358,17.381c7.596,2.046,14.899-2.216,17.004-10.025c1.035-3.812,0.25-8.431-1.853-11.975
	L375.161,201.109z"/>
<path fill="#084266" d="M206.329,207.461h24.047h8.121h24.056c11.902,0,22.266-6.479,27.831-16.084
	c2.735-4.739,4.335-10.216,4.335-16.094h-32.166c-11.913,0-22.276,6.481-27.831,16.094c-0.106,0.181-0.181,0.381-0.282,0.563
	c-0.101-0.183-0.177-0.383-0.28-0.563c-5.576-9.612-15.928-16.094-27.831-16.094h-32.178c0,5.878,1.6,11.354,4.348,16.094
	C184.063,200.981,194.426,207.461,206.329,207.461"/>
<path fill="#CA312A" d="M234.16,152.945c0.104-0.18,0.178-0.381,0.28-0.564c0.101,0.183,0.176,0.384,0.282,0.564
	c5.554,9.608,15.917,16.088,27.83,16.088h32.166c0-5.865-1.6-11.345-4.335-16.088c-5.565-9.604-15.929-16.079-27.831-16.079h-24.056
	h-8.121h-24.047c-11.902,0-22.264,6.475-27.83,16.079c-2.748,4.744-4.348,10.224-4.348,16.088h32.178
	C218.232,169.033,228.584,162.553,234.16,152.945"/>
<path fill="#084266" d="M206.491,236.512c0-5.586-8.16-4.062-8.16-6.732c0-0.747,0.683-1.129,1.699-1.129
	c1.258,0,3.31,0.663,4.951,1.617l1.48-3.076c-1.59-1.034-3.873-1.717-6.099-1.717c-3.711,0-6.156,1.808-6.156,4.656
	c0,5.478,8.169,3.842,8.169,6.581c0,0.887-0.773,1.347-2.013,1.347c-1.618,0-4.003-0.921-5.583-2.312l-1.53,3.021
	c1.831,1.499,4.478,2.477,7.064,2.477C203.763,241.243,206.491,239.607,206.491,236.512"/>
<rect x="211.511" y="225.647" fill="#084266" width="3.933" height="15.462"/>
<polygon fill="#084266" points="235.681,225.647 232.006,225.647 232.006,235.192 224.873,225.647 221.41,225.647 221.41,241.11 
	225.104,241.11 225.104,231.585 232.208,241.11 235.681,241.11 "/>
<path fill="#084266" d="M252.834,236.026c-1.077,1.111-2.586,1.81-3.885,1.81c-2.455,0-4.305-1.956-4.305-4.546
	c0-2.541,1.85-4.479,4.305-4.479c1.369,0,2.868,0.77,3.885,2.005l2.283-2.695c-1.562-1.586-3.943-2.604-6.236-2.604
	c-4.701,0-8.262,3.36-8.262,7.814c0,4.531,3.471,7.954,8.127,7.954c2.275,0,4.73-1.126,6.383-2.829L252.834,236.026z"/>
<polygon fill="#084266" points="263.722,234.903 271.104,234.903 271.104,231.806 263.722,231.806 263.722,228.738 271.9,228.738 
	271.9,225.647 259.796,225.647 259.796,241.11 272.141,241.11 272.141,238.02 263.722,238.02 "/>
<polygon fill="#084266" points="204.136,255.284 206.994,255.284 206.994,267.612 210.917,267.612 210.917,252.13 204.136,252.13 
	"/>
<path fill="#084266" d="M222.397,251.952c-3.481,0-5.774,2.076-5.774,5.342c0,3.004,1.94,4.992,4.99,4.992
	c1.711,0,2.948-0.619,3.682-1.656c0.04,2.545-1.146,4.107-3.623,4.107c-1.187,0-2.364-0.354-3.249-0.992l-1.499,2.737
	c1.308,0.796,3.27,1.28,4.991,1.28c4.346,0,7.152-3.203,7.152-8.127C229.067,254.886,226.553,251.952,222.397,251.952
	 M222.489,259.416c-1.419,0-2.234-0.773-2.234-2.093c0-1.438,0.884-2.232,2.303-2.232c1.592,0,2.314,1.012,2.314,2.164
	C224.872,258.511,224.017,259.416,222.489,259.416"/>
<path fill="#084266" d="M241.896,261.162c1.68-1.724,2.918-3.464,2.918-5.147c0-2.453-2.205-4.039-5.271-4.039
	c-2.215,0-4.328,0.861-6.269,2.32l1.479,2.826c1.406-1.214,2.955-1.967,4.215-1.967c1.105,0,1.739,0.529,1.739,1.412
	c0,0.709-0.614,1.741-1.478,2.652l-5.523,5.85v2.543h11.58v-3.115h-6.518L241.896,261.162z"/>
<polygon fill="#084266" points="249.635,257.429 253.075,257.429 253.075,255.265 257.339,255.265 251.817,267.612 255.975,267.612 
	261.668,254.823 261.668,252.151 249.635,252.151 "/>
<polygon fill="#CA312A" points="220.485,81.218 227.6,90.738 231.049,90.738 231.049,75.276 227.388,75.276 227.388,84.822 
	220.254,75.276 216.793,75.276 216.793,90.738 220.485,90.738 "/>
<path fill="#CA312A" d="M244.131,90.914c2.273,0,4.728-1.125,6.389-2.831l-2.307-2.43c-1.074,1.111-2.584,1.813-3.881,1.813
	c-2.444,0-4.309-1.963-4.309-4.545c0-2.54,1.864-4.483,4.309-4.483c1.367,0,2.877,0.771,3.881,2.005l2.287-2.693
	c-1.551-1.588-3.945-2.606-6.229-2.606c-4.709,0-8.262,3.361-8.262,7.819C236.01,87.49,239.472,90.914,244.131,90.914"/>
<path fill="#CA312A" d="M214.599,117.413c4.327,0,7.043-2.581,7.043-6.667v-8.966h-3.915v8.966c0,2.104-1.256,3.381-3.108,3.381
	c-1.872,0-3.229-1.277-3.229-3.381v-8.966h-3.925v8.966C207.465,114.832,210.244,117.413,214.599,117.413"/>
<path fill="#CA312A" d="M227.127,106.262c0,5.476,8.158,3.846,8.158,6.587c0,0.876-0.763,1.342-2.001,1.342
	c-1.62,0-3.993-0.927-5.593-2.317l-1.52,3.028c1.831,1.5,4.487,2.467,7.064,2.467c3.44,0,6.188-1.63,6.188-4.725
	c0-5.583-8.17-4.057-8.17-6.735c0-0.75,0.684-1.128,1.701-1.128c1.248,0,3.31,0.666,4.95,1.616l1.469-3.068
	c-1.59-1.037-3.864-1.723-6.088-1.723C229.571,101.606,227.127,103.414,227.127,106.262"/>
<path fill="#CA312A" d="M242.712,117.24h4.044l1.117-2.85h6.762l1.108,2.85h4.195l-6.521-15.461h-4.035L242.712,117.24z
	 M253.487,111.41h-4.458l2.245-5.72L253.487,111.41z"/>
<path fill="#CA312A" d="M109.693,143.162l-7.289-1.961l1.337-4.994l0.056-0.18l8.32-1.892l2.002-7.481l-10,3.145
	c-0.704-3.442-3.115-5.868-7.073-6.931c-5.776-1.55-10.083,1.499-11.923,8.348l-3.105,11.587l25.904,6.946L109.693,143.162z
	 M98.561,134.818l-1.344,4.997l-8.249-2.211l1.339-5c0.764-2.844,2.589-4.146,5.285-3.419
	C98.324,129.913,99.324,131.971,98.561,134.818"/>
<path fill="#CA312A" d="M105.81,111.551c6.726,4.066,14.982,1.8,19.258-5.282c4.303-7.119,2.432-15.499-4.256-19.542
	c-6.654-4.022-14.854-1.727-19.147,5.396C97.378,99.21,99.12,107.508,105.81,111.551 M106.584,95.012
	c2.137-3.545,6.765-4.604,10.634-2.266c3.865,2.339,5.143,6.962,3.009,10.503c-2.123,3.515-6.906,4.687-10.775,2.355
	C105.578,103.264,104.445,98.553,106.584,95.012"/>
<path fill="#CA312A" d="M147.986,78.208c2.857-2.708,4.608-7.049,4.658-11.166l-5.776-0.319c-0.05,2.676-1.107,5.359-2.746,6.91
	c-3.09,2.925-7.769,2.661-10.847-0.595c-3.028-3.201-3.007-7.863,0.081-10.785c1.722-1.631,4.538-2.448,7.294-2.103l-0.352-6.104
	c-3.843-0.158-8.06,1.404-10.948,4.139c-5.932,5.611-6.406,14.079-1.086,19.696C133.658,83.586,142.109,83.765,147.986,78.208"/>
<polygon fill="#CA312A" points="169.706,61.646 166.586,55.836 167.854,50.667 179.093,56.599 186.276,52.738 169.494,43.926 
	173.006,29.421 166.064,33.157 162.513,48.242 157.021,38.017 151.014,41.243 163.702,64.869 "/>
<polygon fill="#CA312A" points="202.274,48.219 208.884,46.697 206.943,38.259 212.325,18.376 205.684,19.909 202.163,32.717 
	193.219,22.79 186.568,24.326 200.373,39.971 "/>
<polygon fill="#CA312A" points="251.062,27.434 254.865,43.08 259.244,43.842 268.125,30.418 265.168,47.604 271.096,48.64 
	275.713,22.17 268.389,20.891 258.467,35.382 254.051,18.387 246.687,17.1 242.059,43.564 248.064,44.612 "/>
<path fill="#CA312A" d="M293.742,59.084c7.354,3.867,15.618,1.503,19.259-5.412c3.622-6.89,0.835-14.934-6.528-18.805
	c-7.325-3.848-15.506-1.621-19.148,5.298C283.67,47.116,286.418,55.228,293.742,59.084 M293.482,43.446
	c2.102-4,6.742-5.414,10.403-3.486c3.663,1.923,5,6.474,2.886,10.477c-2.109,4.006-6.639,5.557-10.303,3.629
	C292.838,52.159,291.379,47.445,293.482,43.446"/>
<path fill="#CA312A" d="M340.025,80.565l10.809-11.188l-4.87-4.708l-10.816,11.183c-2.526,2.619-5.646,2.699-7.959,0.466
	c-2.334-2.265-2.476-5.487,0.05-8.104l10.807-11.188l-4.901-4.741l-10.806,11.189c-4.928,5.098-4.568,11.678,0.855,16.92
	C328.596,85.613,335.105,85.664,340.025,80.565"/>
<polygon fill="#CA312A" points="342.5,103.312 356.818,95.085 348.65,114.013 351.646,119.228 374.899,105.862 371.729,100.349 
	357.373,108.598 365.562,89.623 362.564,84.403 339.312,97.769 "/>
<polygon fill="#CA312A" points="357.211,135.775 358.961,142.367 379.598,136.864 381.683,144.678 387.015,143.252 381.109,121.108 
	375.775,122.526 377.838,130.269 "/>
<path fill="#CA312A" d="M234.44,0C139.512,0,62.273,77.229,62.273,172.161s77.239,172.163,172.167,172.163
	c94.931,0,172.153-77.231,172.153-172.163S329.371,0,234.44,0 M234.44,337.325c-91.074,0-165.164-74.097-165.164-165.165
	c0-91.071,74.089-165.163,165.164-165.163c91.067,0,165.159,74.091,165.159,165.163C399.6,263.233,325.508,337.325,234.44,337.325"
	/>
<path fill="#084266" d="M116.777,172.161c0,64.883,52.778,117.663,117.664,117.663c64.877,0,117.659-52.779,117.659-117.663
	c0-64.879-52.782-117.667-117.659-117.667C169.555,54.494,116.777,107.281,116.777,172.161 M234.44,61.496
	c61.022,0,110.667,49.645,110.667,110.665c0,61.019-49.645,110.67-110.667,110.67c-61.022,0-110.668-49.651-110.668-110.67
	C123.772,111.141,173.418,61.496,234.44,61.496"/>
<path fill="#084266" d="M461.05,207.309c4.032-1.174,5.51-4.587,4.114-9.372l-2.376-8.098l-18.11,5.299l1.347,4.605l5.096-1.49
	l1.023,3.49l0.035,0.131l-4.303,4.18l1.525,5.229l4.864-5.553C455.948,207.542,458.278,208.121,461.05,207.309 M460.516,195.501
	l1.018,3.494c0.586,1.993-0.03,3.437-1.919,3.992c-1.917,0.562-3.263-0.312-3.846-2.305l-1.022-3.49L460.516,195.501z"/>
<path fill="#084266" d="M472.085,214.615l-20.418,2.409l2.467,4.272l3.7-0.552l4.134,7.14l-2.334,2.909l2.564,4.438l12.359-16.346
	L472.085,214.615z M464.418,224.849l-2.731-4.717l7.43-1.117L464.418,224.849z"/>
<path fill="#084266" d="M485.97,233.563l-5.633-5.836l-13.582,13.11l5.51,5.706c4.215,4.363,9.874,4.671,13.887,0.792
	C490.19,243.44,490.093,237.831,485.97,233.563 M482.746,243.845c-2.391,2.303-5.48,2.365-7.521,0.252l-2.381-2.463l8.066-7.794
	l2.229,2.307C485.259,238.339,485.144,241.519,482.746,243.845"/>
<polygon fill="#084266" points="496.907,243.286 486.022,258.709 489.942,261.476 500.829,246.06 "/>
<path fill="#084266" d="M495.952,265.808l4.494,2.031l2.688-2.597l7.52,3.401l-0.205,3.725l4.656,2.111l0.549-20.474l-4.501-2.032
	L495.952,265.808z M510.876,264.746l-4.964-2.245l5.392-5.227L510.876,264.746z"/>
<polygon fill="#084266" points="521.848,260.712 527.347,261.929 524.108,276.595 528.795,277.626 532.041,262.964 537.59,264.194 
	538.433,260.405 522.687,256.919 "/>
<path fill="#084266" d="M549.53,260.604c-5.824,0.09-10.127,4.231-10.04,9.731c0.091,5.527,4.526,9.613,10.349,9.518
	c5.854-0.092,10.157-4.342,10.066-9.844C559.821,264.536,555.384,260.508,549.53,260.604 M549.835,275.837
	c-2.889,0.047-5.384-2.369-5.436-5.553c-0.049-3.182,2.338-5.62,5.252-5.667c2.91-0.047,5.269,2.317,5.318,5.502
	C555.026,273.3,552.743,275.79,549.835,275.837"/>
<path fill="#084266" d="M580.884,262.49c-1.02-4.087-4.365-5.696-9.204-4.493l-8.196,2.043l4.562,18.324l4.656-1.161l-1.281-5.155
	l3.535-0.883l0.13-0.033l4.005,4.479l5.285-1.314l-5.348-5.092C580.903,267.596,581.579,265.289,580.884,262.49 M574.042,267.5
	l-3.533,0.882l-1.449-5.836l3.528-0.881c2.015-0.5,3.437,0.17,3.911,2.086C576.981,265.687,576.054,267.001,574.042,267.5"/>
<path fill="#084266" d="M611.437,251.099l-3.633-0.11c0.348,1.101,0.551,2.196,0.621,3.22c-1.674-0.316-3.045-0.631-4.213-0.924
	c1.243-2.223,2.297-4.578,0.834-6.777c-1.37-2.067-4.184-2.303-6.833-0.537c-2.741,1.822-3.507,4.471-1.979,6.76
	c0.744,1.123,1.829,1.922,3.672,2.643c-1.052,2.028-1.733,4.166-0.333,6.277c1.781,2.674,5.318,3.07,8.39,1.024
	c1.621-1.076,2.781-2.692,3.366-4.636l3.661,0.678l0.684-3.207l-3.814-0.672C611.882,253.657,611.745,252.387,611.437,251.099
	 M599.267,250.713c-0.616-0.923-0.504-1.966,0.442-2.595c0.854-0.568,1.792-0.38,2.325,0.429c0.715,1.077,0.27,2.411-0.484,3.851
	C600.419,251.921,599.694,251.366,599.267,250.713 M606.317,259.853c-1.329,0.884-2.902,0.702-3.76-0.578
	c-0.58-0.879-0.395-1.908,0.092-3.039c1.455,0.39,3.25,0.753,5.416,1.186C607.724,258.466,607.125,259.313,606.317,259.853"/>
<path fill="#084266" d="M619.16,226.952l10.313,17.789l2.944-3.967l-1.978-3.18l4.914-6.629l3.6,0.99l3.055-4.114l-19.906-4.854
	L619.16,226.952z M631.599,229.923l-3.248,4.379l-3.975-6.372L631.599,229.923z"/>
<polygon fill="#084266" points="627.946,206.458 646.651,225.032 648.335,221.499 629.63,202.928 "/>
<path fill="#084266" d="M648.706,192.912c0.963,1.627,1.322,3.626,0.9,5.161c-0.775,2.891-3.686,4.454-6.732,3.629
	c-2.996-0.809-4.701-3.615-3.915-6.506c0.433-1.612,1.823-3.14,3.606-3.943l-2.452-3.541c-2.374,1.319-4.328,3.808-5.055,6.516
	c-1.503,5.55,1.329,10.811,6.589,12.23c5.336,1.438,10.477-1.561,11.959-7.055c0.727-2.682,0.176-5.934-1.301-8.427L648.706,192.912
	z"/>
<path fill="#CA312A" d="M549.405,153.293c0.107-0.181,0.178-0.378,0.278-0.562c0.103,0.184,0.175,0.381,0.282,0.562
	c5.563,9.624,15.949,16.114,27.878,16.114h32.214c0-5.875-1.599-11.365-4.346-16.114c-5.573-9.622-15.952-16.104-27.868-16.104
	h-24.098h-8.132h-24.087c-11.923,0-22.3,6.483-27.874,16.104c-2.75,4.75-4.352,10.239-4.352,16.114h32.226
	C533.448,169.408,543.825,162.917,549.405,153.293"/>
<path fill="#084266" d="M549.966,191.785c-0.107,0.176-0.18,0.374-0.28,0.562c-0.103-0.188-0.173-0.386-0.28-0.562
	c-5.58-9.626-15.96-16.116-27.878-16.116h-32.226c0,5.885,1.604,11.371,4.352,16.116c5.574,9.618,15.951,16.109,27.874,16.109
	h24.087h8.132h24.098c11.916,0,22.295-6.491,27.868-16.109c2.747-4.745,4.346-10.231,4.346-16.116h-32.214
	C565.915,175.669,555.529,182.159,549.966,191.785"/>
<path fill="#CA312A" d="M461.888,152.133l-5.121-1.381l0.938-3.511l0.035-0.132l5.859-1.33l1.409-5.263l-7.042,2.214
	c-0.493-2.423-2.188-4.132-4.971-4.884c-4.066-1.086-7.095,1.058-8.393,5.88l-2.188,8.149l18.232,4.892L461.888,152.133z
	 M454.054,146.261l-0.938,3.515l-5.812-1.559l0.943-3.514c0.538-2.006,1.824-2.92,3.72-2.41
	C453.894,142.812,454.599,144.255,454.054,146.261"/>
<path fill="#CA312A" d="M459.161,129.887c4.732,2.857,10.543,1.267,13.553-3.717c3.023-5.009,1.703-10.904-2.998-13.751
	c-4.682-2.833-10.449-1.215-13.475,3.795C453.228,121.199,454.452,127.039,459.161,129.887 M459.703,118.243
	c1.509-2.49,4.765-3.235,7.485-1.589c2.725,1.646,3.62,4.899,2.117,7.388c-1.49,2.473-4.859,3.3-7.586,1.658
	C458.993,124.054,458.199,120.737,459.703,118.243"/>
<path fill="#CA312A" d="M488.833,106.42c2.017-1.906,3.246-4.961,3.287-7.856l-4.073-0.226c-0.03,1.884-0.768,3.771-1.925,4.866
	c-2.172,2.054-5.463,1.87-7.631-0.418c-2.139-2.255-2.123-5.536,0.052-7.592c1.219-1.146,3.194-1.722,5.13-1.476l-0.242-4.297
	c-2.703-0.114-5.666,0.988-7.701,2.912c-4.176,3.949-4.513,9.906-0.768,13.862C478.752,110.207,484.701,110.332,488.833,106.42"/>
<polygon fill="#CA312A" points="504.128,94.763 501.933,90.675 502.826,87.042 510.729,91.216 515.79,88.498 503.98,82.293 
	506.456,72.091 501.56,74.717 499.065,85.332 495.193,78.136 490.972,80.409 499.905,97.034 "/>
<polygon fill="#CA312A" points="527.051,85.317 531.699,84.245 530.327,78.306 534.124,64.314 529.45,65.396 526.965,74.409 
	520.681,67.422 515.997,68.502 525.712,79.513 "/>
<polygon fill="#CA312A" points="561.38,70.691 564.059,81.699 567.142,82.235 573.392,72.79 571.306,84.882 575.479,85.611 
	578.731,66.985 573.575,66.083 566.591,76.28 563.483,64.319 558.302,63.416 555.044,82.04 559.27,82.778 "/>
<path fill="#CA312A" d="M591.417,92.963c5.178,2.721,10.99,1.058,13.55-3.812c2.552-4.845,0.595-10.505-4.586-13.23
	c-5.151-2.711-10.92-1.142-13.478,3.728C584.331,84.542,586.261,90.25,591.417,92.963 M591.237,81.956
	c1.477-2.816,4.741-3.812,7.317-2.453c2.581,1.355,3.521,4.558,2.038,7.375c-1.482,2.816-4.679,3.907-7.254,2.553
	C590.784,88.086,589.755,84.773,591.237,81.956"/>
<path fill="#CA312A" d="M623.989,108.081l7.609-7.874l-3.436-3.312l-7.604,7.874c-1.782,1.84-3.974,1.896-5.603,0.323
	c-1.647-1.593-1.743-3.859,0.034-5.703l7.607-7.871l-3.451-3.336l-7.607,7.871c-3.469,3.589-3.218,8.219,0.605,11.911
	C615.944,111.633,620.521,111.667,623.989,108.081"/>
<polygon fill="#CA312A" points="625.729,124.091 635.807,118.298 630.058,131.62 632.165,135.286 648.53,125.883 646.296,122.001 
	636.198,127.808 641.954,114.454 639.848,110.783 623.486,120.186 "/>
<polygon fill="#CA312A" points="636.079,146.933 637.316,151.571 651.837,147.7 653.306,153.197 657.056,152.195 652.897,136.612 
	649.146,137.61 650.599,143.062 "/>
<polygon fill="#084266" points="451.474,177.833 458.242,172.54 451.474,167.251 444.688,172.54 "/>
<polygon fill="#084266" points="641.118,172.54 647.892,177.833 654.663,172.54 647.892,167.251 "/>
<path fill="#CA312A" d="M549.684,51.383c-66.809,0-121.16,54.348-121.16,121.156c0,66.804,54.352,121.159,121.16,121.159
	c66.806,0,121.155-54.354,121.155-121.159C670.839,105.731,616.489,51.383,549.684,51.383 M549.684,288.769
	c-64.092,0-116.234-52.139-116.234-116.229c0-64.091,52.143-116.23,116.234-116.23c64.089,0,116.235,52.139,116.235,116.23
	C665.919,236.63,613.772,288.769,549.684,288.769"/>
<path fill="#084266" d="M466.878,172.54c0,45.657,37.147,82.805,82.806,82.805c45.655,0,82.804-37.148,82.804-82.805
	c0-45.661-37.148-82.805-82.804-82.805C504.025,89.735,466.878,126.878,466.878,172.54 M549.684,94.66
	c42.943,0,77.88,34.936,77.88,77.879c0,42.942-34.937,77.879-77.88,77.879c-42.946,0-77.888-34.938-77.888-77.879
	C471.796,129.596,506.737,94.66,549.684,94.66"/>
</svg>
