<?xml version="1.0" encoding="utf-8"?>
<!-- Generator: Adobe Illustrator 15.0.2, SVG Export Plug-In  -->
<!DOCTYPE svg PUBLIC "-//W3C//DTD SVG 1.1//EN" "http://www.w3.org/Graphics/SVG/1.1/DTD/svg11.dtd" [
	<!ENTITY ns_flows "http://ns.adobe.com/Flows/1.0/">
]>
<svg version="1.1"
	 xmlns="http://www.w3.org/2000/svg" xmlns:xlink="http://www.w3.org/1999/xlink" xmlns:a="http://ns.adobe.com/AdobeSVGViewerExtensions/3.0/"
	 x="0px" y="0px" width="736px" height="225px" viewBox="-1.507 -44.95 736 225"
	 overflow="visible" enable-background="new -1.507 -44.95 736 225" xml:space="preserve">
<defs>
</defs>
<path fill="#CA312A" d="M253.307,32.619h8.65h0.323l6.671,12.629h12.941l-9.415-14.802c5.253-2.627,8.129-7.563,8.129-14.423
	c0-9.995-6.79-15.645-18.649-15.645H241.9v44.869h11.406V32.619z M253.307,9.358h8.65c4.939,0,7.815,2.373,7.815,7.049
	c0,4.741-2.876,7.243-7.815,7.243h-8.65V9.358z"/>
<path fill="#CA312A" d="M309.57,45.761c13.915,0,24.294-9.936,24.294-23.007c0-13.012-10.379-22.753-24.294-22.753
	c-13.839,0-24.229,9.682-24.229,22.753C285.342,35.889,295.731,45.761,309.57,45.761 M309.7,9.553
	c6.92,0,12.434,5.709,12.434,13.267c0,7.562-5.514,13.39-12.434,13.39c-6.855,0-12.693-5.828-12.693-13.39
	C297.007,15.262,302.781,9.553,309.7,9.553"/>
<path fill="#CA312A" d="M371.543,30.506c-3.146,3.205-7.504,5.26-11.287,5.26c-7.114,0-12.488-5.708-12.488-13.206
	c0-7.368,5.374-13.006,12.488-13.006c3.978,0,8.344,2.237,11.287,5.827l6.594-7.817C373.65,2.958,366.73,0,360.073,0
	c-13.656,0-23.971,9.741-23.971,22.688c0,13.137,10.066,23.072,23.58,23.072c6.596,0,13.72-3.271,18.521-8.206L371.543,30.506z"/>
<polygon fill="#CA312A" points="394.797,34.225 400.756,27.625 412.617,45.247 426.26,45.247 408.508,18.97 425.18,0.384 
	411.977,0.384 394.797,19.808 394.797,0.384 383.393,0.379 383.393,45.247 394.797,45.247 "/>
<polygon fill="#CA312A" points="443.051,45.247 454.391,45.247 454.391,30.766 470.674,0.384 459.268,0.384 448.693,19.938 
	437.859,0.384 426.443,0.384 443.051,31.084 "/>
<path fill="#CA312A" d="M569.287,45.761c13.914,0,24.283-9.936,24.283-23.007C593.57,9.741,583.201,0,569.287,0
	c-13.85,0-24.23,9.682-24.23,22.754C545.057,35.89,555.438,45.761,569.287,45.761 M569.418,9.558
	c6.908,0,12.422,5.703,12.422,13.261c0,7.562-5.514,13.39-12.422,13.39c-6.867,0-12.693-5.827-12.693-13.39
	C556.725,15.261,562.486,9.558,569.418,9.558"/>
<path fill="#CA312A" d="M619.518,45.761c12.564,0,20.445-7.497,20.445-19.353V0.385h-11.342v26.023c0,6.086-3.654,9.801-9.037,9.801
	c-5.449,0-9.342-3.715-9.342-9.801V0.385h-11.406v26.023C598.836,38.264,606.902,45.761,619.518,45.761"/>
<polygon fill="#CA312A" points="658.873,17.623 679.5,45.248 689.566,45.248 689.566,0.385 678.928,0.385 678.928,28.074 
	658.234,0.385 648.17,0.385 648.17,45.248 658.873,45.248 "/>
<polygon fill="#CA312A" points="707.893,45.247 719.299,45.247 719.299,9.56 732.814,9.56 732.814,0.324 694.486,0.324 
	694.486,9.56 707.893,9.56 "/>
<polygon fill="#CA312A" points="493.605,35.744 497.963,27.544 502.232,19.44 502.232,27.544 502.232,35.744 502.232,45.063 
	502.137,45.231 502.232,45.231 513.586,45.231 513.996,45.231 519.002,35.744 523.359,27.544 527.629,19.44 527.629,27.544 
	527.629,35.744 527.629,45.231 538.982,45.231 538.982,36.257 538.982,27.154 538.982,18.239 538.982,9.331 538.982,0.342 
	527.629,0.342 527.629,0.373 513.586,25.094 513.586,18.239 513.586,9.331 513.586,0.342 502.232,0.342 502.232,0.373 
	476.738,45.231 488.6,45.231 "/>
<path fill="#104A74" d="M396.27,61.217H364.86v73.049h30.683c23.484,0,39.561-14.92,39.561-36.527
	C435.104,76.033,419.232,61.217,396.27,61.217 M396.689,119.441h-13.254V76.033h12.422c11.797,0,20.348,8.865,20.348,21.812
	C416.205,110.682,408.074,119.441,396.689,119.441"/>
<rect x="438.889" y="61.216" fill="#104A74" width="18.586" height="73.05"/>
<path fill="#104A74" d="M491.951,61.217l-31.527,73.049h19.105l5.318-13.459h31.938l5.223,13.459h19.828l-30.793-73.049H491.951z
	 M490.287,106.723l10.639-27.033l10.434,27.033H490.287z"/>
<polygon fill="#104A74" points="588.424,61.108 526.02,61.108 526.02,76.135 547.826,76.135 547.826,134.266 566.412,134.266 
	566.412,76.135 588.424,76.135 "/>
<path fill="#104A74" d="M623.422,60.584c-22.543,0-39.441,15.764-39.441,37.051c0,21.396,16.898,37.465,39.441,37.465
	c22.65,0,39.559-16.176,39.559-37.465C662.98,76.451,646.072,60.584,623.422,60.584 M623.637,119.551
	c-11.166,0-20.672-9.498-20.672-21.812s9.396-21.604,20.672-21.604c11.266,0,20.252,9.289,20.252,21.604
	S634.902,119.551,623.637,119.551"/>
<path fill="#104A74" d="M717.654,110.156c8.541-4.271,13.246-12.309,13.246-23.479c0-16.277-11.061-25.462-30.371-25.462h-32.662
	v73.05h18.574v-20.553h14.088h0.52l10.855,20.553h21.082L717.654,110.156z M700.529,99.094h-14.088V75.822h14.088
	c8.035,0,12.736,3.867,12.736,11.479C713.266,95.025,708.564,99.094,700.529,99.094"/>
<path fill="#104A74" d="M329.064,61.292l-32.383,56.981l-5.166-8.117c8.551-4.277,13.245-12.311,13.245-23.479
	c0-16.277-11.062-25.462-30.371-25.462h-32.661v73.05h18.586v-20.553h14.075h0.529l10.855,20.553h1.816l-0.021,0.033h19.287
	l8.142-15.43h25.018v15.43h18.455v-14.596V104.9V90.402v-14.48v-14.63h-18.455H329.064z M274.39,99.096h-14.075V75.822h14.075
	c8.043,0,12.735,3.867,12.735,11.479C287.125,95.025,282.433,99.096,274.39,99.096 M340.016,105.533H322.09l15.839-30.035h2.087
	V105.533z"/>
<path fill="#0D4266" d="M115.447,103.986c-0.194,0.348-0.346,0.725-0.53,1.07c-0.194-0.346-0.334-0.723-0.54-1.07
	c-10.596-18.33-30.369-30.672-53.041-30.672H0.001c0,11.201,3.038,21.645,8.261,30.672c10.595,18.328,30.358,30.674,53.074,30.674
	h45.841h15.481h45.864c22.671,0,42.424-12.346,53.053-30.674c5.232-9.027,8.271-19.471,8.271-30.672h-61.323
	C145.817,73.314,126.053,85.662,115.447,103.986"/>
<path fill="#CA312A" d="M168.522,0.064h-45.864h-15.481H61.336c-22.716,0-42.479,12.337-53.075,30.663
	C3.039,39.755,0,50.199,0,61.39h61.336c22.672,0,42.445-12.348,53.041-30.662c0.206-0.341,0.346-0.72,0.542-1.064
	c0.183,0.345,0.334,0.724,0.528,1.064c10.605,18.314,30.37,30.662,53.075,30.662h61.323c0-11.19-3.039-21.635-8.271-30.662
	C210.945,12.401,191.193,0.064,168.522,0.064"/>
</svg>
