<?xml version="1.0" encoding="utf-8"?>
<!-- Generator: Adobe Illustrator 15.0.2, SVG Export Plug-In  -->
<!DOCTYPE svg PUBLIC "-//W3C//DTD SVG 1.1//EN" "http://www.w3.org/Graphics/SVG/1.1/DTD/svg11.dtd" [
	<!ENTITY ns_flows "http://ns.adobe.com/Flows/1.0/">
]>
<svg version="1.1"
	 xmlns="http://www.w3.org/2000/svg" xmlns:xlink="http://www.w3.org/1999/xlink" xmlns:a="http://ns.adobe.com/AdobeSVGViewerExtensions/3.0/"
	 x="0px" y="0px" width="736px" height="225px" viewBox="-1.444 60.134 736 225"
	 overflow="visible" enable-background="new -1.444 60.134 736 225" xml:space="preserve">
<defs>
</defs>
<path display="none" fill="none" d="M301.867,151.918h-13.25v21.891h13.25c7.553,0,11.975-3.824,11.975-11.094
	C313.842,155.555,309.42,151.918,301.867,151.918z"/>
<polygon display="none" fill="none" points="346.709,179.863 363.578,179.863 363.578,151.619 361.611,151.619 "/>
<polygon display="none" fill="none" points="504.879,180.973 524.703,180.973 514.879,155.555 "/>
<path display="none" fill="none" d="M416.09,152.119h-11.686v40.828h12.457c10.705,0,18.361-8.254,18.361-20.318
	C435.223,160.457,427.184,152.119,416.09,152.119z"/>
<path display="none" fill="none" d="M157.154,152.08h-13.23v21.842h13.23c7.541,0,11.953-3.824,11.953-11.066
	C169.107,155.703,164.695,152.08,157.154,152.08z"/>
<path display="none" fill="none" d="M630.273,152.215c-10.596,0-19.428,8.736-19.428,20.318c0,11.576,8.932,20.514,19.428,20.514
	c10.605,0,19.047-8.938,19.047-20.514C649.32,160.951,640.879,152.215,630.273,152.215z"/>
<path display="none" fill="none" d="M702.596,151.918H689.34v21.891h13.256c7.555,0,11.967-3.824,11.967-11.094
	C714.562,155.555,710.15,151.918,702.596,151.918z"/>
<path display="none" fill="#0C4166" d="M59.164,191.152c-0.104,0.176-0.174,0.371-0.275,0.551c-0.09-0.18-0.16-0.375-0.264-0.551
	c-5.447-9.395-15.564-15.715-27.199-15.715H0c0,5.736,1.561,11.088,4.24,15.715c5.434,9.389,15.564,15.715,27.186,15.715H54.93h7.93
	h23.504c11.615,0,21.746-6.326,27.18-15.715c2.691-4.627,4.246-9.979,4.246-15.715H86.363
	C74.729,175.438,64.605,181.758,59.164,191.152z"/>
<path display="none" fill="#CA302A" d="M86.363,137.898H62.859h-7.93H31.426c-11.621,0-21.752,6.324-27.186,15.713
	C1.561,158.234,0,163.594,0,169.326h31.426c11.635,0,21.752-6.334,27.199-15.715c0.104-0.176,0.174-0.367,0.264-0.549
	c0.102,0.182,0.172,0.373,0.275,0.549c5.441,9.381,15.564,15.715,27.199,15.715h31.426c0-5.732-1.555-11.092-4.246-15.715
	C108.109,144.223,97.979,137.898,86.363,137.898z"/>
<path display="none" fill="#0C4166" d="M416.479,138.186h-29.541v68.703h28.85c22.096,0,37.205-14.043,37.205-34.355
	C452.992,152.119,438.07,138.186,416.479,138.186z M416.861,192.947h-12.457v-40.828h11.686c11.094,0,19.133,8.338,19.133,20.51
	C435.223,184.693,427.566,192.947,416.861,192.947z"/>
<rect x="456.559" y="138.186" display="none" fill="#0C4166" width="17.48" height="68.703"/>
<path display="none" fill="#0C4166" d="M506.436,138.186l-29.623,68.703h17.965l4.99-12.674h30.039l4.91,12.674h18.648
	l-28.957-68.703H506.436z M504.879,180.973l10-25.418l9.824,25.418H504.879z"/>
<polygon display="none" fill="#0C4166" points="597.166,138.094 538.484,138.094 538.484,152.215 558.994,152.215 558.994,206.889 
	576.469,206.889 576.469,152.215 597.166,152.215 "/>
<path display="none" fill="#0C4166" d="M630.086,137.6c-21.201,0-37.098,14.818-37.098,34.832c0,20.125,15.896,35.236,37.098,35.236
	c21.289,0,37.199-15.211,37.199-35.236C667.285,152.51,651.375,137.6,630.086,137.6z M630.273,193.047
	c-10.496,0-19.428-8.938-19.428-20.514c0-11.582,8.832-20.318,19.428-20.318c10.605,0,19.047,8.736,19.047,20.318
	C649.32,184.109,640.879,193.047,630.273,193.047z"/>
<path display="none" fill="#0C4166" d="M718.688,184.209c8.045-4.016,12.449-11.58,12.449-22.082
	c0-15.303-10.389-23.941-28.541-23.941h-30.717v68.703h17.461v-19.336h13.256h0.496l10.201,19.336h19.818L718.688,184.209z
	 M702.596,173.809H689.34v-21.891h13.256c7.555,0,11.967,3.637,11.967,10.797C714.562,169.984,710.15,173.809,702.596,173.809z"/>
<path display="none" fill="#0C4166" d="M353.275,138.266l-30.451,53.572l-4.855-7.629c8.039-4.023,12.457-11.58,12.457-22.082
	c0-15.303-10.398-23.941-28.559-23.941h-30.721v68.703h17.471v-19.336h13.25h0.498l10.203,19.336h1.693l-0.014,0.033h18.146
	l7.645-14.52h23.539v14.52h17.355v-13.734v-13.922v-13.627V152.02v-13.754h-17.355H353.275z M301.867,173.809h-13.25v-21.891h13.25
	c7.553,0,11.975,3.637,11.975,10.797C313.842,169.984,309.42,173.809,301.867,173.809z M363.578,179.863h-16.869l14.902-28.244
	h1.967V179.863z"/>
<path display="none" fill="#CA302A" d="M246.971,138.365l-21.48,37.803v-10.482v-13.627v-13.746h-17.354v0.053l-30.271,53.252
	l-4.654-7.307c8.049-4.016,12.455-11.553,12.455-22.051c0-15.281-10.383-23.906-28.512-23.906h-30.678v68.588h17.447v-19.307h13.23
	h0.482l10.195,19.307h1.322h18.137h0.336l-0.186-0.281l7.484-14.217l6.672-12.545l6.539-12.393v12.393v12.545v14.244l-0.145,0.254
	h0.145h17.354h0.627l7.65-14.498l6.664-12.545l6.539-12.393v12.393v12.545v14.498h17.359v-13.719v-13.908v-13.629v-13.627v-13.746
	h-17.359V138.365z M157.154,173.922h-13.23V152.08h13.23c7.541,0,11.953,3.623,11.953,10.775
	C169.107,170.098,164.695,173.922,157.154,173.922z"/>
<polygon display="none" fill="none" points="368.938,260.485 386.093,260.485 377.599,238.489 "/>
<path display="none" fill="none" d="M433.351,184.932c-5.646,0-10.338,4.637-10.338,10.796c0,6.15,4.746,10.896,10.338,10.896
	c5.621,0,10.102-4.746,10.102-10.896C443.452,189.568,438.972,184.932,433.351,184.932z"/>
<path display="none" fill="none" d="M193.241,235.345h-11.47v18.938h11.47c6.551,0,10.367-3.314,10.367-9.6
	C203.608,238.489,199.792,235.345,193.241,235.345z"/>
<path display="none" fill="none" d="M292.091,235.511h-10.099v35.332h10.78c9.263,0,15.878-7.132,15.878-17.576
	C308.651,242.731,301.697,235.511,292.091,235.511z"/>
<path display="none" fill="none" d="M189.477,190.507c0-3.801-2.333-5.737-6.354-5.737h-7.041V196.4h7.041
	C187.144,196.4,189.477,194.367,189.477,190.507z"/>
<path display="none" fill="none" d="M540.048,235.345h-11.461v18.938h11.461c6.539,0,10.367-3.314,10.367-9.6
	C550.415,238.489,546.587,235.345,540.048,235.345z"/>
<polygon display="none" fill="none" points="232.055,259.523 246.654,259.523 246.654,235.079 244.948,235.079 "/>
<path display="none" fill="none" d="M477.476,235.593c-9.184,0-16.828,7.563-16.828,17.583c0,10.021,7.742,17.756,16.828,17.756
	c9.162,0,16.48-7.734,16.48-17.756C493.956,243.156,486.638,235.593,477.476,235.593z"/>
<path display="none" fill="none" d="M221.971,206.624c5.639,0,10.119-4.746,10.119-10.896c0-6.159-4.48-10.796-10.119-10.796
	c-5.63,0-10.332,4.637-10.332,10.796C211.639,201.878,216.396,206.624,221.971,206.624z"/>
<path display="none" fill="#CA302A" d="M176.082,203.698h7.041h0.258l5.427,10.278h10.532l-7.66-12.046
	c4.276-2.136,6.619-6.148,6.619-11.735c0-8.129-5.524-12.734-15.176-12.734h-16.329v36.516h9.288V203.698z M176.082,184.77h7.041
	c4.021,0,6.354,1.937,6.354,5.737c0,3.86-2.333,5.894-6.354,5.894h-7.041V184.77z"/>
<path display="none" fill="#CA302A" d="M221.866,214.401c11.327,0,19.778-8.095,19.778-18.726c0-10.597-8.451-18.521-19.778-18.521
	c-11.259,0-19.706,7.882-19.706,18.521C202.16,206.358,210.607,214.401,221.866,214.401z M221.971,184.932
	c5.639,0,10.119,4.637,10.119,10.796c0,6.15-4.48,10.896-10.119,10.896c-5.575,0-10.332-4.746-10.332-10.896
	C211.639,189.568,216.341,184.932,221.971,184.932z"/>
<path display="none" fill="#CA302A" d="M272.307,201.985c-2.555,2.605-6.106,4.278-9.184,4.278c-5.797,0-10.17-4.643-10.17-10.747
	c0-6,4.373-10.585,10.17-10.585c3.234,0,6.788,1.819,9.184,4.743l5.373-6.361c-3.659-3.756-9.289-6.159-14.716-6.159
	c-11.107,0-19.492,7.925-19.492,18.467c0,10.686,8.173,18.78,19.185,18.78c5.372,0,11.161-2.66,15.075-6.682L272.307,201.985z"/>
<polygon display="none" fill="#CA302A" points="281.947,177.461 281.947,213.977 291.235,213.977 291.235,205.007 296.086,199.636 
	305.737,213.977 316.845,213.977 302.386,192.59 315.96,177.47 305.207,177.47 291.235,193.271 291.235,177.47 "/>
<polygon display="none" fill="#CA302A" points="339.731,213.977 339.731,202.188 352.978,177.47 343.701,177.47 335.102,193.379 
	326.274,177.47 316.985,177.47 330.506,202.453 330.506,213.977 "/>
<path display="none" fill="#CA302A" d="M433.235,177.154c-11.266,0-19.713,7.882-19.713,18.521c0,10.683,8.447,18.726,19.713,18.726
	c11.328,0,19.768-8.088,19.768-18.726C453.003,185.079,444.563,177.154,433.235,177.154z M433.351,206.624
	c-5.592,0-10.338-4.746-10.338-10.896c0-6.159,4.691-10.796,10.338-10.796c5.621,0,10.102,4.637,10.102,10.796
	C443.452,201.878,438.972,206.624,433.351,206.624z"/>
<path display="none" fill="#CA302A" d="M457.28,177.47v21.176c0,9.646,6.576,15.756,16.844,15.756
	c10.215,0,16.633-6.109,16.633-15.756V177.47h-9.227v21.176c0,4.955-2.98,7.979-7.359,7.979c-4.438,0-7.609-3.023-7.609-7.979
	V177.47H457.28z"/>
<polygon display="none" fill="#CA302A" points="506.14,191.495 522.94,213.977 531.122,213.977 531.122,177.47 522.472,177.47 
	522.472,200.006 505.628,177.47 497.435,177.47 497.435,213.977 506.14,213.977 "/>
<polygon display="none" fill="#CA302A" points="546.048,213.977 555.329,213.977 555.329,184.932 566.321,184.932 566.321,177.418 
	535.136,177.418 535.136,184.932 546.048,184.932 "/>
<polygon display="none" fill="#CA302A" points="399.337,206.243 399.337,213.968 408.581,213.968 408.581,206.661 408.581,199.254 
	408.581,191.999 408.581,184.752 408.581,177.434 399.337,177.434 399.337,177.461 387.903,197.575 387.903,191.999 
	387.903,184.752 387.903,177.434 378.667,177.434 378.667,177.461 357.918,213.968 367.569,213.968 371.642,206.243 
	375.194,199.572 378.667,192.972 378.667,199.572 378.667,206.243 378.667,213.824 378.589,213.968 378.667,213.968 
	387.903,213.968 388.247,213.968 392.312,206.243 395.864,199.572 399.337,192.972 399.337,199.572 "/>
<path display="none" fill="#0C4166" d="M292.436,223.448h-25.563v59.457h24.974c19.104,0,32.184-12.142,32.184-29.729
	C324.03,235.511,311.125,223.448,292.436,223.448z M292.773,270.843h-10.78v-35.332h10.099c9.605,0,16.56,7.221,16.56,17.756
	C308.651,263.711,302.036,270.843,292.773,270.843z"/>
<rect x="327.123" y="223.448" display="none" fill="#0C4166" width="15.118" height="59.457"/>
<path display="none" fill="#0C4166" d="M370.3,223.448l-25.655,59.457h15.545l4.337-10.96h25.992l4.25,10.96h16.137l-25.062-59.457
	H370.3z M368.938,260.485l8.66-21.996l8.494,21.996H368.938z"/>
<polygon display="none" fill="#0C4166" points="448.813,223.371 398.021,223.371 398.021,235.593 415.774,235.593 415.774,282.905 
	430.903,282.905 430.903,235.593 448.813,235.593 "/>
<path display="none" fill="#0C4166" d="M477.296,222.938c-18.352,0-32.104,12.83-32.104,30.149c0,17.42,13.752,30.498,32.104,30.498
	c18.426,0,32.193-13.167,32.193-30.498C509.489,235.847,495.722,222.938,477.296,222.938z M477.476,270.932
	c-9.086,0-16.828-7.734-16.828-17.756c0-10.02,7.645-17.583,16.828-17.583c9.162,0,16.48,7.563,16.48,17.583
	C493.956,263.197,486.638,270.932,477.476,270.932z"/>
<path display="none" fill="#0C4166" d="M553.985,263.286c6.963-3.48,10.779-10.02,10.779-19.114
	c0-13.246-8.994-20.724-24.717-20.724h-26.58v59.457h15.119v-16.729h11.461h0.424l8.838,16.729h17.15L553.985,263.286z
	 M540.048,254.282h-11.461v-18.938h11.461c6.539,0,10.367,3.145,10.367,9.338C550.415,250.968,546.587,254.282,540.048,254.282z"/>
<path display="none" fill="#0C4166" d="M237.736,223.52l-26.361,46.376l-4.205-6.609c6.964-3.48,10.79-10.02,10.79-19.114
	c0-13.246-9.006-20.724-24.719-20.724h-26.588v59.457h15.118v-16.729h11.47h0.433l8.821,16.729h1.485l-0.01,0.027h15.695
	l6.619-12.558h20.369v12.558h15.014v-11.878v-12.044v-11.808v-11.781V223.52h-15.014H237.736z M193.241,254.282h-11.47v-18.938
	h11.47c6.551,0,10.367,3.145,10.367,9.338C203.608,250.968,199.792,254.282,193.241,254.282z M246.654,259.523h-14.599
	l12.893-24.444h1.706V259.523z"/>
<path display="none" fill="#0C4166" d="M323.975,167.979h36.438h12.299h36.434c18.021,0,33.723-9.816,42.162-24.375
	c4.162-7.179,6.572-15.472,6.572-24.371h-48.734c-18.035,0-33.74,9.811-42.16,24.371c-0.159,0.276-0.273,0.576-0.426,0.844
	c-0.148-0.268-0.265-0.567-0.423-0.844c-8.43-14.561-24.134-24.371-42.162-24.371h-48.733c0,8.899,2.419,17.192,6.572,24.371
	C290.238,158.163,305.94,167.979,323.975,167.979z"/>
<path display="none" fill="#CA302A" d="M366.137,85.393c0.158-0.271,0.274-0.57,0.423-0.849c0.152,0.278,0.267,0.578,0.426,0.849
	c8.419,14.554,24.125,24.362,42.16,24.362h48.734c0-8.89-2.41-17.19-6.572-24.362c-8.439-14.558-24.141-24.363-42.162-24.363
	h-36.434h-12.299h-36.438c-18.035,0-33.737,9.806-42.161,24.363c-4.153,7.172-6.572,15.473-6.572,24.362h48.733
	C342.003,109.755,357.708,99.946,366.137,85.393z"/>
<path display="none" fill="none" d="M441.003,151.382h-13.078v21.627h13.078c7.467,0,11.836-3.781,11.836-10.963
	C452.839,154.978,448.47,151.382,441.003,151.382z"/>
<polygon display="none" fill="none" points="485.302,178.989 501.962,178.989 501.962,151.093 500.024,151.093 "/>
<path display="none" fill="none" d="M553.837,151.581H542.3v40.324h12.303c10.574,0,18.139-8.139,18.139-20.064
	C572.741,159.817,564.8,151.581,553.837,151.581z"/>
<path display="none" fill="none" d="M298.058,151.544h-13.074v21.58h13.074c7.449,0,11.811-3.781,11.811-10.941
	C309.868,155.122,305.507,151.544,298.058,151.544z"/>
<path display="none" fill="#0C4166" d="M201.267,190.149c-0.104,0.166-0.178,0.359-0.273,0.525c-0.096-0.166-0.162-0.359-0.27-0.525
	c-5.375-9.285-15.377-15.535-26.861-15.535h-31.043c0,5.666,1.541,10.963,4.188,15.535c5.375,9.268,15.369,15.521,26.855,15.521
	h23.213h7.836h23.221c11.475,0,21.477-6.254,26.848-15.521c2.654-4.572,4.191-9.869,4.191-15.535h-31.039
	C216.64,174.614,206.63,180.864,201.267,190.149z"/>
<path display="none" fill="#CA302A" d="M228.132,137.534h-23.221h-7.836h-23.213c-11.486,0-21.48,6.248-26.855,15.521
	c-2.646,4.568-4.188,9.855-4.188,15.525h31.043c11.484,0,21.486-6.254,26.861-15.525c0.107-0.174,0.174-0.361,0.27-0.539
	c0.096,0.178,0.17,0.365,0.273,0.539c5.363,9.271,15.373,15.525,26.865,15.525h31.039c0-5.67-1.537-10.957-4.191-15.525
	C249.608,143.782,239.606,137.534,228.132,137.534z"/>
<path display="none" fill="#0C4166" d="M554.222,137.819h-29.176v67.863h28.502c21.816,0,36.744-13.869,36.744-33.938
	C590.292,151.581,575.55,137.819,554.222,137.819z M554.603,191.905H542.3v-40.324h11.537c10.963,0,18.904,8.236,18.904,20.26
	C572.741,183.767,565.177,191.905,554.603,191.905z"/>
<path display="none" fill="#0C4166" d="M491.792,137.894l-30.082,52.926l-4.797-7.537c7.943-3.975,12.309-11.441,12.309-21.816
	c0-15.111-10.275-23.646-28.219-23.646h-30.34v67.863h17.262v-19.1h13.078h0.492l10.084,19.1h1.674l-0.012,0.033h17.922
	l7.551-14.342h23.248v14.342h17.143v-13.566v-13.754v-13.459v-13.451v-13.592h-17.143H491.792z M441.003,173.009h-13.078v-21.627
	h13.078c7.467,0,11.836,3.596,11.836,10.664C452.839,169.228,448.47,173.009,441.003,173.009z M501.962,178.989h-16.66
	l14.723-27.896h1.938V178.989z"/>
<path display="none" fill="#CA302A" d="M386.78,137.997l-21.215,37.342v-10.361v-13.451v-13.582h-17.146v0.053l-29.908,52.604
	l-4.588-7.219c7.947-3.967,12.299-11.412,12.299-21.779c0-15.094-10.254-23.621-28.164-23.621h-30.307v67.752h17.232v-19.066h13.074
	h0.48l10.07,19.066h1.305h17.912h0.326l-0.178-0.277l7.396-14.043l6.594-12.393l6.455-12.24v12.24v12.393v14.076l-0.141,0.244h0.141
	h17.146h0.611l7.555-14.32l6.592-12.393l6.457-12.24v12.24v12.393v14.32h17.141v-13.547v-13.74v-13.469v-13.451v-13.582H386.78
	V137.997z M298.058,173.124h-13.074v-21.58h13.074c7.449,0,11.811,3.578,11.811,10.639
	C309.868,169.343,305.507,173.124,298.058,173.124z"/>
<polygon display="none" fill="#084266" points="227.004,179.679 236.633,172.161 227.004,164.643 217.375,172.161 "/>
<polygon display="none" fill="#084266" points="496.487,172.161 506.116,179.679 515.743,172.161 506.116,164.643 "/>
<path display="none" fill="#084266" d="M240.618,221.571c5.735-1.676,7.83-6.524,5.84-13.327l-3.365-11.505l-25.737,7.529
	l1.912,6.547l7.243-2.119l1.45,4.965l0.056,0.179l-6.123,5.95l2.172,7.431l6.913-7.892
	C233.37,221.901,236.684,222.726,240.618,221.571 M239.854,204.794l1.458,4.963c0.829,2.822-0.051,4.879-2.737,5.666
	c-2.722,0.8-4.634-0.439-5.463-3.269l-1.454-4.964L239.854,204.794z"/>
<path display="none" fill="#084266" d="M256.299,231.946l-29.021,3.43l3.521,6.066l5.25-0.784l5.873,10.147l-3.315,4.132l3.652,6.31
	l17.554-23.228L256.299,231.946z M245.408,246.495l-3.884-6.709l10.548-1.582L245.408,246.495z"/>
<path display="none" fill="#084266" d="M276.031,258.869l-8.019-8.286l-19.286,18.636l7.829,8.101
	c5.984,6.198,14.035,6.64,19.729,1.125C282.028,272.902,281.888,264.937,276.031,258.869 M271.444,273.485
	c-3.39,3.277-7.788,3.358-10.695,0.357l-3.368-3.502l11.457-11.074l3.169,3.281C275.016,265.66,274.855,270.183,271.444,273.485"/>
<polygon display="none" fill="#084266" points="291.578,272.692 276.103,294.604 281.677,298.533 297.152,276.63 "/>
<path display="none" fill="#084266" d="M290.209,304.696l6.388,2.884l3.82-3.695l10.686,4.835l-0.299,5.299l6.628,2.998
	l0.776-29.094l-6.39-2.886L290.209,304.696z M311.415,303.188l-7.053-3.193l7.658-7.43L311.415,303.188z"/>
<path display="none" fill="#084266" d="M454.319,283.79l-5.172-0.155c0.494,1.567,0.785,3.117,0.885,4.577
	c-2.373-0.451-4.325-0.899-5.986-1.316c1.771-3.158,3.27-6.505,1.188-9.63c-1.952-2.937-5.948-3.263-9.71-0.763
	c-3.895,2.586-4.979,6.355-2.816,9.611c1.057,1.59,2.598,2.73,5.211,3.75c-1.488,2.881-2.454,5.92-0.464,8.918
	c2.526,3.798,7.558,4.366,11.923,1.463c2.295-1.531,3.945-3.822,4.779-6.59l5.203,0.959l0.966-4.561l-5.425-0.948
	C454.942,287.431,454.753,285.615,454.319,283.79 M437.024,283.244c-0.887-1.31-0.725-2.798,0.623-3.688
	c1.207-0.807,2.545-0.543,3.311,0.607c1.016,1.537,0.382,3.425-0.695,5.471C438.663,284.959,437.628,284.169,437.024,283.244
	 M447.033,296.231c-1.88,1.258-4.124,1-5.331-0.82c-0.824-1.248-0.563-2.71,0.109-4.318c2.084,0.557,4.629,1.066,7.709,1.686
	C449.038,294.26,448.181,295.465,447.033,296.231"/>
<path display="none" fill="#084266" d="M465.298,249.476l14.646,25.281l4.179-5.638l-2.809-4.513l6.984-9.425l5.12,1.405
	l4.337-5.843l-28.282-6.903L465.298,249.476z M482.956,253.708l-4.607,6.21l-5.646-9.046L482.956,253.708z"/>
<polygon display="none" fill="#084266" points="477.772,220.36 504.343,246.753 506.739,241.733 480.158,215.34 "/>
<path display="none" fill="#084266" d="M507.283,201.109c1.358,2.317,1.86,5.151,1.268,7.335c-1.106,4.105-5.232,6.324-9.567,5.154
	c-4.258-1.148-6.672-5.131-5.564-9.242c0.623-2.295,2.597-4.461,5.12-5.604l-3.479-5.031c-3.371,1.875-6.148,5.416-7.186,9.258
	c-2.134,7.883,1.893,15.359,9.358,17.381c7.596,2.046,14.899-2.216,17.004-10.025c1.035-3.812,0.25-8.431-1.853-11.975
	L507.283,201.109z"/>
<path display="none" fill="#084266" d="M338.451,207.461h24.047h8.121h24.056c11.902,0,22.266-6.479,27.831-16.084
	c2.735-4.739,4.335-10.216,4.335-16.094h-32.166c-11.913,0-22.276,6.481-27.831,16.094c-0.106,0.181-0.181,0.381-0.282,0.563
	c-0.101-0.183-0.177-0.383-0.28-0.563c-5.576-9.612-15.928-16.094-27.831-16.094h-32.178c0,5.878,1.6,11.354,4.348,16.094
	C316.185,200.981,326.548,207.461,338.451,207.461"/>
<path display="none" fill="#CA312A" d="M366.282,152.945c0.104-0.18,0.178-0.381,0.28-0.564c0.101,0.183,0.176,0.384,0.282,0.564
	c5.554,9.608,15.917,16.088,27.83,16.088h32.166c0-5.865-1.6-11.345-4.335-16.088c-5.565-9.604-15.929-16.079-27.831-16.079h-24.056
	h-8.121h-24.047c-11.902,0-22.264,6.475-27.83,16.079c-2.748,4.744-4.348,10.224-4.348,16.088h32.178
	C350.354,169.033,360.706,162.553,366.282,152.945"/>
<path display="none" fill="#084266" d="M338.613,236.512c0-5.586-8.16-4.062-8.16-6.732c0-0.747,0.683-1.129,1.699-1.129
	c1.258,0,3.31,0.663,4.951,1.617l1.48-3.076c-1.59-1.034-3.873-1.717-6.099-1.717c-3.711,0-6.156,1.808-6.156,4.656
	c0,5.478,8.169,3.842,8.169,6.581c0,0.887-0.773,1.347-2.013,1.347c-1.618,0-4.003-0.921-5.583-2.312l-1.53,3.021
	c1.831,1.499,4.478,2.477,7.064,2.477C335.885,241.243,338.613,239.607,338.613,236.512"/>
<rect x="343.633" y="225.647" display="none" fill="#084266" width="3.933" height="15.462"/>
<polygon display="none" fill="#084266" points="367.803,225.647 364.128,225.647 364.128,235.192 356.995,225.647 353.532,225.647 
	353.532,241.11 357.226,241.11 357.226,231.585 364.33,241.11 367.803,241.11 "/>
<path display="none" fill="#084266" d="M384.956,236.026c-1.077,1.111-2.586,1.81-3.885,1.81c-2.455,0-4.305-1.956-4.305-4.546
	c0-2.541,1.85-4.479,4.305-4.479c1.369,0,2.868,0.77,3.885,2.005l2.283-2.695c-1.562-1.586-3.943-2.604-6.236-2.604
	c-4.701,0-8.262,3.36-8.262,7.814c0,4.531,3.471,7.954,8.127,7.954c2.275,0,4.73-1.126,6.383-2.829L384.956,236.026z"/>
<polygon display="none" fill="#084266" points="395.844,234.903 403.226,234.903 403.226,231.806 395.844,231.806 395.844,228.738 
	404.022,228.738 404.022,225.647 391.918,225.647 391.918,241.11 404.263,241.11 404.263,238.02 395.844,238.02 "/>
<polygon display="none" fill="#084266" points="336.258,255.284 339.116,255.284 339.116,267.612 343.039,267.612 343.039,252.13 
	336.258,252.13 "/>
<path display="none" fill="#084266" d="M354.519,251.952c-3.481,0-5.774,2.076-5.774,5.342c0,3.004,1.94,4.992,4.99,4.992
	c1.711,0,2.948-0.619,3.682-1.656c0.04,2.545-1.146,4.107-3.623,4.107c-1.187,0-2.364-0.354-3.249-0.992l-1.499,2.737
	c1.308,0.796,3.27,1.28,4.991,1.28c4.346,0,7.152-3.203,7.152-8.127C361.189,254.886,358.675,251.952,354.519,251.952
	 M354.611,259.416c-1.419,0-2.234-0.773-2.234-2.093c0-1.438,0.884-2.232,2.303-2.232c1.592,0,2.314,1.012,2.314,2.164
	C356.994,258.511,356.139,259.416,354.611,259.416"/>
<path display="none" fill="#084266" d="M374.019,261.162c1.68-1.724,2.918-3.464,2.918-5.147c0-2.453-2.205-4.039-5.271-4.039
	c-2.215,0-4.328,0.861-6.269,2.32l1.479,2.826c1.406-1.214,2.955-1.967,4.215-1.967c1.105,0,1.739,0.529,1.739,1.412
	c0,0.709-0.614,1.741-1.478,2.652l-5.523,5.85v2.543h11.58v-3.115h-6.518L374.019,261.162z"/>
<polygon display="none" fill="#084266" points="381.757,257.429 385.197,257.429 385.197,255.265 389.461,255.265 383.939,267.612 
	388.097,267.612 393.79,254.823 393.79,252.151 381.757,252.151 "/>
<polygon display="none" fill="#CA312A" points="352.607,81.218 359.722,90.738 363.171,90.738 363.171,75.276 359.51,75.276 
	359.51,84.822 352.376,75.276 348.916,75.276 348.916,90.738 352.607,90.738 "/>
<path display="none" fill="#CA312A" d="M376.253,90.914c2.273,0,4.728-1.125,6.389-2.831l-2.307-2.43
	c-1.074,1.111-2.584,1.813-3.881,1.813c-2.444,0-4.309-1.963-4.309-4.545c0-2.54,1.864-4.483,4.309-4.483
	c1.367,0,2.877,0.771,3.881,2.005l2.287-2.693c-1.551-1.588-3.945-2.606-6.229-2.606c-4.709,0-8.262,3.361-8.262,7.819
	C368.132,87.49,371.594,90.914,376.253,90.914"/>
<path display="none" fill="#CA312A" d="M346.721,117.413c4.327,0,7.043-2.581,7.043-6.667v-8.966h-3.915v8.966
	c0,2.104-1.256,3.381-3.108,3.381c-1.872,0-3.229-1.277-3.229-3.381v-8.966h-3.925v8.966
	C339.587,114.832,342.366,117.413,346.721,117.413"/>
<path display="none" fill="#CA312A" d="M359.249,106.262c0,5.476,8.158,3.846,8.158,6.587c0,0.876-0.763,1.342-2.001,1.342
	c-1.62,0-3.993-0.927-5.593-2.317l-1.52,3.028c1.831,1.5,4.487,2.467,7.064,2.467c3.44,0,6.188-1.63,6.188-4.725
	c0-5.583-8.17-4.057-8.17-6.735c0-0.75,0.684-1.128,1.701-1.128c1.248,0,3.31,0.666,4.95,1.616l1.469-3.068
	c-1.59-1.037-3.864-1.723-6.088-1.723C361.693,101.606,359.249,103.414,359.249,106.262"/>
<path display="none" fill="#CA312A" d="M374.834,117.24h4.044l1.117-2.85h6.762l1.108,2.85h4.195l-6.521-15.461h-4.035
	L374.834,117.24z M385.609,111.41h-4.458l2.245-5.72L385.609,111.41z"/>
<path display="none" fill="#CA312A" d="M241.815,143.162l-7.289-1.961l1.337-4.994l0.056-0.18l8.32-1.892l2.002-7.481l-10,3.145
	c-0.704-3.442-3.115-5.868-7.073-6.931c-5.776-1.55-10.083,1.499-11.923,8.348l-3.105,11.587l25.904,6.946L241.815,143.162z
	 M230.683,134.818l-1.344,4.997l-8.249-2.211l1.339-5c0.764-2.844,2.589-4.146,5.285-3.419
	C230.446,129.913,231.446,131.971,230.683,134.818"/>
<path display="none" fill="#CA312A" d="M237.932,111.551c6.726,4.066,14.982,1.8,19.258-5.282
	c4.303-7.119,2.432-15.499-4.256-19.542c-6.654-4.022-14.854-1.727-19.147,5.396C229.5,99.21,231.242,107.508,237.932,111.551
	 M238.707,95.012c2.137-3.545,6.765-4.604,10.634-2.266c3.865,2.339,5.143,6.962,3.009,10.503
	c-2.123,3.515-6.906,4.687-10.775,2.355C237.7,103.264,236.567,98.553,238.707,95.012"/>
<path display="none" fill="#CA312A" d="M280.108,78.208c2.857-2.708,4.608-7.049,4.658-11.166l-5.776-0.319
	c-0.05,2.676-1.107,5.359-2.746,6.91c-3.09,2.925-7.769,2.661-10.847-0.595c-3.028-3.201-3.007-7.863,0.081-10.785
	c1.722-1.631,4.538-2.448,7.294-2.103l-0.352-6.104c-3.843-0.158-8.06,1.404-10.948,4.139c-5.932,5.611-6.406,14.079-1.086,19.696
	C265.78,83.586,274.231,83.765,280.108,78.208"/>
<polygon display="none" fill="#CA312A" points="301.828,61.646 298.708,55.836 299.977,50.667 311.215,56.599 318.398,52.738 
	301.616,43.926 305.128,29.421 298.186,33.157 294.635,48.242 289.143,38.017 283.136,41.243 295.824,64.869 "/>
<path display="none" fill="#CA312A" d="M425.864,59.084c7.354,3.867,15.618,1.503,19.259-5.412
	c3.622-6.89,0.835-14.934-6.528-18.805c-7.325-3.848-15.506-1.621-19.148,5.298C415.792,47.116,418.54,55.228,425.864,59.084
	 M425.604,43.446c2.102-4,6.742-5.414,10.403-3.486c3.663,1.923,5,6.474,2.886,10.477c-2.109,4.006-6.639,5.557-10.303,3.629
	C424.96,52.159,423.501,47.445,425.604,43.446"/>
<path display="none" fill="#CA312A" d="M472.147,80.565l10.809-11.188l-4.87-4.708L467.27,75.854
	c-2.526,2.619-5.646,2.699-7.959,0.466c-2.334-2.265-2.476-5.487,0.05-8.104l10.807-11.188l-4.901-4.741L454.46,63.476
	c-4.928,5.098-4.568,11.678,0.855,16.92C460.718,85.613,467.228,85.664,472.147,80.565"/>
<polygon display="none" fill="#CA312A" points="474.622,103.312 488.94,95.085 480.772,114.013 483.769,119.228 507.021,105.862 
	503.851,100.349 489.495,108.598 497.685,89.623 494.687,84.403 471.434,97.769 "/>
<polygon display="none" fill="#CA312A" points="489.333,135.775 491.083,142.367 511.72,136.864 513.805,144.678 519.137,143.252 
	513.231,121.108 507.897,122.526 509.96,130.269 "/>
<path display="none" fill="#CA312A" d="M366.562,0c-94.928,0-172.167,77.229-172.167,172.161s77.239,172.163,172.167,172.163
	c94.931,0,172.153-77.231,172.153-172.163S461.493,0,366.562,0 M366.562,337.325c-91.074,0-165.164-74.097-165.164-165.165
	c0-91.071,74.089-165.163,165.164-165.163c91.067,0,165.159,74.091,165.159,165.163C531.722,263.233,457.63,337.325,366.562,337.325
	"/>
<path display="none" fill="#084266" d="M248.899,172.161c0,64.883,52.778,117.663,117.664,117.663
	c64.877,0,117.659-52.779,117.659-117.663c0-64.879-52.782-117.667-117.659-117.667C301.677,54.494,248.899,107.281,248.899,172.161
	 M366.562,61.496c61.022,0,110.667,49.645,110.667,110.665c0,61.019-49.645,110.67-110.667,110.67
	c-61.022,0-110.668-49.651-110.668-110.67C255.895,111.141,305.541,61.496,366.562,61.496"/>
<path fill="#084266" d="M286.451,203.965c3.645-1.062,4.979-4.146,3.718-8.471l-2.146-7.319l-16.369,4.79l1.217,4.162l4.605-1.347
	l0.925,3.153l0.032,0.119l-3.89,3.777l1.379,4.727l4.397-5.019C281.841,204.175,283.947,204.699,286.451,203.965 M285.967,193.293
	l0.921,3.157c0.528,1.802-0.027,3.106-1.735,3.608c-1.731,0.508-2.948-0.282-3.476-2.082l-0.925-3.156L285.967,193.293z"/>
<path fill="#084266" d="M296.424,210.568l-18.455,2.177l2.231,3.861l3.344-0.498l3.736,6.453l-2.109,2.629l2.318,4.01l11.17-14.772
	L296.424,210.568z M289.495,219.816l-2.469-4.262l6.715-1.01L289.495,219.816z"/>
<path fill="#084266" d="M308.973,227.693l-5.091-5.274l-12.275,11.85l4.98,5.156c3.809,3.944,8.924,4.222,12.551,0.717
	C312.789,236.619,312.701,231.551,308.973,227.693 M306.059,236.984c-2.159,2.082-4.953,2.139-6.797,0.229l-2.151-2.228l7.29-7.044
	l2.014,2.085C308.332,232.009,308.227,234.884,306.059,236.984"/>
<rect x="307.18" y="242.532" transform="matrix(0.5767 -0.817 0.817 0.5767 -66.2665 361.5126)" fill="#084266" width="17.061" height="4.337"/>
<path fill="#084266" d="M317.995,256.835l4.062,1.836l2.429-2.347l6.797,3.074l-0.187,3.365l4.209,1.909l0.497-18.503l-4.068-1.839
	L317.995,256.835z M331.484,255.876l-4.487-2.028l4.873-4.724L331.484,255.876z"/>
<polygon fill="#084266" points="341.4,252.23 346.371,253.33 343.442,266.585 347.679,267.518 350.612,254.266 355.628,255.378 
	356.389,251.952 342.157,248.802 "/>
<path fill="#084266" d="M366.419,252.132c-5.265,0.082-9.152,3.824-9.074,8.796c0.081,4.996,4.091,8.688,9.354,8.602
	c5.291-0.083,9.179-3.924,9.097-8.896C375.72,255.688,371.71,252.045,366.419,252.132 M366.694,265.9
	c-2.611,0.041-4.865-2.141-4.911-5.019c-0.045-2.875,2.113-5.079,4.746-5.122c2.63-0.043,4.761,2.094,4.806,4.973
	C371.386,263.607,369.323,265.857,366.694,265.9"/>
<path fill="#084266" d="M394.757,253.838c-0.922-3.694-3.945-5.148-8.318-4.061l-7.408,1.846l4.123,16.562l4.209-1.049l-1.158-4.66
	l3.195-0.797l0.117-0.03l3.619,4.046l4.777-1.188l-4.834-4.602C394.774,258.451,395.386,256.367,394.757,253.838 M388.573,258.365
	l-3.193,0.797l-1.311-5.274l3.189-0.797c1.82-0.451,3.105,0.155,3.535,1.886C391.229,256.726,390.392,257.914,388.573,258.365"/>
<path fill="#084266" d="M422.37,243.541l-3.283-0.1c0.314,0.995,0.498,1.985,0.561,2.911c-1.512-0.286-2.752-0.571-3.807-0.837
	c1.123-2.008,2.076-4.137,0.754-6.124c-1.238-1.869-3.781-2.081-6.176-0.485c-2.479,1.647-3.17,4.04-1.789,6.108
	c0.672,1.016,1.652,1.739,3.318,2.39c-0.951,1.832-1.566,3.766-0.301,5.673c1.609,2.417,4.807,2.775,7.582,0.927
	c1.465-0.973,2.514-2.434,3.043-4.189l3.309,0.611l0.617-2.898l-3.447-0.607C422.772,245.854,422.649,244.705,422.37,243.541
	 M411.37,243.192c-0.557-0.833-0.455-1.776,0.4-2.344c0.771-0.515,1.619-0.345,2.102,0.388c0.646,0.973,0.244,2.178-0.438,3.479
	C412.413,244.284,411.757,243.783,411.37,243.192 M417.743,251.454c-1.201,0.798-2.623,0.634-3.398-0.523
	c-0.523-0.794-0.355-1.724,0.084-2.746c1.314,0.352,2.938,0.681,4.895,1.071C419.015,250.199,418.474,250.967,417.743,251.454"/>
<path fill="#084266" d="M429.351,221.718l9.322,16.077l2.66-3.585l-1.787-2.872l4.441-5.991l3.254,0.894l2.76-3.719l-17.99-4.388
	L429.351,221.718z M440.593,224.403l-2.936,3.957l-3.592-5.759L440.593,224.403z"/>
<polygon fill="#084266" points="437.292,203.195 454.196,219.982 455.72,216.789 438.813,200.005 "/>
<path fill="#084266" d="M456.054,190.953c0.871,1.471,1.195,3.276,0.814,4.664c-0.701,2.612-3.33,4.026-6.084,3.279
	c-2.709-0.73-4.25-3.267-3.539-5.879c0.391-1.457,1.648-2.838,3.26-3.564l-2.217-3.2c-2.146,1.191-3.912,3.441-4.568,5.889
	c-1.357,5.016,1.201,9.77,5.955,11.054c4.822,1.301,9.469-1.411,10.809-6.377c0.656-2.423,0.158-5.361-1.176-7.615L456.054,190.953z
	"/>
<path fill="#CA312A" d="M366.306,155.146c0.097-0.163,0.161-0.342,0.252-0.508c0.093,0.166,0.158,0.345,0.255,0.508
	c5.028,8.697,14.415,14.563,25.196,14.563h29.115c0-5.31-1.445-10.271-3.928-14.563c-5.037-8.696-14.418-14.556-25.188-14.556
	h-21.779h-7.349H341.11c-10.775,0-20.154,5.859-25.193,14.556c-2.483,4.292-3.931,9.254-3.931,14.563h29.124
	C351.883,169.709,361.262,163.843,366.306,155.146"/>
<path fill="#084266" d="M366.813,189.934c-0.097,0.16-0.162,0.339-0.254,0.509c-0.092-0.17-0.156-0.349-0.253-0.509
	c-5.044-8.7-14.424-14.565-25.196-14.565h-29.124c0,5.318,1.448,10.277,3.931,14.565c5.039,8.694,14.418,14.56,25.193,14.56h21.771
	h7.349h21.779c10.77,0,20.15-5.865,25.188-14.56c2.482-4.288,3.928-9.247,3.928-14.565h-29.115
	C381.228,175.368,371.841,181.233,366.813,189.934"/>
<path fill="#CA312A" d="M287.208,154.097l-4.629-1.248l0.849-3.174l0.03-0.119l5.298-1.202l1.272-4.757l-6.364,2.002
	c-0.445-2.19-1.978-3.735-4.492-4.415c-3.677-0.982-6.413,0.956-7.586,5.314l-1.977,7.365l16.478,4.422L287.208,154.097z
	 M280.128,148.789l-0.848,3.177l-5.254-1.408l0.854-3.176c0.486-1.813,1.648-2.64,3.361-2.179
	C279.983,145.672,280.62,146.977,280.128,148.789"/>
<path fill="#CA312A" d="M284.743,133.99c4.277,2.582,9.53,1.145,12.25-3.359c2.732-4.527,1.539-9.855-2.71-12.429
	c-4.231-2.56-9.443-1.098-12.178,3.43C279.38,126.139,280.487,131.417,284.743,133.99 M285.234,123.467
	c1.363-2.25,4.306-2.924,6.766-1.437c2.462,1.487,3.271,4.428,1.914,6.678c-1.349,2.235-4.393,2.982-6.857,1.498
	C284.592,128.719,283.874,125.721,285.234,123.467"/>
<path fill="#CA312A" d="M311.561,112.781c1.823-1.723,2.934-4.484,2.971-7.101l-3.681-0.205c-0.027,1.703-0.693,3.409-1.74,4.398
	c-1.963,1.856-4.938,1.69-6.897-0.378c-1.933-2.038-1.917-5.003,0.047-6.862c1.102-1.035,2.888-1.557,4.637-1.334l-0.219-3.884
	c-2.442-0.104-5.12,0.893-6.961,2.632c-3.773,3.569-4.078,8.953-0.692,12.528C302.451,116.204,307.827,116.316,311.561,112.781"/>
<polygon fill="#CA312A" points="325.383,102.246 323.402,98.551 324.208,95.268 331.35,99.039 335.924,96.583 325.25,90.976 
	327.489,81.755 323.064,84.128 320.809,93.722 317.31,87.219 313.494,89.272 321.567,104.298 "/>
<polygon fill="#CA312A" points="346.102,93.708 350.303,92.739 349.063,87.371 352.495,74.727 348.27,75.703 346.024,83.85 
	340.344,77.535 336.112,78.512 344.891,88.463 "/>
<polygon fill="#CA312A" points="377.13,80.489 379.55,90.438 382.337,90.923 387.985,82.386 386.101,93.315 389.872,93.974 
	392.812,77.14 388.151,76.324 381.839,85.541 379.03,74.73 374.347,73.914 371.403,90.746 375.222,91.414 "/>
<path fill="#CA312A" d="M404.276,100.619c4.68,2.459,9.934,0.956,12.246-3.445c2.307-4.379,0.537-9.494-4.145-11.957
	c-4.656-2.45-9.869-1.032-12.182,3.369C397.872,93.008,399.616,98.166,404.276,100.619 M404.114,90.67
	c1.334-2.545,4.285-3.445,6.613-2.217c2.332,1.226,3.182,4.119,1.842,6.666c-1.34,2.545-4.229,3.531-6.557,2.307
	C403.704,96.211,402.774,93.217,404.114,90.67"/>
<path fill="#CA312A" d="M433.716,114.282l6.877-7.117l-3.105-2.993l-6.871,7.116c-1.611,1.663-3.592,1.714-5.064,0.292
	c-1.488-1.44-1.576-3.488,0.031-5.154l6.875-7.114l-3.119-3.015l-6.875,7.114c-3.135,3.243-2.908,7.429,0.547,10.765
	C426.444,117.492,430.581,117.522,433.716,114.282"/>
<polygon fill="#CA312A" points="435.288,128.752 444.396,123.517 439.2,135.557 441.104,138.87 455.896,130.372 453.876,126.863 
	444.749,132.111 449.952,120.042 448.048,116.725 433.261,125.223 "/>
<polygon fill="#CA312A" points="444.642,149.396 445.761,153.589 458.884,150.09 460.212,155.059 463.601,154.153 459.843,140.068 
	456.452,140.971 457.765,145.897 "/>
<polygon fill="#084266" points="277.795,177.323 283.913,172.54 277.795,167.76 271.664,172.54 "/>
<polygon fill="#084266" points="449.196,172.54 455.317,177.323 461.438,172.54 455.317,167.76 "/>
<path fill="#CA312A" d="M366.557,63.039c-60.38,0-109.504,49.119-109.504,109.501c0,60.378,49.124,109.504,109.504,109.504
	c60.379,0,109.5-49.126,109.5-109.504C476.058,112.158,426.937,63.039,366.557,63.039 M366.557,277.589
	c-57.925,0-105.052-47.124-105.052-105.049c0-57.926,47.127-105.049,105.052-105.049c57.924,0,105.053,47.123,105.053,105.049
	C471.61,230.465,424.481,277.589,366.557,277.589"/>
<path fill="#084266" d="M291.717,172.54c0,41.265,33.575,74.839,74.84,74.839c41.264,0,74.838-33.574,74.838-74.839
	c0-41.269-33.574-74.839-74.838-74.839C325.292,97.701,291.717,131.271,291.717,172.54 M366.557,102.152
	c38.813,0,70.389,31.575,70.389,70.388c0,38.811-31.576,70.387-70.389,70.387c-38.813,0-70.394-31.576-70.394-70.387
	C296.164,133.728,327.744,102.152,366.557,102.152"/>
</svg>
