<?xml version="1.0" encoding="utf-8"?>
<!-- Generator: Adobe Illustrator 15.0.2, SVG Export Plug-In  -->
<!DOCTYPE svg PUBLIC "-//W3C//DTD SVG 1.1//EN" "http://www.w3.org/Graphics/SVG/1.1/DTD/svg11.dtd" [
	<!ENTITY ns_flows "http://ns.adobe.com/Flows/1.0/">
]>
<svg version="1.1"
	 xmlns="http://www.w3.org/2000/svg" xmlns:xlink="http://www.w3.org/1999/xlink" xmlns:a="http://ns.adobe.com/AdobeSVGViewerExtensions/3.0/"
	 x="0px" y="0px" width="736px" height="419px" viewBox="-124.052 0 736 419"
	 overflow="visible" enable-background="new -124.052 0 736 419" xml:space="preserve">
<defs>
</defs>
<path fill="#0D4266" d="M242.652,354.706c-0.409,0.726-0.727,1.521-1.114,2.247c-0.407-0.726-0.703-1.521-1.135-2.247
	c-22.271-38.529-63.834-64.47-111.486-64.47H0c0,23.542,6.387,45.493,17.361,64.47c22.271,38.518,63.812,64.468,111.556,64.468
	h96.352h32.542h96.397c47.653,0,89.17-25.95,111.509-64.468c10.998-18.977,17.384-40.928,17.384-64.47H354.208
	C306.486,290.236,264.947,316.187,242.652,354.706"/>
<path fill="#CA312A" d="M354.208,136.276h-96.397h-32.542h-96.352c-47.744,0-89.285,25.93-111.556,64.447
	C6.387,219.699,0,241.65,0,265.171h128.917c47.653,0,89.215-25.952,111.486-64.447c0.432-0.716,0.728-1.511,1.135-2.238
	c0.388,0.728,0.705,1.522,1.116,2.238c22.291,38.495,63.832,64.447,111.554,64.447h128.893c0-23.521-6.386-45.472-17.384-64.447
	C443.378,162.206,401.86,136.276,354.208,136.276"/>
<path fill="#D2D3D4" d="M355.059,1.313c72.529,0,131.324,58.796,131.324,131.322c0,72.529-58.795,131.324-131.324,131.324
	c-72.527,0-131.322-58.795-131.322-131.324C223.736,60.109,282.531,1.313,355.059,1.313 M355.059,0
	c-73.135,0-132.636,59.501-132.636,132.636c0,73.138,59.501,132.637,132.636,132.637c73.137,0,132.637-59.499,132.637-132.637
	C487.695,59.501,428.195,0,355.059,0"/>
<path fill="#D2D3D4" d="M353.5,136.493c70.966,0,128.702,57.736,128.702,128.702c0,70.965-57.736,128.701-128.702,128.701
	c-70.967,0-128.701-57.736-128.701-128.701C224.799,194.229,282.533,136.493,353.5,136.493 M353.5,135.193
	c-71.798,0-130.002,58.204-130.002,130.002s58.204,130,130.002,130c71.799,0,130.002-58.202,130.002-130
	S425.299,135.193,353.5,135.193"/>
</svg>
