<?xml version="1.0" encoding="utf-8"?>
<!-- Generator: Adobe Illustrator 15.0.2, SVG Export Plug-In . SVG Version: 6.00 Build 0)  -->
<!DOCTYPE svg PUBLIC "-//W3C//DTD SVG 1.1//EN" "http://www.w3.org/Graphics/SVG/1.1/DTD/svg11.dtd">
<svg version="1.1" xmlns="http://www.w3.org/2000/svg" xmlns:xlink="http://www.w3.org/1999/xlink" x="0px" y="0px" width="736.5px"
	 height="340px" viewBox="321.5 0 736.5 340" enable-background="new 321.5 0 736.5 340" xml:space="preserve">
<g id="Layer_1" display="none">
</g>
<g id="Layer_2" display="none">
	<g display="inline">
		<g>
			<rect x="321.75" y="0.206" fill="#ADAFB2" width="736" height="339.588"/>
		</g>
		<g>
			<rect x="336.963" y="39.508" fill="none" width="705.574" height="260.985"/>
		</g>
		<g>
			<g enable-background="new    ">
				<path d="M370.077,57.819h-2.156l4.62-18.284h2.464l4.62,18.284h-2.156l-1.092-4.76h-5.208L370.077,57.819z M371.533,51.379
					h4.452l-2.212-9.716L371.533,51.379z"/>
				<path d="M384.637,39.535v18.284h-1.988V39.535H384.637z"/>
				<path d="M394.212,45.892h-2.856v8.651c0,1.316,0.56,1.876,1.512,1.876c0.42,0,0.784-0.111,1.12-0.279l0.252,1.288
					c-0.532,0.363-1.176,0.615-2.044,0.615c-1.932,0-2.856-1.231-2.856-3.527v-8.54l-1.54-0.336v-1.372l1.652-0.112l0.476-3.164
					h1.428v3.248h2.856V45.892z"/>
				<path d="M399,50.791v2.633c0,1.932,0.84,2.939,2.38,2.939c1.232,0,1.932-0.644,2.436-2.436l1.512,0.504
					c-0.588,2.464-1.932,3.611-4.116,3.611c-2.744,0-4.2-1.903-4.2-4.563v-5.488c0-2.66,1.456-4.563,4.172-4.563
					c2.66,0,4.088,1.987,4.088,4.647v2.716H399z M399,49.392h4.48v-1.513c0-1.848-0.812-2.8-2.24-2.8c-1.54,0-2.24,1.008-2.24,2.828
					V49.392z"/>
				<path d="M414.512,45.751c-0.336-0.224-0.7-0.308-1.12-0.308c-1.568,0-2.548,1.372-2.744,3.92v8.456h-1.988V43.68h1.708
					l0.112,2.323c0.672-1.819,1.68-2.548,2.94-2.548c0.476,0,0.98,0.112,1.344,0.336L414.512,45.751z"/>
				<path d="M419.552,57.819h-1.988V43.68h1.736l0.084,1.231c0.756-0.952,1.848-1.483,3.164-1.483c2.324,0,3.612,1.68,3.612,4.676
					v9.716h-1.988v-9.688c0-1.988-0.728-2.94-2.184-2.94c-1.12,0-1.932,0.588-2.436,1.316V57.819z"/>
				<path d="M429.659,46.563c0.728-1.848,1.932-3.164,3.92-3.164c2.52,0,3.584,1.764,3.584,4.368v7.672
					c0,0.7,0.308,1.092,0.924,1.092h0.336v1.288c-0.28,0.084-0.644,0.168-1.008,0.168c-0.98,0-1.652-0.504-1.96-1.204
					c-0.784,0.868-1.764,1.26-2.912,1.26c-1.988,0-3.248-1.428-3.248-3.779c0-2.66,1.372-4.536,5.04-4.536h0.84v-1.96
					c0-1.876-0.616-2.688-1.82-2.688c-1.036,0-1.82,0.756-2.352,2.156L429.659,46.563z M435.175,55.243v-4.004h-0.84
					c-2.352,0-3.136,1.064-3.136,2.884c0,1.736,0.7,2.38,1.764,2.38C433.943,56.503,434.615,56.083,435.175,55.243z"/>
				<path d="M446.431,45.892h-2.856v8.651c0,1.316,0.56,1.876,1.512,1.876c0.42,0,0.784-0.111,1.12-0.279l0.252,1.288
					c-0.532,0.363-1.176,0.615-2.044,0.615c-1.932,0-2.856-1.231-2.856-3.527v-8.54l-1.54-0.336v-1.372l1.652-0.112l0.476-3.164
					h1.428v3.248h2.856V45.892z"/>
				<path d="M451.219,50.791v2.633c0,1.932,0.84,2.939,2.38,2.939c1.232,0,1.932-0.644,2.436-2.436l1.512,0.504
					c-0.588,2.464-1.932,3.611-4.116,3.611c-2.744,0-4.2-1.903-4.2-4.563v-5.488c0-2.66,1.456-4.563,4.172-4.563
					c2.66,0,4.088,1.987,4.088,4.647v2.716H451.219z M451.219,49.392h4.48v-1.513c0-1.848-0.812-2.8-2.24-2.8
					c-1.54,0-2.24,1.008-2.24,2.828V49.392z"/>
				<path d="M474.85,39.535v1.933h-3.556v16.352h-2.128V41.468h-3.556v-1.933H474.85z"/>
				<path d="M481.514,57.147c-0.784,2.548-1.876,3.612-4.032,3.752l-0.168-1.54c1.316-0.196,1.96-0.756,2.408-2.324l0.084-0.308
					l-4.508-13.048h2.156l3.332,10.556l2.716-10.556h2.044L481.514,57.147z"/>
				<path d="M490.446,56.783v4.032h-1.988V43.68h1.736l0.112,1.204c0.728-0.925,1.82-1.456,3.164-1.456
					c2.324,0,3.584,1.735,3.584,4.676v5.264c0,2.968-1.316,4.676-3.668,4.676C492.182,58.043,491.174,57.623,490.446,56.783z
					 M490.446,55.075c0.504,0.7,1.26,1.26,2.408,1.26c1.484,0,2.212-1.008,2.212-2.939v-5.236c0-1.988-0.7-2.968-2.184-2.968
					c-1.12,0-1.96,0.616-2.436,1.316V55.075z"/>
				<path d="M502.206,50.791v2.633c0,1.932,0.84,2.939,2.38,2.939c1.232,0,1.932-0.644,2.436-2.436l1.512,0.504
					c-0.588,2.464-1.932,3.611-4.116,3.611c-2.744,0-4.2-1.903-4.2-4.563v-5.488c0-2.66,1.456-4.563,4.172-4.563
					c2.66,0,4.088,1.987,4.088,4.647v2.716H502.206z M502.206,49.392h4.48v-1.513c0-1.848-0.812-2.8-2.24-2.8
					c-1.54,0-2.24,1.008-2.24,2.828V49.392z"/>
				<path d="M517.129,45.863h-2.884v11.956h-1.96V45.863h-1.512v-1.596h1.512v-0.504c0-2.716,1.344-4.2,4.62-4.34l0.112,1.483
					c-2.072,0.141-2.828,0.924-2.828,2.856v0.504h2.94V45.863z"/>
				<path d="M519.733,46.563c0.728-1.848,1.932-3.164,3.92-3.164c2.52,0,3.584,1.764,3.584,4.368v7.672
					c0,0.7,0.308,1.092,0.924,1.092h0.336v1.288c-0.28,0.084-0.644,0.168-1.008,0.168c-0.98,0-1.652-0.504-1.96-1.204
					c-0.784,0.868-1.764,1.26-2.912,1.26c-1.988,0-3.248-1.428-3.248-3.779c0-2.66,1.372-4.536,5.04-4.536h0.84v-1.96
					c0-1.876-0.616-2.688-1.82-2.688c-1.036,0-1.82,0.756-2.352,2.156L519.733,46.563z M525.249,55.243v-4.004h-0.84
					c-2.352,0-3.136,1.064-3.136,2.884c0,1.736,0.7,2.38,1.764,2.38C524.017,56.503,524.689,56.083,525.249,55.243z"/>
				<path d="M537.373,47.207c-0.392-1.456-1.204-2.071-2.268-2.071c-1.428,0-2.24,0.924-2.24,2.912v5.376
					c0,1.987,0.812,2.939,2.24,2.939c1.148,0,1.876-0.616,2.296-2.156l1.484,0.504c-0.532,2.044-1.82,3.332-3.892,3.332
					c-2.744,0-4.116-1.987-4.116-4.535v-5.517c0-2.604,1.4-4.563,4.088-4.563c1.932,0,3.304,1.204,3.864,3.22L537.373,47.207z"/>
				<path d="M543.421,50.791v2.633c0,1.932,0.84,2.939,2.38,2.939c1.232,0,1.932-0.644,2.436-2.436l1.513,0.504
					c-0.588,2.464-1.933,3.611-4.116,3.611c-2.744,0-4.2-1.903-4.2-4.563v-5.488c0-2.66,1.456-4.563,4.172-4.563
					c2.66,0,4.087,1.987,4.087,4.647v2.716H543.421z M543.421,49.392h4.479v-1.513c0-1.848-0.812-2.8-2.24-2.8
					c-1.54,0-2.24,1.008-2.24,2.828V49.392z"/>
				<path d="M553.108,44.548h1.933v2.128h-1.933V44.548z M553.108,55.691h1.933v2.128h-1.933V55.691z"/>
			</g>
			<g enable-background="new    ">
				<path d="M605.328,39.508V55.3h5.32v2.52h-7.952V39.508H605.328z"/>
				<path d="M613.168,46.703c0.7-1.987,2.016-3.388,4.144-3.388c2.66,0,3.78,1.82,3.78,4.452v7.392c0,0.616,0.28,0.98,0.84,0.98
					h0.308v1.651c-0.336,0.112-0.784,0.196-1.204,0.196c-1.064,0-1.708-0.476-2.1-1.12c-0.756,0.812-1.708,1.176-2.828,1.176
					c-2.016,0-3.304-1.54-3.304-3.892c0-2.576,1.344-4.564,5.012-4.564h0.7v-1.848c0-1.652-0.504-2.268-1.54-2.268
					c-0.896,0-1.596,0.644-2.072,2.016L613.168,46.703z M618.516,55.104v-3.612h-0.7c-1.876,0-2.548,0.896-2.548,2.437
					c0,1.651,0.588,2.184,1.456,2.184C617.536,56.111,618.068,55.775,618.516,55.104z"/>
				<path d="M630.36,46.256h-2.66v8.008c0,1.147,0.532,1.708,1.428,1.708c0.364,0,0.7-0.084,1.008-0.225l0.28,1.681
					c-0.588,0.363-1.316,0.615-2.212,0.615c-2.128,0-3.08-1.315-3.08-3.863v-7.784l-1.456-0.364v-1.82l1.596-0.111l0.644-3.08h1.792
					v3.136h2.66V46.256z"/>
				<path d="M641.924,53.424c0,2.659-1.54,4.647-4.508,4.647c-2.996,0-4.508-1.96-4.508-4.647v-5.376
					c0-2.688,1.512-4.704,4.508-4.704s4.508,1.987,4.508,4.704V53.424z M635.456,53.312c0,1.764,0.644,2.632,1.96,2.632
					s1.932-0.868,1.932-2.632v-5.18c0-1.765-0.616-2.633-1.932-2.633c-1.344,0-1.96,0.868-1.96,2.633V53.312z"/>
			</g>
			<g enable-background="new    ">
				<path d="M402.841,111.708c0,4.011-0.432,7.483-1.296,10.416c-0.864,2.934-2.043,5.36-3.536,7.28
					c-1.494,1.92-3.259,3.35-5.296,4.288s-4.219,1.408-6.544,1.408c-2.347,0-4.528-0.47-6.544-1.408s-3.771-2.368-5.264-4.288
					c-1.494-1.92-2.667-4.347-3.52-7.28c-0.854-2.933-1.28-6.405-1.28-10.416s0.427-7.488,1.28-10.432
					c0.853-2.944,2.026-5.381,3.52-7.312c1.493-1.931,3.248-3.365,5.264-4.304s4.197-1.408,6.544-1.408
					c2.325,0,4.507,0.47,6.544,1.408s3.803,2.373,5.296,4.304c1.493,1.932,2.672,4.368,3.536,7.312
					C402.409,104.22,402.841,107.697,402.841,111.708z M396.92,111.708c0-3.498-0.293-6.437-0.88-8.815
					c-0.587-2.379-1.376-4.294-2.368-5.744c-0.992-1.451-2.139-2.491-3.44-3.12s-2.656-0.944-4.064-0.944
					c-1.408,0-2.763,0.315-4.064,0.944s-2.443,1.669-3.424,3.12c-0.981,1.45-1.766,3.365-2.352,5.744
					c-0.587,2.379-0.88,5.317-0.88,8.815c0,3.499,0.293,6.432,0.88,8.8c0.586,2.368,1.371,4.277,2.352,5.729
					c0.981,1.451,2.123,2.491,3.424,3.12s2.656,0.943,4.064,0.943c1.408,0,2.763-0.314,4.064-0.943s2.448-1.669,3.44-3.12
					c0.992-1.451,1.781-3.36,2.368-5.729C396.627,118.14,396.92,115.207,396.92,111.708z"/>
				<path d="M418.936,130.269h9.856V99.004c0-0.938,0.032-1.888,0.096-2.848l-8.192,7.008c-0.213,0.171-0.427,0.294-0.64,0.368
					c-0.214,0.075-0.416,0.112-0.608,0.112c-0.32,0-0.608-0.069-0.864-0.208s-0.448-0.305-0.576-0.496l-1.792-2.464l13.632-11.809
					h4.64v41.601h9.024v4.352h-24.576V130.269z"/>
				<path d="M471.095,88.252c1.941,0,3.754,0.288,5.44,0.864c1.685,0.576,3.141,1.413,4.368,2.512
					c1.227,1.1,2.192,2.438,2.896,4.017c0.704,1.578,1.056,3.37,1.056,5.376c0,1.707-0.256,3.285-0.768,4.735
					c-0.512,1.451-1.206,2.843-2.08,4.176c-0.875,1.334-1.883,2.624-3.024,3.872c-1.142,1.248-2.352,2.523-3.632,3.824
					l-12.064,12.353c0.853-0.234,1.717-0.421,2.592-0.561c0.875-0.139,1.717-0.208,2.528-0.208h15.36
					c0.619,0,1.109,0.182,1.472,0.544c0.362,0.363,0.544,0.832,0.544,1.408v3.456h-30.592v-1.952c0-0.405,0.08-0.821,0.24-1.248
					c0.16-0.427,0.421-0.821,0.784-1.184l14.688-14.752c1.216-1.237,2.325-2.427,3.328-3.568c1.002-1.141,1.861-2.288,2.576-3.439
					c0.715-1.152,1.264-2.32,1.648-3.505c0.384-1.184,0.576-2.447,0.576-3.792c0-1.344-0.213-2.522-0.64-3.535
					c-0.427-1.014-1.013-1.851-1.76-2.513c-0.747-0.661-1.622-1.156-2.624-1.487c-1.003-0.331-2.08-0.496-3.232-0.496
					c-1.152,0-2.219,0.171-3.2,0.512c-0.981,0.342-1.851,0.816-2.608,1.424c-0.757,0.608-1.397,1.328-1.92,2.16
					c-0.523,0.832-0.891,1.749-1.104,2.752c-0.171,0.619-0.427,1.067-0.768,1.344c-0.341,0.277-0.79,0.416-1.344,0.416
					c-0.107,0-0.219-0.005-0.336-0.016s-0.251-0.026-0.4-0.048l-2.976-0.513c0.299-2.09,0.875-3.94,1.728-5.552
					c0.853-1.61,1.936-2.96,3.248-4.048s2.816-1.914,4.512-2.479C467.303,88.535,469.132,88.252,471.095,88.252z"/>
				<path d="M513.814,88.252c1.941,0,3.733,0.277,5.376,0.832s3.056,1.344,4.24,2.368s2.106,2.262,2.768,3.712
					c0.661,1.451,0.992,3.062,0.992,4.832c0,1.451-0.187,2.747-0.56,3.888c-0.373,1.142-0.907,2.145-1.6,3.009
					c-0.694,0.863-1.531,1.595-2.512,2.191c-0.981,0.598-2.08,1.077-3.296,1.44c2.986,0.789,5.232,2.111,6.736,3.968
					c1.504,1.855,2.256,4.182,2.256,6.976c0,2.112-0.4,4.012-1.2,5.696c-0.8,1.686-1.894,3.12-3.28,4.304
					c-1.387,1.185-3.003,2.092-4.848,2.721c-1.846,0.629-3.824,0.943-5.936,0.943c-2.432,0-4.512-0.304-6.24-0.912
					c-1.728-0.607-3.189-1.444-4.384-2.512c-1.195-1.066-2.176-2.33-2.944-3.792c-0.768-1.461-1.419-3.045-1.952-4.752l2.432-1.024
					c0.448-0.191,0.896-0.287,1.344-0.287c0.427,0,0.805,0.091,1.136,0.271c0.331,0.182,0.581,0.464,0.752,0.848
					c0.042,0.086,0.085,0.177,0.128,0.272c0.042,0.096,0.085,0.197,0.128,0.304c0.298,0.619,0.661,1.317,1.088,2.097
					c0.427,0.778,1.002,1.509,1.728,2.191c0.725,0.684,1.626,1.259,2.704,1.729c1.077,0.469,2.416,0.704,4.016,0.704
					s3.002-0.262,4.208-0.784c1.205-0.522,2.208-1.2,3.008-2.032c0.8-0.832,1.402-1.76,1.808-2.784
					c0.405-1.023,0.608-2.037,0.608-3.04c0-1.236-0.166-2.368-0.496-3.392c-0.331-1.024-0.928-1.909-1.792-2.656
					c-0.864-0.746-2.059-1.333-3.584-1.76c-1.525-0.427-3.483-0.641-5.872-0.641v-4.159c1.941,0,3.6-0.203,4.976-0.608
					s2.501-0.96,3.376-1.664c0.875-0.704,1.509-1.547,1.904-2.528c0.395-0.98,0.592-2.068,0.592-3.264
					c0-1.322-0.208-2.475-0.624-3.456c-0.416-0.98-0.987-1.792-1.712-2.432c-0.726-0.641-1.584-1.12-2.576-1.44
					c-0.992-0.319-2.064-0.479-3.216-0.479s-2.219,0.17-3.2,0.511c-0.981,0.342-1.851,0.816-2.608,1.423
					c-0.757,0.607-1.392,1.332-1.904,2.174c-0.512,0.842-0.896,1.753-1.152,2.733c-0.171,0.618-0.427,1.065-0.768,1.343
					c-0.342,0.276-0.779,0.415-1.312,0.415c-0.107,0-0.219-0.005-0.336-0.016c-0.118-0.011-0.251-0.026-0.4-0.047l-2.976-0.505
					c0.299-2.09,0.875-3.94,1.728-5.552c0.853-1.61,1.936-2.96,3.248-4.048s2.816-1.914,4.512-2.479
					C510.022,88.535,511.851,88.252,513.814,88.252z"/>
				<path d="M564.981,118.076h6.943v3.264c0,0.342-0.102,0.63-0.304,0.864c-0.203,0.235-0.518,0.352-0.944,0.352h-5.695v12.064
					h-5.024v-12.064h-20.32c-0.427,0-0.795-0.122-1.104-0.367c-0.31-0.245-0.507-0.55-0.592-0.912l-0.576-2.912l22.304-29.601h5.312
					V118.076z M559.957,99.164c0-0.555,0.016-1.152,0.048-1.792s0.102-1.301,0.208-1.984l-16.672,22.688h16.416V99.164z"/>
				<path d="M609.492,91.26c0,0.812-0.256,1.478-0.768,2c-0.513,0.523-1.376,0.784-2.593,0.784h-14.399l-2.112,12.032
					c2.39-0.512,4.598-0.768,6.624-0.768c2.389,0,4.496,0.352,6.32,1.056s3.354,1.675,4.592,2.912s2.171,2.699,2.8,4.384
					c0.629,1.686,0.944,3.52,0.944,5.504c0,2.432-0.427,4.63-1.28,6.592c-0.854,1.963-2.021,3.644-3.504,5.04
					c-1.483,1.397-3.227,2.47-5.231,3.216c-2.006,0.747-4.172,1.12-6.496,1.12c-1.345,0-2.636-0.133-3.872-0.399
					c-1.238-0.267-2.39-0.624-3.456-1.072c-1.067-0.448-2.06-0.96-2.977-1.536s-1.728-1.184-2.432-1.824l1.728-2.432
					c0.385-0.555,0.896-0.832,1.536-0.832c0.405,0,0.88,0.165,1.424,0.496c0.545,0.331,1.2,0.699,1.969,1.104
					c0.768,0.406,1.669,0.773,2.704,1.104c1.034,0.331,2.266,0.496,3.695,0.496c1.601,0,3.04-0.256,4.32-0.769
					c1.28-0.512,2.373-1.242,3.28-2.191c0.906-0.949,1.604-2.085,2.096-3.408c0.49-1.322,0.736-2.805,0.736-4.448
					c0-1.429-0.208-2.72-0.624-3.872c-0.416-1.151-1.046-2.133-1.889-2.943s-1.894-1.44-3.151-1.889
					c-1.259-0.447-2.731-0.672-4.416-0.672c-1.152,0-2.348,0.096-3.584,0.288c-1.237,0.192-2.518,0.502-3.84,0.928l-3.584-1.056
					l3.712-21.44h21.728V91.26z"/>
				<path d="M641.107,106.524c1.835,0,3.573,0.304,5.216,0.912c1.643,0.607,3.083,1.493,4.32,2.655
					c1.237,1.163,2.219,2.593,2.944,4.288c0.725,1.696,1.088,3.632,1.088,5.809c0,2.111-0.384,4.074-1.152,5.888
					c-0.768,1.813-1.84,3.392-3.216,4.736c-1.376,1.344-3.035,2.399-4.976,3.168c-1.942,0.768-4.075,1.151-6.4,1.151
					c-2.304,0-4.39-0.368-6.256-1.104c-1.867-0.736-3.462-1.781-4.784-3.136c-1.323-1.354-2.342-2.997-3.056-4.929
					c-0.715-1.931-1.072-4.09-1.072-6.479c0-2.005,0.448-4.139,1.344-6.4c0.896-2.261,2.314-4.692,4.256-7.296l11.616-15.648
					c0.299-0.384,0.715-0.709,1.248-0.976s1.141-0.4,1.824-0.4h5.056l-15.903,20.129c1.088-0.747,2.293-1.328,3.615-1.744
					C638.143,106.732,639.571,106.524,641.107,106.524z M629.268,120.477c0,1.472,0.213,2.815,0.64,4.031s1.051,2.262,1.872,3.137
					s1.824,1.552,3.009,2.031c1.184,0.48,2.532,0.721,4.048,0.721c1.536,0,2.922-0.245,4.16-0.736
					c1.236-0.49,2.298-1.173,3.184-2.048c0.885-0.875,1.568-1.909,2.048-3.104c0.48-1.194,0.72-2.496,0.72-3.903
					c0-1.493-0.234-2.843-0.704-4.049c-0.469-1.204-1.131-2.229-1.983-3.071c-0.854-0.843-1.878-1.488-3.072-1.937
					c-1.195-0.447-2.507-0.672-3.936-0.672c-1.536,0-2.923,0.262-4.16,0.784c-1.237,0.523-2.288,1.227-3.152,2.112
					c-0.864,0.885-1.525,1.909-1.983,3.071C629.497,118.007,629.268,119.218,629.268,120.477z"/>
				<path d="M697.107,88.764v2.561c0,0.726-0.08,1.323-0.24,1.792c-0.16,0.47-0.326,0.864-0.496,1.184l-18.977,38.305
					c-0.277,0.555-0.661,1.029-1.151,1.424c-0.491,0.395-1.152,0.592-1.984,0.592h-4.063l19.264-37.824
					c0.277-0.533,0.56-1.023,0.848-1.472s0.613-0.875,0.977-1.28h-23.937c-0.362,0-0.688-0.144-0.976-0.432
					s-0.433-0.613-0.433-0.977v-3.872H697.107z"/>
				<path d="M723.058,135.132c-2.283,0-4.374-0.304-6.272-0.912c-1.898-0.607-3.531-1.477-4.896-2.607
					c-1.366-1.131-2.422-2.501-3.168-4.112c-0.747-1.61-1.12-3.418-1.12-5.424c0-2.944,0.768-5.37,2.304-7.28
					c1.536-1.909,3.733-3.269,6.592-4.08c-2.411-0.896-4.229-2.234-5.456-4.016s-1.84-3.909-1.84-6.384
					c0-1.686,0.331-3.265,0.992-4.736s1.6-2.752,2.816-3.84c1.216-1.088,2.672-1.941,4.367-2.561
					c1.696-0.618,3.589-0.928,5.681-0.928c2.068,0,3.957,0.31,5.664,0.928c1.706,0.619,3.168,1.473,4.384,2.561
					s2.154,2.368,2.815,3.84s0.992,3.051,0.992,4.736c0,2.475-0.619,4.603-1.855,6.384c-1.238,1.781-3.052,3.12-5.44,4.016
					c2.858,0.812,5.056,2.171,6.592,4.08c1.536,1.91,2.305,4.336,2.305,7.28c0,2.006-0.379,3.813-1.137,5.424
					c-0.757,1.611-1.813,2.981-3.168,4.112s-2.981,2-4.88,2.607C727.431,134.828,725.34,135.132,723.058,135.132z M723.058,130.588
					c1.493,0,2.832-0.208,4.016-0.624s2.187-1.002,3.008-1.76c0.821-0.757,1.451-1.664,1.889-2.72
					c0.437-1.057,0.655-2.225,0.655-3.504c0-1.579-0.261-2.929-0.784-4.049c-0.522-1.119-1.227-2.031-2.111-2.735
					c-0.886-0.704-1.904-1.221-3.057-1.552c-1.151-0.331-2.357-0.496-3.615-0.496c-1.26,0-2.464,0.165-3.616,0.496
					s-2.171,0.848-3.056,1.552c-0.886,0.704-1.59,1.616-2.112,2.735c-0.523,1.12-0.784,2.47-0.784,4.049
					c0,1.279,0.219,2.447,0.656,3.504c0.437,1.056,1.066,1.963,1.888,2.72c0.821,0.758,1.824,1.344,3.008,1.76
					C720.226,130.38,721.563,130.588,723.058,130.588z M723.058,108.572c1.493,0,2.768-0.229,3.823-0.688
					c1.057-0.458,1.915-1.066,2.576-1.823c0.661-0.758,1.142-1.627,1.44-2.608c0.298-0.981,0.448-1.994,0.448-3.04
					c0-1.066-0.177-2.069-0.528-3.008c-0.353-0.938-0.875-1.76-1.568-2.464s-1.558-1.259-2.592-1.664
					c-1.035-0.405-2.235-0.608-3.6-0.608c-1.366,0-2.565,0.203-3.601,0.608s-1.898,0.96-2.592,1.664s-1.216,1.525-1.568,2.464
					c-0.352,0.938-0.527,1.941-0.527,3.008c0,1.046,0.148,2.059,0.448,3.04c0.298,0.981,0.778,1.851,1.439,2.608
					c0.661,0.757,1.521,1.365,2.576,1.823C720.289,108.343,721.563,108.572,723.058,108.572z"/>
				<path d="M764.209,115.804c-1.729,0-3.366-0.287-4.912-0.863c-1.547-0.576-2.907-1.424-4.08-2.544
					c-1.174-1.12-2.107-2.496-2.8-4.128c-0.694-1.633-1.04-3.505-1.04-5.616c0-2.005,0.373-3.883,1.12-5.632
					c0.746-1.749,1.792-3.274,3.136-4.576c1.344-1.301,2.943-2.325,4.8-3.072c1.856-0.746,3.893-1.12,6.112-1.12
					c2.196,0,4.191,0.363,5.983,1.088c1.792,0.726,3.328,1.739,4.608,3.04c1.28,1.302,2.267,2.859,2.96,4.672
					c0.693,1.813,1.04,3.819,1.04,6.017c0,1.323-0.123,2.576-0.368,3.76s-0.603,2.342-1.072,3.472
					c-0.469,1.131-1.029,2.256-1.68,3.376c-0.651,1.12-1.392,2.278-2.224,3.473l-11.168,16.128c-0.278,0.405-0.673,0.73-1.185,0.976
					c-0.512,0.246-1.099,0.368-1.76,0.368h-5.248l13.952-18.272c0.469-0.618,0.906-1.204,1.312-1.76
					c0.405-0.555,0.789-1.108,1.152-1.664c-1.174,0.939-2.496,1.653-3.968,2.145C767.408,115.56,765.852,115.804,764.209,115.804z
					 M775.665,102.396c0-1.43-0.229-2.726-0.688-3.889c-0.459-1.162-1.094-2.148-1.904-2.96c-0.811-0.811-1.775-1.435-2.896-1.872
					c-1.12-0.437-2.353-0.655-3.696-0.655c-1.408,0-2.693,0.229-3.855,0.688c-1.163,0.459-2.155,1.094-2.977,1.904
					s-1.456,1.781-1.904,2.912c-0.447,1.131-0.672,2.368-0.672,3.712c0,1.451,0.208,2.747,0.624,3.888
					c0.416,1.142,1.014,2.107,1.792,2.896c0.779,0.789,1.729,1.387,2.849,1.792s2.373,0.607,3.76,0.607
					c1.536,0,2.896-0.25,4.08-0.752c1.184-0.501,2.181-1.168,2.992-2c0.811-0.832,1.429-1.792,1.855-2.88
					S775.665,103.569,775.665,102.396z"/>
			</g>
			<g enable-background="new    ">
				<path d="M410.937,211.42h-4.8c-0.555,0-1.003-0.139-1.344-0.416s-0.597-0.629-0.768-1.056l-4.288-11.072h-20.576l-4.288,11.072
					c-0.149,0.384-0.405,0.726-0.768,1.023c-0.363,0.299-0.811,0.448-1.344,0.448h-4.8l18.336-45.856h6.304L410.937,211.42z
					 M380.889,194.396h17.12l-7.2-18.655c-0.469-1.152-0.928-2.593-1.376-4.32c-0.235,0.875-0.464,1.68-0.688,2.416
					s-0.443,1.382-0.656,1.936L380.889,194.396z"/>
				<path d="M421.72,211.42v-45.856h14.624c2.816,0,5.243,0.278,7.28,0.832c2.037,0.556,3.712,1.345,5.024,2.368
					c1.312,1.024,2.282,2.277,2.912,3.76c0.629,1.483,0.944,3.152,0.944,5.009c0,1.131-0.176,2.219-0.528,3.264
					c-0.352,1.046-0.886,2.016-1.6,2.912c-0.715,0.896-1.611,1.696-2.688,2.4c-1.078,0.703-2.342,1.279-3.792,1.728
					c3.349,0.661,5.877,1.867,7.584,3.616c1.707,1.749,2.56,4.054,2.56,6.912c0,1.941-0.358,3.712-1.072,5.312
					c-0.715,1.601-1.76,2.977-3.136,4.128c-1.376,1.152-3.062,2.043-5.056,2.672c-1.995,0.63-4.272,0.944-6.832,0.944H421.72z
					 M427.928,186.108h8.192c1.749,0,3.264-0.192,4.544-0.576c1.28-0.385,2.341-0.917,3.184-1.601
					c0.843-0.683,1.467-1.509,1.872-2.479s0.608-2.032,0.608-3.185c0-2.688-0.811-4.661-2.432-5.92
					c-1.622-1.258-4.139-1.888-7.552-1.888h-8.416V186.108z M427.928,190.523v15.969h9.92c1.771,0,3.291-0.203,4.56-0.608
					c1.269-0.405,2.314-0.976,3.136-1.712c0.821-0.736,1.424-1.61,1.808-2.624c0.384-1.013,0.576-2.128,0.576-3.344
					c0-2.368-0.837-4.24-2.512-5.616c-1.675-1.376-4.208-2.064-7.6-2.064H427.928z"/>
				<path d="M500.439,201.948c0.341,0,0.65,0.139,0.928,0.416l2.432,2.655c-1.877,2.177-4.155,3.872-6.832,5.089
					c-2.678,1.216-5.904,1.823-9.68,1.823c-3.307,0-6.304-0.57-8.992-1.712c-2.688-1.141-4.981-2.741-6.88-4.8
					s-3.371-4.528-4.416-7.408c-1.046-2.88-1.568-6.048-1.568-9.504s0.56-6.624,1.68-9.504s2.693-5.354,4.72-7.424
					s4.453-3.675,7.28-4.816c2.827-1.141,5.946-1.712,9.36-1.712c3.371,0,6.277,0.523,8.72,1.568
					c2.442,1.045,4.613,2.464,6.512,4.256l-2.016,2.848c-0.15,0.214-0.32,0.39-0.512,0.528s-0.47,0.208-0.832,0.208
					c-0.277,0-0.571-0.101-0.88-0.304c-0.31-0.203-0.678-0.453-1.104-0.752c-0.427-0.299-0.928-0.619-1.504-0.96
					c-0.576-0.342-1.259-0.661-2.048-0.96c-0.79-0.299-1.707-0.55-2.752-0.753c-1.045-0.202-2.251-0.304-3.616-0.304
					c-2.454,0-4.699,0.422-6.736,1.265c-2.038,0.843-3.792,2.043-5.264,3.6c-1.472,1.558-2.619,3.456-3.44,5.696
					c-0.822,2.239-1.232,4.747-1.232,7.52c0,2.859,0.411,5.408,1.232,7.648c0.821,2.239,1.941,4.133,3.36,5.68
					c1.418,1.547,3.099,2.726,5.04,3.536c1.941,0.811,4.032,1.216,6.272,1.216c1.365,0,2.592-0.08,3.68-0.24
					c1.088-0.16,2.096-0.41,3.024-0.752c0.928-0.341,1.792-0.772,2.592-1.296c0.8-0.522,1.605-1.146,2.416-1.872
					C499.746,202.108,500.098,201.948,500.439,201.948z"/>
				<path d="M556.695,188.508c0,3.436-0.545,6.561-1.633,9.376c-1.088,2.816-2.623,5.228-4.607,7.232s-4.363,3.558-7.136,4.655
					c-2.773,1.1-5.846,1.648-9.216,1.648h-17.152v-45.856h17.152c3.37,0,6.442,0.55,9.216,1.648
					c2.773,1.099,5.151,2.656,7.136,4.672c1.984,2.017,3.52,4.433,4.607,7.248C556.15,181.948,556.695,185.073,556.695,188.508z
					 M550.328,188.508c0-2.815-0.385-5.333-1.152-7.552s-1.856-4.096-3.265-5.632c-1.408-1.536-3.115-2.709-5.12-3.521
					c-2.006-0.811-4.235-1.216-6.688-1.216h-10.912v35.808h10.912c2.453,0,4.682-0.404,6.688-1.216
					c2.005-0.811,3.712-1.979,5.12-3.504c1.408-1.524,2.497-3.396,3.265-5.616C549.943,193.842,550.328,191.324,550.328,188.508z"/>
				<path d="M598.391,165.563v5.057h-22.017v15.231h17.824v4.864h-17.824v15.648h22.017v5.056h-28.256v-45.856H598.391z"/>
				<path d="M640.566,165.563v5.057H618.55v16.032h18.816v5.056H618.55v19.712h-6.239v-45.856H640.566z"/>
				<path d="M673.974,206.908c1.237,0,2.373-0.059,3.408-0.177c1.035-0.116,2.011-0.293,2.928-0.527s1.781-0.518,2.593-0.849
					c0.811-0.33,1.621-0.709,2.432-1.136v-10.111h-7.104c-0.406,0-0.731-0.117-0.977-0.353c-0.245-0.234-0.368-0.522-0.368-0.864
					v-3.52h14.08v17.6c-1.151,0.832-2.352,1.558-3.6,2.176c-1.248,0.619-2.582,1.137-4,1.553c-1.419,0.416-2.939,0.725-4.561,0.928
					c-1.621,0.202-3.381,0.304-5.279,0.304c-3.328,0-6.379-0.57-9.152-1.712c-2.773-1.141-5.163-2.741-7.168-4.8
					c-2.006-2.059-3.568-4.528-4.688-7.408c-1.119-2.88-1.68-6.048-1.68-9.504c0-3.498,0.549-6.688,1.648-9.568
					c1.099-2.88,2.666-5.349,4.704-7.407c2.036-2.059,4.501-3.653,7.392-4.784s6.128-1.696,9.712-1.696
					c1.813,0,3.499,0.134,5.056,0.4c1.558,0.267,3.003,0.65,4.336,1.151c1.333,0.502,2.565,1.11,3.696,1.824
					c1.131,0.715,2.187,1.521,3.168,2.416l-1.76,2.816c-0.363,0.576-0.832,0.863-1.408,0.863c-0.342,0-0.715-0.116-1.12-0.352
					c-0.533-0.299-1.131-0.661-1.792-1.088s-1.467-0.837-2.416-1.232c-0.949-0.395-2.069-0.73-3.359-1.008
					c-1.291-0.276-2.822-0.416-4.593-0.416c-2.581,0-4.917,0.422-7.008,1.265s-3.872,2.048-5.344,3.615
					c-1.472,1.568-2.603,3.468-3.392,5.696c-0.79,2.229-1.185,4.731-1.185,7.504c0,2.901,0.411,5.488,1.232,7.76
					c0.82,2.272,1.979,4.198,3.472,5.776c1.493,1.579,3.264,2.784,5.312,3.616C669.238,206.492,671.499,206.908,673.974,206.908z"/>
				<path d="M742.678,211.42h-6.24v-20.864h-24.704v20.864h-6.239v-45.856h6.239v20.448h24.704v-20.448h6.24V211.42z"/>
				<path d="M766.229,211.42h-6.208v-45.856h6.208V211.42z"/>
				<path d="M800.757,195.58c0,2.56-0.315,4.854-0.944,6.88c-0.63,2.027-1.558,3.739-2.784,5.136
					c-1.227,1.397-2.736,2.47-4.528,3.216c-1.792,0.747-3.851,1.12-6.176,1.12c-2.069,0-4.224-0.299-6.464-0.896
					c0.043-0.619,0.096-1.232,0.16-1.84c0.063-0.608,0.128-1.211,0.192-1.809c0.042-0.362,0.176-0.656,0.399-0.88
					c0.225-0.224,0.561-0.336,1.008-0.336c0.385,0,0.896,0.096,1.536,0.288c0.641,0.192,1.493,0.288,2.561,0.288
					c1.407,0,2.66-0.213,3.76-0.64c1.099-0.427,2.026-1.089,2.784-1.984c0.757-0.896,1.333-2.043,1.728-3.44
					c0.395-1.396,0.592-3.056,0.592-4.976v-30.145h6.177V195.58z"/>
				<path d="M823.731,185.66h2.336c0.811,0,1.456-0.102,1.937-0.305c0.479-0.202,0.933-0.549,1.359-1.039l15.265-17.28
					c0.469-0.533,0.922-0.912,1.359-1.136c0.438-0.225,0.997-0.337,1.681-0.337h5.279l-17.472,19.744
					c-0.448,0.491-0.869,0.907-1.264,1.248c-0.396,0.342-0.816,0.619-1.265,0.832c0.598,0.192,1.12,0.48,1.568,0.864
					s0.917,0.864,1.408,1.44l18.24,21.728h-5.376c-0.406,0-0.747-0.032-1.024-0.096c-0.277-0.064-0.518-0.149-0.72-0.256
					c-0.203-0.107-0.39-0.245-0.561-0.416s-0.341-0.353-0.512-0.544l-15.84-18.208c-0.235-0.257-0.454-0.475-0.656-0.656
					c-0.203-0.182-0.438-0.336-0.704-0.464s-0.576-0.219-0.928-0.272c-0.353-0.053-0.784-0.08-1.296-0.08h-2.816v20.992h-6.176
					v-45.856h6.176V185.66z"/>
				<path d="M871.7,206.204h19.84v5.216h-26.048v-45.856h6.208V206.204z"/>
				<path d="M926.724,196.46c0.224,0.565,0.442,1.136,0.656,1.712c0.213-0.597,0.437-1.168,0.672-1.712
					c0.234-0.544,0.501-1.093,0.8-1.648l15.52-28.191c0.277-0.49,0.565-0.789,0.864-0.896c0.299-0.106,0.726-0.16,1.28-0.16h4.576
					v45.856h-5.44v-33.696c0-0.447,0.011-0.928,0.032-1.439c0.021-0.513,0.053-1.035,0.096-1.568l-15.712,28.672
					c-0.533,0.96-1.28,1.44-2.24,1.44h-0.896c-0.96,0-1.707-0.48-2.24-1.44l-16.063-28.768c0.063,0.555,0.111,1.099,0.144,1.632
					s0.048,1.024,0.048,1.472v33.696h-5.439v-45.856h4.575c0.555,0,0.981,0.054,1.28,0.16c0.299,0.107,0.587,0.406,0.864,0.896
					l15.84,28.224C926.238,195.355,926.5,195.895,926.724,196.46z"/>
			</g>
			<g enable-background="new    ">
				<path d="M377.641,242.57c0.267,0.14,0.57,0.422,0.912,0.849l26.56,34.56c-0.064-0.555-0.107-1.093-0.128-1.616
					c-0.022-0.522-0.032-1.028-0.032-1.52v-32.48h5.44v45.856h-3.136c-0.491,0-0.902-0.085-1.232-0.256s-0.656-0.459-0.976-0.864
					l-26.528-34.528c0.042,0.534,0.075,1.057,0.096,1.568c0.021,0.512,0.032,0.981,0.032,1.408v32.672h-5.44v-45.856h3.2
					C376.963,242.362,377.374,242.433,377.641,242.57z"/>
				<path d="M469.177,265.307c0,3.436-0.544,6.587-1.632,9.456c-1.088,2.869-2.624,5.339-4.608,7.408s-4.368,3.675-7.152,4.815
					c-2.784,1.142-5.861,1.713-9.232,1.713c-3.371,0-6.443-0.571-9.216-1.713c-2.773-1.141-5.152-2.746-7.136-4.815
					s-3.52-4.539-4.608-7.408c-1.088-2.869-1.632-6.021-1.632-9.456c0-3.435,0.544-6.586,1.632-9.456
					c1.088-2.869,2.624-5.344,4.608-7.424s4.362-3.696,7.136-4.848c2.773-1.152,5.845-1.729,9.216-1.729
					c3.371,0,6.448,0.576,9.232,1.729c2.784,1.151,5.168,2.768,7.152,4.848s3.52,4.555,4.608,7.424
					C468.633,258.721,469.177,261.872,469.177,265.307z M462.809,265.307c0-2.815-0.384-5.344-1.152-7.584s-1.856-4.133-3.264-5.68
					s-3.115-2.736-5.12-3.568s-4.245-1.248-6.72-1.248c-2.454,0-4.683,0.416-6.688,1.248c-2.006,0.832-3.718,2.021-5.136,3.568
					c-1.419,1.547-2.512,3.439-3.28,5.68s-1.152,4.769-1.152,7.584c0,2.816,0.384,5.339,1.152,7.568s1.861,4.117,3.28,5.664
					c1.418,1.547,3.13,2.73,5.136,3.552c2.005,0.821,4.234,1.231,6.688,1.231c2.475,0,4.714-0.41,6.72-1.231s3.712-2.005,5.12-3.552
					s2.496-3.435,3.264-5.664S462.809,268.123,462.809,265.307z"/>
				<path d="M489.463,271.066v17.152h-6.176v-45.856h13.536c2.901,0,5.424,0.337,7.568,1.009s3.92,1.627,5.328,2.863
					c1.408,1.238,2.458,2.731,3.152,4.48c0.693,1.749,1.04,3.701,1.04,5.855c0,2.134-0.374,4.086-1.12,5.856
					c-0.747,1.771-1.84,3.296-3.28,4.576s-3.227,2.277-5.36,2.992s-4.576,1.071-7.328,1.071H489.463z M489.463,266.139h7.36
					c1.771,0,3.333-0.234,4.688-0.704c1.354-0.469,2.49-1.125,3.408-1.968c0.917-0.843,1.611-1.851,2.08-3.024
					c0.469-1.173,0.704-2.464,0.704-3.872c0-2.922-0.901-5.204-2.704-6.848c-1.803-1.643-4.528-2.464-8.176-2.464h-7.36V266.139z"/>
				<path d="M569.336,265.307c0,2.155-0.219,4.203-0.656,6.145s-1.072,3.749-1.904,5.424s-1.846,3.194-3.041,4.56
					c-1.193,1.365-2.537,2.55-4.031,3.552l11.775,12.704h-5.119c-0.768,0-1.451-0.106-2.049-0.319
					c-0.598-0.214-1.141-0.587-1.631-1.12l-8.064-8.769c-1.217,0.385-2.48,0.684-3.791,0.896c-1.312,0.213-2.684,0.32-4.113,0.32
					c-3.371,0-6.443-0.571-9.216-1.713c-2.773-1.141-5.152-2.746-7.136-4.815s-3.52-4.539-4.608-7.408
					c-1.088-2.869-1.632-6.021-1.632-9.456c0-3.435,0.544-6.586,1.632-9.456c1.088-2.869,2.624-5.344,4.608-7.424
					s4.362-3.696,7.136-4.848c2.773-1.152,5.845-1.729,9.216-1.729c3.371,0,6.449,0.576,9.232,1.729
					c2.783,1.151,5.168,2.768,7.152,4.848s3.52,4.555,4.607,7.424C568.791,258.721,569.336,261.872,569.336,265.307z
					 M562.967,265.307c0-2.815-0.383-5.344-1.152-7.584c-0.768-2.24-1.855-4.133-3.264-5.68s-3.115-2.736-5.119-3.568
					c-2.006-0.832-4.246-1.248-6.72-1.248c-2.454,0-4.683,0.416-6.688,1.248c-2.006,0.832-3.718,2.021-5.136,3.568
					c-1.419,1.547-2.512,3.439-3.28,5.68s-1.152,4.769-1.152,7.584c0,2.816,0.384,5.339,1.152,7.568s1.861,4.117,3.28,5.664
					c1.418,1.547,3.13,2.73,5.136,3.552c2.005,0.821,4.234,1.231,6.688,1.231c2.474,0,4.714-0.41,6.72-1.231
					c2.004-0.821,3.711-2.005,5.119-3.552s2.496-3.435,3.264-5.664C562.584,270.646,562.967,268.123,562.967,265.307z"/>
				<path d="M589.622,269.083v19.136h-6.176v-45.856h12.96c2.901,0,5.408,0.294,7.521,0.881c2.111,0.587,3.855,1.435,5.231,2.544
					s2.395,2.447,3.056,4.016s0.992,3.323,0.992,5.264c0,1.622-0.256,3.137-0.768,4.544c-0.512,1.408-1.254,2.673-2.225,3.792
					c-0.971,1.12-2.154,2.075-3.552,2.864c-1.397,0.79-2.981,1.387-4.752,1.792c0.769,0.448,1.45,1.1,2.048,1.952l13.376,18.208
					h-5.504c-1.131,0-1.963-0.437-2.496-1.312l-11.903-16.385c-0.363-0.512-0.758-0.88-1.185-1.104
					c-0.427-0.225-1.066-0.336-1.92-0.336H589.622z M589.622,264.57h6.496c1.813,0,3.408-0.218,4.784-0.655s2.528-1.057,3.456-1.856
					s1.626-1.754,2.096-2.864c0.469-1.108,0.704-2.336,0.704-3.68c0-2.73-0.901-4.789-2.704-6.176s-4.485-2.08-8.048-2.08h-6.784
					V264.57z"/>
				<path d="M652.502,249.53c-0.191,0.32-0.395,0.561-0.607,0.721c-0.214,0.16-0.491,0.24-0.832,0.24
					c-0.363,0-0.784-0.182-1.265-0.545c-0.479-0.362-1.088-0.762-1.823-1.199c-0.736-0.438-1.622-0.837-2.656-1.2
					c-1.035-0.362-2.288-0.544-3.76-0.544c-1.388,0-2.614,0.187-3.681,0.56c-1.066,0.374-1.957,0.88-2.672,1.521
					c-0.715,0.64-1.253,1.392-1.616,2.256c-0.362,0.864-0.544,1.798-0.544,2.8c0,1.28,0.314,2.342,0.944,3.184
					c0.629,0.844,1.461,1.563,2.496,2.16c1.034,0.598,2.208,1.115,3.52,1.553c1.312,0.438,2.656,0.891,4.032,1.359
					c1.376,0.47,2.72,0.998,4.032,1.584c1.312,0.587,2.485,1.328,3.52,2.225c1.035,0.896,1.867,1.994,2.496,3.296
					c0.629,1.301,0.944,2.901,0.944,4.8c0,2.006-0.342,3.888-1.024,5.647c-0.683,1.761-1.68,3.291-2.991,4.593
					c-1.312,1.301-2.924,2.325-4.832,3.071c-1.91,0.747-4.08,1.12-6.513,1.12c-2.965,0-5.669-0.538-8.111-1.615
					c-2.443-1.077-4.528-2.533-6.256-4.368l1.792-2.944c0.17-0.234,0.378-0.432,0.624-0.592c0.244-0.16,0.517-0.24,0.815-0.24
					c0.448,0,0.96,0.24,1.536,0.72c0.576,0.48,1.296,1.009,2.16,1.584c0.864,0.576,1.909,1.104,3.136,1.584
					c1.227,0.48,2.725,0.721,4.496,0.721c1.472,0,2.784-0.203,3.936-0.608c1.152-0.405,2.129-0.976,2.929-1.712
					s1.413-1.616,1.84-2.64c0.427-1.024,0.64-2.165,0.64-3.425c0-1.386-0.314-2.522-0.943-3.407c-0.63-0.886-1.456-1.627-2.48-2.225
					c-1.024-0.597-2.192-1.104-3.504-1.52c-1.312-0.416-2.656-0.843-4.032-1.28c-1.376-0.437-2.72-0.944-4.032-1.52
					c-1.312-0.576-2.479-1.323-3.504-2.24c-1.023-0.917-1.851-2.064-2.479-3.44c-0.63-1.376-0.944-3.077-0.944-5.104
					c0-1.621,0.314-3.189,0.944-4.704c0.629-1.515,1.541-2.858,2.735-4.032c1.195-1.173,2.673-2.112,4.433-2.815
					c1.76-0.704,3.781-1.057,6.063-1.057c2.561,0,4.896,0.405,7.009,1.216c2.111,0.812,3.957,1.984,5.535,3.521L652.502,249.53z"/>
				<path d="M699.158,242.362v5.217h-14.815v40.64h-6.208v-40.64h-14.88v-5.217H699.158z"/>
				<path d="M728.502,283.291c1.898,0,3.595-0.32,5.089-0.96c1.492-0.641,2.757-1.536,3.792-2.688
					c1.034-1.151,1.823-2.527,2.367-4.128c0.544-1.6,0.816-3.36,0.816-5.28v-27.872h6.176v27.872c0,2.646-0.421,5.1-1.264,7.36
					c-0.843,2.262-2.048,4.219-3.616,5.872s-3.483,2.949-5.744,3.888c-2.262,0.938-4.8,1.408-7.616,1.408
					c-2.815,0-5.354-0.47-7.615-1.408c-2.262-0.938-4.182-2.234-5.761-3.888s-2.789-3.61-3.632-5.872
					c-0.843-2.261-1.264-4.715-1.264-7.36v-27.872h6.176v27.841c0,1.92,0.272,3.68,0.816,5.279c0.544,1.601,1.333,2.977,2.368,4.128
					c1.034,1.152,2.304,2.054,3.808,2.704C724.902,282.966,726.604,283.291,728.502,283.291z"/>
				<path d="M757.077,242.362h4.96c0.555,0,1.003,0.14,1.344,0.416c0.342,0.278,0.598,0.63,0.769,1.057l12.96,32.352
					c0.299,0.726,0.57,1.516,0.815,2.368c0.245,0.854,0.485,1.739,0.721,2.656c0.191-0.917,0.399-1.803,0.624-2.656
					c0.224-0.853,0.484-1.643,0.784-2.368l12.896-32.352c0.149-0.362,0.405-0.698,0.769-1.008c0.362-0.31,0.81-0.465,1.344-0.465
					h4.992l-18.688,45.856h-5.6L757.077,242.362z"/>
				<path d="M805.781,242.362h5.151c0.555,0,1.014,0.14,1.376,0.416c0.363,0.278,0.608,0.63,0.736,1.057l9.472,31.872
					c0.171,0.576,0.325,1.194,0.465,1.855c0.138,0.662,0.271,1.355,0.399,2.08c0.149-0.725,0.299-1.424,0.448-2.096
					c0.148-0.672,0.32-1.285,0.512-1.84l10.784-31.872c0.128-0.362,0.379-0.698,0.752-1.008s0.826-0.465,1.36-0.465h1.792
					c0.555,0,1.008,0.14,1.359,0.416c0.353,0.278,0.603,0.63,0.752,1.057l10.721,31.872c0.384,1.109,0.725,2.379,1.023,3.808
					c0.128-0.704,0.245-1.376,0.353-2.016c0.106-0.641,0.245-1.237,0.416-1.792l9.504-31.872c0.106-0.384,0.347-0.726,0.72-1.024
					c0.373-0.298,0.826-0.448,1.36-0.448h4.832l-14.305,45.856h-5.567l-11.616-34.976c-0.235-0.661-0.448-1.43-0.64-2.305
					c-0.107,0.428-0.208,0.838-0.305,1.232c-0.096,0.395-0.197,0.752-0.304,1.072l-11.68,34.976h-5.568L805.781,242.362z"/>
				<path d="M891.765,264.667l-15.136-22.305h6.176c0.448,0,0.779,0.075,0.992,0.225s0.405,0.363,0.576,0.64l11.968,18.368
					c0.149-0.448,0.373-0.938,0.672-1.472l11.296-16.769c0.192-0.298,0.4-0.538,0.624-0.72c0.225-0.181,0.496-0.272,0.816-0.272
					h5.92l-15.2,22.017l15.712,23.84h-6.144c-0.47,0-0.838-0.122-1.104-0.368c-0.267-0.245-0.485-0.517-0.655-0.815l-12.288-19.232
					c-0.149,0.448-0.342,0.875-0.576,1.28l-11.968,17.952c-0.192,0.299-0.411,0.57-0.656,0.815c-0.245,0.246-0.592,0.368-1.04,0.368
					h-5.76L891.765,264.667z"/>
				<path d="M944.917,269.979v18.24h-6.177v-18.24l-16.8-27.616h5.44c0.555,0,0.992,0.14,1.312,0.416
					c0.32,0.278,0.598,0.619,0.832,1.024l10.496,17.824c0.427,0.747,0.784,1.451,1.072,2.111c0.288,0.662,0.549,1.312,0.784,1.952
					c0.234-0.661,0.49-1.322,0.768-1.983s0.629-1.354,1.056-2.08l10.465-17.824c0.191-0.341,0.452-0.666,0.783-0.976
					s0.763-0.465,1.296-0.465h5.505L944.917,269.979z"/>
				<path d="M1004.437,242.362v2.305c0,0.726-0.224,1.408-0.672,2.048l-25.952,36.448h26.176v5.056h-34.304v-2.432
					c0-0.641,0.202-1.248,0.608-1.824l25.983-36.544H970.9v-5.057H1004.437z"/>
			</g>
		</g>
	</g>
</g>
<g id="Layer_3">
	<g>
		<rect x="321.75" y="0.206" fill="#CA302A" width="736" height="339.588"/>
	</g>
	<g>
		<rect x="336.963" y="39.508" fill="none" width="705.574" height="260.983"/>
	</g>
	<g>
		<g enable-background="new    ">
			<path fill="#FFFFFF" d="M357.244,44.171c0,3.472-1.484,5.487-4.228,5.487h-2.744v7.28h-2.128V38.654h4.76
				C355.732,38.654,357.244,40.587,357.244,44.171z M350.272,47.895h2.604c1.568,0,2.268-1.092,2.268-3.696
				c0-2.66-0.7-3.668-2.268-3.668h-2.604V47.895z"/>
			<path fill="#FFFFFF" d="M365.952,44.87c-0.336-0.224-0.7-0.308-1.12-0.308c-1.568,0-2.548,1.372-2.744,3.92v8.456H360.1v-14.14
				h1.708l0.112,2.323c0.672-1.819,1.68-2.548,2.94-2.548c0.476,0,0.98,0.112,1.344,0.336L365.952,44.87z"/>
			<path fill="#FFFFFF" d="M371.188,43.358v13.58H369.2v-13.58H371.188z M371.132,38.654v2.548h-1.876v-2.548H371.132z"/>
			<path fill="#FFFFFF" d="M383.34,56.938h-1.988v-9.716c0-2.212-0.784-2.884-1.876-2.884c-1.008,0-1.792,0.728-2.156,1.792v10.808
				h-1.988v-14.14h1.736v1.456c0.728-1.148,1.764-1.708,2.912-1.708c1.26,0,2.268,0.588,2.8,1.96c0.644-1.232,1.764-1.96,3.108-1.96
				c2.128,0,3.444,1.428,3.444,4.676v9.716h-1.988v-9.716c0-1.904-0.616-2.884-1.932-2.884c-1.232,0-2.072,0.812-2.072,2.884V56.938
				z"/>
			<path fill="#FFFFFF" d="M392.859,45.683c0.728-1.848,1.932-3.164,3.92-3.164c2.52,0,3.584,1.764,3.584,4.368v7.672
				c0,0.7,0.308,1.092,0.924,1.092h0.336v1.288c-0.28,0.084-0.644,0.168-1.008,0.168c-0.98,0-1.652-0.504-1.96-1.204
				c-0.784,0.868-1.764,1.26-2.912,1.26c-1.988,0-3.248-1.428-3.248-3.779c0-2.66,1.372-4.536,5.04-4.536h0.84v-1.96
				c0-1.876-0.616-2.688-1.82-2.688c-1.036,0-1.82,0.756-2.352,2.156L392.859,45.683z M398.375,54.362v-4.004h-0.84
				c-2.352,0-3.136,1.064-3.136,2.884c0,1.736,0.7,2.38,1.764,2.38C397.144,55.622,397.815,55.202,398.375,54.362z"/>
			<path fill="#FFFFFF" d="M410.247,44.87c-0.336-0.224-0.7-0.308-1.12-0.308c-1.568,0-2.548,1.372-2.744,3.92v8.456h-1.988v-14.14
				h1.708l0.112,2.323c0.672-1.819,1.68-2.548,2.94-2.548c0.476,0,0.98,0.112,1.344,0.336L410.247,44.87z"/>
			<path fill="#FFFFFF" d="M418.479,56.267c-0.784,2.548-1.876,3.612-4.032,3.752l-0.168-1.54c1.316-0.196,1.96-0.756,2.408-2.324
				l0.084-0.308l-4.508-13.048h2.156l3.332,10.556l2.716-10.556h2.044L418.479,56.267z"/>
			<path fill="#FFFFFF" d="M439.395,38.654v1.933h-3.556v16.352h-2.128V40.587h-3.556v-1.933H439.395z"/>
			<path fill="#FFFFFF" d="M446.058,56.267c-0.784,2.548-1.876,3.612-4.032,3.752l-0.168-1.54c1.316-0.196,1.96-0.756,2.408-2.324
				l0.084-0.308l-4.508-13.048h2.156l3.332,10.556l2.716-10.556h2.044L446.058,56.267z"/>
			<path fill="#FFFFFF" d="M454.99,55.902v4.032h-1.988V42.799h1.736l0.112,1.204c0.728-0.925,1.82-1.456,3.164-1.456
				c2.324,0,3.584,1.735,3.584,4.676v5.264c0,2.968-1.316,4.676-3.668,4.676C456.726,57.162,455.718,56.742,454.99,55.902z
				 M454.99,54.194c0.504,0.7,1.26,1.26,2.408,1.26c1.484,0,2.212-1.008,2.212-2.939v-5.236c0-1.988-0.7-2.968-2.184-2.968
				c-1.12,0-1.96,0.616-2.436,1.316V54.194z"/>
			<path fill="#FFFFFF" d="M466.75,49.91v2.633c0,1.932,0.84,2.939,2.38,2.939c1.232,0,1.932-0.644,2.436-2.436l1.512,0.504
				c-0.588,2.464-1.932,3.611-4.116,3.611c-2.744,0-4.2-1.903-4.2-4.563V47.11c0-2.66,1.456-4.563,4.172-4.563
				c2.66,0,4.088,1.987,4.088,4.647v2.716H466.75z M466.75,48.511h4.48v-1.513c0-1.848-0.812-2.8-2.24-2.8
				c-1.54,0-2.24,1.008-2.24,2.828V48.511z"/>
			<path fill="#FFFFFF" d="M481.673,44.982h-2.884v11.956h-1.96V44.982h-1.512v-1.596h1.512v-0.504c0-2.716,1.344-4.2,4.62-4.34
				l0.112,1.483c-2.072,0.141-2.828,0.924-2.828,2.856v0.504h2.94V44.982z"/>
			<path fill="#FFFFFF" d="M484.277,45.683c0.728-1.848,1.932-3.164,3.92-3.164c2.52,0,3.584,1.764,3.584,4.368v7.672
				c0,0.7,0.308,1.092,0.924,1.092h0.336v1.288c-0.28,0.084-0.644,0.168-1.008,0.168c-0.98,0-1.652-0.504-1.96-1.204
				c-0.784,0.868-1.764,1.26-2.912,1.26c-1.988,0-3.248-1.428-3.248-3.779c0-2.66,1.372-4.536,5.04-4.536h0.84v-1.96
				c0-1.876-0.616-2.688-1.82-2.688c-1.036,0-1.82,0.756-2.352,2.156L484.277,45.683z M489.793,54.362v-4.004h-0.84
				c-2.352,0-3.136,1.064-3.136,2.884c0,1.736,0.7,2.38,1.764,2.38C488.562,55.622,489.233,55.202,489.793,54.362z"/>
			<path fill="#FFFFFF" d="M501.917,46.326c-0.392-1.456-1.204-2.071-2.268-2.071c-1.428,0-2.24,0.924-2.24,2.912v5.376
				c0,1.987,0.812,2.939,2.24,2.939c1.148,0,1.876-0.616,2.296-2.156l1.484,0.504c-0.532,2.044-1.82,3.332-3.892,3.332
				c-2.744,0-4.116-1.987-4.116-4.535V47.11c0-2.604,1.4-4.563,4.088-4.563c1.932,0,3.304,1.204,3.864,3.22L501.917,46.326z"/>
			<path fill="#FFFFFF" d="M507.965,49.91v2.633c0,1.932,0.84,2.939,2.38,2.939c1.232,0,1.932-0.644,2.436-2.436l1.512,0.504
				c-0.588,2.464-1.932,3.611-4.116,3.611c-2.744,0-4.2-1.903-4.2-4.563V47.11c0-2.66,1.456-4.563,4.172-4.563
				c2.66,0,4.088,1.987,4.088,4.647v2.716H507.965z M507.965,48.511h4.48v-1.513c0-1.848-0.812-2.8-2.24-2.8
				c-1.54,0-2.24,1.008-2.24,2.828V48.511z"/>
			<path fill="#FFFFFF" d="M517.653,43.667h1.932v2.128h-1.932V43.667z M517.653,54.811h1.932v2.128h-1.932V54.811z"/>
		</g>
		<g enable-background="new    ">
			<path fill="#FFFFFF" d="M577.208,38.627v18.312h-2.464V45.122l-3.64,8.736h-1.232l-3.612-8.736v11.816h-2.464V38.627h2.52
				l4.172,11.199l4.2-11.199H577.208z"/>
			<path fill="#FFFFFF" d="M589.583,52.543c0,2.659-1.54,4.647-4.508,4.647c-2.996,0-4.508-1.96-4.508-4.647v-5.376
				c0-2.688,1.512-4.704,4.508-4.704s4.508,1.987,4.508,4.704V52.543z M583.115,52.431c0,1.764,0.644,2.632,1.96,2.632
				s1.932-0.868,1.932-2.632v-5.18c0-1.765-0.616-2.633-1.932-2.633c-1.344,0-1.96,0.868-1.96,2.633V52.431z"/>
			<path fill="#FFFFFF" d="M595.408,56.938h-2.576V42.715h2.24l0.112,1.147c0.756-0.924,1.792-1.399,3.052-1.399
				c2.296,0,3.584,1.68,3.584,4.844v9.632h-2.576v-9.576c0-1.848-0.616-2.604-1.792-2.604c-0.952,0-1.624,0.476-2.044,1.092V56.938z
				"/>
			<path fill="#FFFFFF" d="M610.919,45.375h-2.66v8.008c0,1.147,0.532,1.708,1.428,1.708c0.364,0,0.7-0.084,1.008-0.225l0.28,1.681
				c-0.588,0.363-1.316,0.615-2.212,0.615c-2.128,0-3.08-1.315-3.08-3.863v-7.784l-1.456-0.364v-1.82l1.596-0.111l0.644-3.08h1.792
				v3.136h2.66V45.375z"/>
			<path fill="#FFFFFF" d="M619.458,46.383c-0.364-1.456-1.12-1.876-2.044-1.876c-1.064,0-1.54,0.644-1.54,1.651
				c0,2.801,5.376,2.353,5.376,6.944c0,2.38-1.624,4.088-3.92,4.088c-1.988,0-3.388-1.008-4.06-3.304l1.764-0.784
				c0.42,1.54,1.344,2.1,2.212,2.1c1.036,0,1.568-0.644,1.568-1.876c0-3.052-5.432-2.548-5.432-7c0-2.155,1.4-3.863,3.948-3.863
				c1.96,0,3.248,1.147,3.836,3.248L619.458,46.383z"/>
			<path fill="#FFFFFF" d="M626.318,50.106v2.296c0,1.764,0.728,2.632,2.072,2.632c1.064,0,1.652-0.588,2.1-2.212l1.932,0.616
				c-0.588,2.548-1.932,3.752-4.284,3.752c-2.856,0-4.368-2.016-4.368-4.704v-5.348c0-2.632,1.484-4.676,4.368-4.676
				c2.772,0,4.228,2.071,4.228,4.788v2.855H626.318z M626.318,48.398h3.724v-1.372c0-1.68-0.644-2.464-1.848-2.464
				c-1.288,0-1.876,0.812-1.876,2.464V48.398z"/>
			<path fill="#FFFFFF" d="M641.634,45.375c-0.308-0.225-0.672-0.309-1.092-0.309c-1.428,0-2.268,1.148-2.492,3.528v8.344h-2.576
				V42.715h2.184l0.14,2.184c0.672-1.764,1.652-2.408,2.828-2.408c0.476,0,0.98,0.141,1.288,0.336L641.634,45.375z"/>
			<path fill="#FFFFFF" d="M650.706,45.375c-0.308-0.225-0.672-0.309-1.092-0.309c-1.428,0-2.268,1.148-2.492,3.528v8.344h-2.576
				V42.715h2.184l0.14,2.184c0.672-1.764,1.652-2.408,2.828-2.408c0.476,0,0.98,0.141,1.288,0.336L650.706,45.375z"/>
			<path fill="#FFFFFF" d="M653.086,45.822c0.7-1.987,2.016-3.388,4.144-3.388c2.66,0,3.78,1.82,3.78,4.452v7.392
				c0,0.616,0.28,0.98,0.84,0.98h0.308v1.651c-0.336,0.112-0.784,0.196-1.204,0.196c-1.064,0-1.708-0.476-2.1-1.12
				c-0.756,0.812-1.708,1.176-2.828,1.176c-2.016,0-3.304-1.54-3.304-3.892c0-2.576,1.344-4.564,5.012-4.564h0.7v-1.848
				c0-1.652-0.504-2.268-1.54-2.268c-0.896,0-1.596,0.644-2.072,2.016L653.086,45.822z M658.434,54.223V50.61h-0.7
				c-1.876,0-2.548,0.896-2.548,2.437c0,1.651,0.588,2.184,1.456,2.184C657.454,55.23,657.986,54.895,658.434,54.223z"/>
			<path fill="#FFFFFF" d="M670.278,45.375h-2.66v8.008c0,1.147,0.532,1.708,1.428,1.708c0.364,0,0.7-0.084,1.008-0.225l0.28,1.681
				c-0.588,0.363-1.316,0.615-2.212,0.615c-2.128,0-3.08-1.315-3.08-3.863v-7.784l-1.456-0.364v-1.82l1.596-0.111l0.644-3.08h1.792
				v3.136h2.66V45.375z"/>
		</g>
		<g enable-background="new    ">
			<path fill="#FFFFFF" d="M388.821,111.276c0,14.654-7.104,22.782-19.774,22.782c-12.799,0-19.902-8.128-19.902-22.782
				c0-14.592,7.104-22.719,19.902-22.719C381.717,88.558,388.821,96.685,388.821,111.276z M360.855,111.276
				c0,10.239,2.432,14.463,8.191,14.463c5.632,0,8.127-4.224,8.127-14.463s-2.496-14.399-8.127-14.399
				C363.287,96.877,360.855,101.037,360.855,111.276z"/>
			<path fill="#FFFFFF" d="M405.207,133.738V98.029h-8.255v-9.151h19.647v44.86H405.207z"/>
			<path fill="#FFFFFF" d="M462.74,100.141c0,4.863-3.583,9.919-8.447,14.911l-9.087,9.663h18.878v9.023H430.55v-7.359
				l15.999-16.959c2.496-2.624,4.288-5.632,4.288-7.68c0-2.56-1.855-4.096-5.056-4.096c-3.647,0-8.127,2.176-12.223,5.696
				l-4.288-8.191c5.632-4.224,11.775-6.72,18.175-6.72C456.34,88.43,462.74,93.037,462.74,100.141z"/>
			<path fill="#FFFFFF" d="M493.844,107.437c6.527,1.023,11.135,5.312,11.135,12.223c0,8.575-6.72,14.591-17.151,14.591
				c-6.144,0-12.607-2.176-16.703-5.439l4.607-8.64c3.328,3.584,7.167,5.44,11.199,5.44c4.48,0,6.912-2.177,6.912-5.824
				c0-3.775-2.496-5.632-6.976-5.632h-7.167v-6.079l9.983-10.367h-16.319v-8.703h29.566v6.463l-11.199,11.647L493.844,107.437z"/>
			<path fill="#FFFFFF" d="M534.932,115.243v-9.599h10.559v9.599h6.08v8.64h-6.08v9.855h-10.559v-9.855h-21.247v-7.615
				l14.143-27.326h10.943l-13.312,26.302H534.932z"/>
			<path fill="#FFFFFF" d="M572.5,97.965v7.231h4.031c10.239,0,16.959,5.504,16.959,13.503c0,9.407-7.039,15.487-17.854,15.487
				c-5.888,0-12.607-2.24-17.279-5.567l4.544-8.64c3.328,3.584,7.359,5.503,11.392,5.503c4.415,0,6.976-2.176,6.976-6.015
				c0-3.521-2.561-5.568-6.976-5.568c-2.304,0-9.407,0.128-12.159,0.32V88.941h29.374v9.023H572.5z"/>
			<path fill="#FFFFFF" d="M638.354,92.142l-4.352,7.936c-2.56-1.856-5.952-2.88-9.407-2.88c-7.168,0-10.623,4.543-10.495,11.902
				c2.111-3.008,5.695-4.799,10.687-4.799c8.832,0,14.463,5.759,14.463,14.463c0,9.471-6.655,15.486-16.767,15.486
				c-12.031,0-19.326-8.511-19.326-22.271c0-14.271,8.127-23.55,20.734-23.55C628.882,88.43,634.579,89.838,638.354,92.142z
				 M615.316,118.892c0,3.327,2.111,6.271,6.72,6.271c4.096,0,6.655-2.304,6.655-6.464c0-3.84-2.368-6.079-6.464-6.079
				C617.811,112.62,615.316,115.243,615.316,118.892z"/>
			<path fill="#FFFFFF" d="M666.451,133.738h-12.031l15.999-35.773h-12.352v6.271h-9.982V88.941h34.877v7.743L666.451,133.738z"/>
			<path fill="#FFFFFF" d="M725.52,100.461c0,3.903-2.111,7.359-5.631,9.279c4.928,2.048,7.999,6.335,7.999,11.327
				c0,8.063-7.167,13.183-18.366,13.183s-18.367-5.056-18.367-12.991c0-5.119,3.328-9.471,8.512-11.519
				c-3.776-2.112-6.208-5.695-6.208-9.6c0-7.167,6.271-11.711,15.999-11.711C719.313,88.43,725.52,93.102,725.52,100.461z
				 M701.906,120.107c0,3.775,2.688,5.888,7.616,5.888c4.927,0,7.679-2.048,7.679-5.888c0-3.712-2.752-5.824-7.679-5.824
				C704.594,114.283,701.906,116.396,701.906,120.107z M703.058,101.101c0,3.2,2.304,4.991,6.464,4.991
				c4.159,0,6.463-1.791,6.463-4.991c0-3.328-2.304-5.184-6.463-5.184C705.362,95.917,703.058,97.772,703.058,101.101z"/>
			<path fill="#FFFFFF" d="M737.875,130.475l4.353-7.936c2.56,1.855,5.951,2.88,9.408,2.88c7.166,0,10.623-4.544,10.494-11.903
				c-2.111,3.008-5.695,4.8-10.688,4.8c-8.831,0-14.462-5.76-14.462-14.463c0-9.472,6.655-15.487,16.767-15.487
				c12.031,0,19.326,8.512,19.326,22.271c0,14.271-8.127,23.551-20.734,23.551C747.346,134.187,741.651,132.778,737.875,130.475z
				 M760.914,103.725c0-3.328-2.113-6.271-6.721-6.271c-4.096,0-6.655,2.304-6.655,6.463c0,3.84,2.368,6.08,6.463,6.08
				C758.418,109.996,760.914,107.372,760.914,103.725z"/>
		</g>
		<g enable-background="new    ">
			<path fill="#FFFFFF" d="M361.175,202.283l-3.264,8.256H346.2l19.327-44.797h11.711l18.878,44.797h-12.159l-3.2-8.256H361.175z
				 M371.03,177.069l-6.527,16.575h12.927L371.03,177.069z"/>
			<path fill="#FFFFFF" d="M426.454,165.742c10.047,0,16.447,4.352,16.447,11.199c0,4.735-2.944,8.512-7.679,9.855
				c5.631,1.088,9.215,5.504,9.215,11.327c0,7.615-6.656,12.415-17.215,12.415h-21.951v-44.797H426.454z M416.598,183.661h9.215
				c3.328,0,5.44-1.792,5.44-4.672s-2.112-4.544-5.44-4.544h-9.215V183.661z M416.598,201.771h9.215
				c4.224,0,6.848-1.855,6.848-5.056c0-3.008-2.624-4.863-6.848-4.863h-9.215V201.771z"/>
			<path fill="#FFFFFF" d="M495.06,172.91l-6.592,7.807c-2.944-3.583-7.295-5.823-11.263-5.823c-7.104,0-12.479,5.632-12.479,12.991
				c0,7.487,5.375,13.183,12.479,13.183c3.776,0,8.127-2.048,11.263-5.247l6.656,7.039c-4.8,4.928-11.903,8.191-18.495,8.191
				c-13.503,0-23.551-9.919-23.551-23.038c0-12.927,10.304-22.654,23.935-22.654C483.668,165.358,490.58,168.302,495.06,172.91z"/>
			<path fill="#FFFFFF" d="M524.564,165.742c14.079,0,23.806,9.088,23.806,22.398c0,13.247-9.855,22.398-24.254,22.398h-18.815
				v-44.797H524.564z M516.693,201.452h8.127c6.976,0,11.967-5.376,11.967-13.247c0-7.936-5.248-13.375-12.479-13.375h-7.616
				V201.452z"/>
			<path fill="#FFFFFF" d="M570.773,174.701v8.896h21.374v8.96h-21.374v9.023h24.382v8.959h-35.773v-44.797h35.069v8.959H570.773z"
				/>
			<path fill="#FFFFFF" d="M618.901,174.701v10.368h20.095v8.959h-20.095v16.511h-11.392v-44.797h33.214v8.959H618.901z"/>
			<path fill="#FFFFFF" d="M690.77,187.757v17.471c-4.8,3.392-12.352,5.823-18.623,5.823c-13.631,0-23.934-9.855-23.934-22.91
				c0-12.991,10.559-22.782,24.702-22.782c6.655,0,13.694,2.56,18.303,6.655l-6.399,7.743c-3.264-3.007-7.808-4.863-11.968-4.863
				c-7.359,0-12.991,5.76-12.991,13.247c0,7.615,5.696,13.375,13.119,13.375c2.304,0,5.248-0.832,7.936-2.176v-11.583H690.77z"/>
			<path fill="#FFFFFF" d="M733.651,210.539v-17.406h-18.559v17.406h-11.392v-44.797h11.392v18.431h18.559v-18.431h11.391v44.797
				H733.651z"/>
			<path fill="#FFFFFF" d="M758.996,210.539v-44.797h11.391v44.797H758.996z"/>
			<path fill="#FFFFFF" d="M810.449,196.012c0,9.536-5.951,15.039-15.486,15.039c-6.336,0-11.455-2.624-15.424-7.167l5.248-7.615
				c3.199,3.327,6.783,4.991,9.408,4.991c3.008,0,4.799-1.855,4.799-5.504v-20.862h-15.359v-9.215h26.814V196.012z"/>
			<path fill="#FFFFFF" d="M840.979,192.94l-5.951,6.592v11.007h-11.393v-44.797h11.393v19.391l17.15-19.391h13.184l-16.641,18.559
				l17.729,26.238h-13.633L840.979,192.94z"/>
			<path fill="#FFFFFF" d="M906.834,201.004v9.535h-30.398v-44.797h11.391v35.262H906.834z"/>
			<path fill="#FFFFFF" d="M956.432,210.539l-0.062-29.118l-10.752,24.639h-7.424l-10.75-24.639v29.118h-10.176v-44.86h12.479
				l12.16,26.686l12.158-26.686h12.416v44.86H956.432z"/>
		</g>
		<g enable-background="new    ">
			<path fill="#FFFFFF" d="M382.293,287.339l-20.606-27.582v27.582H351v-44.797h10.047l20.67,27.646v-27.646h10.624v44.797H382.293z
				"/>
			<path fill="#FFFFFF" d="M451.796,264.877c0,13.055-10.367,22.974-24.254,22.974c-13.823,0-24.19-9.855-24.19-22.974
				c0-13.056,10.367-22.719,24.19-22.719C441.429,242.158,451.796,251.886,451.796,264.877z M414.999,264.94
				c0,7.552,5.824,13.375,12.671,13.375c6.912,0,12.415-5.823,12.415-13.375s-5.503-13.247-12.415-13.247
				S414.999,257.389,414.999,264.94z"/>
			<path fill="#FFFFFF" d="M482.325,242.542c11.456,0,18.047,5.632,18.047,15.615c0,10.495-6.591,16.574-18.047,16.574h-8.127
				v12.607h-11.391v-44.797H482.325z M474.198,265.772h7.552c4.992,0,7.872-2.496,7.872-7.231c0-4.672-2.88-7.04-7.872-7.04h-7.552
				V265.772z"/>
			<path fill="#FFFFFF" d="M559.059,292.971c-3.456,3.071-8.512,4.928-12.991,4.928c-6.207,0-11.455-3.84-14.398-10.048
				c-13.375-0.447-23.295-10.111-23.295-22.974c0-13.056,10.368-22.719,24.19-22.719c13.887,0,24.254,9.728,24.254,22.719
				c0,9.919-5.951,18.046-14.91,21.374c1.535,1.92,3.392,3.071,5.439,3.071s4.928-1.279,7.68-3.392L559.059,292.971z
				 M532.693,278.315c6.911,0,12.415-5.823,12.415-13.375s-5.504-13.247-12.415-13.247s-12.671,5.695-12.671,13.247
				S525.846,278.315,532.693,278.315z"/>
			<path fill="#FFFFFF" d="M588.5,274.731h-0.32h-8.639v12.607H568.15v-44.797h20.03c11.84,0,18.623,5.632,18.623,15.615
				c0,6.848-2.88,11.775-8.127,14.398l9.407,14.783h-12.928L588.5,274.731z M588.18,265.772c4.928,0,7.808-2.496,7.808-7.231
				c0-4.672-2.88-7.04-7.808-7.04h-8.639v14.271H588.18z"/>
			<path fill="#FFFFFF" d="M654.356,247.021l-4.288,8.896c-4.735-2.752-10.688-4.672-14.335-4.672c-2.943,0-4.928,1.088-4.928,3.264
				c0,7.744,23.679,3.328,23.679,19.52c0,8.959-7.936,13.694-17.919,13.694c-7.487,0-15.167-2.815-20.479-7.167l4.416-8.768
				c4.607,4.031,11.519,6.72,16.19,6.72c3.584,0,5.823-1.344,5.823-3.904c0-7.936-23.678-3.199-23.678-19.07
				c0-8.256,7.104-13.503,17.854-13.503C643.157,242.03,649.748,244.014,654.356,247.021z"/>
			<path fill="#FFFFFF" d="M686.42,251.693v35.646H675.03v-35.646h-13.375v-9.215h38.269v9.215H686.42z"/>
			<path fill="#FFFFFF" d="M750.1,268.524c0,11.839-7.872,19.326-20.416,19.326c-12.606,0-20.67-7.487-20.67-19.326v-25.982h11.391
				v25.982c0,6.079,3.904,9.791,9.344,9.791c5.376,0,9.023-3.712,9.023-9.791v-25.982H750.1V268.524z"/>
			<path fill="#FFFFFF" d="M776.148,287.339l-17.408-44.797h12.16l11.455,32.958l11.455-32.958h11.711l-17.598,44.797H776.148z"/>
			<path fill="#FFFFFF" d="M853.586,287.339l-8.32-30.974l-8.447,30.974h-11.775l-14.654-44.797h12.158l8.768,32.958l8.576-32.958
				h11.135l8.768,32.958l8.639-32.958h11.648l-14.783,44.797H853.586z"/>
			<path fill="#FFFFFF" d="M931.152,287.339h-13.631l-9.662-14.271l-9.664,14.271h-13.246l15.998-22.91l-14.975-21.887h13.246
				l8.641,13.055l8.639-13.055h13.375l-14.783,21.375L931.152,287.339z"/>
			<path fill="#FFFFFF" d="M964.178,287.339h-11.326v-14.143l-16.576-30.654h11.393l10.814,19.519l10.559-19.519h11.393
				l-16.256,30.334V287.339z"/>
			<path fill="#FFFFFF" d="M1002.131,278.315h24.318v9.023H986.9v-7.296l23.998-28.478h-23.166v-9.023h38.332v7.296
				L1002.131,278.315z"/>
		</g>
	</g>
</g>
</svg>
