<svg width="208" height="26" viewBox="0 0 208 26" xmlns="http://www.w3.org/2000/svg"><title>Elite-Daily-Logo-Black</title><g fill-rule="nonzero" fill="#000"><path d="M0 25.308c2.767-.11 3.385-.838 3.385-2.292V3.953c0-1.419-.618-2.184-3.385-2.292V1h18.886l.155 7.785-.77.05c-1.848-4.882-3-6.92-6.972-6.92H7.61v10.768h1.463c2.5 0 3.69-.692 4.653-4.584h.731v10.079h-.724c-.961-3.892-2.154-4.584-4.653-4.584h-1.47V25.09h3.621c4.654 0 6.116-2.22 7.963-7.421l.807.037L19.809 26H0v-.692zM22 25.308c2.627-.11 3.213-.838 3.213-2.292V3.953c0-1.419-.584-2.182-3.213-2.292V1h10.37v.661c-2.74.11-3.14.838-3.14 2.292V25.09h2.226c4.308 0 5.768-1.673 7.778-7.494l.766.073L39.713 26H22v-.692zM42 25.308c2.828-.11 3.438-.838 3.438-2.292V3.953c0-1.419-.612-2.182-3.438-2.292V1h11v.661c-2.828.11-3.403.882-3.403 2.292v19.063c0 1.454.573 2.182 3.403 2.292V26H42v-.692zM61.293 25.308c2.864-.11 3.654-.838 3.654-2.293V1.875h-1.129c-2.484 0-4.065 2.22-6.028 7.131L57 8.97 57.226 1h19.548L77 8.969l-.79.037c-1.848-4.693-3.429-7.13-6.028-7.13h-1.13v21.14c0 1.454.791 2.182 3.655 2.292V26H61.293v-.692zM80 25.308c2.629-.11 3.216-.838 3.216-2.292V3.953c0-1.419-.585-2.182-3.216-2.292V1h17.94l.147 7.785-.732.05c-1.752-4.882-2.848-6.92-6.613-6.92h-3.505v10.768h1.389c2.374 0 3.505-.692 4.42-4.584h.695v10.079h-.695c-.913-3.892-2.046-4.584-4.42-4.584h-1.39V25.09h3.434c4.42 0 5.809-2.22 7.563-7.421l.767.037L98.818 26H80.002L80 25.308zM109 25.314c2.715-.11 3.321-.837 3.321-2.292V3.954c0-1.42-.604-2.182-3.321-2.293V1h9.812C126.957 1 131 6.13 131 13.081 131 19.741 127.53 26 119.235 26H109.01l-.009-.686zm9.396-.22c6.075 0 8.038-2.912 8.038-11.755 0-8.953-2.715-11.464-8.113-11.464h-1.85v23.221l1.925-.002zM145.211 16.551h-7.47l-1.119 3.365c-1.31 3.926-1.04 4.85 2.004 5.407v.673H131v-.673c2.274-.519 3.161-1.815 4.39-5.407L142.167 0h2.197l6.822 21.81c.772 2.48 1.31 3.109 3.815 3.517V26h-10.944v-.673c3.083-.186 3.508-.926 2.89-3.037l-1.735-5.739zm-.307-.924l-3.161-10.768h-.155l-3.545 10.768h6.861zM156 25.308c2.828-.11 3.438-.838 3.438-2.292V3.953c0-1.419-.612-2.182-3.438-2.292V1h11v.661c-2.828.11-3.403.882-3.403 2.292v19.063c0 1.454.573 2.182 3.403 2.292V26h-11v-.692zM171 25.308c2.626-.11 3.212-.838 3.212-2.292V3.953c0-1.419-.584-2.182-3.212-2.292V1h10.373v.661c-2.737.11-3.138.838-3.138 2.292V25.09h2.226c4.305 0 5.765-1.673 7.773-7.494l.766.073-.291 8.331H171v-.692zM202.083 6.022c1.479-2.985 1.33-3.858-1.516-4.41V1H208v.617c-2.07.441-2.995 1.202-4.622 4.41l-4.511 8.91v8.078c0 1.455.591 2.183 3.325 2.293V26H191.55v-.692c2.773-.11 3.325-.838 3.325-2.293v-7.716l-5.438-10.952c-.924-1.892-1.478-2.328-3.438-2.73V1h10.25v.617c-2.93.256-3.187 1.129-2.338 2.805l4.363 9.279 3.808-7.679z"/></g></svg>