<?xml version="1.0" encoding="utf-8"?>
<!-- Generator: Adobe Illustrator 15.0.2, SVG Export Plug-In  -->
<!DOCTYPE svg PUBLIC "-//W3C//DTD SVG 1.1//EN" "http://www.w3.org/Graphics/SVG/1.1/DTD/svg11.dtd" [
	<!ENTITY ns_flows "http://ns.adobe.com/Flows/1.0/">
]>
<svg version="1.1"
	 xmlns="http://www.w3.org/2000/svg" xmlns:xlink="http://www.w3.org/1999/xlink" xmlns:a="http://ns.adobe.com/AdobeSVGViewerExtensions/3.0/"
	 x="0px" y="0px" width="620px" height="620px" viewBox="-3.89 -34.742 620 620"
	 overflow="visible" enable-background="new -3.89 -34.742 620 620" xml:space="preserve">
<defs>
</defs>
<g>
	<path fill="#99CC66" d="M464.088,529.812c13.961-6.65,23.828-19.246,26.445-33.611c0.881-4.834,0.943-9.869,0.061-14.947
		c-0.279-1.611-0.645-3.189-1.096-4.727c-3.102-10.58-10.117-19.295-19.311-24.992c-4.268-2.648-8.998-4.646-14.029-5.883
		c-2.238-0.549-4.537-0.945-6.875-1.182c-2.057-0.209-4.141-0.297-6.25-0.254c-0.152-0.004-0.301-0.004-0.453-0.004
		c-8.996,0-17.74,2.422-25.254,6.463c-1.24,0.666-2.457,1.365-3.627,2.119c-3.748,2.418-7.094,5.264-9.9,8.418l3.666-20.434
		c2.129-2.602,5.105-5.053,9.189-7.113c0.17-0.082,0.326-0.174,0.502-0.256c6.666-3.566,12.094-4.041,18.848-2.803
		c7.092,1.297,15.643,4.479,28.664,7.986c2.281,0.549,4.438,0.863,6.467,0.973c2.586,0.139,4.961-0.066,7.154-0.555
		c16.398-3.625,22.318-23.299,24.439-38.074c0.541-3.773,0.834-7.213,0.99-9.996c0.236-4.166,0.17-6.846,0.17-6.846
		s-11.195,9.738-31.137,11.715c-0.297,0.027-0.584,0.061-0.881,0.088c-13.67,1.178-19.592-2.447-26.861-3.918
		c-3.625-0.729-7.582-0.93-13.016,0.283c-5.258,1.174-9.49,3.059-12.814,5.078c1.492,2.762,2.408,5.891,2.645,9.119
		c0.885,12.184-8.033,21.504-17.025,28.619l-4.996,32.359l-0.947,6.125c1.99-2.865,4.477-5.432,7.369-7.609
		c0.062-0.047,0.123-0.096,0.184-0.145c1.746-1.312,3.719-2.508,5.826-3.525c0.148-0.068,0.291-0.148,0.443-0.217
		c0-0.006,0.006-0.006,0.01-0.006c0.131-0.064,0.27-0.125,0.406-0.191c0.029-0.014,0.061-0.025,0.086-0.039
		c0.756-0.336,1.527-0.637,2.309-0.92c0.117-0.045,0.236-0.088,0.35-0.127c3.164-1.109,6.531-1.775,9.896-1.775
		c2.068,0,4.088,0.205,6.043,0.588c14.316,2.811,25.115,15.398,25.115,30.508c0,14.994-10.629,27.508-24.779,30.443
		c-0.188,0.039-0.385,0.07-0.572,0.109c-1.885,0.354-3.822,0.545-5.807,0.545c-0.891,0-1.771-0.039-2.645-0.109h-0.01
		c-1.426-0.121-2.822-0.344-4.188-0.648c-6.42-1.436-12.092-4.844-16.342-9.564c0.381,0.312,0.768,0.609,1.166,0.898
		c0.004,0,0.004,0,0.008,0.004c3.08,2.217,6.764,3.643,10.756,4.006c0.664,0.061,1.33,0.1,2.008,0.1
		c1.064,0,2.107-0.078,3.129-0.227c0.234-0.031,0.467-0.07,0.697-0.113c0.68-0.117,1.354-0.271,2.012-0.453
		c9.258-2.553,16.057-11.031,16.057-21.102c0-10.123-6.873-18.641-16.205-21.145c-1.814-0.484-3.723-0.75-5.689-0.75
		c-1.859,0-3.645,0.227-5.35,0.619c-0.18,0.039-0.357,0.074-0.533,0.117c-8.6,2.199-14.883,9.281-15.947,19.479
		c-0.537,5.113,0.23,9.473,1.771,13.316c0.1,0.258,0.197,0.52,0.305,0.768c2.227,5.127,5.83,9.316,9.547,13.117
		c6.555,6.711,26.727,17.248,43.861,14.617c0.213-0.035,0.428-0.062,0.637-0.098C455.518,533.211,459.98,531.771,464.088,529.812z"
		/>
</g>
<path fill="#99CC66" d="M378.262,440.451c0,0,6.234-0.824,7.971-1.352c13.426-4.062,30.645-18.291,29.521-33.711
	c-0.658-9.141-7.312-17.414-17.309-17.414c-5.869,0-11.514,3.176-14.721,7.998c-6.654,10.021,0.312,20.049-1.061,30.865
	C382.066,431.537,378.262,440.451,378.262,440.451z"/>
<g>
	<path fill="#99CC66" d="M452.119,58.123c-13.135,0-25.391,1.016-36.805,2.951c-0.227,1.748-0.467,3.512-0.725,5.301
		c-8.793,61.295-35.434,145.676-115.6,141.352c-2.158-0.119-4.361-0.307-6.6-0.555c-0.248,4.398-0.375,8.844-0.375,13.334v0.021
		c0,0.551,0,1.096,0.004,1.646c0.066,9.689,0.721,19.176,1.951,28.391c0.514,0.314,1.033,0.625,1.547,0.939
		c33.643,20.859,59.32,52.748,70.666,91.459c2.43,7.596,4.275,15.428,5.506,23.439c21.922,10.586,48.625,16.533,80.43,16.533
		c111.232,0,160.102-72.711,160.102-162.408C612.221,130.832,563.352,58.123,452.119,58.123z M451.045,359.041
		c-31.986,0-53.926-57.246-53.926-139.225c0-81.977,21.939-139.227,53.926-139.227c31.992,0,53.932,57.25,53.932,139.227
		C504.977,301.795,483.037,359.041,451.045,359.041z"/>
</g>
<g>
	<path fill="#99CC66" d="M219.846,432.354h23.258c18.303,0,27.453-7.436,27.453-22.314c0-13.564-9.646-20.35-28.938-20.35h-13.312
		c-0.227,14.613-3.211,28.557-8.461,41.338V432.354z"/>
</g>
<g>
	<path fill="#99CC66" d="M261.869,378.969c4.215-3.086,6.322-7.92,6.322-14.5c0-6.584-2.377-11.361-7.133-14.338
		c-4.756-2.975-11.842-4.463-21.266-4.463h-19.576c4.729,11.803,7.527,24.574,8.025,37.934h13.377
		C250.904,383.602,257.654,382.059,261.869,378.969z"/>
</g>
<g>
	<path fill="#99CC66" d="M351.287,353.549l-25.35,46.691v71.955V475c13.424-18.967,22.736-40.639,26.75-63.939
		c1.475-8.496,2.234-17.213,2.234-26.098c0-10.926-1.156-21.602-3.355-31.934L351.287,353.549z"/>
</g>
<g>
	<path fill="#99CC66" d="M347.635,338.211c-11.34-38.711-37.018-70.598-70.664-91.459c-12.168-7.553-25.391-13.652-39.346-18.121
		l84.863,165.047l26.67-49.848C348.678,341.941,348.18,340.064,347.635,338.211z"/>
</g>
<g>
	<path fill="#99CC66" d="M400.295,0c0,0-42.158,36.721-117.15,43.186c-23.037,1.986-40.051,0.238-54.305-2.748
		c-9.635-2.018-18.012-4.6-26.125-6.98c-18.961-5.566-36.516-10.029-65.471-3.572C77.572,43.186,53.928,81.604,53.928,81.604
		L19.449,304.945l-3.457,22.428c6.371-9.193,14.16-17.551,23.109-24.836c1.258-1.025,2.539-2.029,3.848-3.012
		c0.223-0.174,0.445-0.344,0.678-0.52c6.828-5.152,14.586-9.834,22.928-13.713c0.01-0.01,0.018-0.018,0.035-0.018
		c0.492-0.23,0.99-0.459,1.492-0.689c0.105-0.043,0.213-0.096,0.318-0.148c14.25-6.344,30.1-10.324,45.936-10.324
		c13.174,0,25.828,2.238,37.6,6.346c29.016,10.113,52.684,31.607,65.629,59.127h22.498c12.217,0,21.188,2.072,26.912,6.217
		c5.725,4.15,8.588,10.416,8.588,18.803c0,5.725-1.746,10.488-5.24,14.297c-3.494,3.811-8.602,6.258-15.316,7.336v0.406
		c7.889,1.172,13.691,3.664,17.412,7.473c3.719,3.811,5.578,9.119,5.578,15.922c0,9.111-3.02,16.119-9.061,21.031
		c-6.041,4.914-14.605,7.369-25.695,7.369h-26.758c-18.648,37.473-57.381,63.234-102.146,63.234c-3.258,0-6.49-0.141-9.672-0.406
		h-0.043c-29.764-2.51-56.262-16.428-75.102-37.367c1.379,1.139,2.801,2.234,4.256,3.285c0.01,0.01,0.016,0.01,0.023,0.018
		c0.512,0.367,1.031,0.711,1.545,1.068c8.033,5.494,17.113,9.57,26.887,11.852c2.547,0.594,5.137,1.064,7.768,1.41
		c3.438,0.449,6.941,0.693,10.506,0.693c44.244,0,80.111-35.867,80.111-80.111c0-33.99-21.172-63.031-51.043-74.674
		c-9.01-3.508-18.814-5.439-29.068-5.439c-42.168,0-75.141,28.588-79.879,73.957c-4.738,45.375,18.252,74.695,42.529,99.541
		c16.887,17.287,58.492,41.533,103.523,51.002c19.705,4.145,40.061,5.463,59.293,2.121c17.336-3.006,33.658-8.281,48.695-15.447
		c25.346-11.453,47.311-28.281,64.172-48.859v-2.34v-81.195l-90.5-174.855c-0.893-0.236-1.785-0.467-2.68-0.689
		c-15.385-3.783-31.52-5.611-48.035-5.25c-0.545-0.008-1.096-0.008-1.65-0.008c-44.061,0-86.537,15.764-118.619,40.566
		c-4.758,3.674-9.291,7.543-13.561,11.592c-3.406,3.234-6.65,6.58-9.715,10.027l13.414-74.752c2.246-2.754,4.76-5.455,7.543-8.094
		c7.252-6.877,16.4-13.299,27.908-18.881c32.477-17.357,56.857-14.734,95.465-3.891c20.818,5.842,45.771,14.074,78.369,22.854
		c2.08,0.502,4.131,0.947,6.152,1.344c6.104,1.195,11.943,1.93,17.514,2.227c80.164,4.328,106.811-80.055,115.602-141.348
		c2.496-17.381,3.553-32.898,3.988-44.018C400.465,6.678,400.295,0,400.295,0z"/>
</g>
<g>
	<path fill="#99CC66" d="M543.482,406.814c-7.475,0-14.072,1.018-19.846,2.885c-4.82,1.562-9.057,3.727-12.74,6.383
		c-7.291,5.268-12.396,12.498-15.49,20.963c-1.221,3.332-2.129,6.85-2.734,10.52c-0.625,3.77-0.934,7.697-0.934,11.729v0.008
		c0,0.17,0,0.342,0.004,0.512c0,0.004,0,0.012,0,0.018c0.086,13.285,3.529,25.377,10.721,34.553c0.104,0.135,0.195,0.27,0.301,0.4
		c2.521,3.143,5.488,5.936,8.922,8.295c0.109,0.084,0.223,0.158,0.336,0.232c7.955,5.361,18.375,8.477,31.461,8.477
		c35.949,0,51.744-23.5,51.744-52.486C595.227,430.312,579.432,406.814,543.482,406.814z M543.137,504.064
		c-10.34,0-17.432-18.504-17.432-44.994c0-26.494,7.092-44.994,17.432-44.994c10.338,0,17.428,18.5,17.428,44.994
		C560.564,485.561,553.475,504.064,543.137,504.064z"/>
</g>
</svg>
