<?xml version="1.0" encoding="utf-8"?>
<!-- Generator: Adobe Illustrator 15.0.2, SVG Export Plug-In  -->
<!DOCTYPE svg PUBLIC "-//W3C//DTD SVG 1.1//EN" "http://www.w3.org/Graphics/SVG/1.1/DTD/svg11.dtd" [
	<!ENTITY ns_flows "http://ns.adobe.com/Flows/1.0/">
]>
<svg version="1.1"
	 xmlns="http://www.w3.org/2000/svg" xmlns:xlink="http://www.w3.org/1999/xlink" xmlns:a="http://ns.adobe.com/AdobeSVGViewerExtensions/3.0/"
	 x="0px" y="0px" width="1042px" height="360px" viewBox="-0.044 9.813 1042 360"
	 overflow="visible" enable-background="new -0.044 9.813 1042 360" xml:space="preserve">
<defs>
</defs>
<circle fill="#0067B1" cx="180.459" cy="189.729" r="171.23"/>
<path fill="#B0CBEA" d="M307.193,62.995c-16.457-16.458-35.624-29.379-56.968-38.407C228.124,15.239,204.652,10.5,180.459,10.5
	s-47.665,4.74-69.767,14.088c-21.344,9.028-40.51,21.95-56.968,38.407s-29.379,35.624-38.407,56.968
	C5.97,142.064,1.23,165.537,1.23,189.729c0,24.193,4.74,47.666,14.088,69.768c9.028,21.344,21.95,40.51,38.407,56.967
	s35.624,29.381,56.968,38.408c22.101,9.348,45.574,14.088,69.767,14.088s47.665-4.74,69.766-14.088
	c21.344-9.027,40.511-21.949,56.968-38.406c16.458-16.459,29.38-35.625,38.407-56.969c9.348-22.102,14.088-45.574,14.088-69.768
	c0-24.192-4.74-47.665-14.088-69.767C336.573,98.619,323.651,79.452,307.193,62.995z M180.459,360.959
	C85.892,360.958,9.23,284.297,9.23,189.729C9.23,95.162,85.892,18.5,180.459,18.5c94.567,0,171.229,76.662,171.229,171.229
	C351.688,284.297,275.026,360.959,180.459,360.959z"/>
<path fill="#D1D3D4" d="M207.946,268.127h-52.981c-0.093,0-0.181-0.009-0.269-0.02l-0.109-0.011l0.034-0.999h53.669l0.034,0.999
	l-0.108,0.011C208.128,268.119,208.04,268.127,207.946,268.127z"/>
<path fill="#FFFFFF" d="M264.658,146.74v-37.311c0-22.759-18.282-41.042-41.042-41.042h-85.441
	c-22.76,0-41.042,18.282-41.042,41.042v166.406c0,22.76,18.282,41.043,41.042,41.043h85.441c22.76,0,41.042-18.283,41.042-41.043
	v-42.906l-52.981-8.955v36.68h23.055c1.918,0,3.472,1.555,3.472,3.473s-1.554,3.473-3.472,3.473H208.29
	c-0.115,0.008-0.224,0.029-0.344,0.029h-52.981c-0.12,0-0.228-0.021-0.344-0.029h-26.974c-1.919,0-3.474-1.555-3.474-3.473
	s1.555-3.473,3.474-3.473h23.586V134.271l-23.001,3.902l-0.002-0.01c-0.19,0.032-0.383,0.059-0.583,0.059
	c-1.918,0-3.473-1.555-3.473-3.473c0-1.718,1.25-3.136,2.89-3.415l-0.001-0.009l80.555-13.667l0.002,0.009
	c0.191-0.032,0.383-0.059,0.584-0.059c1.918,0,3.471,1.555,3.471,3.473c0,0.042-0.01,0.081-0.011,0.122
	c0.002,0.056,0.014,0.106,0.014,0.163v34.326L264.658,146.74z"/>
<path fill="#0067B1" d="M425.924,102v70.968h-14.413V68.63h14.413l29.608,67.365l29.609-67.365h14.413v104.337h-14.413V102
	l-22.873,51.385h-13.473L425.924,102z"/>
<path fill="#0067B1" d="M565.346,117.979c0-3.604-2.977-6.58-6.736-6.58H543.57c-3.76,0-6.736,2.82-6.736,6.58v2.663l-13.786-1.41
	v-4.073c0-9.243,7.05-16.45,16.449-16.45h23.656c9.242,0,16.605,7.363,16.605,16.606v57.651h-14.1v-3.76
	c-9.556,4.073-20.366,5.326-27.103,5.326c-10.496,0-16.763-6.893-16.763-16.606v-11.123c0-9.713,6.267-16.606,16.763-16.606
	c6.736,0,16.763,0.313,26.789,3.603V117.979z M565.346,149.625c0-3.603-2.977-5.483-6.579-6.266
	c-4.7-1.097-11.75-1.253-16.293-1.253c-4.23,0-6.736,2.037-6.736,6.58v6.893c0,4.543,2.506,6.58,6.736,6.58
	c4.543,0,10.81-0.47,16.293-2.664c3.603-1.41,6.579-3.29,6.579-6.736V149.625z"/>
<path fill="#0067B1" d="M638.817,111.243c-4.387,1.88-9.243,4.386-13.787,7.206c-6.109,3.917-8.93,7.207-8.93,12.533v41.985h-14.412
	V98.709h14.412v9.87c6.894-4.543,13.943-8.303,21.776-11.436L638.817,111.243z"/>
<path fill="#0067B1" d="M682.209,135.682l28.825,37.286h-16.919l-27.26-35.562v35.562h-14.412V68.63l14.412-2.506v67.678
	l27.103-35.092h16.606L682.209,135.682z"/>
<path fill="#0067B1" d="M743.774,160.278h16.293c3.76,0,6.58-2.82,6.58-6.58v-3.76l13.942,2.506v4.073
	c0,9.243-7.206,16.45-16.449,16.45h-24.909c-9.243,0-16.45-7.363-16.45-16.606v-41.045c0-9.243,7.207-16.606,16.45-16.606h24.909
	c9.243,0,16.606,7.363,16.606,16.606v24.909h-43.553v13.473C737.194,157.458,740.015,160.278,743.774,160.278z M737.194,127.692
	h29.609v-9.87c0-3.76-2.977-6.58-6.736-6.58h-16.293c-3.76,0-6.58,2.82-6.58,6.58V127.692z"/>
<path fill="#0067B1" d="M836.828,172.967h-15.51c-9.243,0-16.449-7.363-16.449-16.606v-45.119h-11.594V98.709h11.594V80.85
	l14.412-2.35v20.209h19.74l-2.507,12.533h-17.233v42.455c0,3.76,2.977,6.736,6.737,6.736h10.81V172.967z"/>
<path fill="#0067B1" d="M855.468,67.847h14.413v18.486h-14.413V67.847z M855.468,98.709h14.413v74.258h-14.413V98.709z"/>
<path fill="#0067B1" d="M894.162,172.967V98.709h14.1v5.327c9.556-4.073,21.149-6.893,27.886-6.893
	c10.496,0,16.763,6.893,16.763,16.606v59.218h-14.413v-55.145c0-4.23-2.507-6.58-6.736-6.58c-4.543,0-11.123,2.037-16.606,4.229
	c-3.604,1.41-6.58,3.29-6.58,6.737v50.758H894.162z"/>
<path fill="#0067B1" d="M1032.803,98.709v87.417c0,9.243-7.207,16.606-16.45,16.606h-35.405v-12.376h30.862
	c3.76,0,6.58-2.82,6.58-6.58v-19.113c-9.557,4.073-20.993,6.737-27.572,6.737c-10.497,0-16.764-6.894-16.764-16.606v-41.045
	c0-9.713,6.267-16.606,16.764-16.606c6.736,0,18.172,2.82,27.572,6.736v-5.17H1032.803z M1018.39,121.739
	c-0.313-3.29-2.977-5.17-6.58-6.58c-5.483-2.193-12.062-4.23-16.606-4.23c-4.229,0-6.736,2.35-6.736,6.58v33.526
	c0,4.23,2.507,6.58,6.736,6.58c4.544,0,11.123-2.037,16.606-4.229c3.604-1.41,6.267-3.29,6.58-6.737V121.739z"/>
<path fill="#0067B1" d="M443.626,263.389h34.779v36.346c0,9.556-7.677,17.232-17.233,17.232h-33.368
	c-9.557,0-17.076-7.677-17.076-17.232v-69.872c0-9.556,7.52-17.232,17.076-17.232h33.368c9.557,0,17.233,7.677,17.233,17.232v11.437
	l-14.883,2.351v-10.653c0-3.76-2.82-6.58-6.58-6.58h-24.596c-3.76,0-6.736,2.82-6.736,6.58v63.604c0,3.76,2.977,6.58,6.736,6.58
	h24.596c3.76,0,6.58-2.82,6.58-6.58v-19.583h-19.896V263.389z"/>
<path fill="#0067B1" d="M537.463,255.243c-4.387,1.88-9.243,4.387-13.786,7.206c-6.11,3.917-8.931,7.207-8.931,12.533v41.985
	h-14.412v-74.258h14.412v9.87c6.894-4.544,13.943-8.304,21.776-11.437L537.463,255.243z"/>
<path fill="#0067B1" d="M548.739,300.361v-41.045c0-9.243,7.207-16.606,16.45-16.606h27.259c9.243,0,16.763,7.363,16.763,16.606
	v41.045c0,9.243-7.52,16.606-16.763,16.606h-27.259C555.946,316.967,548.739,309.604,548.739,300.361z M594.798,262.449
	c0-3.76-2.977-6.58-6.736-6.58h-18.329c-3.76,0-6.58,2.82-6.58,6.58v34.779c0,3.76,2.82,6.58,6.58,6.58h18.329
	c3.76,0,6.736-2.82,6.736-6.58V262.449z"/>
<path fill="#0067B1" d="M689.105,242.709v74.258h-14.1v-5.326c-9.557,4.073-21.149,6.893-27.886,6.893
	c-10.497,0-16.763-6.893-16.763-16.605v-59.219h14.412v55.146c0,4.229,2.507,6.579,6.736,6.579c4.544,0,11.123-2.036,16.606-4.229
	c3.604-1.41,6.58-3.29,6.58-6.736v-50.759H689.105z"/>
<path fill="#0067B1" d="M712.6,349.24v-106.53h14.1v5.326c9.556-4.073,21.149-6.893,27.886-6.893
	c10.496,0,16.763,6.893,16.763,16.606v44.179c0,9.713-6.267,16.605-16.763,16.605c-6.736,0-18.173-2.819-27.573-6.736v34.936
	L712.6,349.24z M727.012,293.938c0,3.29,2.977,5.17,6.58,6.58c5.483,2.193,12.063,4.229,16.606,4.229c4.229,0,6.736-2.35,6.736-6.58
	v-36.658c0-4.23-2.507-6.58-6.736-6.58c-4.543,0-11.123,2.036-16.606,4.229c-3.604,1.41-6.58,3.29-6.58,6.736V293.938z"/>
<path fill="#ADAFB2" d="M180.459,18.5c94.567,0,171.229,76.662,171.229,171.229c0,94.568-76.662,171.23-171.229,171.23
	C85.892,360.958,9.23,284.297,9.23,189.729C9.23,95.162,85.892,18.5,180.459,18.5 M180.459,10.5
	c-24.192,0-47.665,4.74-69.767,14.088c-21.344,9.028-40.51,21.95-56.968,38.407s-29.379,35.624-38.407,56.968
	C5.97,142.064,1.23,165.537,1.23,189.729c0,24.193,4.74,47.666,14.088,69.768c9.028,21.344,21.95,40.51,38.407,56.967
	s35.624,29.381,56.968,38.408c22.101,9.348,45.574,14.088,69.767,14.088s47.665-4.74,69.766-14.088
	c21.344-9.027,40.511-21.949,56.968-38.406c16.458-16.459,29.38-35.625,38.407-56.969c9.348-22.102,14.088-45.574,14.088-69.768
	c0-24.192-4.74-47.665-14.088-69.767c-9.027-21.344-21.949-40.51-38.407-56.968c-16.457-16.458-35.624-29.379-56.968-38.407
	C228.124,15.239,204.652,10.5,180.459,10.5L180.459,10.5z"/>
<path fill="#D1D3D4" d="M208.23,125.14c-2.191,0-3.973-1.782-3.973-3.973c0-2.191,1.782-3.973,3.973-3.973
	c2.19,0,3.972,1.782,3.972,3.973C212.202,123.357,210.42,125.14,208.23,125.14z M208.23,118.194c-1.639,0-2.973,1.334-2.973,2.973
	s1.334,2.973,2.973,2.973c1.639,0,2.972-1.333,2.972-2.973S209.869,118.194,208.23,118.194z"/>
<path fill="#D1D3D4" d="M127.592,138.723c-2.191,0-3.973-1.782-3.973-3.973c0-2.191,1.782-3.973,3.973-3.973
	c2.19,0,3.972,1.782,3.972,3.973C131.563,136.94,129.782,138.723,127.592,138.723z M127.592,131.777
	c-1.639,0-2.973,1.334-2.973,2.973s1.334,2.973,2.973,2.973c1.639,0,2.972-1.333,2.972-2.973S129.23,131.777,127.592,131.777z"/>
<path fill="#D1D3D4" d="M234.731,268.098c-2.191,0-3.974-1.782-3.974-3.973s1.783-3.973,3.974-3.973c2.19,0,3.972,1.782,3.972,3.973
	S236.921,268.098,234.731,268.098z M234.731,261.153c-1.64,0-2.974,1.334-2.974,2.973s1.334,2.973,2.974,2.973
	c1.639,0,2.972-1.334,2.972-2.973S236.37,261.153,234.731,261.153z"/>
<path fill="#D1D3D4" d="M127.647,268.098c-2.191,0-3.974-1.782-3.974-3.973s1.783-3.973,3.974-3.973c2.19,0,3.972,1.782,3.972,3.973
	S129.837,268.098,127.647,268.098z M127.647,261.153c-1.64,0-2.974,1.334-2.974,2.973s1.334,2.973,2.974,2.973
	c1.639,0,2.972-1.334,2.972-2.973S129.286,261.153,127.647,261.153z"/>
<path fill="#D1D3D4" d="M97.063,369.25c-0.276,0-0.5-0.224-0.5-0.5v-358c0-0.276,0.224-0.5,0.5-0.5s0.5,0.224,0.5,0.5v358
	C97.563,369.027,97.34,369.25,97.063,369.25z"/>
<path fill="#D1D3D4" d="M151.23,369.25c-0.276,0-0.5-0.224-0.5-0.5v-358c0-0.276,0.224-0.5,0.5-0.5s0.5,0.224,0.5,0.5v358
	C151.73,369.027,151.507,369.25,151.23,369.25z"/>
<path fill="#D1D3D4" d="M211.658,369.25c-0.276,0-0.5-0.224-0.5-0.5v-358c0-0.276,0.224-0.5,0.5-0.5s0.5,0.224,0.5,0.5v358
	C212.158,369.027,211.935,369.25,211.658,369.25z"/>
<path fill="#D1D3D4" d="M264.647,369.25c-0.276,0-0.5-0.224-0.5-0.5v-358c0-0.276,0.224-0.5,0.5-0.5s0.5,0.224,0.5,0.5v358
	C265.147,369.027,264.924,369.25,264.647,369.25z"/>
<path fill="#D1D3D4" d="M350.658,369.25c-0.276,0-0.5-0.224-0.5-0.5v-358c0-0.276,0.224-0.5,0.5-0.5s0.5,0.224,0.5,0.5v358
	C351.158,369.027,350.935,369.25,350.658,369.25z"/>
<path fill="#D1D3D4" d="M403.647,369.25c-0.276,0-0.5-0.224-0.5-0.5v-358c0-0.276,0.224-0.5,0.5-0.5s0.5,0.224,0.5,0.5v358
	C404.147,369.027,403.924,369.25,403.647,369.25z"/>
<path fill="#D1D3D4" d="M411.313,369.25c-0.276,0-0.5-0.224-0.5-0.5v-358c0-0.276,0.224-0.5,0.5-0.5s0.5,0.224,0.5,0.5v358
	C411.813,369.027,411.59,369.25,411.313,369.25z"/>
<path fill="#D1D3D4" d="M402.896,261.208H1.236c-0.276,0-0.5-0.224-0.5-0.5s0.224-0.5,0.5-0.5h401.66c0.276,0,0.5,0.224,0.5,0.5
	S403.172,261.208,402.896,261.208z"/>
<path fill="#D1D3D4" d="M402.896,268.249H1.236c-0.276,0-0.5-0.224-0.5-0.5s0.224-0.5,0.5-0.5h401.66c0.276,0,0.5,0.224,0.5,0.5
	S403.172,268.249,402.896,268.249z"/>
<path fill="#D1D3D4" d="M1040.938,361.583H1.236c-0.276,0-0.5-0.224-0.5-0.5s0.224-0.5,0.5-0.5h1039.703c0.276,0,0.5,0.224,0.5,0.5
	S1041.215,361.583,1040.938,361.583z"/>
<path fill="#D1D3D4" d="M1041.21,369.624H0.501c-0.276,0-0.5-0.224-0.5-0.5s0.224-0.5,0.5-0.5H1041.21c0.276,0,0.5,0.224,0.5,0.5
	S1041.486,369.624,1041.21,369.624z"/>
<path fill="#D1D3D4" d="M1041.706,68.937H2.003c-0.287,0-0.52-0.233-0.52-0.52s0.233-0.52,0.52-0.52h1039.703
	c0.287,0,0.52,0.233,0.52,0.52S1041.993,68.937,1041.706,68.937z"/>
<path fill="#D1D3D4" d="M1040.938,317.448H1.236c-0.293,0-0.531-0.238-0.531-0.531s0.238-0.531,0.531-0.531h1039.703
	c0.293,0,0.53,0.238,0.53,0.531S1041.231,317.448,1040.938,317.448z"/>
<path fill="#D1D3D4" d="M9.21,369.25c-0.276,0-0.5-0.224-0.5-0.5l-0.001-358c0-0.276,0.224-0.5,0.5-0.5s0.5,0.224,0.5,0.5l0.001,358
	C9.71,369.027,9.486,369.25,9.21,369.25z"/>
<path fill="#D1D3D4" d="M0.501,369.624c-0.276,0-0.5-0.224-0.5-0.5L0,10.333c0-0.276,0.224-0.5,0.5-0.5s0.5,0.224,0.5,0.5
	l0.001,358.791C1.001,369.4,0.777,369.624,0.501,369.624z"/>
<path fill="#D1D3D4" d="M1041.21,369.624c-0.276,0-0.5-0.224-0.5-0.5l-0.001-358.791c0-0.276,0.224-0.5,0.5-0.5s0.5,0.224,0.5,0.5
	l0.001,358.791C1041.71,369.4,1041.486,369.624,1041.21,369.624z"/>
<path fill="#D1D3D4" d="M1032.501,369.25c-0.276,0-0.5-0.224-0.5-0.5l-0.001-358c0-0.276,0.224-0.5,0.5-0.5s0.5,0.224,0.5,0.5
	l0.001,358C1033.001,369.027,1032.777,369.25,1032.501,369.25z"/>
<path fill="#D1D3D4" d="M359.919,369.25c-0.276,0-0.5-0.224-0.5-0.5l-0.002-358c0-0.276,0.224-0.5,0.5-0.5s0.5,0.224,0.5,0.5
	l0.002,358C360.419,369.027,360.195,369.25,359.919,369.25z"/>
<path fill="#D1D3D4" d="M103.063,224.75c-0.276,0-0.5-0.224-0.5-0.5v-0.334c0-0.276,0.224-0.5,0.5-0.5s0.5,0.224,0.5,0.5v0.334
	C103.563,224.527,103.34,224.75,103.063,224.75z"/>
<path fill="#D1D3D4" d="M1.06,191.75c-0.24,0-0.451-0.173-0.493-0.417c-0.046-0.272,0.138-0.53,0.41-0.576l403.83-68.054
	c0.268-0.04,0.53,0.137,0.576,0.41c0.046,0.272-0.138,0.53-0.41,0.576L1.143,191.744C1.115,191.749,1.087,191.75,1.06,191.75z"/>
<path fill="#D1D3D4" d="M1.06,160c-0.24,0-0.452-0.173-0.493-0.417c-0.046-0.272,0.138-0.53,0.41-0.576l403.333-67.916
	c0.27-0.039,0.53,0.137,0.576,0.41c0.046,0.272-0.138,0.53-0.41,0.576L1.143,159.993C1.115,159.998,1.087,160,1.06,160z"/>
<path fill="#D1D3D4" d="M1.06,153.125c-0.24,0-0.451-0.172-0.493-0.417c-0.046-0.272,0.137-0.53,0.41-0.577l403.668-68.374
	c0.259-0.04,0.529,0.137,0.576,0.41c0.046,0.272-0.138,0.53-0.409,0.577L1.144,153.118C1.115,153.123,1.087,153.125,1.06,153.125z"
	/>
<path fill="#D1D3D4" d="M1041.209,10.833H0.5c-0.276,0-0.5-0.224-0.5-0.5s0.224-0.5,0.5-0.5h1040.709c0.276,0,0.5,0.224,0.5,0.5
	S1041.485,10.833,1041.209,10.833z"/>
<path fill="#D1D3D4" d="M1040.938,18.874H1.236c-0.276,0-0.5-0.224-0.5-0.5s0.224-0.5,0.5-0.5h1039.703c0.276,0,0.5,0.224,0.5,0.5
	S1041.215,18.874,1040.938,18.874z"/>
<circle display="none" fill="#FFFFFF" cx="214.957" cy="179.23" r="171.23"/>
<path display="none" d="M341.69,52.495c-16.457-16.458-35.624-29.379-56.968-38.407C262.621,4.74,239.149,0,214.957,0
	s-47.665,4.74-69.767,14.088c-21.344,9.028-40.51,21.95-56.968,38.407s-29.379,35.624-38.407,56.968
	c-9.348,22.102-14.088,45.574-14.088,69.767c0,24.193,4.74,47.666,14.088,69.767c9.028,21.344,21.95,40.51,38.407,56.968
	c16.458,16.457,35.624,29.38,56.968,38.407c22.101,9.349,45.574,14.088,69.767,14.089c24.192,0,47.665-4.74,69.766-14.088
	c21.344-9.027,40.511-21.95,56.968-38.407c16.458-16.458,29.38-35.625,38.407-56.969c9.348-22.102,14.088-45.574,14.088-69.767
	c0-24.192-4.74-47.665-14.088-69.767C371.07,88.119,358.148,68.953,341.69,52.495z M214.957,350.46
	c-94.567-0.002-171.229-76.662-171.229-171.231C43.727,84.662,120.389,8,214.957,8c94.567,0,171.229,76.662,171.229,171.229
	C386.186,273.798,309.523,350.46,214.957,350.46z"/>
<path display="none" fill="#FFFFFF" d="M269.229,250.153H162.145c-1.919,0-3.474,1.555-3.474,3.473s1.555,3.473,3.474,3.473h107.084
	c1.918,0,3.472-1.555,3.472-3.473S271.146,250.153,269.229,250.153z"/>
<path display="none" fill="#FFFFFF" d="M246.171,110.584c0-1.918-1.553-3.473-3.471-3.473c-0.201,0-0.393,0.026-0.584,0.059
	l-0.002-0.009l-80.555,13.667l0.001,0.009c-1.639,0.279-2.89,1.696-2.89,3.415c0,1.918,1.555,3.473,3.473,3.473
	c0.2,0,0.393-0.026,0.583-0.059l0.002,0.01l80.555-13.667l-0.002-0.01C244.921,113.719,246.171,112.302,246.171,110.584z"/>
</svg>
