<?xml version="1.0" encoding="utf-8"?>
<!-- Generator: Adobe Illustrator 15.0.2, SVG Export Plug-In  -->
<!DOCTYPE svg PUBLIC "-//W3C//DTD SVG 1.1//EN" "http://www.w3.org/Graphics/SVG/1.1/DTD/svg11.dtd" [
	<!ENTITY ns_flows "http://ns.adobe.com/Flows/1.0/">
]>
<svg version="1.1"
	 xmlns="http://www.w3.org/2000/svg" xmlns:xlink="http://www.w3.org/1999/xlink" xmlns:a="http://ns.adobe.com/AdobeSVGViewerExtensions/3.0/"
	 x="0px" y="0px" width="736px" height="350px" viewBox="0 0 736 350" overflow="visible" enable-background="new 0 0 736 350"
	 xml:space="preserve">
<defs>
</defs>
<rect fill="#0067B1" width="736" height="350"/>
<path display="none" fill="#0067B1" d="M369.48,33.743c-78.393,0-141.943,63.554-141.943,141.94
	c0,78.396,63.551,141.947,141.943,141.947c78.39,0,141.944-63.552,141.944-141.944C511.425,97.296,447.87,33.743,369.48,33.743z"/>
<path display="none" fill="#B0CBEA" d="M474.537,70.626c-13.644-13.639-29.529-24.349-47.225-31.834
	c-18.319-7.75-37.778-11.68-57.832-11.68c-20.056,0-39.513,3.93-57.835,11.68c-17.694,7.485-33.579,18.195-47.227,31.834
	c-13.644,13.646-24.353,29.535-31.832,47.224c-7.755,18.326-11.682,37.785-11.682,57.833c0,20.06,3.927,39.521,11.682,57.841
	c7.479,17.69,18.188,33.576,31.832,47.223c13.647,13.641,29.532,24.358,47.227,31.834c18.322,7.757,37.779,11.688,57.835,11.688
	c20.054,0,39.513-3.931,57.832-11.688c17.695-7.476,33.581-18.191,47.225-31.834c13.641-13.644,24.356-29.532,31.838-47.223
	c7.749-18.32,11.679-37.781,11.679-57.838c0-20.051-3.93-39.51-11.679-57.836C498.894,100.162,488.178,84.272,474.537,70.626z
	 M369.48,317.63c-78.393,0-141.943-63.552-141.943-141.947c0-78.387,63.551-141.94,141.943-141.94
	c78.39,0,141.944,63.554,141.944,141.943C511.425,254.079,447.87,317.63,369.48,317.63z"/>
<path display="none" fill="none" d="M392.526,240.243c0.008-0.003,0.016-0.003,0.021-0.003h-0.021"/>
<path display="none" fill="none" d="M348.084,240.24h-0.021c0.009,0,0.014,0,0.021,0.003"/>
<path display="none" fill="#FFFFFF" d="M439.273,140.051v-30.928c0-18.866-15.155-34.027-34.018-34.027h-70.829
	c-18.865,0-34.022,15.161-34.022,34.027v137.939c0,18.871,15.157,34.029,34.022,34.029h70.829c18.862,0,34.018-15.158,34.018-34.029
	V211.5l-43.913-7.425v30.405h19.112c1.586,0,2.876,1.289,2.876,2.883c0,1.59-1.29,2.876-2.876,2.876h-21.925
	c-0.094,0.005-0.185,0.029-0.281,0.029h-43.924c-0.099,0-0.185-0.024-0.28-0.029H325.7c-1.591,0-2.882-1.286-2.882-2.876
	c0-1.594,1.291-2.883,2.882-2.883h19.556V129.712l-19.071,3.238v-0.011c-0.154,0.026-0.317,0.053-0.484,0.053
	c-1.591,0-2.882-1.291-2.882-2.879c0-1.428,1.035-2.601,2.396-2.838v-0.005l66.777-11.327v0.008c0.16-0.027,0.321-0.049,0.49-0.049
	c1.586,0,2.872,1.288,2.872,2.879c0,0.035-0.006,0.071-0.006,0.102c0,0.044,0.012,0.093,0.012,0.138v28.449L439.273,140.051z"/>
<path display="none" fill="#FFFFFF" d="M426.497,174.597v22.473h-8.988v-42.755h8.988l10.722,25.612l10.725-25.612h8.987v42.755
	h-8.987v-22.473l-6.811,15.858h-7.831L426.497,174.597z"/>
<path display="none" fill="#FFFFFF" d="M479.213,173.765h15.601v16.24c0,3.916-3.15,7.064-7.066,7.064h-15.084
	c-3.92,0-7.062-3.148-7.062-7.064v-28.638c0-3.911,3.142-7.053,7.062-7.053h15.023c3.913,0,7.063,3.142,7.063,7.053v5.201
	l-9.117,1.541v-4.683c0-0.38-0.257-0.645-0.642-0.645h-9.436c-0.389,0-0.645,0.265-0.645,0.645v24.523
	c0,0.385,0.256,0.64,0.645,0.64h9.496c0.389,0,0.643-0.255,0.643-0.64v-6.097h-6.481V173.765z"/>
<path display="none" fill="#ADAFB2" d="M369.48,33.743c78.39,0,141.944,63.554,141.944,141.943
	c0,78.393-63.555,141.944-141.944,141.944c-78.393,0-141.943-63.552-141.943-141.947C227.537,97.296,291.088,33.743,369.48,33.743
	 M369.48,27.113c-20.056,0-39.513,3.93-57.835,11.68c-17.694,7.485-33.579,18.195-47.227,31.834
	c-13.644,13.646-24.353,29.535-31.832,47.224c-7.755,18.326-11.682,37.785-11.682,57.833c0,20.06,3.927,39.521,11.682,57.841
	c7.479,17.69,18.188,33.576,31.832,47.223c13.647,13.641,29.532,24.358,47.227,31.834c18.322,7.757,37.779,11.688,57.835,11.688
	c20.054,0,39.513-3.931,57.832-11.688c17.695-7.476,33.581-18.191,47.225-31.834c13.641-13.644,24.356-29.532,31.838-47.223
	c7.749-18.32,11.679-37.781,11.679-57.838c0-20.051-3.93-39.51-11.679-57.836c-7.481-17.688-18.197-33.578-31.838-47.224
	c-13.644-13.639-29.529-24.349-47.225-31.834C408.993,31.042,389.534,27.113,369.48,27.113L369.48,27.113z"/>
<path fill="#0067B1" d="M156.477,283.968v25.981h-7.572v-43.477h7.572l11.619,26.633l11.621-26.633h7.572v43.477h-7.572v-25.981
	l-8.292,18.537h-6.655L156.477,283.968z"/>
<path fill="#0067B1" d="M196.107,298.525c0-3.786,2.48-6.855,6.922-6.855c3.197,0,8.029,0.589,10.64,1.374v-5.747
	c0-0.978-0.785-1.695-1.762-1.695h-5.81c-0.979,0-1.763,0.718-1.763,1.695v1.044l-7.246-0.783v-1.827
	c0-3.786,2.937-6.724,6.789-6.724h10.51c3.786,0,6.787,3.067,6.787,6.854v24.09h-7.505v-1.504c-3.199,1.111-7.442,2.155-10.64,2.155
	c-4.441,0-6.922-3.067-6.922-6.854V298.525z M203.42,302.442c0,0.979,0.654,1.698,1.763,1.698c1.566,0,4.895-0.785,6.724-1.372
	c1.175-0.391,1.762-0.783,1.762-1.566v-1.305c0-0.785-0.522-1.176-1.762-1.437c-1.698-0.326-5.158-0.587-6.724-0.587
	c-1.109,0-1.763,0.718-1.763,1.695V302.442z"/>
<path fill="#0067B1" d="M246.901,285.73c-2.61,1.047-5.419,2.352-7.639,3.525c-1.238,0.653-1.763,1.501-1.763,2.612v18.082h-7.505
	v-30.943h7.505v3.396c2.874-1.372,5.68-2.809,8.942-4.047L246.901,285.73z"/>
<path fill="#0067B1" d="M267.727,294.414l10.249,15.536h-8.484l-9.533-14.688v14.688h-7.505v-43.477l7.505-1.306v28.331l9.14-14.492
	h8.159L267.727,294.414z"/>
<path fill="#0067B1" d="M291.493,303.355h6.528c0.979,0,1.762-0.719,1.762-1.695v-1.438l7.246,1.306v1.695
	c0,3.786-2.936,6.727-6.789,6.727h-11.229c-3.786,0-6.789-3.069-6.789-6.854V285.86c0-3.786,3.003-6.854,6.789-6.854h11.295
	c3.786,0,6.787,3.067,6.787,6.854v10.706H289.73v5.094C289.73,302.636,290.515,303.355,291.493,303.355z M289.73,290.364h10.12
	v-3.132c0-0.979-0.785-1.698-1.763-1.698h-6.594c-0.978,0-1.763,0.719-1.763,1.698V290.364z"/>
<path fill="#0067B1" d="M331.317,309.95h-8.161c-3.786,0-6.787-3.069-6.787-6.854v-17.562h-4.701v-6.527h4.701v-7.18l7.505-1.307
	v8.486h8.422l-1.305,6.527h-7.117v16.19c0,0.979,0.785,1.697,1.762,1.697h5.68V309.95z"/>
<path fill="#0067B1" d="M338.502,266.015h7.507v8.357h-7.507V266.015z M338.502,279.006h7.507v30.943h-7.507V279.006z"/>
<path fill="#0067B1" d="M362.657,309.95h-7.507v-30.943h7.179v2.35c2.874-1.174,8.161-3.001,11.36-3.001
	c4.438,0,6.919,3.067,6.919,6.854v24.741h-7.506v-22.521c0-0.979-0.655-1.698-1.762-1.698c-1.634,0-5.419,1.435-6.923,1.959
	c-1.238,0.457-1.76,1.502-1.76,2.61V309.95z"/>
<path fill="#0067B1" d="M388.771,285.208c0-3.786,2.481-6.854,6.923-6.854c3.197,0,8.029,1.631,11.03,2.741v-2.09h7.507v36.491
	c0,3.786-3.003,6.854-6.789,6.854h-15.666v-6.396h13.186c0.979,0,1.763-0.719,1.763-1.698v-7.899
	c-3.001,1.111-7.833,2.742-11.03,2.742c-4.441,0-6.923-3.068-6.923-6.854V285.208z M396.281,300.288
	c0,0.979,0.651,1.697,1.762,1.697c1.631,0,5.417-1.37,6.919-1.961c1.24-0.455,1.763-1.173,1.763-2.15v-8.293
	c0-0.979-0.522-1.697-1.763-2.152c-1.502-0.589-5.288-1.959-6.919-1.959c-1.11,0-1.762,0.719-1.762,1.695V300.288z"/>
<path fill="#0067B1" d="M450.666,286.839h15.403v15.929c0,3.982-3.197,7.182-7.18,7.182h-14.688c-3.98,0-7.112-3.199-7.112-7.182
	v-29.114c0-3.982,3.132-7.181,7.112-7.181h14.688c3.982,0,7.18,3.198,7.18,7.181v4.83l-7.831,1.308v-4.441
	c0-0.978-0.785-1.696-1.765-1.696h-9.792c-0.978,0-1.762,0.719-1.762,1.696v25.723c0,0.978,0.784,1.695,1.762,1.695h9.792
	c0.979,0,1.765-0.718,1.765-1.695v-7.313h-7.572V286.839z"/>
<path fill="#0067B1" d="M491.468,285.73c-2.608,1.047-5.417,2.352-7.635,3.525c-1.24,0.653-1.763,1.501-1.763,2.612v18.082h-7.509
	v-30.943h7.509v3.396c2.872-1.372,5.679-2.809,8.94-4.047L491.468,285.73z"/>
<path fill="#0067B1" d="M495.719,303.096V285.86c0-3.786,2.999-6.854,6.787-6.854h12.402c3.853,0,6.92,3.067,6.92,6.854v17.236
	c0,3.784-3.067,6.854-6.92,6.854h-12.402C498.718,309.95,495.719,306.88,495.719,303.096z M514.321,287.557
	c0-0.979-0.783-1.697-1.763-1.697h-7.574c-0.979,0-1.762,0.719-1.762,1.697v13.841c0,0.979,0.783,1.698,1.762,1.698h7.574
	c0.979,0,1.763-0.719,1.763-1.698V287.557z"/>
<path fill="#0067B1" d="M547.945,279.006h7.505v30.943h-7.179v-2.352c-2.874,1.174-8.161,3.003-11.36,3.003
	c-4.438,0-6.918-3.067-6.918-6.854v-24.741h7.507v22.521c0,0.978,0.651,1.695,1.763,1.695c1.631,0,5.417-1.435,6.92-1.956
	c1.241-0.458,1.763-1.502,1.763-2.612V279.006z"/>
<path fill="#0067B1" d="M590.053,303.748c0,3.786-2.479,6.854-6.919,6.854c-3.197,0-8.029-1.631-11.03-2.742v14.493l-7.507,1.307
	v-44.652h7.507v2.09c3.001-1.11,7.833-2.741,11.03-2.741c4.439,0,6.919,3.067,6.919,6.854V303.748z M582.549,287.165
	c0-0.977-0.655-1.695-1.763-1.695c-1.633,0-5.419,1.37-6.92,1.959c-1.24,0.455-1.763,1.174-1.763,2.152v9.792
	c0,0.981,0.522,1.7,1.763,2.155c1.501,0.587,5.287,1.959,6.92,1.959c1.107,0,1.763-0.719,1.763-1.698V287.165z"/>
<path fill="#0067B1" d="M368.994,32.469c-56.14,0-101.641,45.506-101.641,101.638c0,56.134,45.5,101.639,101.641,101.641
	c56.128,0,101.639-45.507,101.639-101.641C470.633,77.975,425.122,32.469,368.994,32.469z"/>
<path fill="#B0CBEA" d="M444.215,58.882c-9.769-9.77-21.144-17.438-33.811-22.8c-13.12-5.549-27.054-8.359-41.41-8.359
	c-14.363,0-28.296,2.811-41.414,8.359c-12.671,5.362-24.045,13.03-33.815,22.8c-9.772,9.769-17.44,21.146-22.796,33.813
	c-5.548,13.12-8.363,27.055-8.363,41.412c0,14.363,2.814,28.296,8.363,41.416c5.356,12.667,13.024,24.043,22.796,33.812
	c9.77,9.769,21.144,17.438,33.815,22.801c13.118,5.546,27.051,8.358,41.414,8.358c14.356,0,28.29-2.812,41.41-8.358
	c12.667-5.362,24.042-13.032,33.811-22.801c9.769-9.77,17.442-21.146,22.803-33.812c5.548-13.12,8.362-27.053,8.362-41.416
	c0-14.357-2.814-28.292-8.362-41.412C461.657,80.028,453.983,68.65,444.215,58.882z M368.994,235.748
	c-56.14-0.002-101.641-45.507-101.641-101.641c0-56.132,45.5-101.638,101.641-101.638c56.128,0,101.639,45.506,101.639,101.638
	C470.633,190.241,425.122,235.748,368.994,235.748z"/>
<path fill="none" d="M385.492,180.332c0.008,0,0.014-0.002,0.021-0.002h-0.02"/>
<path fill="none" d="M353.675,180.33h-0.02c0.006,0,0.014,0.002,0.02,0.002"/>
<path fill="#FFFFFF" d="M418.967,108.59V86.446c0-13.509-10.85-24.363-24.36-24.363h-50.713c-13.511,0-24.364,10.854-24.364,24.363
	v98.772c0,13.511,10.854,24.36,24.364,24.36h50.713c13.511,0,24.36-10.85,24.36-24.36v-25.467l-31.447-5.315v21.772h13.689
	c1.133,0,2.057,0.922,2.057,2.059c0,1.14-0.924,2.062-2.057,2.062h-15.695c-0.072,0.004-0.138,0.018-0.208,0.018h-31.448
	c-0.073,0-0.133-0.014-0.202-0.018h-16.013c-1.141,0-2.057-0.923-2.057-2.062c0-1.137,0.917-2.059,2.057-2.059h14v-75.019
	l-13.654,2.316v-0.004c-0.114,0.02-0.226,0.034-0.345,0.034c-1.141,0-2.057-0.922-2.057-2.061c0-1.021,0.74-1.86,1.709-2.027V99.44
	l47.814-8.112v0.006c0.118-0.018,0.229-0.035,0.352-0.035c1.136,0,2.059,0.924,2.059,2.061c0,0.03-0.006,0.049-0.006,0.073
	c0,0.036,0.006,0.065,0.006,0.098v20.376L418.967,108.59z"/>
<path fill="#ADAFB2" d="M368.994,32.469c56.128,0,101.639,45.506,101.639,101.638c0,56.134-45.511,101.641-101.639,101.641
	c-56.14-0.002-101.641-45.507-101.641-101.641C267.354,77.975,312.854,32.469,368.994,32.469 M368.994,27.723
	c-14.363,0-28.296,2.811-41.414,8.359c-12.671,5.362-24.045,13.03-33.815,22.8c-9.772,9.769-17.44,21.146-22.796,33.813
	c-5.548,13.12-8.363,27.055-8.363,41.412c0,14.363,2.814,28.296,8.363,41.416c5.356,12.667,13.024,24.043,22.796,33.812
	c9.77,9.769,21.144,17.438,33.815,22.801c13.118,5.546,27.051,8.358,41.414,8.358c14.356,0,28.29-2.812,41.41-8.358
	c12.667-5.362,24.042-13.032,33.811-22.801c9.769-9.77,17.442-21.146,22.803-33.812c5.548-13.12,8.362-27.053,8.362-41.416
	c0-14.357-2.814-28.292-8.362-41.412c-5.36-12.667-13.034-24.044-22.803-33.813c-9.769-9.77-21.144-17.438-33.811-22.8
	C397.284,30.533,383.351,27.723,368.994,27.723L368.994,27.723z"/>
<path fill="#FFFFFF" d="M156.477,283.968v25.981h-7.572v-43.477h7.572l11.619,26.633l11.621-26.633h7.572v43.477h-7.572v-25.981
	l-8.292,18.537h-6.655L156.477,283.968z"/>
<path fill="#FFFFFF" d="M196.107,298.525c0-3.786,2.48-6.855,6.922-6.855c3.197,0,8.029,0.589,10.64,1.374v-5.747
	c0-0.978-0.785-1.695-1.762-1.695h-5.81c-0.979,0-1.763,0.718-1.763,1.695v1.044l-7.246-0.783v-1.827
	c0-3.786,2.937-6.724,6.789-6.724h10.51c3.786,0,6.787,3.067,6.787,6.854v24.09h-7.505v-1.504c-3.199,1.111-7.442,2.155-10.64,2.155
	c-4.441,0-6.922-3.067-6.922-6.854V298.525z M203.42,302.442c0,0.979,0.654,1.698,1.763,1.698c1.566,0,4.895-0.785,6.724-1.372
	c1.175-0.391,1.762-0.783,1.762-1.566v-1.305c0-0.785-0.522-1.176-1.762-1.437c-1.698-0.326-5.158-0.587-6.724-0.587
	c-1.109,0-1.763,0.718-1.763,1.695V302.442z"/>
<path fill="#FFFFFF" d="M246.901,285.73c-2.61,1.047-5.419,2.352-7.639,3.525c-1.238,0.653-1.763,1.501-1.763,2.612v18.082h-7.505
	v-30.943h7.505v3.396c2.874-1.372,5.68-2.809,8.942-4.047L246.901,285.73z"/>
<path fill="#FFFFFF" d="M267.727,294.414l10.249,15.536h-8.484l-9.533-14.688v14.688h-7.505v-43.477l7.505-1.306v28.331l9.14-14.492
	h8.159L267.727,294.414z"/>
<path fill="#FFFFFF" d="M291.493,303.355h6.528c0.979,0,1.762-0.719,1.762-1.695v-1.438l7.246,1.306v1.695
	c0,3.786-2.936,6.727-6.789,6.727h-11.229c-3.786,0-6.789-3.069-6.789-6.854V285.86c0-3.786,3.003-6.854,6.789-6.854h11.295
	c3.786,0,6.787,3.067,6.787,6.854v10.706H289.73v5.094C289.73,302.636,290.515,303.355,291.493,303.355z M289.73,290.364h10.12
	v-3.132c0-0.979-0.785-1.698-1.763-1.698h-6.594c-0.978,0-1.763,0.719-1.763,1.698V290.364z"/>
<path fill="#FFFFFF" d="M331.317,309.95h-8.161c-3.786,0-6.787-3.069-6.787-6.854v-17.562h-4.701v-6.527h4.701v-7.18l7.505-1.307
	v8.486h8.422l-1.305,6.527h-7.117v16.19c0,0.979,0.785,1.697,1.762,1.697h5.68V309.95z"/>
<path fill="#FFFFFF" d="M338.502,266.015h7.507v8.357h-7.507V266.015z M338.502,279.006h7.507v30.943h-7.507V279.006z"/>
<path fill="#FFFFFF" d="M362.657,309.95h-7.507v-30.943h7.179v2.35c2.874-1.174,8.161-3.001,11.36-3.001
	c4.438,0,6.919,3.067,6.919,6.854v24.741h-7.506v-22.521c0-0.979-0.655-1.698-1.762-1.698c-1.634,0-5.419,1.435-6.923,1.959
	c-1.238,0.457-1.76,1.502-1.76,2.61V309.95z"/>
<path fill="#FFFFFF" d="M388.771,285.208c0-3.786,2.481-6.854,6.923-6.854c3.197,0,8.029,1.631,11.03,2.741v-2.09h7.507v36.491
	c0,3.786-3.003,6.854-6.789,6.854h-15.666v-6.396h13.186c0.979,0,1.763-0.719,1.763-1.698v-7.899
	c-3.001,1.111-7.833,2.742-11.03,2.742c-4.441,0-6.923-3.068-6.923-6.854V285.208z M396.281,300.288
	c0,0.979,0.651,1.697,1.762,1.697c1.631,0,5.417-1.37,6.919-1.961c1.24-0.455,1.763-1.173,1.763-2.15v-8.293
	c0-0.979-0.522-1.697-1.763-2.152c-1.502-0.589-5.288-1.959-6.919-1.959c-1.11,0-1.762,0.719-1.762,1.695V300.288z"/>
<path fill="#FFFFFF" d="M450.666,286.839h15.403v15.929c0,3.982-3.197,7.182-7.18,7.182h-14.688c-3.98,0-7.112-3.199-7.112-7.182
	v-29.114c0-3.982,3.132-7.181,7.112-7.181h14.688c3.982,0,7.18,3.198,7.18,7.181v4.83l-7.831,1.308v-4.441
	c0-0.978-0.785-1.696-1.765-1.696h-9.792c-0.978,0-1.762,0.719-1.762,1.696v25.723c0,0.978,0.784,1.695,1.762,1.695h9.792
	c0.979,0,1.765-0.718,1.765-1.695v-7.313h-7.572V286.839z"/>
<path fill="#FFFFFF" d="M491.468,285.73c-2.608,1.047-5.417,2.352-7.635,3.525c-1.24,0.653-1.763,1.501-1.763,2.612v18.082h-7.509
	v-30.943h7.509v3.396c2.872-1.372,5.679-2.809,8.94-4.047L491.468,285.73z"/>
<path fill="#FFFFFF" d="M495.719,303.096V285.86c0-3.786,2.999-6.854,6.787-6.854h12.402c3.853,0,6.92,3.067,6.92,6.854v17.236
	c0,3.784-3.067,6.854-6.92,6.854h-12.402C498.718,309.95,495.719,306.88,495.719,303.096z M514.321,287.557
	c0-0.979-0.783-1.697-1.763-1.697h-7.574c-0.979,0-1.762,0.719-1.762,1.697v13.841c0,0.979,0.783,1.698,1.762,1.698h7.574
	c0.979,0,1.763-0.719,1.763-1.698V287.557z"/>
<path fill="#FFFFFF" d="M547.945,279.006h7.505v30.943h-7.179v-2.352c-2.874,1.174-8.161,3.003-11.36,3.003
	c-4.438,0-6.918-3.067-6.918-6.854v-24.741h7.507v22.521c0,0.978,0.651,1.695,1.763,1.695c1.631,0,5.417-1.435,6.92-1.956
	c1.241-0.458,1.763-1.502,1.763-2.612V279.006z"/>
<path fill="#FFFFFF" d="M590.053,303.748c0,3.786-2.479,6.854-6.919,6.854c-3.197,0-8.029-1.631-11.03-2.742v14.493l-7.507,1.307
	v-44.652h7.507v2.09c3.001-1.11,7.833-2.741,11.03-2.741c4.439,0,6.919,3.067,6.919,6.854V303.748z M582.549,287.165
	c0-0.977-0.655-1.695-1.763-1.695c-1.633,0-5.419,1.37-6.92,1.959c-1.24,0.455-1.763,1.174-1.763,2.152v9.792
	c0,0.981,0.522,1.7,1.763,2.155c1.501,0.587,5.287,1.959,6.92,1.959c1.107,0,1.763-0.719,1.763-1.698V287.165z"/>
<path fill="#0067B1" d="M368.994,32.469c-56.14,0-101.641,45.506-101.641,101.638c0,56.134,45.5,101.639,101.641,101.641
	c56.128,0,101.639-45.507,101.639-101.641C470.633,77.975,425.122,32.469,368.994,32.469z"/>
<path fill="#B0CBEA" d="M444.215,58.882c-9.769-9.77-21.144-17.438-33.811-22.8c-13.12-5.549-27.054-8.359-41.41-8.359
	c-14.363,0-28.296,2.811-41.414,8.359c-12.671,5.362-24.045,13.03-33.815,22.8c-9.772,9.769-17.44,21.146-22.796,33.813
	c-5.548,13.12-8.363,27.055-8.363,41.412c0,14.363,2.814,28.296,8.363,41.416c5.356,12.667,13.024,24.043,22.796,33.812
	c9.77,9.769,21.144,17.438,33.815,22.801c13.118,5.546,27.051,8.358,41.414,8.358c14.356,0,28.29-2.812,41.41-8.358
	c12.667-5.362,24.042-13.032,33.811-22.801c9.769-9.77,17.442-21.146,22.803-33.812c5.548-13.12,8.362-27.053,8.362-41.416
	c0-14.357-2.814-28.292-8.362-41.412C461.657,80.028,453.983,68.65,444.215,58.882z M368.994,235.748
	c-56.14-0.002-101.641-45.507-101.641-101.641c0-56.132,45.5-101.638,101.641-101.638c56.128,0,101.639,45.506,101.639,101.638
	C470.633,190.241,425.122,235.748,368.994,235.748z"/>
<path fill="none" d="M385.492,180.332c0.008,0,0.014-0.002,0.021-0.002h-0.02"/>
<path fill="none" d="M353.675,180.33h-0.02c0.006,0,0.014,0.002,0.02,0.002"/>
<path fill="#FFFFFF" d="M418.967,108.59V86.446c0-13.509-10.85-24.363-24.36-24.363h-50.713c-13.511,0-24.364,10.854-24.364,24.363
	v98.772c0,13.511,10.854,24.36,24.364,24.36h50.713c13.511,0,24.36-10.85,24.36-24.36v-25.467l-31.447-5.315v21.772h13.689
	c1.133,0,2.057,0.922,2.057,2.059c0,1.14-0.924,2.062-2.057,2.062h-15.695c-0.072,0.004-0.138,0.018-0.208,0.018h-31.448
	c-0.073,0-0.133-0.014-0.202-0.018h-16.013c-1.141,0-2.057-0.923-2.057-2.062c0-1.137,0.917-2.059,2.057-2.059h14v-75.019
	l-13.654,2.316v-0.004c-0.114,0.02-0.226,0.034-0.345,0.034c-1.141,0-2.057-0.922-2.057-2.061c0-1.021,0.74-1.86,1.709-2.027V99.44
	l47.814-8.112v0.006c0.118-0.018,0.229-0.035,0.352-0.035c1.136,0,2.059,0.924,2.059,2.061c0,0.03-0.006,0.049-0.006,0.073
	c0,0.036,0.006,0.065,0.006,0.098v20.376L418.967,108.59z"/>
<path fill="#ADAFB2" d="M368.994,32.469c56.128,0,101.639,45.506,101.639,101.638c0,56.134-45.511,101.641-101.639,101.641
	c-56.14-0.002-101.641-45.507-101.641-101.641C267.354,77.975,312.854,32.469,368.994,32.469 M368.994,27.723
	c-14.363,0-28.296,2.811-41.414,8.359c-12.671,5.362-24.045,13.03-33.815,22.8c-9.772,9.769-17.44,21.146-22.796,33.813
	c-5.548,13.12-8.363,27.055-8.363,41.412c0,14.363,2.814,28.296,8.363,41.416c5.356,12.667,13.024,24.043,22.796,33.812
	c9.77,9.769,21.144,17.438,33.815,22.801c13.118,5.546,27.051,8.358,41.414,8.358c14.356,0,28.29-2.812,41.41-8.358
	c12.667-5.362,24.042-13.032,33.811-22.801c9.769-9.77,17.442-21.146,22.803-33.812c5.548-13.12,8.362-27.053,8.362-41.416
	c0-14.357-2.814-28.292-8.362-41.412c-5.36-12.667-13.034-24.044-22.803-33.813c-9.769-9.77-21.144-17.438-33.811-22.8
	C397.284,30.533,383.351,27.723,368.994,27.723L368.994,27.723z"/>
<path display="none" fill="none" d="M411.409,214.719h-10.82c-2.216,0-3.882,1.666-3.882,3.886v20.524
	c0,2.215,1.666,3.88,3.882,3.88h10.82c2.216,0,3.975-1.665,3.975-3.88v-20.524C415.384,216.385,413.625,214.719,411.409,214.719z"/>
<path display="none" fill="none" d="M512.912,129.373h-9.611c-2.222,0-3.888,1.662-3.888,3.884v5.823h17.476v-5.823
	C516.889,131.035,515.13,129.373,512.912,129.373z"/>
<path display="none" fill="none" d="M661.476,131.685c-3.234-1.295-7.119-2.497-9.8-2.497c-2.49,0-3.975,1.384-3.975,3.878v19.785
	c0,2.5,1.484,3.884,3.975,3.884c2.681,0,6.565-1.203,9.8-2.497c2.125-0.832,3.699-1.937,3.884-3.972v-14.703
	C665.175,133.624,663.601,132.515,661.476,131.685z"/>
<path display="none" fill="none" d="M394.116,148.324c-2.77-0.647-6.933-0.74-9.613-0.74c-2.496,0-3.977,1.201-3.977,3.882v4.066
	c0,2.685,1.48,3.886,3.977,3.886c2.681,0,6.379-0.275,9.613-1.574c2.133-0.828,3.886-1.937,3.886-3.972v-1.849
	C398.002,149.898,396.249,148.786,394.116,148.324z"/>
<path display="none" fill="none" d="M507.087,214.166c-2.681,0-6.562,1.201-9.796,2.499c-2.123,0.832-3.886,1.94-3.886,3.975v16.549
	c0,1.941,1.763,3.052,3.886,3.882c3.234,1.294,7.115,2.499,9.796,2.499c2.5,0,3.98-1.388,3.98-3.887v-21.634
	C511.067,215.553,509.587,214.166,507.087,214.166z"/>
<path display="none" fill="#0067B1" d="M170.865,74.64c-55.809,0-101.048,45.241-101.048,101.052
	c0,55.807,45.239,101.046,101.048,101.046c55.807,0,101.05-45.239,101.05-101.046C271.915,119.881,226.672,74.64,170.865,74.64z
	 M220.554,150.32l-31.267,5.282v-20.253c0-0.037-0.006-0.062-0.006-0.1c0-0.025,0.004-0.047,0.004-0.07
	c0-1.131-0.915-2.051-2.047-2.051c-0.12,0-0.231,0.018-0.345,0.038l-0.002-0.008l-47.539,8.067l0.002,0.004
	c-0.967,0.165-1.706,1.001-1.706,2.016c0,1.132,0.917,2.053,2.05,2.053c0.118,0,0.234-0.018,0.345-0.035v0.004l13.575-2.302v74.581
	h-13.919c-1.132,0-2.05,0.919-2.05,2.053c0,1.127,0.917,2.049,2.05,2.049h15.884l0.034-0.298l0.092,0.012l-0.083,0.286
	c0.064,0.005,0.127,0.017,0.194,0.017h31.267c0.066,0,0.129-0.012,0.196-0.017l-0.006-0.298h0.012v0.298h15.605
	c1.13,0,2.047-0.922,2.047-2.049c0-1.134-0.917-2.053-2.047-2.053h-13.607v-21.645l31.267,5.284v25.32
	c0,13.435-10.789,24.219-24.221,24.219h-50.421c-13.434,0-24.221-10.784-24.221-24.219v-98.202
	c0-13.431,10.788-24.221,24.221-24.221h50.421c13.432,0,24.221,10.791,24.221,24.221V150.32z"/>
<polygon display="none" fill="#141006" points="187.289,221.347 187.277,221.347 187.283,221.645 187.289,221.645 "/>
<polygon display="none" fill="#141006" points="155.625,221.645 155.708,221.359 155.616,221.347 155.582,221.645 155.616,221.645 
	"/>
<path display="none" fill="#FFFFFF" d="M196.333,104.08h-50.421c-13.434,0-24.221,10.791-24.221,24.221v98.202
	c0,13.435,10.788,24.219,24.221,24.219h50.421c13.432,0,24.221-10.784,24.221-24.219v-25.32l-31.267-5.284v21.645h13.607
	c1.13,0,2.047,0.919,2.047,2.053c0,1.127-0.917,2.049-2.047,2.049h-15.605c-0.002,0-0.006,0-0.006,0
	c-0.067,0.005-0.13,0.017-0.196,0.017H155.82c-0.067,0-0.13-0.012-0.194-0.017c-0.002,0-0.006,0-0.01,0h-0.034h-15.884
	c-1.132,0-2.05-0.922-2.05-2.049c0-1.134,0.917-2.053,2.05-2.053h13.919v-74.581l-13.575,2.302v-0.004
	c-0.111,0.018-0.227,0.035-0.345,0.035c-1.132,0-2.05-0.92-2.05-2.053c0-1.015,0.739-1.851,1.706-2.016l-0.002-0.004l47.539-8.067
	l0.002,0.008c0.114-0.02,0.226-0.038,0.345-0.038c1.133,0,2.047,0.92,2.047,2.051c0,0.023-0.004,0.045-0.004,0.07
	c0,0.038,0.006,0.063,0.006,0.1v20.253l31.267-5.282v-22.019C220.554,114.871,209.765,104.08,196.333,104.08z"/>
<polygon display="none" fill="#0067B1" points="333.193,143.981 315.722,104.224 307.217,104.224 307.217,165.798 315.722,165.798 
	315.722,123.919 329.219,154.24 337.171,154.24 350.668,123.919 350.668,165.798 359.177,165.798 359.177,104.224 350.668,104.224 
	"/>
<path display="none" fill="#0067B1" d="M398.183,165.798h8.323v-34.024c0-5.451-4.345-9.8-9.799-9.8h-13.959
	c-5.546,0-9.709,4.251-9.709,9.711v2.4l8.133,0.834v-1.572c0-2.22,1.759-3.884,3.975-3.884h8.877c2.226,0,3.979,1.758,3.979,3.884
	v9.336c-5.917-1.941-11.837-2.125-15.811-2.125c-6.194,0-9.893,4.071-9.893,9.802v6.565c0,5.729,3.698,9.797,9.893,9.797
	c3.974,0,10.353-0.738,15.991-3.142V165.798z M398.002,153.873c0,2.035-1.753,3.144-3.886,3.972
	c-3.234,1.299-6.933,1.574-9.613,1.574c-2.496,0-3.977-1.201-3.977-3.886v-4.066c0-2.681,1.48-3.882,3.977-3.882
	c2.681,0,6.844,0.092,9.613,0.74c2.133,0.461,3.886,1.574,3.886,3.7V153.873z"/>
<path display="none" fill="#0067B1" d="M440.804,121.049c-4.624,1.851-8.781,4.068-12.848,6.75v-5.825h-8.506v43.824h8.506v-24.776
	c0-3.144,1.658-5.085,5.268-7.397c2.682-1.66,5.543-3.142,8.134-4.251L440.804,121.049z"/>
<polygon display="none" fill="#0067B1" points="483.699,121.974 473.9,121.974 457.904,142.684 457.904,102.746 449.398,104.224 
	449.398,165.798 457.904,165.798 457.904,144.811 473.988,165.798 483.979,165.798 466.968,143.794 "/>
<path display="none" fill="#0067B1" d="M515.316,121.974h-14.698c-5.45,0-9.708,4.349-9.708,9.8V156c0,5.45,4.258,9.797,9.708,9.797
	h14.698c5.454,0,9.707-4.251,9.707-9.709v-2.4l-8.228-1.482v2.22c0,2.22-1.666,3.882-3.884,3.882h-9.611
	c-2.222,0-3.888-1.663-3.888-3.882v-7.953h25.707v-14.7C525.12,126.323,520.771,121.974,515.316,121.974z M516.889,139.081h-17.476
	v-5.823c0-2.222,1.666-3.884,3.888-3.884h9.611c2.218,0,3.977,1.662,3.977,3.884V139.081z"/>
<path display="none" fill="#0067B1" d="M558.025,129.373l1.48-7.399h-11.65v-11.923l-8.507,1.383v10.54h-6.836v7.399h6.836V156
	c0,5.45,4.258,9.797,9.712,9.797h9.155v-7.395h-6.383c-2.22,0-3.978-1.757-3.978-3.977v-25.053H558.025z"/>
<rect x="569.213" y="103.76" display="none" fill="#0067B1" width="8.504" height="10.913"/>
<rect x="569.213" y="121.974" display="none" fill="#0067B1" width="8.504" height="43.824"/>
<path display="none" fill="#0067B1" d="M616.821,121.049c-3.975,0-10.814,1.668-16.457,4.068v-3.144h-8.315v43.824h8.506v-29.956
	c0-2.033,1.755-3.14,3.88-3.972c3.234-1.297,7.123-2.497,9.8-2.497c2.494,0,3.979,1.384,3.979,3.884v32.541h8.5v-34.949
	C626.713,125.118,623.016,121.049,616.821,121.049z"/>
<path display="none" fill="#0067B1" d="M665.359,121.974v3.054c-5.546-2.31-12.296-3.979-16.274-3.979
	c-6.194,0-9.892,4.068-9.892,9.8v24.223c0,5.733,3.697,9.801,9.892,9.801c3.885,0,10.632-1.57,16.274-3.977v11.278
	c0,2.222-1.668,3.884-3.884,3.884H643.26v7.307h20.896c5.456,0,9.705-4.346,9.705-9.799v-51.593H665.359z M665.359,150.268
	c-0.185,2.035-1.759,3.14-3.884,3.972c-3.234,1.293-7.119,2.497-9.8,2.497c-2.49,0-3.975-1.384-3.975-3.884v-19.785
	c0-2.495,1.484-3.878,3.975-3.878c2.681,0,6.565,1.201,9.8,2.497c2.125,0.83,3.699,1.939,3.884,3.88V150.268z"/>
<path display="none" fill="#0067B1" d="M336.524,189.203h-19.689c-5.643,0-10.081,4.532-10.081,10.169v41.237
	c0,5.639,4.438,10.17,10.081,10.17h19.689c5.641,0,10.17-4.531,10.17-10.17v-21.45h-20.525v8.041h11.744v11.559
	c0,2.222-1.664,3.884-3.886,3.884h-14.514c-2.22,0-3.974-1.662-3.974-3.884v-37.536c0-2.22,1.754-3.88,3.974-3.88h14.514
	c2.222,0,3.886,1.66,3.886,3.88v6.286l8.781-1.384v-6.753C346.694,193.735,342.165,189.203,336.524,189.203z"/>
<path display="none" fill="#0067B1" d="M368.14,212.776v-5.821h-8.508v43.824h8.508v-24.78c0-3.14,1.663-5.081,5.27-7.394
	c2.681-1.662,5.546-3.146,8.137-4.257l-0.555-8.315C376.37,207.879,372.205,210.099,368.14,212.776z"/>
<path display="none" fill="#0067B1" d="M413.994,206.955h-16.082c-5.458,0-9.712,4.346-9.712,9.802v24.224
	c0,5.454,4.254,9.799,9.712,9.799h16.082c5.456,0,9.896-4.345,9.896-9.799v-24.224C423.89,211.3,419.45,206.955,413.994,206.955z
	 M415.384,239.129c0,2.215-1.759,3.88-3.975,3.88h-10.82c-2.216,0-3.882-1.665-3.882-3.88v-20.524c0-2.22,1.666-3.886,3.882-3.886
	h10.82c2.216,0,3.975,1.666,3.975,3.886V239.129z"/>
<path display="none" fill="#0067B1" d="M462.528,236.913c0,2.034-1.759,3.139-3.88,3.975c-3.238,1.294-7.121,2.495-9.8,2.495
	c-2.502,0-3.979-1.388-3.979-3.883v-32.545h-8.506v34.947c0,5.733,3.699,9.8,9.894,9.8c3.977,0,10.816-1.662,16.453-4.066v3.144
	h8.324v-43.824h-8.507V236.913z"/>
<path display="none" fill="#0067B1" d="M509.674,206.033c-3.975,0-10.811,1.662-16.457,4.066v-3.145H484.9v62.87l8.505-1.479
	v-20.618c5.55,2.312,12.294,3.975,16.269,3.975c6.2,0,9.899-4.066,9.899-9.8v-26.069
	C519.573,210.099,515.874,206.033,509.674,206.033z M511.067,239.682c0,2.499-1.48,3.887-3.98,3.887
	c-2.681,0-6.562-1.205-9.796-2.499c-2.123-0.83-3.886-1.94-3.886-3.882v-16.549c0-2.034,1.763-3.143,3.886-3.975
	c3.234-1.298,7.115-2.499,9.796-2.499c2.5,0,3.98,1.388,3.98,3.883V239.682z"/>
<path display="none" fill="#ADAFB2" d="M245.655,100.899c-9.711-9.713-21.024-17.338-33.619-22.669
	c-13.042-5.513-26.896-8.312-41.171-8.312c-14.278,0-28.128,2.799-41.172,8.312c-12.597,5.331-23.905,12.956-33.619,22.669
	c-9.713,9.709-17.338,21.02-22.665,33.618c-5.516,13.044-8.315,26.895-8.315,41.175c0,14.274,2.799,28.129,8.315,41.171
	c5.327,12.594,12.952,23.905,22.665,33.618c9.713,9.711,21.022,17.34,33.619,22.667c13.044,5.515,26.894,8.312,41.172,8.312
	c14.274,0,28.129-2.797,41.171-8.312c12.594-5.327,23.907-12.956,33.619-22.667c9.713-9.713,17.338-21.024,22.665-33.618
	c5.517-13.042,8.314-26.896,8.314-41.171c0-14.28-2.797-28.131-8.314-41.175C262.993,121.919,255.368,110.608,245.655,100.899z
	 M170.865,276.738c-55.809,0-101.048-45.239-101.048-101.046c0-55.811,45.239-101.052,101.048-101.052
	c55.807,0,101.05,45.241,101.05,101.052C271.915,231.499,226.672,276.738,170.865,276.738z"/>
<path display="none" fill="none" d="M411.409,214.719h-10.82c-2.216,0-3.882,1.666-3.882,3.886v20.524
	c0,2.215,1.666,3.88,3.882,3.88h10.82c2.216,0,3.975-1.665,3.975-3.88v-20.524C415.384,216.385,413.625,214.719,411.409,214.719z"/>
<path display="none" fill="none" d="M512.912,129.373h-9.611c-2.222,0-3.888,1.662-3.888,3.884v5.823h17.476v-5.823
	C516.889,131.035,515.13,129.373,512.912,129.373z"/>
<path display="none" fill="none" d="M661.476,131.685c-3.234-1.295-7.119-2.497-9.8-2.497c-2.49,0-3.975,1.384-3.975,3.878v19.785
	c0,2.5,1.484,3.884,3.975,3.884c2.681,0,6.565-1.203,9.8-2.497c2.125-0.832,3.699-1.937,3.884-3.972v-14.703
	C665.175,133.624,663.601,132.515,661.476,131.685z"/>
<path display="none" fill="none" d="M394.116,148.324c-2.77-0.647-6.933-0.74-9.613-0.74c-2.496,0-3.977,1.201-3.977,3.882v4.066
	c0,2.685,1.48,3.886,3.977,3.886c2.681,0,6.379-0.275,9.613-1.574c2.133-0.828,3.886-1.937,3.886-3.972v-1.849
	C398.002,149.898,396.249,148.786,394.116,148.324z"/>
<path display="none" fill="none" d="M507.087,214.166c-2.681,0-6.562,1.201-9.796,2.499c-2.123,0.832-3.886,1.94-3.886,3.975v16.549
	c0,1.941,1.763,3.052,3.886,3.882c3.234,1.294,7.115,2.499,9.796,2.499c2.5,0,3.98-1.388,3.98-3.887v-21.634
	C511.067,215.553,509.587,214.166,507.087,214.166z"/>
<path display="none" fill="#0067B1" d="M170.865,74.64c-55.809,0-101.048,45.241-101.048,101.052
	c0,55.807,45.239,101.046,101.048,101.046c55.807,0,101.05-45.239,101.05-101.046C271.915,119.881,226.672,74.64,170.865,74.64z
	 M220.554,150.32l-31.267,5.282v-20.253c0-0.037-0.006-0.062-0.006-0.1c0-0.025,0.004-0.047,0.004-0.07
	c0-1.131-0.915-2.051-2.047-2.051c-0.12,0-0.231,0.018-0.345,0.038l-0.002-0.008l-47.539,8.067l0.002,0.004
	c-0.967,0.165-1.706,1.001-1.706,2.016c0,1.132,0.917,2.053,2.05,2.053c0.118,0,0.234-0.018,0.345-0.035v0.004l13.575-2.302v74.581
	h-13.919c-1.132,0-2.05,0.919-2.05,2.053c0,1.127,0.917,2.049,2.05,2.049h15.884l0.034-0.298l0.092,0.012l-0.083,0.286
	c0.064,0.005,0.127,0.017,0.194,0.017h31.267c0.066,0,0.129-0.012,0.196-0.017l-0.006-0.298h0.012v0.298h15.605
	c1.13,0,2.047-0.922,2.047-2.049c0-1.134-0.917-2.053-2.047-2.053h-13.607v-21.645l31.267,5.284v25.32
	c0,13.435-10.789,24.219-24.221,24.219h-50.421c-13.434,0-24.221-10.784-24.221-24.219v-98.202
	c0-13.431,10.788-24.221,24.221-24.221h50.421c13.432,0,24.221,10.791,24.221,24.221V150.32z"/>
<polygon display="none" fill="#141006" points="187.289,221.347 187.277,221.347 187.283,221.645 187.289,221.645 "/>
<polygon display="none" fill="#141006" points="155.625,221.645 155.708,221.359 155.616,221.347 155.582,221.645 155.616,221.645 
	"/>
<path display="none" fill="#FFFFFF" d="M196.333,104.08h-50.421c-13.434,0-24.221,10.791-24.221,24.221v98.202
	c0,13.435,10.788,24.219,24.221,24.219h50.421c13.432,0,24.221-10.784,24.221-24.219v-25.32l-31.267-5.284v21.645h13.607
	c1.13,0,2.047,0.919,2.047,2.053c0,1.127-0.917,2.049-2.047,2.049h-15.605c-0.002,0-0.006,0-0.006,0
	c-0.067,0.005-0.13,0.017-0.196,0.017H155.82c-0.067,0-0.13-0.012-0.194-0.017c-0.002,0-0.006,0-0.01,0h-0.034h-15.884
	c-1.132,0-2.05-0.922-2.05-2.049c0-1.134,0.917-2.053,2.05-2.053h13.919v-74.581l-13.575,2.302v-0.004
	c-0.111,0.018-0.227,0.035-0.345,0.035c-1.132,0-2.05-0.92-2.05-2.053c0-1.015,0.739-1.851,1.706-2.016l-0.002-0.004l47.539-8.067
	l0.002,0.008c0.114-0.02,0.226-0.038,0.345-0.038c1.133,0,2.047,0.92,2.047,2.051c0,0.023-0.004,0.045-0.004,0.07
	c0,0.038,0.006,0.063,0.006,0.1v20.253l31.267-5.282v-22.019C220.554,114.871,209.765,104.08,196.333,104.08z"/>
<polygon display="none" fill="#FFFFFF" points="333.193,143.981 315.722,104.224 307.217,104.224 307.217,165.798 315.722,165.798 
	315.722,123.919 329.219,154.24 337.171,154.24 350.668,123.919 350.668,165.798 359.177,165.798 359.177,104.224 350.668,104.224 
	"/>
<path display="none" fill="#FFFFFF" d="M398.183,165.798h8.323v-34.024c0-5.451-4.345-9.8-9.799-9.8h-13.959
	c-5.546,0-9.709,4.251-9.709,9.711v2.4l8.133,0.834v-1.572c0-2.22,1.759-3.884,3.975-3.884h8.877c2.226,0,3.979,1.758,3.979,3.884
	v9.336c-5.917-1.941-11.837-2.125-15.811-2.125c-6.194,0-9.893,4.071-9.893,9.802v6.565c0,5.729,3.698,9.797,9.893,9.797
	c3.974,0,10.353-0.738,15.991-3.142V165.798z M398.002,153.873c0,2.035-1.753,3.144-3.886,3.972
	c-3.234,1.299-6.933,1.574-9.613,1.574c-2.496,0-3.977-1.201-3.977-3.886v-4.066c0-2.681,1.48-3.882,3.977-3.882
	c2.681,0,6.844,0.092,9.613,0.74c2.133,0.461,3.886,1.574,3.886,3.7V153.873z"/>
<path display="none" fill="#FFFFFF" d="M440.804,121.049c-4.624,1.851-8.781,4.068-12.848,6.75v-5.825h-8.506v43.824h8.506v-24.776
	c0-3.144,1.658-5.085,5.268-7.397c2.682-1.66,5.543-3.142,8.134-4.251L440.804,121.049z"/>
<polygon display="none" fill="#FFFFFF" points="483.699,121.974 473.9,121.974 457.904,142.684 457.904,102.746 449.398,104.224 
	449.398,165.798 457.904,165.798 457.904,144.811 473.988,165.798 483.979,165.798 466.968,143.794 "/>
<path display="none" fill="#FFFFFF" d="M515.316,121.974h-14.698c-5.45,0-9.708,4.349-9.708,9.8V156c0,5.45,4.258,9.797,9.708,9.797
	h14.698c5.454,0,9.707-4.251,9.707-9.709v-2.4l-8.228-1.482v2.22c0,2.22-1.666,3.882-3.884,3.882h-9.611
	c-2.222,0-3.888-1.663-3.888-3.882v-7.953h25.707v-14.7C525.12,126.323,520.771,121.974,515.316,121.974z M516.889,139.081h-17.476
	v-5.823c0-2.222,1.666-3.884,3.888-3.884h9.611c2.218,0,3.977,1.662,3.977,3.884V139.081z"/>
<path display="none" fill="#FFFFFF" d="M558.025,129.373l1.48-7.399h-11.65v-11.923l-8.507,1.383v10.54h-6.836v7.399h6.836V156
	c0,5.45,4.258,9.797,9.712,9.797h9.155v-7.395h-6.383c-2.22,0-3.978-1.757-3.978-3.977v-25.053H558.025z"/>
<rect x="569.213" y="103.76" display="none" fill="#FFFFFF" width="8.504" height="10.913"/>
<rect x="569.213" y="121.974" display="none" fill="#FFFFFF" width="8.504" height="43.824"/>
<path display="none" fill="#FFFFFF" d="M616.821,121.049c-3.975,0-10.814,1.668-16.457,4.068v-3.144h-8.315v43.824h8.506v-29.956
	c0-2.033,1.755-3.14,3.88-3.972c3.234-1.297,7.123-2.497,9.8-2.497c2.494,0,3.979,1.384,3.979,3.884v32.541h8.5v-34.949
	C626.713,125.118,623.016,121.049,616.821,121.049z"/>
<path display="none" fill="#FFFFFF" d="M665.359,121.974v3.054c-5.546-2.31-12.296-3.979-16.274-3.979
	c-6.194,0-9.892,4.068-9.892,9.8v24.223c0,5.733,3.697,9.801,9.892,9.801c3.885,0,10.632-1.57,16.274-3.977v11.278
	c0,2.222-1.668,3.884-3.884,3.884H643.26v7.307h20.896c5.456,0,9.705-4.346,9.705-9.799v-51.593H665.359z M665.359,150.268
	c-0.185,2.035-1.759,3.14-3.884,3.972c-3.234,1.293-7.119,2.497-9.8,2.497c-2.49,0-3.975-1.384-3.975-3.884v-19.785
	c0-2.495,1.484-3.878,3.975-3.878c2.681,0,6.565,1.201,9.8,2.497c2.125,0.83,3.699,1.939,3.884,3.88V150.268z"/>
<path display="none" fill="#FFFFFF" d="M336.524,189.203h-19.689c-5.643,0-10.081,4.532-10.081,10.169v41.237
	c0,5.639,4.438,10.17,10.081,10.17h19.689c5.641,0,10.17-4.531,10.17-10.17v-21.45h-20.525v8.041h11.744v11.559
	c0,2.222-1.664,3.884-3.886,3.884h-14.514c-2.22,0-3.974-1.662-3.974-3.884v-37.536c0-2.22,1.754-3.88,3.974-3.88h14.514
	c2.222,0,3.886,1.66,3.886,3.88v6.286l8.781-1.384v-6.753C346.694,193.735,342.165,189.203,336.524,189.203z"/>
<path display="none" fill="#FFFFFF" d="M368.14,212.776v-5.821h-8.508v43.824h8.508v-24.78c0-3.14,1.663-5.081,5.27-7.394
	c2.681-1.662,5.546-3.146,8.137-4.257l-0.555-8.315C376.37,207.879,372.205,210.099,368.14,212.776z"/>
<path display="none" fill="#FFFFFF" d="M413.994,206.955h-16.082c-5.458,0-9.712,4.346-9.712,9.802v24.224
	c0,5.454,4.254,9.799,9.712,9.799h16.082c5.456,0,9.896-4.345,9.896-9.799v-24.224C423.89,211.3,419.45,206.955,413.994,206.955z
	 M415.384,239.129c0,2.215-1.759,3.88-3.975,3.88h-10.82c-2.216,0-3.882-1.665-3.882-3.88v-20.524c0-2.22,1.666-3.886,3.882-3.886
	h10.82c2.216,0,3.975,1.666,3.975,3.886V239.129z"/>
<path display="none" fill="#FFFFFF" d="M462.528,236.913c0,2.034-1.759,3.139-3.88,3.975c-3.238,1.294-7.121,2.495-9.8,2.495
	c-2.502,0-3.979-1.388-3.979-3.883v-32.545h-8.506v34.947c0,5.733,3.699,9.8,9.894,9.8c3.977,0,10.816-1.662,16.453-4.066v3.144
	h8.324v-43.824h-8.507V236.913z"/>
<path display="none" fill="#FFFFFF" d="M509.674,206.033c-3.975,0-10.811,1.662-16.457,4.066v-3.145H484.9v62.87l8.505-1.479
	v-20.618c5.55,2.312,12.294,3.975,16.269,3.975c6.2,0,9.899-4.066,9.899-9.8v-26.069
	C519.573,210.099,515.874,206.033,509.674,206.033z M511.067,239.682c0,2.499-1.48,3.887-3.98,3.887
	c-2.681,0-6.562-1.205-9.796-2.499c-2.123-0.83-3.886-1.94-3.886-3.882v-16.549c0-2.034,1.763-3.143,3.886-3.975
	c3.234-1.298,7.115-2.499,9.796-2.499c2.5,0,3.98,1.388,3.98,3.883V239.682z"/>
<path display="none" fill="#ADAFB2" d="M245.655,100.899c-9.711-9.713-21.024-17.338-33.619-22.669
	c-13.042-5.513-26.896-8.312-41.171-8.312c-14.278,0-28.128,2.799-41.172,8.312c-12.597,5.331-23.905,12.956-33.619,22.669
	c-9.713,9.709-17.338,21.02-22.665,33.618c-5.516,13.044-8.315,26.895-8.315,41.175c0,14.274,2.799,28.129,8.315,41.171
	c5.327,12.594,12.952,23.905,22.665,33.618c9.713,9.711,21.022,17.34,33.619,22.667c13.044,5.515,26.894,8.312,41.172,8.312
	c14.274,0,28.129-2.797,41.171-8.312c12.594-5.327,23.907-12.956,33.619-22.667c9.713-9.713,17.338-21.024,22.665-33.618
	c5.517-13.042,8.314-26.896,8.314-41.171c0-14.28-2.797-28.131-8.314-41.175C262.993,121.919,255.368,110.608,245.655,100.899z
	 M170.865,276.738c-55.809,0-101.048-45.239-101.048-101.046c0-55.811,45.239-101.052,101.048-101.052
	c55.807,0,101.05,45.241,101.05,101.052C271.915,231.499,226.672,276.738,170.865,276.738z"/>
</svg>
