<?xml version="1.0" encoding="utf-8"?>
<!-- Generator: Adobe Illustrator 15.0.2, SVG Export Plug-In  -->
<!DOCTYPE svg PUBLIC "-//W3C//DTD SVG 1.1//EN" "http://www.w3.org/Graphics/SVG/1.1/DTD/svg11.dtd" [
	<!ENTITY ns_flows "http://ns.adobe.com/Flows/1.0/">
]>
<svg version="1.1"
	 xmlns="http://www.w3.org/2000/svg" xmlns:xlink="http://www.w3.org/1999/xlink" xmlns:a="http://ns.adobe.com/AdobeSVGViewerExtensions/3.0/"
	 x="0px" y="0px" width="1496px" height="340px" viewBox="0 0 1496 340" overflow="visible" enable-background="new 0 0 1496 340"
	 xml:space="preserve">
<defs>
</defs>
<rect fill="#0067B1" width="736" height="339.588"/>
<rect x="760" fill="#ADAFB2" width="736" height="339.588"/>
<rect x="15.213" y="39.302" fill="none" width="705.574" height="260.983"/>
<text transform="matrix(1 0 0 1 15.2129 57.6133)" fill="#FFFFFF" font-family="'GoodHeadlinePro-CondBook'" font-size="28" letter-spacing="1">Primary Typeface: </text>
<text transform="matrix(1 0 0 1 231.0327 57.6133)" fill="#FFFFFF" font-family="'GoodHeadlinePro-CondMedium'" font-size="28" letter-spacing="1">Strattum1</text>
<g>
	
		<text transform="matrix(1 0 0 1 15.2129 134.4131)" fill="#FFFFFF" font-family="'Stratum1-Bold'" font-size="72" letter-spacing="6">0123456789</text>
</g>
<text transform="matrix(1 0 0 1 15.2129 211.2139)" fill="#FFFFFF" font-family="'Stratum1-Bold'" font-size="72" letter-spacing="6">ABCDEFGHIJKLM</text>
<g>
	
		<text transform="matrix(1 0 0 1 15.2129 288.0137)" fill="#FFFFFF" font-family="'Stratum1-Bold'" font-size="72" letter-spacing="6">NOPQRSTUVWXYZ</text>
</g>
<rect x="775.213" y="39.302" fill="none" width="705.574" height="260.985"/>
<text transform="matrix(1 0 0 1 775.2129 57.6133)" font-family="'GoodHeadlinePro-CondBook'" font-size="28" letter-spacing="1">Alternate Typeface: </text>
<text transform="matrix(1 0 0 1 1008.8125 57.6133)" font-family="'GoodHeadlinePro-CondMedium'" font-size="28" letter-spacing="1">Lato</text>
<text transform="matrix(1 0 0 1 775.2129 134.4141)" font-family="'Lato-Regular'" font-size="64" letter-spacing="5">0123456789</text>
<text transform="matrix(1 0 0 1 775.2129 211.2139)" font-family="'Lato-Regular'" font-size="64" letter-spacing="5">ABCDEFGHIJKLM</text>
<text transform="matrix(1 0 0 1 775.2129 288.0127)" font-family="'Lato-Regular'" font-size="64" letter-spacing="5">NOPQRSTUVWXYZ</text>
</svg>
