<?xml version="1.0" encoding="utf-8"?>
<!-- Generator: Adobe Illustrator 15.0.0, SVG Export Plug-In . SVG Version: 6.00 Build 0)  -->
<!DOCTYPE svg PUBLIC "-//W3C//DTD SVG 1.1//EN" "http://www.w3.org/Graphics/SVG/1.1/DTD/svg11.dtd">
<svg version="1.1" id="Layer_1" xmlns="http://www.w3.org/2000/svg" xmlns:xlink="http://www.w3.org/1999/xlink" x="0px" y="0px"
	 width="509px" height="366px" viewBox="0 0 509 366" enable-background="new 0 0 509 366" xml:space="preserve">
<g>
	<defs>
		<rect id="SVGID_1_" x="-45" y="-118" width="600" height="600"/>
	</defs>
	<clipPath id="SVGID_2_">
		<use xlink:href="#SVGID_1_"  overflow="visible"/>
	</clipPath>
	<path clip-path="url(#SVGID_2_)" fill="#CC7B18" d="M265.275,297.688c14.08-16.867,25.685-36.087,34.137-57.217l7.496-18.701
		l29.313,73.285l71.993-0.019l-65.269-163.173l36.037-89.905L507,362.001H291L265.275,297.688"/>
	<polygon clip-path="url(#SVGID_2_)" fill="#905502" points="217.509,178.271 254.254,90.136 219,2 183.542,93.354 	"/>
	<path clip-path="url(#SVGID_2_)" fill="#905502" d="M252.699,266.248l12.576,31.439c14.08-16.866,25.685-36.087,34.137-57.218
		l7.496-18.7L291,182l-18.588,46.47C267.052,241.869,260.42,254.497,252.699,266.248"/>
	<path clip-path="url(#SVGID_2_)" fill="#905502" d="M291,2L291,2z"/>
	<polygon clip-path="url(#SVGID_2_)" fill="#905502" points="342.945,131.864 378.983,41.958 363,2 327,92 	"/>
	<path clip-path="url(#SVGID_2_)" fill="#F7931E" d="M363,2h-40h-32l-83.581,200.473c-10.612,26.53-28.728,49.021-52.39,65.04
		c-14.459,9.789-30.395,16.76-47.122,20.699L219,2h-40h-32L3,362h72.184c72.428,0,138.766-36.775,177.515-95.752
		c7.721-11.751,14.353-24.378,19.713-37.778L363,2z"/>
</g>
<g>
	<defs>
		<rect id="SVGID_3_" x="-45" y="-118" width="600" height="600"/>
	</defs>
	<clipPath id="SVGID_4_">
		<use xlink:href="#SVGID_3_"  overflow="visible"/>
	</clipPath>
</g>
</svg>
