<?xml version="1.0" encoding="utf-8"?>
<!-- Generator: Adobe Illustrator 15.0.0, SVG Export Plug-In . SVG Version: 6.00 Build 0)  -->
<!DOCTYPE svg PUBLIC "-//W3C//DTD SVG 1.1//EN" "http://www.w3.org/Graphics/SVG/1.1/DTD/svg11.dtd">
<svg version="1.1" id="Layer_1" xmlns="http://www.w3.org/2000/svg" xmlns:xlink="http://www.w3.org/1999/xlink" x="0px" y="0px"
	 width="114px" height="47px" viewBox="0 0 114 47" enable-background="new 0 0 114 47" xml:space="preserve">
<title>Page 1</title>
<g>
	<g>
		<defs>
			<filter id="Adobe_OpacityMaskFilter" filterUnits="userSpaceOnUse" x="0" y="0.076" width="113.8" height="46.924">
				<feColorMatrix  type="matrix" values="1 0 0 0 0  0 1 0 0 0  0 0 1 0 0  0 0 0 1 0"/>
			</filter>
		</defs>
		<mask maskUnits="userSpaceOnUse" x="0" y="0.076" width="113.8" height="46.924" id="b">
			<g filter="url(#Adobe_OpacityMaskFilter)">
				<path id="a" fill="#FFFFFF" d="M0,0.076h113.801V47H0.001L0,0.076z"/>
			</g>
		</mask>
		<path mask="url(#b)" fill="#9A9CA5" d="M111.005,6.803c-0.571-1.357-1.151-2.688-1.69-4.035c-0.228-0.575-0.603-0.696-1.18-0.698
			c-21.794-0.063-43.586-0.15-65.38-0.207c-1.703-0.004-3.42,0.08-5.103,0.322c-0.648,0.093-1.385,0.619-1.777,1.169
			c-0.444,0.622-0.654,1.477-0.764,2.26c-0.109,0.774-0.503,1.13-1.165,1.219c-1.143,0.155-1.759,0.853-2.231,1.849
			c-0.756,1.591-1.673,1.953-3.135,1.088c-0.936-0.554-1.473-0.334-2.125,0.377c-1.12,1.22-2.405,1.932-4.176,1.382
			c-0.463-0.143-1.227,0.135-1.634,0.482c-1.051,0.895-1.932,1.99-2.969,2.906c-2.441,2.158-5.238,3.62-8.549,3.566
			c-1.438-0.023-2.374,0.514-3.083,1.622c-0.45,0.702-0.85,1.454-1.146,2.234c-0.36,0.946-0.862,1.323-1.808,0.802
			c-0.58-0.32-0.876-0.101-0.996,0.507c-0.057,0.285-0.162,0.56-0.222,0.846c-0.27,1.275-0.222,1.34,1.034,1.342
			c3.56,0.006,7.126-0.125,10.678,0.049c3.497,0.17,6.764-0.5,9.938-1.896c0.62-0.272,1.318-0.53,1.976-0.522
			c4.755,0.06,9.51,0.292,14.263,0.263c3.913-0.024,6.654,1.484,7.928,5.31c0.26,0.784,0.723,0.942,1.46,0.951
			c3.92,0.047,7.843,0.104,11.762,0.25c0.647,0.024,1.425,0.36,1.896,0.813c3.572,3.441,7.111,6.918,10.616,10.43
			c1.13,1.13,2.157,2.363,3.229,3.55c0.08-0.181,0.158-0.361,0.236-0.542c1.153-0.158,2.303-0.338,3.461-0.467
			c0.756-0.084,1.529-0.032,2.274-0.161c0.329-0.058,0.692-0.354,0.894-0.645c0.851-1.229,1.623-2.514,2.469-3.747
			c3.756-5.481,8.882-8.503,15.533-8.771c0.242-0.01,0.562-0.03,0.705-0.18c0.851-0.898,1.696-1.807,2.467-2.773
			c0.422-0.529,0.062-0.842-0.493-0.803c-0.571,0.041-1.138,0.193-1.7,0.322c-0.936,0.215-1.465-0.334-1.195-1.259
			c0.176-0.596,0.346-1.194,0.533-1.786c0.178-0.565,0.061-0.861-0.586-1c-0.564-0.125-1.098-0.364-1.568-0.701
			c-1.058-0.76-1.604-2.603-1.17-3.647c0.396-0.948,1.609-1.43,3.149-1.05c1.29,0.317,2.543,0.803,3.788,1.28
			c0.863,0.33,1.688,0.772,2.64,1.216c0.08-1.774,1.486-2.337,2.513-3.225c1.742-1.507,1.795-2.28,0.275-4.049
			c-2.156,1.479-2.845,1.27-3.84-1.204c-0.412-0.032-0.846-0.042-1.271-0.105c-0.943-0.14-1.64-0.605-1.824-1.611
			c-0.186-1.002,0.281-1.66,1.119-2.163c1.744-1.045,3.485-1.988,5.578-0.996C110.659,6.978,110.702,6.942,111.005,6.803
			 M105.814,9.916c0.547,0,1.103,0.061,1.64-0.011c1.517-0.206,1.696-0.046,1.526,1.514c-0.017,0.164,0.031,0.334,0.067,0.674
			c0.525-0.426,0.923-0.781,1.353-1.092c1.086-0.785,1.93-0.441,2.265,0.848c0.153,0.593,0.373,1.188,0.675,1.717
			c0.682,1.195,0.602,2.32-0.199,3.387c-0.414,0.55-0.873,1.092-1.402,1.524c-0.957,0.778-1.924,1.434-2.137,2.858
			c-0.146,0.966-1.008,1.204-1.99,0.759c-1.192-0.539-2.332-1.205-3.549-1.67c-1.189-0.456-2.449-0.727-3.777-1.107
			c-0.153,1.35,0.32,1.913,1.25,2.153c2.279,0.59,2.402,0.787,2.031,3.261c-0.014,0.1,0.023,0.205,0.037,0.307
			c0.582,0.109,1.17,0.141,1.699,0.335c1.373,0.503,1.932,1.944,1.068,3.095c-1.025,1.364-2.234,2.59-3.414,3.829
			c-0.208,0.218-0.66,0.28-1,0.279c-5.712-0.027-10.242,2.358-13.713,6.86c-0.958,1.241-1.824,2.559-2.678,3.877
			c-0.308,0.477-0.391,1.1-0.689,1.584c-0.197,0.319-0.58,0.699-0.906,0.728c-1.476,0.13-2.967,0.094-4.441,0.226
			c-0.532,0.047-1.104,0.303-1.543,0.623c-1.059,0.776-1.655,0.717-2.443-0.32c-0.35-0.463-0.786-0.861-1.201-1.271
			c-4.16-4.095-8.31-8.202-12.511-12.254c-0.413-0.397-1.144-0.621-1.735-0.64c-3.958-0.129-7.917-0.2-11.875-0.236
			c-0.957-0.009-1.555-0.257-1.85-1.263c-1.033-3.509-3.272-5.101-7.022-4.99c-4.53,0.134-9.071-0.19-13.608-0.226
			c-0.793-0.006-1.627,0.354-2.376,0.692c-2.942,1.334-6.006,1.812-9.222,1.722c-3.92-0.109-7.845-0.041-11.768-0.061
			c-1.637-0.009-2.519-0.921-2.354-2.57c0.09-0.899,0.362-1.79,0.63-2.659c0.272-0.88,0.965-1.325,1.845-1.203
			c0.728,0.1,1.006-0.218,1.318-0.787c0.437-0.795,0.936-1.574,1.52-2.264c0.783-0.924,1.824-1.512,3.057-1.441
			c3.72,0.212,6.541-1.58,9.073-4.042c0.627-0.61,1.205-1.272,1.807-1.909c0.953-1.009,2.077-1.473,3.442-1.017
			c0.914,0.305,1.668,0.035,2.265-0.632c1.393-1.56,2.883-2.305,4.754-0.58c0.349-0.62,0.545-1.142,0.888-1.535
			c0.494-0.566,1.015-1.244,1.668-1.5c0.946-0.37,1.355-1.032,1.611-1.883c0.725-2.405,1.569-3.184,4.11-3.285
			c3.847-0.153,7.697-0.254,11.545-0.243c19.69,0.051,39.378,0.155,59.066,0.2c1.113,0.002,1.764,0.333,2.152,1.372
			c0.562,1.504,1.317,2.946,1.76,4.482c0.595,2.069-0.598,3.276-2.579,2.526C108.195,7.992,107.098,9.001,105.814,9.916"/>
	</g>
	<path fill="#EC2059" d="M75.146,9h0.67c0.015,0.005,0.031,0.014,0.047,0.016c0.56,0.05,1.082,0.23,1.574,0.499
		c0.652,0.358,1.239,0.813,1.789,1.323c0.092,0.086,0.182,0.175,0.273,0.264l0.044-0.04c0.425-0.425,0.888-0.811,1.382-1.152
		c0.571-0.407,1.188-0.708,1.872-0.847C82.926,9.037,83.057,9.021,83.186,9h0.668c0.154,0.018,0.31,0.034,0.465,0.053
		c0.529,0.058,1.043,0.212,1.517,0.456c1.326,0.703,1.97,1.869,2.13,3.358L88,13.216v0.635c-0.007,0.054-0.016,0.109-0.021,0.163
		c-0.066,0.564-0.225,1.114-0.472,1.627c-0.424,0.893-1.017,1.658-1.706,2.344c-1.955,1.948-3.918,3.887-5.878,5.83
		c-0.251,0.25-0.599,0.246-0.851-0.004c-1.116-1.108-2.23-2.217-3.348-3.324c-0.891-0.882-1.785-1.76-2.673-2.646
		c-0.456-0.457-0.84-0.977-1.188-1.523c-0.377-0.599-0.643-1.262-0.783-1.956c-0.035-0.169-0.055-0.34-0.08-0.511v-0.653
		c0.005-0.028,0.012-0.056,0.016-0.085c0.041-0.301,0.062-0.608,0.127-0.904c0.414-1.872,1.803-2.94,3.529-3.155
		C74.831,9.034,74.988,9.018,75.146,9"/>
</g>
</svg>
