<?xml version="1.0" encoding="utf-8"?>
<!-- Generator: Adobe Illustrator 15.0.2, SVG Export Plug-In  -->
<!DOCTYPE svg PUBLIC "-//W3C//DTD SVG 1.1//EN" "http://www.w3.org/Graphics/SVG/1.1/DTD/svg11.dtd" [
	<!ENTITY ns_flows "http://ns.adobe.com/Flows/1.0/">
]>
<svg version="1.1"
	 xmlns="http://www.w3.org/2000/svg" xmlns:xlink="http://www.w3.org/1999/xlink" xmlns:a="http://ns.adobe.com/AdobeSVGViewerExtensions/3.0/"
	 x="0px" y="0px" width="620px" height="620px" viewBox="-59.941 -61.105 620 620"
	 overflow="visible" enable-background="new -59.941 -61.105 620 620" xml:space="preserve">
<defs>
</defs>
<path fill="#1E1E1E" d="M498.463,249.833c0,4.115-12.242,7.905-12.444,11.97c-0.206,4.108,11.597,9.098,11.19,13.15
	c-0.412,4.09-12.973,6.631-13.586,10.658c-0.617,4.063,10.623,10.223,9.807,14.217c-0.823,4.023-13.579,5.275-14.598,9.225
	c-1.027,3.975,9.525,11.246,8.305,15.139c-1.227,3.916-14.043,3.862-15.461,7.688c-1.426,3.848,8.331,12.156,6.721,15.907
	c-1.621,3.769-14.363,2.409-16.164,6.075c-1.809,3.678,7.054,12.935,5.066,16.507c-1.992,3.579-14.532,0.935-16.697,4.401
	c-2.169,3.475,5.709,13.584,3.371,16.937c-2.344,3.359-14.552-0.539-17.059,2.692c-2.507,3.234,4.312,14.088,1.646,17.189
	c-2.668,3.105-14.421-2.004-17.242,0.961c-2.819,2.966,2.875,14.447-0.091,17.268c-2.964,2.82-14.146-3.445-17.251-0.777
	c-3.102,2.665,1.408,14.662-1.829,17.171c-3.231,2.505-13.726-4.853-17.083-2.511c-3.354,2.338-0.077,14.729-3.552,16.899
	c-3.466,2.164-13.163-6.216-16.743-4.224c-3.57,1.986-1.565,14.645-5.244,16.451c-3.666,1.803-12.46-7.519-16.228-5.9
	c-3.751,1.613-3.042,14.408-6.89,15.834c-3.826,1.418-11.627-8.75-15.543-7.521c-3.893,1.219-4.493,14.021-8.467,15.049
	c-3.949,1.019-10.672-9.893-14.695-9.069c-3.994,0.816-5.894,13.491-9.957,14.108c-4.027,0.611-9.607-10.926-13.697-10.514
	c-4.053,0.406-7.223,12.825-11.332,13.029c-4.064,0.203-8.458-11.836-12.575-11.836c-4.115,0-8.509,12.039-12.574,11.836
	c-4.108-0.204-7.28-12.623-11.331-13.029c-4.091-0.412-9.671,11.125-13.7,10.514c-4.062-0.617-5.962-13.292-9.956-14.108
	c-4.024-0.823-10.747,10.086-14.696,9.067c-3.975-1.025-4.575-13.829-8.468-15.049c-3.916-1.227-11.715,8.939-15.543,7.521
	c-3.846-1.426-3.137-14.221-6.889-15.833c-3.768-1.618-12.563,7.702-16.229,5.9c-3.679-1.809-1.673-14.466-5.244-16.452
	c-3.581-1.992-13.277,6.389-16.743,4.223c-3.474-2.17-0.197-14.561-3.551-16.898c-3.359-2.343-13.852,5.015-17.084,2.512
	c-3.236-2.51,1.273-14.506-1.829-17.172c-3.104-2.668-14.285,3.596-17.25,0.777c-2.966-2.82,2.728-14.303-0.093-17.268
	c-2.819-2.965-14.573,2.143-17.241-0.963c-2.666-3.102,4.154-13.952,1.646-17.188c-2.505-3.231-14.714,0.666-17.056-2.692
	c-2.338-3.354,5.54-13.461,3.371-16.936c-2.166-3.466-14.706-0.822-16.697-4.402c-1.986-3.57,6.875-12.828,5.068-16.508
	c-1.802-3.665-14.545-2.307-16.164-6.072c-1.612-3.752,8.145-12.06,6.72-15.908c-1.418-3.824-14.234-3.772-15.461-7.688
	c-1.22-3.893,9.333-11.163,8.307-15.138c-1.02-3.948-13.774-5.2-14.597-9.226c-0.816-3.992,10.421-10.151,9.805-14.215
	c-0.612-4.027-13.174-6.567-13.585-10.658c-0.407-4.051,11.396-9.042,11.191-13.15c-0.203-4.064-12.446-7.854-12.446-11.97
	s12.243-7.904,12.446-11.969c0.205-4.108-11.598-9.099-11.191-13.151c0.411-4.091,12.973-6.631,13.585-10.659
	c0.617-4.063-10.621-10.221-9.805-14.215c0.823-4.023,13.578-5.276,14.597-9.225c1.026-3.975-9.527-11.246-8.307-15.139
	c1.228-3.916,14.044-3.862,15.461-7.689c1.425-3.846-8.332-12.153-6.719-15.906c1.619-3.767,14.362-2.409,16.164-6.074
	c1.808-3.679-7.053-12.937-5.067-16.508c1.992-3.581,14.532-0.935,16.697-4.402c2.17-3.474-5.708-13.582-3.37-16.936
	c2.342-3.359,14.551,0.54,17.056-2.692c2.508-3.236-4.311-14.086-1.645-17.189c2.668-3.104,14.422,2.003,17.241-0.961
	c2.82-2.966-2.874-14.448,0.092-17.268c2.965-2.819,14.146,3.445,17.25,0.778c3.102-2.666-1.407-14.662,1.829-17.17
	c3.232-2.506,13.725,4.853,17.084,2.51c3.354-2.339,0.077-14.729,3.551-16.898c3.467-2.166,13.162,6.214,16.743,4.224
	c3.571-1.986,1.565-14.645,5.245-16.452c3.665-1.802,12.46,7.519,16.227,5.899c3.751-1.612,3.043-14.408,6.89-15.833
	c3.826-1.417,11.626,8.75,15.542,7.523c3.894-1.22,4.494-14.022,8.468-15.049c3.948-1.019,10.67,9.892,14.695,9.069
	c3.993-0.817,5.893-13.491,9.955-14.108c4.028-0.612,9.609,10.924,13.699,10.513c4.052-0.407,7.223-12.825,11.331-13.03
	c4.065-0.203,8.459,11.835,12.574,11.835c4.117,0,8.51-12.038,12.575-11.835c4.107,0.205,7.279,12.623,11.332,13.03
	c4.09,0.411,9.671-11.125,13.699-10.513c4.062,0.617,5.963,13.292,9.955,14.108c4.023,0.823,10.748-10.087,14.697-9.068
	c3.975,1.026,4.574,13.829,8.467,15.048c3.915,1.228,11.715-8.94,15.543-7.522c3.847,1.425,3.139,14.222,6.891,15.833
	c3.766,1.619,12.562-7.701,16.228-5.9c3.679,1.808,1.673,14.466,5.244,16.452c3.58,1.992,13.276-6.388,16.743-4.223
	c3.473,2.17,0.197,14.56,3.551,16.899c3.359,2.342,13.852-5.016,17.084-2.511c3.236,2.509-1.273,14.505,1.829,17.171
	c3.104,2.667,14.284-3.597,17.249-0.777c2.967,2.819-2.727,14.303,0.094,17.268c2.819,2.965,14.573-2.143,17.24,0.962
	c2.666,3.103-4.153,13.952-1.645,17.188c2.505,3.232,14.715-0.666,17.057,2.694c2.337,3.354-5.541,13.461-3.371,16.936
	c2.165,3.467,14.705,0.821,16.697,4.402c1.986,3.571-6.875,12.829-5.068,16.508c1.803,3.666,14.545,2.307,16.166,6.074
	c1.609,3.751-8.146,12.059-6.723,15.905c1.42,3.827,14.234,3.773,15.463,7.688c1.219,3.893-9.334,11.164-8.307,15.138
	c1.019,3.949,13.774,5.202,14.598,9.225c0.816,3.993-10.424,10.152-9.807,14.215c0.613,4.028,13.174,6.567,13.586,10.658
	c0.406,4.052-11.396,9.043-11.19,13.151C486.221,241.929,498.463,245.718,498.463,249.833z"/>
<path fill="#F2AA1D" d="M262.606,499.666c-2.943,0-5.245-3.236-7.679-6.66c-1.375-1.937-3.68-5.177-4.786-5.177
	c-1.105,0-3.408,3.24-4.784,5.177c-2.488,3.502-4.817,6.813-7.88,6.656c-3.075-0.154-5.097-3.703-7.239-7.462
	c-1.166-2.046-3.116-5.468-4.184-5.575c-1.088-0.121-3.712,2.88-5.274,4.668c-2.83,3.235-5.502,6.293-8.517,5.834
	c-3.041-0.462-4.694-4.196-6.444-8.15c-0.953-2.154-2.549-5.76-3.604-5.975c-1.087-0.229-3.98,2.488-5.714,4.105
	c-3.146,2.934-6.122,5.705-9.072,4.941c-2.976-0.768-4.239-4.648-5.577-8.758c-0.73-2.24-1.951-5.993-2.981-6.316
	c-1.047-0.322-4.207,2.066-6.095,3.498c-3.431,2.6-6.671,5.057-9.536,3.995c-2.879-1.067-3.74-5.054-4.651-9.274
	c-0.498-2.307-1.331-6.167-2.325-6.594c-1.004-0.428-4.391,1.626-6.415,2.857c-3.68,2.238-7.155,4.352-9.899,3.002
	c-2.753-1.352-3.204-5.404-3.681-9.693c-0.26-2.346-0.697-6.273-1.645-6.8c-0.955-0.529-4.529,1.173-6.666,2.19
	c-3.889,1.855-7.562,3.606-10.157,1.984c-2.6-1.623-2.638-5.699-2.678-10.013c-0.022-2.362-0.059-6.315-0.949-6.937
	c-0.895-0.623-4.623,0.711-6.85,1.507c-4.058,1.453-7.89,2.823-10.309,0.95c-2.422-1.879-2.049-5.936-1.654-10.23
	c0.216-2.354,0.579-6.291-0.246-7c-0.828-0.709-4.668,0.242-6.962,0.811c-4.185,1.037-8.138,2.016-10.357-0.094
	c-2.219-2.111-1.44-6.108-0.616-10.34c0.453-2.32,1.208-6.203,0.459-6.993c-0.749-0.788-4.666-0.228-7.005,0.106
	c-4.269,0.611-8.301,1.188-10.297-1.137c-1.995-2.322-0.818-6.219,0.427-10.344c0.684-2.266,1.828-6.055,1.16-6.916
	c-0.666-0.857-4.615-0.694-6.977-0.599c-4.311,0.179-8.381,0.346-10.134-2.169c-1.75-2.508-0.187-6.268,1.468-10.246
	c0.908-2.184,2.429-5.84,1.851-6.765c-0.575-0.921-4.52-1.157-6.876-1.299c-4.308-0.259-8.376-0.503-9.867-3.185
	c-1.487-2.672,0.448-6.252,2.497-10.039c1.125-2.082,3.01-5.566,2.528-6.549c-0.478-0.973-4.376-1.607-6.706-1.988
	c-4.261-0.693-8.286-1.35-9.498-4.17c-1.207-2.809,1.082-6.17,3.503-9.73c1.333-1.958,3.562-5.234,3.182-6.263
	c-0.375-1.013-4.187-2.041-6.463-2.655c-4.17-1.127-8.109-2.189-9.028-5.12c-0.914-2.913,1.704-6.024,4.476-9.317
	c1.526-1.813,4.081-4.848,3.806-5.911c-0.27-1.044-3.952-2.454-6.153-3.297c-4.037-1.546-7.849-3.006-8.465-6.019
	c-0.611-2.988,2.308-5.814,5.397-8.806c1.704-1.648,4.557-4.411,4.392-5.5c-0.162-1.063-3.68-2.839-5.782-3.899
	c-3.86-1.947-7.507-3.789-7.814-6.851c-0.305-3.032,2.882-5.546,6.255-8.207c1.864-1.472,4.983-3.933,4.929-5.036
	c-0.053-1.07-3.373-3.188-5.356-4.453C3.445,255.111,0,252.913,0,249.833c0-3.079,3.445-5.278,7.092-7.605
	c1.983-1.266,5.303-3.384,5.356-4.455c0.055-1.103-3.064-3.563-4.929-5.034c-3.374-2.662-6.56-5.176-6.255-8.208
	c0.308-3.062,3.954-4.902,7.814-6.851c2.102-1.061,5.621-2.837,5.782-3.9c0.165-1.089-2.687-3.85-4.392-5.5
	c-3.09-2.991-6.008-5.816-5.396-8.806c0.615-3.012,4.428-4.472,8.464-6.018c2.201-0.843,5.884-2.254,6.153-3.298
	c0.275-1.063-2.28-4.098-3.806-5.912c-2.771-3.292-5.389-6.402-4.475-9.316c0.919-2.931,4.858-3.994,9.029-5.12
	c2.277-0.615,6.087-1.643,6.462-2.657c0.381-1.027-1.849-4.304-3.181-6.262c-2.422-3.559-4.71-6.921-3.504-9.729
	c1.212-2.82,5.237-3.477,9.499-4.172c2.329-0.38,6.227-1.016,6.704-1.987c0.482-0.981-1.402-4.467-2.527-6.548
	c-2.049-3.79-3.984-7.368-2.498-10.042c1.491-2.679,5.56-2.924,9.868-3.182c2.357-0.142,6.301-0.378,6.877-1.299
	c0.578-0.926-0.943-4.582-1.851-6.767c-1.655-3.978-3.218-7.736-1.468-10.246c1.753-2.514,5.824-2.348,10.134-2.168
	c2.36,0.098,6.311,0.26,6.976-0.598c0.668-0.862-0.476-4.651-1.16-6.916c-1.245-4.126-2.422-8.023-0.427-10.345
	c1.997-2.324,6.029-1.747,10.297-1.137c2.34,0.335,6.256,0.896,7.005,0.107c0.75-0.79-0.006-4.673-0.458-6.993
	c-0.825-4.231-1.604-8.229,0.615-10.339c2.22-2.109,6.171-1.13,10.355-0.094c2.295,0.569,6.138,1.521,6.963,0.811
	c0.825-0.708,0.463-4.647,0.246-7c-0.395-4.295-0.768-8.352,1.655-10.229c2.418-1.875,6.251-0.503,10.309,0.949
	c2.227,0.797,5.955,2.131,6.849,1.507c0.891-0.621,0.928-4.574,0.949-6.936c0.041-4.314,0.078-8.389,2.679-10.014
	c2.593-1.621,6.268,0.13,10.157,1.985c2.137,1.018,5.712,2.724,6.666,2.191c0.947-0.526,1.384-4.453,1.645-6.799
	c0.478-4.29,0.928-8.342,3.682-9.695c2.743-1.349,6.219,0.765,9.897,3.003c2.022,1.23,5.408,3.292,6.414,2.858
	c0.995-0.427,1.827-4.286,2.325-6.592c0.911-4.222,1.772-8.209,4.651-9.276c2.864-1.062,6.104,1.395,9.535,3.995
	c1.889,1.431,5.051,3.828,6.095,3.498c1.03-0.323,2.252-4.074,2.982-6.316c1.338-4.109,2.601-7.99,5.576-8.758
	c2.957-0.764,5.927,2.009,9.072,4.943c1.733,1.617,4.637,4.32,5.713,4.104c1.055-0.215,2.651-3.821,3.604-5.975
	c1.75-3.954,3.402-7.688,6.443-8.15c3.016-0.459,5.687,2.599,8.517,5.835c1.562,1.787,4.167,4.787,5.273,4.667
	c1.068-0.107,3.018-3.53,4.184-5.575c2.141-3.759,4.164-7.309,7.238-7.462c3.058-0.162,5.392,3.155,7.88,6.656
	c1.376,1.936,3.68,5.176,4.785,5.176c1.106,0,3.411-3.241,4.785-5.176c2.489-3.501,4.822-6.817,7.881-6.656
	c3.074,0.153,5.097,3.703,7.239,7.462c1.164,2.044,3.115,5.467,4.184,5.575c1.115,0.103,3.712-2.88,5.273-4.667
	c2.83-3.236,5.502-6.295,8.517-5.835c3.041,0.462,4.693,4.196,6.444,8.15c0.953,2.154,2.55,5.759,3.604,5.974
	c1.076,0.222,3.98-2.486,5.714-4.103c3.146-2.934,6.118-5.706,9.072-4.943c2.976,0.769,4.24,4.65,5.578,8.759
	c0.728,2.242,1.95,5.993,2.98,6.315c1.047,0.331,4.206-2.066,6.095-3.498c3.43-2.6,6.672-5.053,9.534-3.994
	c2.88,1.066,3.741,5.054,4.651,9.275c0.498,2.305,1.332,6.165,2.327,6.592c1.001,0.434,4.39-1.627,6.412-2.858
	c3.681-2.238,7.157-4.352,9.899-3.003c2.754,1.354,3.204,5.406,3.681,9.695c0.262,2.346,0.698,6.273,1.646,6.8
	c0.953,0.53,4.528-1.173,6.666-2.192c3.889-1.854,7.562-3.605,10.156-1.984c2.602,1.624,2.639,5.699,2.68,10.013
	c0.021,2.362,0.058,6.315,0.948,6.936c0.897,0.624,4.624-0.71,6.851-1.507c4.055-1.452,7.889-2.824,10.309-0.949
	c2.422,1.877,2.049,5.934,1.652,10.229c-0.217,2.353-0.578,6.292,0.247,7c0.827,0.71,4.669-0.242,6.963-0.81
	c4.184-1.037,8.136-2.015,10.356,0.094c2.219,2.11,1.439,6.108,0.615,10.34c-0.452,2.32-1.209,6.204-0.459,6.993
	c0.75,0.789,4.666,0.228,7.006-0.107c4.269-0.609,8.299-1.187,10.297,1.136c1.995,2.322,0.818,6.219-0.429,10.345
	c-0.683,2.264-1.827,6.053-1.159,6.915c0.666,0.859,4.617,0.696,6.977,0.599c4.312-0.177,8.382-0.346,10.135,2.169
	c1.75,2.51,0.186,6.268-1.468,10.246c-0.909,2.185-2.431,5.84-1.851,6.767c0.573,0.92,4.519,1.157,6.875,1.298
	c4.308,0.259,8.377,0.503,9.868,3.183c1.486,2.673-0.45,6.252-2.497,10.041c-1.126,2.083-3.011,5.567-2.527,6.548
	c0.479,0.972,4.375,1.607,6.705,1.988c4.262,0.695,8.286,1.351,9.496,4.171c1.207,2.808-1.081,6.169-3.504,9.729
	c-1.331,1.958-3.562,5.235-3.181,6.263c0.376,1.013,4.187,2.042,6.462,2.656c4.172,1.125,8.11,2.189,9.029,5.12
	c0.913,2.915-1.703,6.024-4.475,9.316c-1.527,1.813-4.082,4.848-3.807,5.911c0.271,1.044,3.953,2.455,6.153,3.298
	c4.036,1.545,7.849,3.005,8.464,6.018c0.611,2.989-2.307,5.814-5.396,8.806c-1.705,1.65-4.558,4.412-4.392,5.5
	c0.16,1.062,3.68,2.838,5.781,3.899c3.861,1.949,7.508,3.789,7.816,6.851c0.303,3.032-2.883,5.546-6.256,8.208
	c-1.864,1.471-4.985,3.932-4.93,5.034c0.053,1.071,3.373,3.189,5.357,4.455c3.646,2.328,7.091,4.526,7.091,7.605
	c0,3.08-3.446,5.278-7.093,7.606c-1.982,1.266-5.303,3.383-5.355,4.453c-0.056,1.104,3.065,3.564,4.93,5.035
	c3.373,2.66,6.559,5.176,6.256,8.207c-0.309,3.062-3.955,4.902-7.816,6.852c-2.102,1.061-5.621,2.836-5.781,3.899
	c-0.166,1.089,2.687,3.852,4.392,5.502c3.089,2.991,6.009,5.815,5.396,8.806c-0.615,3.011-4.428,4.471-8.464,6.018
	c-2.2,0.843-5.883,2.254-6.152,3.297c-0.276,1.064,2.278,4.1,3.806,5.913c2.77,3.292,5.387,6.402,4.475,9.315
	c-0.919,2.932-4.859,3.995-9.029,5.12c-2.275,0.614-6.087,1.644-6.462,2.657c-0.381,1.027,1.849,4.305,3.181,6.262
	c2.423,3.561,4.71,6.924,3.502,9.731c-1.209,2.819-5.234,3.476-9.496,4.17c-2.329,0.38-6.227,1.016-6.705,1.987
	c-0.482,0.982,1.402,4.467,2.527,6.549c2.048,3.789,3.984,7.368,2.498,10.04c-1.492,2.682-5.561,2.927-9.868,3.185
	c-2.356,0.141-6.302,0.378-6.878,1.297c-0.577,0.927,0.942,4.584,1.854,6.77c1.653,3.977,3.216,7.735,1.467,10.244
	c-1.754,2.514-5.824,2.346-10.135,2.168c-2.359-0.096-6.311-0.26-6.977,0.598c-0.668,0.862,0.477,4.651,1.16,6.915
	c1.246,4.127,2.422,8.026,0.428,10.347c-1.998,2.324-6.029,1.747-10.297,1.137c-2.341-0.336-6.256-0.896-7.006-0.107
	c-0.752,0.789,0.006,4.672,0.459,6.992c0.824,4.232,1.602,8.23-0.615,10.34c-2.22,2.111-6.172,1.131-10.357,0.094
	c-2.295-0.568-6.139-1.521-6.963-0.809c-0.824,0.707-0.462,4.646-0.245,6.998c0.394,4.297,0.767,8.354-1.655,10.23
	c-2.419,1.875-6.251,0.503-10.308-0.949c-2.228-0.797-5.953-2.131-6.851-1.507c-0.891,0.62-0.927,4.574-0.949,6.937
	c-0.041,4.314-0.078,8.39-2.679,10.014c-2.593,1.618-6.267-0.131-10.155-1.984c-2.137-1.02-5.712-2.721-6.666-2.193
	c-0.948,0.527-1.385,4.455-1.646,6.801c-0.477,4.289-0.928,8.342-3.681,9.695c-2.743,1.346-6.218-0.766-9.897-3.004
	c-2.023-1.23-5.404-3.293-6.414-2.858c-0.994,0.427-1.828,4.286-2.325,6.593c-0.911,4.221-1.772,8.209-4.651,9.275
	c-2.864,1.061-6.104-1.394-9.535-3.994c-1.889-1.432-5.053-3.819-6.095-3.498c-1.03,0.323-2.253,4.074-2.981,6.316
	c-1.337,4.109-2.602,7.988-5.576,8.758c-2.955,0.76-5.926-2.01-9.072-4.943c-1.734-1.619-4.639-4.343-5.713-4.105
	c-1.055,0.215-2.65,3.82-3.605,5.975c-1.749,3.954-3.401,7.688-6.443,8.15c-3.02,0.46-5.688-2.599-8.516-5.834
	c-1.562-1.788-4.16-4.785-5.273-4.668c-1.068,0.108-3.018,3.531-4.184,5.575c-2.141,3.759-4.165,7.308-7.239,7.462
	C262.74,499.664,262.674,499.666,262.606,499.666z M250.142,484.184c2.987,0,5.303,3.26,7.756,6.711
	c1.276,1.797,3.645,5.128,4.703,5.128c0.009,0,0.016,0,0.025,0c1.078-0.054,3.145-3.679,4.254-5.628
	c2.08-3.651,4.046-7.101,6.986-7.396c2.963-0.297,5.596,2.709,8.38,5.894c1.464,1.675,4.206,4.777,5.226,4.631
	c1.064-0.16,2.753-3.974,3.659-6.021c1.702-3.846,3.311-7.479,6.208-8.07c2.922-0.594,5.836,2.127,8.927,5.01
	c1.627,1.519,4.655,4.342,5.676,4.08c1.04-0.268,2.329-4.229,3.022-6.358c1.303-4.001,2.533-7.78,5.355-8.663
	c2.842-0.894,6.02,1.52,9.387,4.068c1.774,1.346,5.078,3.852,6.067,3.482c1.005-0.372,1.884-4.441,2.355-6.627
	c0.888-4.115,1.728-8.003,4.449-9.172c2.733-1.174,6.14,0.898,9.745,3.092c1.904,1.158,5.445,3.312,6.397,2.847
	c0.959-0.47,1.42-4.605,1.667-6.827c0.465-4.186,0.905-8.141,3.495-9.582c2.599-1.445,6.197,0.271,10.007,2.09
	c2.012,0.957,5.758,2.742,6.656,2.182c0.906-0.565,0.945-4.723,0.965-6.957c0.041-4.215,0.076-8.195,2.511-9.891
	c2.437-1.699,6.188-0.357,10.161,1.064c2.1,0.752,6.006,2.151,6.848,1.5c0.844-0.653,0.463-4.791,0.258-7.016
	c-0.385-4.198-0.75-8.164,1.501-10.098c2.253-1.934,6.118-0.977,10.214,0.037c2.164,0.537,6.197,1.536,6.968,0.803
	c0.771-0.734-0.022-4.811-0.45-7.002c-0.807-4.139-1.568-8.049,0.478-10.201c2.045-2.15,5.987-1.586,10.163-0.99
	c2.21,0.318,6.323,0.904,7.018,0.098c0.691-0.805-0.508-4.782-1.154-6.918c-1.219-4.039-2.369-7.854-0.551-10.201
	c1.818-2.344,5.797-2.18,10.007-2.006c2.231,0.093,6.386,0.264,6.995-0.612c0.607-0.87-0.987-4.702-1.844-6.761
	c-1.619-3.896-3.15-7.576-1.576-10.098c1.57-2.516,5.543-2.754,9.749-3.006c2.231-0.135,6.382-0.383,6.9-1.316
	c0.515-0.927-1.458-4.576-2.517-6.537c-2.01-3.713-3.905-7.221-2.593-9.889c1.306-2.658,5.231-3.3,9.39-3.978
	c2.205-0.358,6.312-1.028,6.735-2.013c0.417-0.971-1.915-4.398-3.169-6.24c-2.375-3.492-4.619-6.789-3.584-9.58
	c1.027-2.775,4.865-3.811,8.93-4.908c2.159-0.582,6.18-1.668,6.5-2.691c0.315-1.007-2.352-4.177-3.784-5.879
	c-2.722-3.233-5.292-6.287-4.548-9.172c0.74-2.863,4.451-4.283,8.38-5.789c2.091-0.801,5.981-2.291,6.196-3.344
	c0.211-1.031-2.764-3.91-4.361-5.457c-3.037-2.941-5.906-5.72-5.458-8.668c0.441-2.921,3.988-4.709,7.742-6.605
	c1.999-1.01,5.724-2.889,5.83-3.962c0.104-1.044-3.142-3.605-4.886-4.982c-3.322-2.62-6.461-5.097-6.312-8.077
	c0.148-2.949,3.494-5.084,7.036-7.344c1.892-1.207,5.409-3.452,5.409-4.534s-3.518-3.327-5.409-4.533
	c-3.542-2.26-6.888-4.396-7.036-7.346c-0.148-2.981,2.99-5.456,6.312-8.077c1.744-1.376,4.99-3.938,4.886-4.983
	c-0.106-1.072-3.831-2.951-5.83-3.96c-3.754-1.894-7.301-3.684-7.742-6.605c-0.448-2.947,2.421-5.725,5.458-8.666
	c1.598-1.547,4.572-4.427,4.36-5.458c-0.214-1.053-4.104-2.543-6.195-3.345c-3.929-1.504-7.64-2.925-8.38-5.789
	c-0.743-2.884,1.826-5.937,4.547-9.169c1.434-1.704,4.101-4.874,3.787-5.88c-0.322-1.023-4.343-2.109-6.502-2.691
	c-4.062-1.097-7.901-2.133-8.93-4.91c-1.033-2.79,1.21-6.087,3.586-9.579c1.252-1.841,3.585-5.269,3.169-6.24
	c-0.425-0.983-4.53-1.653-6.737-2.013c-4.156-0.678-8.082-1.318-9.39-3.977c-1.312-2.668,0.585-6.176,2.593-9.889
	c1.061-1.961,3.033-5.61,2.518-6.537c-0.518-0.933-4.67-1.183-6.899-1.316c-4.207-0.253-8.179-0.491-9.75-3.006
	c-1.573-2.521-0.043-6.201,1.579-10.097c0.855-2.059,2.449-5.891,1.844-6.762c-0.609-0.875-4.765-0.704-6.996-0.612
	c-4.212,0.173-8.19,0.336-10.008-2.008c-1.818-2.348-0.668-6.163,0.552-10.201c0.646-2.135,1.846-6.11,1.152-6.916
	c-0.694-0.808-4.808-0.22-7.018,0.096c-4.175,0.598-8.116,1.162-10.161-0.989c-2.047-2.152-1.284-6.062-0.478-10.202
	c0.426-2.19,1.221-6.269,0.448-7.002c-0.77-0.734-4.802,0.266-6.967,0.802c-4.096,1.015-7.962,1.972-10.215,0.037
	c-2.25-1.934-1.886-5.899-1.5-10.097c0.204-2.224,0.586-6.362-0.257-7.016c-0.841-0.652-4.748,0.749-6.847,1.5
	c-3.974,1.422-7.727,2.765-10.164,1.066c-2.432-1.697-2.469-5.677-2.508-9.892c-0.021-2.233-0.062-6.391-0.967-6.956
	c-0.898-0.562-4.645,1.224-6.656,2.184c-3.81,1.816-7.41,3.532-10.006,2.087c-2.592-1.441-3.029-5.396-3.496-9.583
	c-0.248-2.221-0.707-6.356-1.666-6.827c-0.951-0.465-4.494,1.688-6.397,2.847c-3.606,2.195-7.015,4.266-9.747,3.092
	c-2.721-1.169-3.559-5.057-4.449-9.171c-0.472-2.186-1.35-6.255-2.354-6.627c-0.993-0.369-4.294,2.137-6.067,3.481
	c-3.368,2.552-6.546,4.961-9.388,4.071c-2.822-0.885-4.054-4.665-5.356-8.666c-0.692-2.128-1.982-6.089-3.022-6.357
	c-1.028-0.263-4.049,2.562-5.676,4.079c-3.09,2.883-6.004,5.609-8.928,5.009c-2.897-0.592-4.505-4.224-6.208-8.07
	c-0.906-2.048-2.595-5.86-3.658-6.021c-1.022-0.158-3.763,2.957-5.227,4.631c-2.784,3.184-5.404,6.198-8.382,5.894
	c-2.938-0.295-4.904-3.745-6.986-7.397c-1.108-1.947-3.174-5.572-4.253-5.626c-0.009,0-0.017,0-0.024,0
	c-1.059,0-3.427,3.332-4.704,5.128c-2.452,3.45-4.769,6.71-7.755,6.71c-2.986,0-5.303-3.26-7.755-6.71
	c-1.287-1.81-3.651-5.181-4.729-5.128c-1.079,0.054-3.145,3.679-4.254,5.626c-2.082,3.652-4.047,7.102-6.986,7.397
	c-2.969,0.301-5.598-2.709-8.382-5.894c-1.463-1.673-4.192-4.788-5.226-4.631c-1.064,0.162-2.751,3.974-3.658,6.021
	c-1.702,3.846-3.31,7.479-6.206,8.071c-2.919,0.596-5.838-2.126-8.93-5.01c-1.626-1.518-4.647-4.338-5.675-4.08
	c-1.039,0.269-2.329,4.229-3.021,6.357c-1.303,4.001-2.533,7.781-5.356,8.667c-2.841,0.888-6.02-1.52-9.387-4.072
	c-1.774-1.345-5.077-3.849-6.068-3.481c-1.004,0.373-1.882,4.441-2.355,6.627c-0.888,4.115-1.727,8.002-4.448,9.171
	c-2.73,1.174-6.139-0.898-9.747-3.092c-1.904-1.158-5.448-3.313-6.396-2.846c-0.96,0.472-1.419,4.606-1.667,6.828
	c-0.466,4.186-0.906,8.141-3.496,9.581c-2.598,1.444-6.195-0.271-10.005-2.087c-2.013-0.959-5.758-2.744-6.658-2.183
	c-0.906,0.565-0.944,4.723-0.965,6.957c-0.039,4.214-0.076,8.194-2.509,9.891c-2.438,1.698-6.188,0.356-10.162-1.065
	c-2.1-0.751-6.008-2.15-6.848-1.5c-0.842,0.653-0.462,4.791-0.258,7.015c0.386,4.198,0.75,8.164-1.5,10.097
	c-2.251,1.936-6.12,0.978-10.214-0.037c-2.167-0.536-6.198-1.535-6.969-0.802c-0.771,0.733,0.023,4.811,0.451,7.001
	c0.807,4.14,1.568,8.049-0.477,10.201c-2.045,2.151-5.988,1.587-10.162,0.99c-2.21-0.315-6.323-0.904-7.018-0.096
	c-0.693,0.806,0.507,4.781,1.151,6.917c1.22,4.039,2.372,7.854,0.551,10.202c-1.817,2.345-5.796,2.18-10.006,2.007
	c-2.232-0.092-6.385-0.263-6.995,0.611c-0.607,0.871,0.987,4.703,1.843,6.762c1.621,3.896,3.152,7.577,1.578,10.097
	c-1.571,2.515-5.544,2.753-9.75,3.006c-2.23,0.134-6.381,0.382-6.901,1.316c-0.515,0.925,1.458,4.575,2.519,6.536
	c2.008,3.713,3.904,7.221,2.592,9.89c-1.307,2.659-5.232,3.298-9.389,3.977c-2.207,0.36-6.314,1.03-6.737,2.013
	c-0.418,0.972,1.915,4.399,3.168,6.24c2.376,3.492,4.62,6.789,3.586,9.579c-1.029,2.776-4.867,3.812-8.931,4.909
	c-2.16,0.583-6.18,1.668-6.5,2.691c-0.315,1.006,2.353,4.177,3.786,5.88c2.721,3.232,5.291,6.286,4.546,9.169
	c-0.74,2.865-4.45,4.286-8.379,5.791c-2.091,0.801-5.982,2.291-6.197,3.345c-0.211,1.031,2.764,3.911,4.361,5.457
	c3.038,2.941,5.907,5.719,5.459,8.666c-0.443,2.922-3.989,4.711-7.742,6.606c-2,1.01-5.723,2.889-5.831,3.962
	c-0.105,1.044,3.142,3.606,4.887,4.982c3.322,2.621,6.459,5.097,6.311,8.078c-0.147,2.949-3.493,5.084-7.036,7.345
	c-1.89,1.206-5.408,3.451-5.408,4.533s3.518,3.327,5.408,4.534c3.542,2.26,6.889,4.395,7.036,7.344
	c0.148,2.98-2.989,5.457-6.311,8.078c-1.744,1.377-4.992,3.939-4.886,4.982c0.107,1.072,3.831,2.951,5.831,3.961
	c3.753,1.896,7.299,3.685,7.742,6.606c0.448,2.947-2.421,5.726-5.459,8.665c-1.598,1.547-4.572,4.428-4.362,5.457
	c0.216,1.055,4.108,2.545,6.199,3.346c3.928,1.504,7.638,2.926,8.378,5.789c0.744,2.884-1.826,5.938-4.547,9.17
	c-1.434,1.703-4.101,4.873-3.786,5.879c0.32,1.023,4.34,2.107,6.5,2.691c4.064,1.098,7.902,2.133,8.931,4.91
	c1.034,2.789-1.21,6.088-3.586,9.578c-1.253,1.842-3.585,5.27-3.168,6.24c0.422,0.982,4.529,1.652,6.735,2.014
	c4.157,0.678,8.083,1.316,9.39,3.977c1.312,2.668-0.584,6.176-2.593,9.889c-1.06,1.961-3.033,5.609-2.518,6.535
	c0.52,0.934,4.67,1.184,6.901,1.317c4.206,0.254,8.178,0.492,9.749,3.007c1.575,2.52,0.043,6.2-1.577,10.096
	c-0.856,2.059-2.45,5.892-1.844,6.762c0.61,0.875,4.764,0.705,6.995,0.612c4.213-0.174,8.19-0.339,10.007,2.008
	c1.819,2.347,0.668,6.161-0.552,10.2c-0.645,2.136-1.845,6.11-1.152,6.916c0.694,0.809,4.807,0.22,7.018-0.096
	c4.173-0.598,8.117-1.16,10.161,0.99c2.046,2.15,1.284,6.061,0.478,10.2c-0.427,2.19-1.222,6.269-0.451,7.002
	c0.772,0.733,4.803-0.267,6.969-0.802c4.094-1.014,7.961-1.973,10.213-0.037c2.251,1.934,1.886,5.9,1.5,10.098
	c-0.205,2.223-0.585,6.361,0.258,7.016c0.841,0.65,4.748-0.748,6.848-1.5c3.972-1.422,7.724-2.765,10.162-1.066
	c2.433,1.697,2.47,5.677,2.509,9.892c0.021,2.233,0.06,6.392,0.965,6.958c0.897,0.564,4.646-1.224,6.658-2.184
	c3.809-1.816,7.407-3.531,10.005-2.088c2.59,1.441,3.03,5.395,3.496,9.583c0.247,2.222,0.707,6.356,1.666,6.827
	c0.95,0.469,4.494-1.688,6.397-2.846c3.608-2.195,7.014-4.269,9.748-3.094c2.721,1.171,3.561,5.057,4.449,9.173
	c0.472,2.187,1.35,6.255,2.354,6.626c0.989,0.369,4.293-2.135,6.068-3.48c3.367-2.551,6.549-4.962,9.386-4.07
	c2.824,0.883,4.054,4.664,5.357,8.665c0.692,2.128,1.982,6.089,3.022,6.358c1.018,0.254,4.047-2.562,5.675-4.081
	c3.091-2.882,6.011-5.603,8.93-5.009c2.896,0.592,4.504,4.225,6.207,8.07c0.906,2.048,2.594,5.861,3.658,6.021
	c1.046,0.148,3.763-2.958,5.226-4.631c2.784-3.185,5.419-6.191,8.382-5.894c2.939,0.295,4.904,3.744,6.986,7.396
	c1.109,1.949,3.175,5.574,4.254,5.628c0.008,0,0.016,0,0.024,0c1.059,0,3.427-3.331,4.704-5.128
	C244.839,487.443,247.156,484.184,250.142,484.184z"/>
<path fill="#020202" d="M250.144,478.572c-2.617,0-3.717-6.339-6.536-37.682c-1.251-13.914-2.949-32.793-4.681-35.445
	c-2.123,2.377-6.497,21.057-9.72,34.823c-7.099,30.319-9.044,36.369-11.602,36.017c-2.587-0.365-2.782-6.787-1.158-38.17
	c0.723-13.977,1.704-32.938,0.357-35.807c-2.433,2.052-9.404,19.896-14.541,33.045c-11.347,29.043-14.143,34.775-16.623,34.051
	c-2.503-0.73-1.782-7.105,4.292-37.898c2.712-13.75,6.391-32.402,5.463-35.436c-2.698,1.686-12.13,18.328-19.082,30.592
	c-15.394,27.162-18.983,32.438-21.338,31.367c-2.37-1.076-0.748-7.277,9.641-36.857c4.649-13.238,10.959-31.201,10.469-34.336
	c-2.907,1.287-14.6,16.399-23.216,27.54c-19.121,24.716-23.429,29.435-25.611,28.036c-2.19-1.4,0.294-7.303,14.766-35.083
	c6.489-12.456,15.293-29.358,15.252-32.531c-3.057,0.861-16.762,14.154-26.862,23.951c-22.449,21.773-27.386,25.839-29.351,24.142
	c-1.967-1.695,1.326-7.182,19.571-32.617c8.193-11.422,19.31-26.919,19.715-30.068c-3.146,0.423-18.583,11.637-29.96,19.9
	c-25.318,18.391-30.784,21.711-32.491,19.759c-1.706-1.955,2.328-6.917,23.976-29.498c9.736-10.155,22.945-23.933,23.79-26.994
	c-0.004,0-0.009,0-0.013,0c-3.208,0-20.034,8.886-32.44,15.437c-27.693,14.625-33.58,17.139-34.993,14.961
	c-1.409-2.176,3.285-6.51,27.905-25.764c11.092-8.676,26.142-20.445,27.412-23.357c-3.133-0.465-21.073,5.922-34.293,10.637
	c-29.522,10.529-35.714,12.182-36.803,9.816c-1.082-2.352,4.181-5.965,31.282-21.477c12.234-7.002,28.833-16.504,30.506-19.207
	c-3.035-0.922-21.68,2.828-35.422,5.589c-30.767,6.183-37.138,6.927-37.876,4.425c-0.73-2.478,4.99-5.289,34.007-16.721
	c13.133-5.174,30.953-12.195,32.998-14.633c-2.87-1.342-21.832-0.32-35.808,0.432c-31.377,1.689-37.799,1.508-38.169-1.078
	c-0.366-2.551,5.69-4.51,36.002-11.648c13.763-3.24,32.438-7.638,34.811-9.764c-2.652-1.73-21.531-3.42-35.446-4.665
	c-31.345-2.806-37.685-3.902-37.685-6.521s6.339-3.715,37.685-6.521c13.915-1.246,32.794-2.935,35.445-4.665
	c-2.373-2.126-21.048-6.524-34.812-9.765c-30.31-7.138-36.365-9.097-36-11.649c0.37-2.586,6.792-2.767,38.171-1.078
	c13.975,0.752,32.936,1.773,35.806,0.433c-2.045-2.439-19.866-9.46-32.999-14.635C34.92,190.523,29.2,187.71,29.93,185.232
	c0.738-2.5,7.11-1.756,37.876,4.426c13.743,2.761,32.388,6.506,35.423,5.59c-1.672-2.703-18.272-12.205-30.506-19.208
	c-27.101-15.513-32.363-19.125-31.281-21.477c1.089-2.365,7.278-0.714,36.804,9.817c13.219,4.715,31.167,11.115,34.292,10.636
	c-1.27-2.912-16.32-14.682-27.413-23.356c-24.62-19.254-29.313-23.588-27.905-25.763c1.413-2.183,7.299,0.334,34.995,14.96
	c12.405,6.55,29.229,15.436,32.439,15.436c0.004,0,0.008,0,0.013,0c-0.845-3.062-14.056-16.841-23.793-26.998
	c-21.646-22.578-25.678-27.539-23.973-29.494c1.707-1.955,7.171,1.367,32.494,19.761c11.375,8.263,26.81,19.474,29.958,19.899
	c-0.406-3.15-11.523-18.647-19.715-30.068c-18.246-25.436-21.538-30.923-19.571-32.619c1.967-1.692,6.902,2.369,29.349,24.142
	c10.1,9.796,23.805,23.09,26.864,23.955c0.041-3.175-8.762-20.075-15.251-32.53c-14.473-27.783-16.957-33.685-14.768-35.087
	c2.185-1.397,6.49,3.319,25.611,28.037c8.617,11.139,20.31,26.253,23.217,27.54c0.49-3.135-5.819-21.098-10.469-34.336
	c-10.39-29.58-12.011-35.78-9.642-36.857c2.354-1.074,5.945,4.207,21.338,31.368c6.951,12.265,16.382,28.908,19.08,30.593
	c0.928-3.032-2.75-21.688-5.461-35.438c-6.071-30.792-6.793-37.167-4.29-37.896c2.476-0.721,5.275,5.004,16.622,34.051
	c5.137,13.15,12.107,30.992,14.54,33.043c1.346-2.869,0.365-21.83-0.358-35.806c-1.624-31.383-1.429-37.804,1.158-38.171
	c2.549-0.356,4.503,5.697,11.602,36.018c3.223,13.767,7.597,32.446,9.72,34.823c1.731-2.653,3.429-21.531,4.681-35.446
	c2.818-31.341,3.918-37.68,6.536-37.68c2.618,0,3.717,6.339,6.536,37.68c1.253,13.915,2.949,32.794,4.682,35.447
	c2.123-2.377,6.495-21.056,9.719-34.821c7.1-30.326,9.077-36.38,11.602-36.021c2.587,0.367,2.781,6.788,1.158,38.17
	c-0.723,13.976-1.701,32.938-0.357,35.807c2.434-2.052,9.404-19.894,14.54-33.043c11.347-29.045,14.141-34.776,16.621-34.051
	c2.505,0.729,1.782,7.104-4.288,37.897c-2.713,13.75-6.39,32.404-5.461,35.436c2.695-1.686,12.129-18.329,19.08-30.594
	c15.39-27.155,18.977-32.443,21.338-31.366c2.369,1.077,0.748,7.278-9.642,36.858c-4.649,13.239-10.958,31.201-10.47,34.335
	c2.908-1.286,14.602-16.4,23.219-27.54c19.123-24.719,23.434-29.432,25.611-28.035c2.19,1.401-0.295,7.303-14.77,35.085
	c-6.488,12.455-15.293,29.354-15.252,32.53c3.057-0.863,16.763-14.156,26.863-23.954c22.446-21.77,27.382-25.834,29.352-24.141
	c1.966,1.696-1.327,7.183-19.57,32.617c-8.193,11.423-19.31,26.92-19.717,30.07c3.146-0.423,18.582-11.635,29.958-19.898
	c25.321-18.393,30.788-21.716,32.493-19.761c1.706,1.955-2.327,6.918-23.977,29.497c-9.734,10.154-22.945,23.932-23.79,26.993
	c0.005,0,0.009,0,0.013,0c3.207,0,20.035-8.886,32.441-15.437c27.691-14.623,33.58-17.142,34.992-14.958
	c1.409,2.175-3.285,6.509-27.906,25.763c-11.094,8.674-26.143,20.443-27.413,23.355c3.136,0.471,21.073-5.921,34.294-10.634
	c29.523-10.528,35.715-12.18,36.805-9.815c1.08,2.351-4.18,5.963-31.282,21.475c-12.233,7.001-28.833,16.502-30.507,19.206
	c3.039,0.92,21.681-2.829,35.422-5.59c30.767-6.181,37.139-6.925,37.877-4.425c0.73,2.478-4.99,5.291-34.006,16.722
	c-13.133,5.174-30.955,12.195-32.998,14.634c2.869,1.341,21.83,0.319,35.808-0.433c31.376-1.69,37.798-1.508,38.167,1.078
	c0.366,2.552-5.688,4.511-35.999,11.648c-13.764,3.241-32.439,7.639-34.812,9.765c2.65,1.73,21.53,3.419,35.444,4.665
	c31.347,2.805,37.686,3.902,37.686,6.521c0,2.617-6.339,3.715-37.68,6.521c-13.918,1.245-32.8,2.936-35.45,4.667
	c2.373,2.125,21.048,6.521,34.81,9.762c30.312,7.139,36.368,9.098,36.002,11.648c-0.369,2.586-6.791,2.768-38.168,1.078
	c-13.977-0.752-32.939-1.773-35.807-0.432c2.043,2.438,19.864,9.46,32.998,14.634c29.015,11.432,34.736,14.245,34.004,16.722
	c-0.736,2.5-7.107,1.758-37.875-4.426c-13.741-2.76-32.388-6.51-35.422-5.589c1.674,2.703,18.271,12.204,30.504,19.206
	c27.104,15.512,32.364,19.125,31.283,21.477c-1.086,2.363-7.279,0.713-36.803-9.816c-13.222-4.713-31.173-11.105-34.294-10.635
	c1.271,2.914,16.319,14.682,27.411,23.354c24.623,19.256,29.317,23.59,27.908,25.766c-1.412,2.18-7.299-0.335-34.994-14.959
	c-12.405-6.552-29.23-15.438-32.439-15.438c-0.005,0-0.008,0-0.014,0c0.846,3.062,14.057,16.841,23.791,26.996
	c21.648,22.579,25.682,27.542,23.975,29.497c-1.705,1.955-7.173-1.369-32.491-19.761c-11.376-8.263-26.812-19.475-29.96-19.898
	c0.406,3.15,11.522,18.646,19.716,30.066c18.245,25.438,21.538,30.924,19.569,32.62c-1.966,1.69-6.896-2.364-29.349-24.144
	c-10.1-9.797-23.802-23.088-26.861-23.952c-0.042,3.175,8.763,20.073,15.251,32.528c14.474,27.781,16.958,33.686,14.768,35.088
	c-2.178,1.389-6.486-3.314-25.611-28.037c-8.617-11.139-20.309-26.252-23.218-27.539c-0.489,3.134,5.819,21.098,10.471,34.336
	c10.388,29.58,12.011,35.779,9.641,36.857c-2.363,1.072-5.946-4.209-21.336-31.365c-6.952-12.266-16.386-28.91-19.081-30.596
	c-0.929,3.033,2.75,21.688,5.462,35.438c6.071,30.791,6.793,37.166,4.29,37.896c-0.129,0.037-0.262,0.058-0.394,0.058
	c-2.402,0.001-5.476-6.585-16.23-34.11c-5.136-13.148-12.108-30.989-14.541-33.043c-1.345,2.87-0.364,21.83,0.358,35.804
	c1.625,31.385,1.429,37.808-1.158,38.173c-2.541,0.346-4.503-5.699-11.602-36.019c-3.223-13.766-7.596-32.444-9.719-34.821
	c-1.732,2.652-3.429,21.529-4.682,35.445C253.861,472.233,252.762,478.572,250.144,478.572z M238.982,403.47
	c0.03,0,0.059,0,0.089,0.002c2.624,0.185,3.771,8.556,6.352,37.256c1.258,13.99,2.963,32.939,4.721,35.807
	c1.759-2.867,3.463-21.816,4.721-35.807c2.895-32.184,4.012-37.092,6.353-37.256c2.653-0.2,4.999,8.03,11.636,36.38
	c3.16,13.498,7.438,31.768,9.546,34.404c1.323-3.123,0.345-22.061-0.38-36.049c-1.671-32.312-1.256-37.336,1.042-37.83
	c2.62-0.561,6.079,7.233,16.657,34.312c5.054,12.93,11.892,30.437,14.357,32.746c0.861-3.281-2.803-21.855-5.508-35.576
	c-6.268-31.785-6.572-36.824-4.365-37.643c2.495-0.928,7.035,6.279,21.357,31.551c6.854,12.094,16.131,28.465,18.904,30.398
	c0.38-3.37-5.887-21.211-10.515-34.389c-10.747-30.6-11.769-35.549-9.696-36.678c2.336-1.27,7.851,5.212,25.605,28.162
	c8.516,11.008,20.043,25.908,23.066,27.426c-0.104-3.385-8.832-20.143-15.281-32.52c-13.372-25.671-16.939-33.373-14.816-34.957
	c2.129-1.585,8.502,4.043,29.312,24.23c9.998,9.7,23.534,22.829,26.743,23.9c-0.583-3.335-11.586-18.674-19.713-30.005
	c-16.886-23.538-21.51-30.663-19.63-32.534c1.884-1.868,8.98,2.798,32.424,19.828c11.279,8.193,26.549,19.285,29.879,19.888
	c-1.053-3.216-14.105-16.831-23.746-26.89c-20.062-20.924-25.654-27.327-24.055-29.447c1.592-2.115,9.276,1.494,34.882,15.016
	c12.337,6.516,29.038,15.334,32.423,15.459c-1.5-3.033-16.344-14.641-27.309-23.215c-22.853-17.87-29.304-23.418-28.022-25.746
	c1.276-2.32,9.392,0.158,36.638,9.874c13.152,4.69,30.959,11.04,34.328,10.677c-1.921-2.783-18.257-12.133-30.324-19.039
	c-25.2-14.424-32.386-18.994-31.451-21.486c0.928-2.472,9.303-1.19,37.632,4.502c13.709,2.754,32.271,6.479,35.551,5.635
	c-2.304-2.473-19.79-9.361-32.706-14.45c-27.051-10.657-34.83-14.149-34.262-16.755c0.56-2.574,9.021-2.514,37.835-0.962
	c13.981,0.752,32.917,1.771,36.042,0.454c-2.635-2.111-20.898-6.41-34.391-9.588c-28.343-6.672-36.554-9.016-36.363-11.681
	c0.186-2.623,8.558-3.767,37.26-6.337c13.988-1.251,32.936-2.947,35.804-4.705c-2.868-1.757-21.816-3.453-35.808-4.706
	c-32.182-2.88-37.091-3.995-37.256-6.335c-0.19-2.666,8.021-5.009,36.367-11.684c13.49-3.176,31.752-7.477,34.387-9.588
	c-3.127-1.316-22.057-0.298-36.041,0.456c-32.309,1.739-37.337,1.334-37.836-0.962c-0.568-2.605,7.211-6.097,34.262-16.754
	c12.916-5.089,30.402-11.977,32.706-14.45c-3.282-0.845-21.841,2.881-35.549,5.635c-31.771,6.382-36.806,6.704-37.634,4.5
	c-0.935-2.491,6.252-7.061,31.453-21.485c12.067-6.906,28.401-16.255,30.324-19.038c-3.393-0.37-21.178,5.987-34.331,10.676
	c-27.245,9.716-35.358,12.192-36.636,9.873c-1.281-2.328,5.169-7.875,28.021-25.746c10.965-8.574,25.809-20.183,27.309-23.215
	c-3.385,0.124-20.085,8.942-32.42,15.457c-25.604,13.521-33.291,17.133-34.885,15.017c-1.599-2.119,3.993-8.522,24.055-29.446
	c9.643-10.057,22.695-23.673,23.747-26.889c-3.329,0.604-18.599,11.695-29.878,19.888c-23.444,17.03-30.542,21.695-32.424,19.827
	c-1.881-1.869,2.744-8.995,19.631-32.535c8.127-11.33,19.129-26.668,19.713-30.003c-3.211,1.071-16.746,14.199-26.744,23.897
	c-20.816,20.19-27.189,25.817-29.316,24.23c-2.123-1.583,1.445-9.285,14.82-34.957c6.449-12.376,15.177-29.131,15.282-32.516
	c-3.024,1.517-14.552,16.417-23.067,27.424c-17.754,22.949-23.268,29.433-25.605,28.163c-2.323-1.264,0.111-9.389,9.695-36.678
	c4.63-13.179,10.896-31.021,10.516-34.387c-2.774,1.933-12.053,18.304-18.906,30.397c-13.532,23.876-18.332,31.626-20.925,31.627
	c-0.152,0-0.296-0.026-0.433-0.077c-2.477-0.918-1.225-9.298,4.363-37.642c2.706-13.721,6.368-32.297,5.508-35.577
	c-2.465,2.31-9.303,19.814-14.354,32.746c-10.58,27.084-14.055,34.88-16.658,34.314c-2.576-0.555-2.531-9.017-1.041-37.834
	c0.723-13.987,1.701-32.922,0.378-36.045c-2.108,2.637-6.386,20.908-9.546,34.406c-6.637,28.347-8.99,36.558-11.635,36.378
	c-2.625-0.184-3.772-8.556-6.354-37.257c-1.258-13.991-2.962-32.938-4.721-35.805c-1.758,2.867-3.463,21.815-4.721,35.807
	c-2.894,32.182-4.012,37.091-6.352,37.255c-0.029,0.002-0.059,0.003-0.088,0.003c-2.63,0.001-4.984-8.343-11.549-36.384
	c-3.16-13.497-7.437-31.766-9.546-34.403c-1.323,3.123-0.343,22.059,0.38,36.046c1.672,32.314,1.256,37.338-1.042,37.833
	c-0.085,0.018-0.172,0.028-0.26,0.028c-2.583,0-6.164-8.146-16.397-34.341c-5.052-12.932-11.89-30.437-14.355-32.747
	c-0.86,3.28,2.802,21.855,5.507,35.576c6.268,31.786,6.572,36.825,4.364,37.644c-0.137,0.051-0.281,0.077-0.432,0.078
	c-2.593,0-7.391-7.748-20.924-31.626c-6.854-12.095-16.133-28.467-18.907-30.4c-0.38,3.368,5.886,21.208,10.515,34.387
	c10.748,30.601,11.769,35.551,9.697,36.678c-2.337,1.266-7.85-5.212-25.605-28.163c-8.515-11.008-20.042-25.909-23.066-27.425
	c0.104,3.385,8.833,20.141,15.28,32.518c13.373,25.672,16.94,33.375,14.817,34.958c-2.129,1.589-8.501-4.043-29.314-24.232
	c-9.998-9.699-23.533-22.827-26.743-23.897c0.583,3.334,11.587,18.673,19.715,30.003c16.885,23.539,21.51,30.664,19.63,32.534
	c-1.883,1.868-8.983-2.801-32.424-19.828c-11.28-8.193-26.549-19.284-29.878-19.888c1.051,3.217,14.103,16.83,23.744,26.887
	c20.063,20.927,25.654,27.331,24.056,29.45c-1.596,2.115-9.282-1.497-34.882-15.017c-12.336-6.515-29.038-15.334-32.423-15.458
	c1.5,3.032,16.343,14.639,27.308,23.214c22.853,17.872,29.303,23.42,28.021,25.748c-1.276,2.316-9.39-0.158-36.637-9.875
	c-13.152-4.69-30.957-11.047-34.329-10.678c1.923,2.784,18.257,12.133,30.323,19.04c25.201,14.425,32.387,18.996,31.452,21.486
	c-0.929,2.473-9.305,1.191-37.632-4.501c-13.708-2.754-32.264-6.482-35.549-5.636c2.305,2.473,19.789,9.362,32.706,14.451
	c27.05,10.658,34.829,14.15,34.262,16.756c-0.562,2.575-9.023,2.513-37.836,0.961c-13.983-0.753-32.915-1.772-36.043-0.456
	c2.636,2.111,20.898,6.412,34.389,9.589c28.344,6.675,36.556,9.019,36.367,11.684c-0.186,2.624-8.558,3.767-37.255,6.335
	c-13.991,1.252-32.94,2.948-35.809,4.706c2.869,1.758,21.818,3.452,35.809,4.705c32.181,2.88,37.089,3.995,37.255,6.334
	c0.189,2.667-8.022,5.01-36.365,11.684c-13.492,3.178-31.754,7.477-34.39,9.59c3.128,1.317,22.059,0.297,36.042-0.455
	c32.313-1.739,37.337-1.334,37.838,0.963c0.567,2.604-7.211,6.096-34.261,16.751c-12.917,5.091-30.403,11.979-32.708,14.452
	c3.283,0.842,21.842-2.883,35.549-5.637c31.767-6.382,36.805-6.704,37.632-4.5c0.935,2.49-6.25,7.061-31.451,21.486
	c-12.067,6.906-28.401,16.256-30.325,19.039c3.372,0.367,21.176-5.986,34.329-10.678c27.247-9.719,35.362-12.191,36.637-9.875
	c1.281,2.327-5.169,7.875-28.022,25.748c-10.964,8.574-25.807,20.182-27.307,23.213c3.384-0.123,20.084-8.941,32.421-15.457
	c25.602-13.521,33.287-17.133,34.883-15.017c1.598,2.118-3.993,8.522-24.054,29.447c-9.643,10.058-22.696,23.673-23.748,26.89
	c3.33-0.604,18.598-11.694,29.876-19.888c23.444-17.028,30.545-21.7,32.426-19.827c1.88,1.868-2.746,8.994-19.63,32.533
	c-8.128,11.331-19.13,26.668-19.713,30.004c3.208-1.069,16.744-14.199,26.744-23.898c20.812-20.188,27.181-25.815,29.313-24.23
	c2.124,1.584-1.444,9.286-14.818,34.961c-6.448,12.375-15.175,29.129-15.279,32.514c3.023-1.516,14.551-16.416,23.066-27.424
	c17.754-22.953,23.269-29.428,25.604-28.162c2.324,1.263-0.112,9.388-9.696,36.676c-4.629,13.18-10.894,31.021-10.515,34.389
	c2.774-1.934,12.052-18.305,18.907-30.398c14.321-25.268,18.86-32.475,21.357-31.549c2.476,0.918,1.225,9.298-4.366,37.643
	c-2.706,13.721-6.369,32.295-5.509,35.576c2.466-2.311,9.304-19.814,14.356-32.746c10.581-27.084,14.05-34.867,16.658-34.312
	c2.577,0.555,2.533,9.016,1.042,37.832c-0.724,13.987-1.703,32.924-0.379,36.047c2.108-2.637,6.386-20.906,9.546-34.404
	C233.999,411.812,236.353,403.47,238.982,403.47z"/>
<path fill="#020202" d="M260.936,478.341c-2.542,0-3.945-6.412-8.181-37.071c-1.926-13.953-4.541-32.887-6.422-35.443
	c-1.988,2.468-5.463,21.194-8.026,34.996c-5.722,30.818-7.394,37.004-9.996,36.758c-2.579-0.242-3.065-6.607-2.897-37.832
	c0.076-14.1,0.18-33.23-1.323-36.028c-2.316,2.161-8.419,20.178-12.917,33.456c-10.068,29.722-12.619,35.605-15.153,34.995
	c-2.513-0.608-2.087-6.97,2.533-37.812c2.09-13.963,4.928-32.909,3.836-35.894c-2.596,1.81-11.194,18.746-17.53,31.227
	c-14.225,28.02-17.591,33.494-20.02,32.518c-2.395-0.958-1.069-7.186,7.877-37.017c4.062-13.544,9.574-31.922,8.914-35.036
	c-2.822,1.43-13.708,16.956-21.732,28.397c-18.065,25.763-22.177,30.708-24.45,29.404c-2.268-1.305-0.059-7.348,13.128-35.921
	c5.853-12.682,13.793-29.887,13.619-33.052c-3.027,1.007-16.13,15.016-25.786,25.339c-21.273,22.742-25.984,27.02-28.013,25.436
	c-2.057-1.607,0.979-7.269,18.048-33.654c7.6-11.746,17.91-27.684,18.18-30.844c-3.135,0.568-18.077,12.549-29.089,21.38
	c-24.328,19.505-29.61,23.071-31.396,21.21c-1.803-1.881,2.006-7.041,22.649-30.684c9.216-10.554,21.719-24.874,22.435-27.966
	c-3.182,0.116-19.663,9.818-31.811,16.97c-26.904,15.837-32.649,18.615-34.152,16.512c-1.513-2.116,2.992-6.674,26.783-27.094
	c10.646-9.135,25.089-21.531,26.238-24.492c-3.16-0.342-20.843,6.9-33.875,12.236c-28.919,11.837-35.01,13.768-36.199,11.468
	c-1.193-2.307,3.912-6.173,30.35-22.974c11.851-7.531,27.932-17.75,29.49-20.519c-3.083-0.784-21.599,3.862-35.245,7.284
	c-30.334,7.605-36.64,8.648-37.491,6.2c-0.852-2.45,4.748-5.548,33.284-18.41c12.812-5.774,30.197-13.61,32.132-16.132
	c-2.941-1.211-21.911,0.753-35.893,2.201c-31.13,3.222-37.526,3.357-38.021,0.812c-0.495-2.544,5.483-4.813,35.536-13.483
	c13.515-3.896,31.851-9.187,34.125-11.41c-2.74-1.611-21.779-2.367-35.811-2.924c-31.296-1.244-37.652-2.021-37.779-4.615
	c-0.127-2.586,6.108-3.977,37.064-8.266c13.946-1.932,32.867-4.554,35.435-6.434c-2.48-1.983-21.196-5.452-34.991-8.01
	c-30.825-5.714-37.009-7.393-36.763-9.983c0.244-2.574,6.604-3.053,37.827-2.857c14.095,0.09,33.221,0.211,36.032-1.285
	c-2.17-2.316-20.169-8.434-33.436-12.942c-29.716-10.1-35.602-12.654-34.984-15.187c0.612-2.507,6.969-2.066,37.798,2.619
	c13.954,2.121,32.889,5,35.887,3.918c-1.816-2.6-18.722-11.229-31.184-17.589c-27.991-14.287-33.456-17.667-32.479-20.088
	c0.962-2.39,7.184-1.043,36.98,7.997c13.528,4.104,31.881,9.679,35.008,9.029c-1.432-2.828-16.914-13.754-28.325-21.808
	c-25.712-18.146-30.647-22.274-29.335-24.537c1.315-2.266,7.347-0.039,35.873,13.248c12.668,5.9,29.868,13.902,33.016,13.733
	c-0.983-3.026-14.936-16.196-25.219-25.901c-22.651-21.377-26.908-26.111-25.312-28.137c1.618-2.057,7.267,1.006,33.575,18.185
	c11.721,7.654,27.625,18.039,30.779,18.313c-0.542-3.131-12.45-18.138-21.225-29.197C93.518,91.224,89.976,85.922,91.85,84.142
	c1.894-1.796,7.035,2.035,30.579,22.786c10.517,9.269,24.788,21.846,27.874,22.567c-0.091-3.174-9.711-19.711-16.8-31.899
	c-15.702-26.991-18.449-32.752-16.334-34.249c2.125-1.502,6.663,3.021,26.972,26.9c9.094,10.693,21.434,25.202,24.386,26.353
	c0.359-3.154-6.795-20.875-12.067-33.934c-11.701-28.983-13.6-35.083-11.292-36.264c2.312-1.186,6.16,3.934,22.854,30.434
	c7.489,11.889,17.651,28.02,20.414,29.578c0.8-3.071-3.77-21.61-7.136-35.271c-7.484-30.371-8.501-36.684-6.047-37.528
	c2.466-0.846,5.54,4.767,18.313,33.334c5.74,12.837,13.528,30.255,16.045,32.188c1.222-2.929-0.686-21.911-2.092-35.899
	c-3.13-31.144-3.248-37.542-0.695-38.032c2.551-0.486,4.807,5.493,13.423,35.56c3.876,13.528,9.136,31.884,11.358,34.15
	c1.621-2.726,2.409-21.772,2.989-35.81c1.296-31.295,2.083-37.65,4.682-37.775c2.608-0.109,3.979,6.115,8.254,37.072
	c1.927,13.952,4.542,32.884,6.422,35.44c1.989-2.47,5.466-21.194,8.028-34.995c5.725-30.827,7.406-37.015,9.998-36.76
	c2.578,0.244,3.065,6.608,2.896,37.832c-0.077,14.099-0.181,33.23,1.321,36.03c2.315-2.161,8.417-20.177,12.915-33.455
	c10.068-29.725,12.629-35.611,15.152-34.999c2.513,0.609,2.086,6.969-2.529,37.813c-2.091,13.962-4.928,32.909-3.835,35.895
	c2.597-1.811,11.193-18.748,17.53-31.231c14.223-28.02,17.588-33.487,20.016-32.518c2.396,0.958,1.07,7.186-7.874,37.018
	c-4.062,13.545-9.573,31.924-8.911,35.038c2.822-1.43,13.708-16.956,21.73-28.399c18.069-25.767,22.178-30.708,24.449-29.404
	c2.268,1.304,0.061,7.347-13.129,35.922c-5.852,12.681-13.791,29.885-13.617,33.05c3.025-1.007,16.129-15.015,25.785-25.339
	c21.268-22.738,25.984-27.022,28.014-25.435c2.058,1.606-0.979,7.269-18.05,33.657c-7.599,11.746-17.907,27.682-18.177,30.841
	c3.135-0.568,18.077-12.55,29.09-21.381c24.328-19.508,29.607-23.073,31.391-21.211c1.806,1.881-2.006,7.043-22.648,30.686
	c-9.214,10.555-21.717,24.874-22.434,27.966c3.182-0.117,19.664-9.819,31.811-16.97c26.904-15.837,32.648-18.615,34.154-16.511
	c1.514,2.116-2.993,6.674-26.785,27.094c-10.645,9.136-25.086,21.531-26.236,24.492c3.179,0.353,20.844-6.9,33.875-12.235
	c28.922-11.838,35.012-13.767,36.199-11.467c1.195,2.307-3.911,6.171-30.349,22.971c-11.853,7.531-27.933,17.75-29.492,20.52
	c3.087,0.781,21.6-3.862,35.245-7.283c30.332-7.605,36.643-8.647,37.49-6.201c0.854,2.451-4.746,5.548-33.283,18.409
	c-12.812,5.775-30.194,13.609-32.132,16.132c2.939,1.208,21.909-0.755,35.893-2.202c31.132-3.221,37.526-3.357,38.021-0.811
	c0.496,2.544-5.482,4.812-35.535,13.481c-13.515,3.898-31.85,9.187-34.125,11.411c2.738,1.612,21.778,2.369,35.812,2.927
	c31.295,1.244,37.65,2.02,37.777,4.615c0.127,2.586-6.107,3.976-37.064,8.264c-13.945,1.932-32.867,4.554-35.436,6.433
	c2.479,1.984,21.197,5.453,34.992,8.012c30.824,5.716,37.008,7.395,36.763,9.983c-0.245,2.575-6.611,3.056-37.831,2.854
	c-14.096-0.089-33.217-0.211-36.027,1.283c2.169,2.316,20.168,8.434,33.434,12.945c29.717,10.102,35.602,12.656,34.982,15.188
	c-0.611,2.506-6.972,2.065-37.796-2.619c-13.955-2.122-32.89-4.999-35.888-3.921c1.815,2.599,18.724,11.23,31.184,17.593
	c27.99,14.286,33.453,17.665,32.477,20.088c-0.964,2.388-7.188,1.041-36.982-8.001c-13.527-4.103-31.885-9.678-35.006-9.028
	c1.432,2.826,16.912,13.752,28.323,21.807c25.712,18.148,30.647,22.275,29.335,24.539c-1.316,2.266-7.351,0.037-35.873-13.248
	c-12.533-5.836-29.492-13.734-32.911-13.734c-0.036,0-0.071,0-0.105,0.002c0.982,3.027,14.937,16.195,25.22,25.9
	c22.651,21.377,26.91,26.109,25.313,28.137c-1.618,2.053-7.269-1.008-33.576-18.186c-11.722-7.652-27.626-18.037-30.779-18.311
	c0.54,3.131,12.45,18.138,21.228,29.198c19.388,24.429,22.928,29.729,21.055,31.511c-1.895,1.797-7.037-2.038-30.578-22.785
	c-10.52-9.27-24.791-21.848-27.876-22.566c0.091,3.174,9.712,19.711,16.801,31.897c15.702,26.991,18.451,32.753,16.337,34.249
	c-2.128,1.504-6.664-3.023-26.971-26.899c-9.095-10.692-21.437-25.204-24.389-26.354c-0.359,3.155,6.795,20.876,12.068,33.936
	c11.701,28.981,13.6,35.082,11.291,36.264c-2.314,1.189-6.16-3.938-22.854-30.434c-7.49-11.889-17.652-28.021-20.414-29.58
	c-0.801,3.072,3.769,21.611,7.137,35.273c7.484,30.369,8.502,36.684,6.047,37.527c-2.451,0.838-5.539-4.762-18.314-33.337
	c-5.74-12.835-13.527-30.253-16.045-32.185c-1.222,2.929,0.686,21.912,2.091,35.901c3.13,31.143,3.247,37.54,0.694,38.03
	c-2.531,0.487-4.807-5.492-13.421-35.561c-3.877-13.528-9.136-31.883-11.357-34.15c-1.62,2.726-2.407,21.771-2.989,35.807
	c-1.295,31.298-2.082,37.652-4.682,37.779C260.986,478.34,260.96,478.341,260.936,478.341z M246.348,403.85c0.009,0,0.02,0,0.029,0
	c2.659,0.061,4.215,8.428,8.184,37.17c1.904,13.792,4.483,32.461,6.353,35.273c1.6-2.979,2.381-21.859,2.958-35.808
	c1.196-28.923,1.942-37.38,4.574-37.694c0.049-0.007,0.098-0.01,0.147-0.01c2.593,0,5.36,8.268,13.196,35.621
	c3.838,13.396,9.035,31.531,11.285,34.051c1.159-3.175-0.729-21.96-2.121-35.836c-2.897-28.827-3.353-37.312-0.787-37.995
	c2.572-0.692,6.391,6.907,18.217,33.353c5.691,12.73,13.399,29.967,15.984,32.144c0.699-3.304-3.816-21.624-7.151-35.154
	c-6.937-28.149-8.584-36.489-6.14-37.528c2.439-1.033,7.296,5.928,22.729,30.426c7.439,11.809,17.511,27.793,20.381,29.582
	c0.219-3.37-6.837-20.847-12.05-33.757c-10.861-26.902-13.676-34.933-11.4-36.31c2.269-1.371,8.058,4.83,26.8,26.865
	c9.049,10.641,21.3,25.047,24.396,26.408c-0.266-3.366-9.733-19.64-16.727-31.662c-14.602-25.098-18.536-32.652-16.479-34.343
	c2.043-1.675,8.654,3.623,30.334,22.73c10.49,9.246,24.695,21.763,27.96,22.667c-0.75-3.292-12.437-18.016-21.069-28.895
	c-18.072-22.774-23.057-29.693-21.26-31.664c1.777-1.95,9.072,2.344,33.234,18.119c11.729,7.658,27.606,18.025,30.969,18.447
	c-1.215-3.146-14.867-16.031-24.949-25.547c-21.176-19.984-27.107-26.128-25.604-28.341c1.479-2.179,9.296,1.029,35.419,13.195
	c12.666,5.899,29.798,13.878,33.286,13.878c0.019,0,0.036,0,0.053,0c-1.603-2.958-17.144-13.93-28.621-22.028
	c-26.394-18.63-30.083-22.058-29.052-24.162c1.171-2.398,9.451-0.304,37.314,8.151c13.259,4.023,31.209,9.479,34.553,8.971
	c-2.052-2.709-18.934-11.327-31.403-17.692c-28.817-14.71-32.962-17.582-32.242-19.817c0.816-2.535,9.3-1.649,38.048,2.721
	c13.719,2.086,32.286,4.908,35.529,3.932c-2.422-2.381-20.34-8.474-33.576-12.974c-30.672-10.427-35.191-12.675-34.801-14.995
	c0.443-2.622,8.949-2.966,37.992-2.778c13.896,0.089,32.71,0.209,35.777-1.229c-2.742-2.004-21.324-5.449-35.053-7.995
	c-31.891-5.913-36.691-7.491-36.638-9.847c0.06-2.655,8.425-4.214,37.163-8.195c13.781-1.909,32.438-4.494,35.267-6.36
	c-2.998-1.589-21.864-2.339-35.804-2.893c-28.927-1.15-37.385-1.881-37.703-4.508c-0.319-2.633,7.73-5.367,35.585-13.4
	c13.382-3.861,31.499-9.086,34.028-11.339c-3.191-1.145-21.959,0.798-35.821,2.232c-28.817,2.981-37.301,3.463-37.991,0.904
	c-0.689-2.558,6.885-6.405,33.295-18.308c12.709-5.727,29.911-13.48,32.096-16.074c-3.316-0.678-21.604,3.908-35.111,7.294
	c-28.123,7.051-36.459,8.734-37.508,6.296c-1.045-2.432,5.901-7.313,30.334-22.838c11.775-7.482,27.715-17.61,29.506-20.49
	c-3.351-0.201-20.811,6.94-33.688,12.211c-26.854,10.992-34.87,13.845-36.254,11.579c-1.38-2.254,4.794-8.071,26.737-26.906
	c10.598-9.096,24.943-21.409,26.305-24.518c-3.371,0.294-19.584,9.837-31.561,16.887c-25.025,14.731-32.562,18.709-34.261,16.661
	c-1.685-2.03,3.585-8.664,22.585-30.426c9.196-10.533,21.645-24.79,22.545-28.065c-3.294,0.779-17.948,12.529-28.775,21.21
	c-19.871,15.935-27.627,21.764-30.574,21.764c-0.418,0-0.739-0.116-0.984-0.338c-1.955-1.765,2.307-9.074,17.977-33.298
	c7.607-11.758,17.904-27.676,18.32-31.048c-3.144,1.241-15.957,14.939-25.422,25.061c-19.893,21.268-26.012,27.224-28.228,25.734
	c-2.181-1.467,1.001-9.294,13.073-35.454c5.888-12.756,13.86-30.031,13.768-33.394c-2.953,1.608-13.875,17.184-21.94,28.686
	c-18.552,26.458-21.974,30.157-24.081,29.133c-2.406-1.167-0.339-9.452,8.022-37.341c3.983-13.283,9.374-31.264,8.855-34.595
	c-2.702,2.042-11.287,18.953-17.627,31.443c-14.646,28.853-17.515,33.004-19.752,32.291c-2.542-0.812-1.675-9.295,2.63-38.049
	c2.057-13.735,4.84-32.329,3.846-35.554c-2.379,2.41-8.454,20.346-12.94,33.594c-10.394,30.686-12.638,35.205-14.964,34.821
	c-2.629-0.44-2.979-8.95-2.821-37.99c0.077-13.907,0.179-32.732-1.269-35.784c-2.007,2.723-5.461,21.319-8.011,35.055
	c-5.263,28.336-7.203,36.64-9.835,36.64c-0.01,0-0.019,0-0.028,0c-2.659-0.062-4.215-8.427-8.185-37.167
	c-1.905-13.792-4.483-32.464-6.352-35.276c-1.599,2.98-2.38,21.86-2.958,35.805c-1.197,28.926-1.942,37.384-4.575,37.698
	c-2.634,0.317-5.358-7.738-13.345-35.611c-3.839-13.396-9.035-31.533-11.285-34.051c-1.16,3.174,0.728,21.961,2.123,35.839
	c2.897,28.825,3.353,37.309,0.788,37.991c-2.566,0.686-6.392-6.904-18.218-33.354c-5.692-12.73-13.399-29.965-15.984-32.142
	c-0.699,3.305,3.816,21.625,7.151,35.156c6.937,28.148,8.584,36.488,6.14,37.527c-2.443,1.041-7.296-5.929-22.729-30.427
	C159.04,66,148.97,50.014,146.101,48.224c-0.221,3.372,6.835,20.85,12.048,33.76c10.861,26.901,13.675,34.931,11.399,36.308
	c-2.265,1.375-8.056-4.829-26.797-26.865c-9.05-10.641-21.302-25.046-24.399-26.41c0.265,3.367,9.731,19.641,16.725,31.662
	c14.602,25.102,18.536,32.654,16.478,34.345c-2.042,1.679-8.655-3.625-30.332-22.729c-10.492-9.248-24.698-21.767-27.961-22.67
	c0.749,3.291,12.437,18.019,21.069,28.899c18.071,22.773,23.054,29.692,21.256,31.664c-1.779,1.949-9.073-2.344-33.234-18.122
	c-11.727-7.658-27.604-18.025-30.967-18.447c1.215,3.146,14.867,16.03,24.951,25.548c21.173,19.983,27.103,26.127,25.602,28.341
	c-1.477,2.177-9.295-1.029-35.418-13.197c-12.733-5.93-29.998-13.982-33.341-13.878c1.604,2.958,17.146,13.928,28.623,22.028
	c26.396,18.629,30.084,22.055,29.055,24.161c-1.173,2.398-9.452,0.303-37.318-8.151c-13.259-4.022-31.208-9.468-34.551-8.968
	c2.051,2.709,18.935,11.327,31.407,17.693c28.816,14.708,32.959,17.579,32.24,19.815c-0.816,2.536-9.299,1.649-38.045-2.72
	c-13.721-2.085-32.293-4.909-35.532-3.93c2.422,2.381,20.341,8.472,33.578,12.971c30.673,10.425,35.192,12.674,34.801,14.994
	c-0.442,2.623-8.951,2.967-37.995,2.781c-13.896-0.086-32.707-0.207-35.773,1.231c2.738,2.005,21.324,5.45,35.053,7.995
	c31.89,5.911,36.691,7.489,36.638,9.845c-0.061,2.654-8.425,4.214-37.164,8.195c-13.782,1.911-32.438,4.495-35.266,6.361
	c2.998,1.589,21.865,2.338,35.803,2.892c28.927,1.149,37.385,1.881,37.704,4.507c0.319,2.634-7.731,5.366-35.584,13.401
	c-13.383,3.859-31.499,9.086-34.028,11.341c3.19,1.142,21.958-0.8,35.821-2.234c28.819-2.981,37.302-3.463,37.991-0.903
	c0.69,2.559-6.884,6.404-33.294,18.309c-12.708,5.729-29.911,13.482-32.095,16.076c3.318,0.682,21.604-3.908,35.11-7.295
	c28.125-7.053,36.46-8.735,37.507-6.297c1.045,2.431-5.9,7.312-30.332,22.838c-11.775,7.482-27.714,17.611-29.506,20.49
	c3.38,0.203,20.812-6.94,33.688-12.211c26.851-10.99,34.868-13.848,36.254-11.58c1.378,2.254-4.793,8.072-26.74,26.908
	c-10.597,9.094-24.941,21.404-26.303,24.515c3.373-0.294,19.584-9.837,31.562-16.888c25.029-14.734,32.563-18.709,34.26-16.661
	c1.685,2.03-3.585,8.664-22.587,30.426c-9.195,10.532-21.645,24.79-22.543,28.063c3.293-0.778,17.949-12.529,28.777-21.211
	c22.687-18.189,29.582-23.211,31.559-21.424c1.954,1.766-2.307,9.076-17.979,33.301c-7.605,11.756-17.901,27.671-18.319,31.043
	c3.144-1.24,15.958-14.938,25.424-25.059c19.891-21.266,26.007-27.227,28.226-25.735c2.181,1.467-1,9.295-13.073,35.456
	c-5.887,12.756-13.859,30.029-13.766,33.391c2.954-1.607,13.876-17.184,21.941-28.684c18.553-26.459,21.971-30.153,24.083-29.133
	c2.407,1.167,0.338,9.452-8.026,37.342c-3.983,13.282-9.375,31.262-8.857,34.594c2.703-2.043,11.288-18.953,17.629-31.443
	c14.65-28.857,17.517-33.01,19.753-32.287c2.542,0.811,1.674,9.293-2.632,38.048c-2.058,13.735-4.842,32.329-3.85,35.554
	c2.379-2.41,8.455-20.344,12.941-33.59c10.396-30.686,12.638-35.213,14.967-34.823c2.627,0.44,2.978,8.95,2.821,37.989
	c-0.075,13.907-0.176,32.734,1.27,35.785c2.007-2.723,5.46-21.32,8.01-35.055C241.775,412.154,243.716,403.85,246.348,403.85z"/>
<path fill="#020202" d="M239.349,478.342c-0.024,0-0.049-0.001-0.074-0.002c-2.599-0.125-3.386-6.479-4.682-37.775
	c-0.581-14.037-1.369-33.084-2.99-35.809c-2.222,2.266-7.481,20.621-11.358,34.15c-8.615,30.064-10.87,36.039-13.423,35.559
	c-2.552-0.49-2.435-6.888,0.695-38.031c1.406-13.988,3.314-32.972,2.092-35.899c-2.517,1.931-10.306,19.35-16.045,32.187
	c-12.776,28.573-15.86,34.172-18.313,33.335c-2.455-0.844-1.438-7.159,6.049-37.527c3.367-13.662,7.937-32.2,7.138-35.272
	c-2.763,1.559-12.926,17.689-20.416,29.578c-16.695,26.496-20.541,31.623-22.857,30.434c-2.309-1.182-0.409-7.282,11.294-36.266
	c5.273-13.059,12.428-30.777,12.068-33.933c-2.952,1.151-15.292,15.661-24.387,26.354c-20.308,23.878-24.848,28.404-26.972,26.899
	c-2.114-1.496,0.634-7.256,16.337-34.248c7.09-12.188,16.711-28.723,16.802-31.897c-3.084,0.718-17.357,13.296-27.875,22.565
	c-23.543,20.747-28.687,24.582-30.58,22.785c-1.875-1.781,1.667-7.082,21.055-31.512c8.776-11.06,20.685-26.065,21.228-29.199
	c-3.153,0.273-19.057,10.659-30.778,18.312c-26.31,17.18-31.959,20.236-33.576,18.187c-1.597-2.028,2.662-6.761,25.313-28.138
	c10.283-9.703,24.237-22.873,25.22-25.898c-3.161-0.185-20.347,7.83-33.017,13.732c-28.524,13.285-34.558,15.515-35.873,13.246
	c-1.312-2.263,3.622-6.391,29.333-24.539c11.412-8.053,26.893-18.98,28.325-21.807c-3.122-0.641-21.479,4.926-35.008,9.029
	c-29.795,9.041-36.017,10.388-36.979,8c-0.977-2.422,4.486-5.801,32.475-20.088c12.461-6.362,29.369-14.994,31.185-17.593
	c-2.999-1.079-21.932,1.798-35.887,3.919c-30.827,4.687-37.187,5.127-37.798,2.621c-0.618-2.533,5.267-5.086,34.982-15.188
	c13.267-4.51,31.266-10.629,33.436-12.944c-2.81-1.495-21.933-1.373-36.028-1.285c-31.22,0.198-37.586-0.282-37.83-2.856
	c-0.246-2.59,5.938-4.268,36.763-9.982c13.795-2.558,32.511-6.028,34.991-8.012c-2.567-1.879-21.488-4.501-35.434-6.433
	c-30.957-4.29-37.193-5.68-37.066-8.266c0.127-2.594,6.483-3.371,37.779-4.614c14.033-0.558,33.072-1.314,35.812-2.926
	c-2.275-2.224-20.61-7.513-34.125-11.412c-30.053-8.669-36.031-10.937-35.537-13.481c0.496-2.546,6.892-2.41,38.022,0.812
	c13.982,1.447,32.952,3.41,35.893,2.202c-1.935-2.522-19.32-10.357-32.133-16.132c-28.537-12.861-34.136-15.958-33.284-18.409
	c0.851-2.449,7.159-1.405,37.497,6.201c13.644,3.421,32.157,8.06,35.24,7.283c-1.559-2.77-17.638-12.988-29.49-20.519
	c-26.438-16.801-31.544-20.666-30.351-22.974c1.189-2.298,7.278-0.37,36.198,11.468c13.03,5.333,30.706,12.577,33.876,12.235
	c-1.149-2.96-15.592-15.355-26.236-24.492c-23.792-20.419-28.298-24.978-26.785-27.094c1.503-2.104,7.249,0.675,34.151,16.512
	c12.147,7.15,28.629,16.853,31.812,16.971c-0.716-3.092-13.218-17.41-22.433-27.963C86.146,98.858,82.335,93.696,84.139,91.815
	c1.783-1.864,7.066,1.705,31.394,21.211c11.012,8.83,25.954,20.81,29.09,21.378c-0.27-3.16-10.58-19.097-18.179-30.843
	c-17.069-26.387-20.106-32.048-18.047-33.655c2.029-1.582,6.739,2.693,28.01,25.434c9.657,10.325,22.76,24.333,25.786,25.34
	c0.174-3.165-7.766-20.369-13.618-33.05c-13.188-28.574-15.397-34.617-13.129-35.921c2.271-1.305,6.384,3.641,24.45,29.405
	c8.023,11.442,18.91,26.966,21.731,28.396c0.659-3.114-4.852-21.493-8.913-35.037c-8.946-29.831-10.271-36.058-7.876-37.016
	c2.43-0.978,5.795,4.5,20.02,32.518c6.337,12.482,14.935,29.417,17.53,31.228c1.092-2.986-1.745-21.932-3.835-35.895
	c-4.618-30.843-5.044-37.204-2.531-37.813c2.533-0.613,5.084,5.271,15.153,34.998c4.497,13.278,10.6,31.294,12.915,33.456
	c1.503-2.798,1.399-21.931,1.323-36.031c-0.169-31.222,0.318-37.586,2.896-37.831c2.588-0.254,4.275,5.938,9.998,36.761
	c2.562,13.8,6.038,32.524,8.025,34.994c1.882-2.557,4.497-21.489,6.424-35.441c4.236-30.659,5.639-37.073,8.182-37.073
	c0.025,0,0.05,0,0.074,0.001c2.599,0.125,3.386,6.479,4.682,37.774c0.581,14.038,1.369,33.085,2.988,35.811
	c2.224-2.267,7.482-20.624,11.359-34.152c8.617-30.069,10.887-36.036,13.424-35.557c2.551,0.49,2.434,6.888-0.697,38.033
	c-1.405,13.989-3.314,32.97-2.092,35.898c2.517-1.933,10.307-19.351,16.045-32.188c12.773-28.565,15.855-34.179,18.314-33.333
	c2.455,0.844,1.438,7.156-6.048,37.524c-3.368,13.664-7.938,32.203-7.138,35.275c2.762-1.558,12.925-17.689,20.415-29.577
	c16.694-26.496,20.538-31.62,22.856-30.434c2.309,1.182,0.408,7.283-11.295,36.267c-5.272,13.058-12.428,30.776-12.068,33.93
	c2.953-1.151,15.293-15.66,24.389-26.354c20.31-23.879,24.846-28.4,26.971-26.898c2.114,1.496-0.633,7.258-16.336,34.249
	c-7.09,12.187-16.709,28.724-16.8,31.897c3.084-0.719,17.356-13.297,27.876-22.567c23.541-20.748,28.682-24.58,30.577-22.784
	c1.874,1.78-1.667,7.081-21.056,31.512c-8.777,11.059-20.686,26.065-21.227,29.196c3.15-0.272,19.057-10.657,30.777-18.312
	c26.311-17.18,31.957-20.24,33.576-18.185c1.596,2.026-2.661,6.759-25.313,28.136c-10.283,9.705-24.236,22.874-25.219,25.9
	c0.034,0.002,0.069,0.002,0.105,0.002c3.415,0,20.374-7.897,32.909-13.735c28.523-13.284,34.559-15.513,35.875-13.247
	c1.312,2.263-3.623,6.391-29.335,24.537c-11.411,8.054-26.892,18.98-28.325,21.808c3.127,0.644,21.48-4.926,35.011-9.03
	c29.795-9.04,36.017-10.384,36.978-7.997c0.977,2.422-4.486,5.801-32.476,20.088c-12.462,6.36-29.368,14.99-31.185,17.59
	c2.994,1.08,21.932-1.798,35.887-3.919c30.825-4.686,37.186-5.126,37.797-2.619c0.619,2.532-5.266,5.086-34.979,15.186
	c-13.268,4.509-31.268,10.628-33.438,12.945c2.81,1.496,21.933,1.373,36.028,1.285c31.221-0.197,37.584,0.282,37.832,2.856
	c0.245,2.589-5.939,4.269-36.764,9.983c-13.795,2.558-32.512,6.028-34.992,8.011c2.568,1.88,21.49,4.5,35.436,6.433
	c30.957,4.289,37.191,5.68,37.064,8.266c-0.126,2.594-6.482,3.371-37.779,4.613c-14.031,0.559-33.071,1.314-35.812,2.926
	c2.275,2.225,20.612,7.514,34.129,11.414c30.05,8.67,36.027,10.938,35.533,13.48c-0.496,2.549-6.892,2.41-38.022-0.812
	c-13.981-1.446-32.953-3.411-35.892-2.204c1.935,2.523,19.32,10.359,32.133,16.135c28.537,12.861,34.135,15.958,33.283,18.409
	c-0.853,2.446-7.158,1.405-37.494-6.202c-13.647-3.422-32.166-8.07-35.242-7.283c1.559,2.771,17.64,12.989,29.492,20.521
	c26.438,16.799,31.541,20.663,30.349,22.971c-1.188,2.298-7.279,0.369-36.202-11.469c-13.028-5.334-30.713-12.578-33.872-12.235
	c1.149,2.96,15.595,15.358,26.24,24.497c23.788,20.416,28.294,24.973,26.78,27.09c-1.502,2.104-7.244-0.674-34.151-16.514
	c-12.147-7.148-28.628-16.852-31.811-16.969c0.716,3.092,13.219,17.411,22.435,27.966c20.643,23.642,24.453,28.804,22.648,30.685
	c-1.783,1.859-7.064-1.703-31.393-21.211c-11.014-8.83-25.955-20.811-29.091-21.379c0.27,3.16,10.581,19.096,18.18,30.842
	c17.07,26.386,20.106,32.047,18.05,33.654c-2.03,1.581-6.744-2.694-28.014-25.436c-9.656-10.323-22.76-24.331-25.785-25.337
	c-0.176,3.165,7.766,20.368,13.617,33.05c13.189,28.574,15.396,34.617,13.129,35.922l0,0c-0.213,0.121-0.443,0.189-0.699,0.189
	c-2.467,0-7.384-6.254-23.75-29.593c-8.022-11.443-18.91-26.968-21.731-28.397c-0.661,3.113,4.851,21.49,8.912,35.034
	c8.945,29.833,10.271,36.06,7.876,37.019c-2.432,0.971-5.797-4.502-20.018-32.516c-6.337-12.482-14.937-29.421-17.532-31.23
	c-1.092,2.986,1.745,21.934,3.837,35.896c4.619,30.842,5.045,37.202,2.531,37.81c-2.541,0.61-5.084-5.271-15.154-34.996
	c-4.498-13.278-10.6-31.294-12.915-33.454c-1.504,2.797-1.399,21.929-1.323,36.027c0.168,31.227-0.32,37.592-2.898,37.834
	c-2.6,0.247-4.274-5.938-9.996-36.76c-2.562-13.801-6.039-32.525-8.026-34.994c-1.882,2.555-4.496,21.488-6.423,35.441
	C243.294,471.928,241.891,478.341,239.349,478.342z M231.692,402.783c0.049,0,0.098,0.002,0.146,0.009
	c2.633,0.314,3.378,8.771,4.576,37.698c0.577,13.945,1.358,32.824,2.957,35.805c1.869-2.812,4.448-21.483,6.353-35.275
	c3.969-28.74,5.524-37.107,8.185-37.17c0.011,0,0.02,0,0.029,0c2.632,0,4.572,8.303,9.832,36.641
	c2.551,13.734,6.002,32.332,8.012,35.054c1.445-3.051,1.344-21.879,1.269-35.786c-0.156-29.039,0.194-37.548,2.821-37.988
	c2.598-0.434,5.695,7.451,14.966,34.82c4.488,13.246,10.563,31.184,12.944,33.593c0.991-3.225-1.793-21.816-3.85-35.552
	c-4.307-28.756-5.174-37.238-2.631-38.05c2.513-0.81,6.69,6.559,19.753,32.29c6.341,12.49,14.925,29.399,17.628,31.44
	c0.521-3.331-4.873-21.312-8.856-34.597c-8.362-27.887-10.431-36.171-8.024-37.338c2.367-1.15,7.537,5.537,24.083,29.133
	c8.063,11.5,18.987,27.075,21.94,28.683c0.093-3.362-7.88-20.636-13.768-33.392c-13.538-29.336-15.02-34.146-13.073-35.455
	c2.218-1.487,8.336,4.471,28.226,25.735c9.466,10.12,22.279,23.817,25.424,25.06c-0.418-3.373-10.715-19.289-18.32-31.045
	c-17.574-27.164-19.721-31.726-17.979-33.299c1.973-1.785,8.871,3.232,31.56,21.424c10.826,8.682,25.481,20.431,28.777,21.211
	c-0.9-3.275-13.349-17.532-22.545-28.064c-21.308-24.402-24.089-28.615-22.587-30.427c1.699-2.048,9.233,1.93,34.261,16.663
	c11.975,7.05,28.187,16.592,31.561,16.887c-1.362-3.108-15.705-15.42-26.301-24.513c-24.613-21.124-27.972-24.899-26.742-26.911
	c1.383-2.266,9.403,0.588,36.252,11.58c12.705,5.201,29.843,12.217,33.547,12.217c0.051,0,0.098-0.002,0.143-0.004
	c-1.791-2.879-17.729-13.009-29.504-20.49c-24.433-15.526-31.379-20.407-30.334-22.838c1.047-2.438,9.385-0.754,37.504,6.296
	c13.51,3.386,31.789,7.974,35.113,7.294c-2.183-2.592-19.386-10.346-32.094-16.074c-26.412-11.903-33.986-15.75-33.297-18.31
	c0.691-2.558,9.173-2.078,37.992,0.905c13.863,1.436,32.629,3.381,35.822,2.234c-2.533-2.254-20.646-7.479-34.027-11.34
	c-27.855-8.037-35.905-10.77-35.586-13.402c0.318-2.628,8.777-3.359,37.704-4.508c13.937-0.555,32.806-1.304,35.802-2.893
	c-2.828-1.865-21.483-4.45-35.266-6.36c-28.738-3.981-37.103-5.541-37.164-8.195c-0.061-2.642,8.199-4.575,36.639-9.847
	c13.729-2.545,32.311-5.991,35.053-7.995c-3.066-1.438-21.877-1.319-35.778-1.23c-29.034,0.185-37.548-0.159-37.991-2.78
	c-0.438-2.602,7.449-5.699,34.804-14.997c13.235-4.499,31.153-10.589,33.574-12.971c-3.242-0.98-21.812,1.845-35.532,3.931
	c-28.746,4.369-37.229,5.257-38.045,2.72c-0.808-2.507,6.542-6.698,32.24-19.816c12.472-6.366,29.354-14.983,31.405-17.692
	c-3.354-0.501-21.292,4.946-34.55,8.968c-27.865,8.454-36.146,10.551-37.32,8.151c-1.154-2.361,5.516-7.548,29.056-24.161
	c11.476-8.1,27.019-19.069,28.621-22.028c-0.017,0-0.036,0-0.054,0c-3.487,0-20.62,7.979-33.288,13.878
	c-29.294,13.644-34.101,15.138-35.417,13.195c-1.502-2.213,4.429-8.357,25.602-28.339c10.086-9.518,23.738-22.402,24.953-25.547
	c-3.363,0.422-19.241,10.789-30.969,18.447c-27.098,17.695-31.648,19.859-33.232,18.121c-1.797-1.971,3.186-8.891,21.258-31.664
	c8.634-10.878,20.32-25.604,21.069-28.896c-3.263,0.902-17.468,13.421-27.959,22.667c-24.31,21.424-28.511,24.226-30.333,22.729
	c-2.06-1.69,1.877-9.243,16.479-34.343c6.992-12.022,16.46-28.296,16.727-31.662c-3.098,1.363-15.35,15.768-24.4,26.408
	c-18.743,22.039-24.537,28.235-26.797,26.865c-2.275-1.376,0.538-9.405,11.399-36.305c5.214-12.912,12.272-30.392,12.052-33.763
	c-2.87,1.79-12.941,17.776-20.381,29.583c-15.434,24.495-20.291,31.468-22.73,30.425c-2.444-1.039-0.797-9.38,6.141-37.53
	c3.336-13.529,7.852-31.846,7.152-35.152c-2.586,2.177-10.291,19.412-15.982,32.142c-11.83,26.452-15.655,34.035-18.22,33.355
	c-2.565-0.683-2.109-9.167,0.788-37.991c1.395-13.878,3.283-32.666,2.123-35.84c-2.249,2.519-7.446,20.653-11.285,34.048
	c-7.986,27.873-10.717,35.924-13.346,35.613c-2.633-0.314-3.379-8.771-4.575-37.699c-0.577-13.945-1.358-32.824-2.958-35.804
	c-1.868,2.814-4.447,21.485-6.353,35.275c-3.97,28.741-5.527,37.107-8.186,37.169c-0.009,0-0.02,0-0.029,0
	c-2.632,0.001-4.572-8.301-9.833-36.638c-2.55-13.736-6.002-32.333-8.01-35.055c-1.446,3.051-1.344,21.876-1.269,35.783
	c0.157,29.041-0.194,37.551-2.821,37.991c-2.626,0.434-5.696-7.457-14.965-34.821c-4.487-13.247-10.562-31.183-12.942-33.592
	c-0.992,3.226,1.792,21.819,3.848,35.554c4.306,28.754,5.173,37.237,2.631,38.049c-2.512,0.807-6.69-6.556-19.753-32.288
	c-6.341-12.49-14.927-29.401-17.63-31.443c-0.518,3.332,4.874,21.312,8.856,34.593c8.364,27.89,10.433,36.174,8.026,37.342
	c-2.366,1.147-7.536-5.536-24.082-29.131c-8.065-11.501-18.988-27.078-21.941-28.686c-0.093,3.362,7.879,20.637,13.766,33.392
	c13.539,29.335,15.019,34.146,13.074,35.454c-0.211,0.142-0.458,0.216-0.749,0.216c-2.758,0-9.48-6.709-27.478-25.952
	c-9.465-10.12-22.276-23.817-25.421-25.059c0.418,3.373,10.714,19.289,18.319,31.045c17.573,27.165,19.721,31.726,17.978,33.299
	c-1.979,1.787-8.872-3.233-31.559-21.423c-10.827-8.681-25.481-20.431-28.776-21.211c0.899,3.275,13.349,17.533,22.545,28.066
	c21.306,24.401,24.087,28.613,22.585,30.423c-1.699,2.047-9.231-1.927-34.262-16.662c-11.975-7.05-28.184-16.591-31.56-16.888
	c1.362,3.108,15.707,15.421,26.304,24.517c24.609,21.121,27.969,24.896,26.739,26.906c-1.386,2.265-9.402-0.587-36.256-11.58
	c-12.876-5.271-30.302-12.388-33.687-12.211c1.792,2.879,17.732,13.009,29.508,20.493c24.431,15.525,31.375,20.406,30.331,22.836
	c-1.048,2.436-9.381,0.756-37.502-6.295c-13.509-3.387-31.792-7.97-35.116-7.295c2.183,2.592,19.387,10.347,32.096,16.075
	c26.41,11.903,33.984,15.75,33.295,18.308c-0.689,2.559-9.172,2.078-37.992-0.905c-13.863-1.435-32.63-3.377-35.82-2.233
	c2.53,2.254,20.646,7.479,34.028,11.339c27.854,8.034,35.903,10.768,35.584,13.401c-0.319,2.626-8.777,3.358-37.704,4.507
	c-13.938,0.554-32.806,1.304-35.803,2.893c2.828,1.867,21.485,4.452,35.268,6.361c28.737,3.981,37.101,5.541,37.162,8.195
	c0.06,2.642-8.199,4.574-36.638,9.848c-13.729,2.543-32.312,5.989-35.053,7.994c3.066,1.438,21.879,1.321,35.776,1.23
	c29.04-0.187,37.55,0.157,37.992,2.78c0.438,2.602-7.448,5.697-34.802,14.995c-13.236,4.499-31.154,10.59-33.576,12.973
	c3.241,0.977,21.812-1.846,35.532-3.932c28.746-4.371,37.228-5.258,38.045-2.721c0.808,2.506-6.542,6.699-32.241,19.817
	c-12.471,6.366-29.353,14.983-31.404,17.693c3.345,0.493,21.292-4.946,34.55-8.97c27.867-8.457,36.145-10.551,37.318-8.152
	c1.155,2.361-5.515,7.548-29.054,24.161c-11.477,8.101-27.019,19.07-28.622,22.028c0.018,0,0.035,0,0.054,0
	c3.488,0,20.619-7.979,33.286-13.877c29.293-13.642,34.101-15.138,35.419-13.194c1.501,2.212-4.429,8.356-25.602,28.339
	c-10.085,9.518-23.738,22.401-24.952,25.547c3.361-0.421,19.239-10.789,30.967-18.447c27.094-17.691,31.648-19.86,33.233-18.121
	c1.797,1.973-3.186,8.892-21.259,31.665c-8.633,10.878-20.319,25.604-21.069,28.896c3.264-0.902,17.469-13.421,27.962-22.667
	c24.309-21.423,28.511-24.223,30.333-22.729c2.058,1.69-1.877,9.244-16.48,34.343c-6.994,12.021-16.461,28.295-16.728,31.662
	c3.098-1.363,15.35-15.77,24.399-26.41c18.742-22.036,24.532-28.235,26.798-26.863c2.275,1.375-0.539,9.405-11.401,36.306
	c-5.213,12.911-12.271,30.389-12.051,33.759c2.87-1.789,12.942-17.773,20.381-29.582c15.434-24.496,20.286-31.459,22.731-30.426
	c2.444,1.039,0.797,9.381-6.142,37.529c-3.335,13.529-7.851,31.848-7.152,35.154c2.585-2.176,10.292-19.411,15.984-32.143
	c11.828-26.451,15.659-34.043,18.219-33.354c2.564,0.684,2.109,9.168-0.788,37.994c-1.395,13.876-3.283,32.662-2.124,35.836
	c2.25-2.518,7.447-20.654,11.286-34.051C226.332,411.051,229.098,402.783,231.692,402.783z M363.934,446.379l0.453,0.789
	L363.934,446.379z"/>
<path fill="#1E1E1E" d="M378.633,324.017c-2.333,4.041-17.079,0.041-19.737,3.761c-2.71,3.789,5.835,16.449,2.819,19.896
	c-3.062,3.499-16.744-3.298-20.092-0.159c-3.387,3.172,2.508,17.262-1.14,20.059c-3.677,2.821-15.759-6.531-19.669-4.104
	c-3.934,2.44-0.913,17.415-5.047,19.449c-4.15,2.041-14.175-9.488-18.491-7.867c-4.324,1.625-4.275,16.902-8.734,18.097
	c-4.458,1.194-12.054-12.06-16.611-11.304c-4.55,0.752-7.466,15.75-12.081,16.057c-4.598,0.305-9.468-14.172-14.095-14.32
	c-4.599-0.146-10.386,13.992-14.982,13.391c-4.557-0.599-6.496-15.748-11.016-16.805c-4.469-1.043-12.919,11.686-17.32,10.186
	c-4.335-1.478-3.264-16.713-7.504-18.639c-4.163-1.893-14.932,8.945-18.974,6.611c-4.042-2.334-0.041-17.079-3.76-19.738
	c-3.79-2.709-16.449,5.837-19.896,2.822c-3.499-3.064,3.299-16.746,0.162-20.094c-3.174-3.387-17.264,2.508-20.061-1.139
	c-2.821-3.678,6.531-15.76,4.104-19.67c-2.441-3.934-17.414-0.914-19.448-5.049c-2.042-4.147,9.488-14.172,7.866-18.488
	c-1.625-4.325-16.901-4.275-18.096-8.734c-1.195-4.458,12.06-12.054,11.304-16.611c-0.753-4.551-15.75-7.466-16.057-12.081
	c-0.305-4.596,14.172-9.469,14.319-14.095c0.147-4.6-13.993-10.386-13.39-14.982c0.598-4.556,15.748-6.497,16.803-11.017
	c1.043-4.468-11.685-12.918-10.186-17.319c1.477-4.336,16.712-3.266,18.639-7.506c1.892-4.162-8.946-14.932-6.613-18.973
	c2.333-4.042,17.079-0.041,19.738-3.76c2.708-3.789-5.836-16.448-2.82-19.896c3.062-3.499,16.745,3.299,20.093,0.161
	c3.387-3.175-2.508-17.265,1.139-20.061c3.679-2.82,15.76,6.532,19.67,4.105c3.934-2.441,0.914-17.416,5.047-19.45
	c4.15-2.042,14.173,9.488,18.491,7.866c4.325-1.624,4.275-16.901,8.734-18.095c4.459-1.195,12.054,12.06,16.612,11.305
	c4.55-0.754,7.466-15.75,12.081-16.057c4.597-0.306,9.469,14.171,14.096,14.319c4.6,0.146,10.387-13.993,14.982-13.39
	c4.555,0.598,6.496,15.748,11.016,16.804c4.47,1.043,12.92-11.686,17.32-10.187c4.335,1.477,3.266,16.713,7.507,18.64
	c4.162,1.893,14.931-8.946,18.974-6.613c4.041,2.333,0.039,17.08,3.759,19.738c3.789,2.708,16.448-5.836,19.896-2.82
	c3.499,3.062-3.299,16.743-0.162,20.091c3.175,3.387,17.266-2.508,20.062,1.139c2.82,3.678-6.533,15.76-4.105,19.67
	c2.441,3.934,17.414,0.914,19.447,5.048c2.042,4.149-9.486,14.173-7.865,18.49c1.625,4.325,16.902,4.276,18.096,8.734
	c1.195,4.459-12.059,12.054-11.305,16.612c0.754,4.549,15.75,7.466,16.057,12.08c0.306,4.598-14.172,9.468-14.318,14.095
	c-0.146,4.6,13.992,10.387,13.389,14.982c-0.598,4.556-15.748,6.495-16.805,11.016c-1.043,4.469,11.686,12.92,10.187,17.319
	c-1.478,4.336-16.713,3.265-18.64,7.505C370.129,309.207,380.965,319.977,378.633,324.017z"/>
<path fill="#F2AA1D" d="M259.697,399.729c-3.259,0-5.811-3.877-8.508-7.973c-1.555-2.36-4.157-6.312-5.493-6.355
	c-0.007,0-0.015,0-0.022,0c-1.325,0-4.138,3.73-5.822,5.963c-3.048,4.041-5.925,7.854-9.318,7.414
	c-3.361-0.441-5.147-4.848-7.037-9.512c-1.064-2.624-2.845-7.018-4.156-7.325c-1.264-0.29-4.78,2.824-6.876,4.688
	c-3.79,3.371-7.37,6.551-10.617,5.447c-3.198-1.09-4.082-5.747-5.019-10.68c-0.53-2.792-1.417-7.464-2.653-8.025
	c-1.178-0.535-5.214,1.834-7.626,3.25c-4.382,2.573-8.522,5.002-11.504,3.281c-2.981-1.721-2.946-6.521-2.91-11.604
	c0.02-2.797,0.053-7.478-0.999-8.228c-1.104-0.79-5.594,0.777-8.276,1.713c-4.741,1.656-9.218,3.22-11.76,0.996
	c-2.581-2.26-1.614-6.953-0.589-11.919c0.566-2.749,1.515-7.347,0.622-8.3c-0.921-0.982-5.617-0.327-8.422,0.063
	c-4.984,0.695-9.692,1.351-11.755-1.339c-2.081-2.715-0.214-7.116,1.761-11.776c1.098-2.589,2.936-6.923,2.241-8.042
	c-0.705-1.137-5.427-1.414-8.25-1.58c-5.032-0.296-9.785-0.575-11.285-3.624c-1.505-3.06,1.179-7.007,4.022-11.185
	c1.585-2.33,4.239-6.23,3.773-7.47c-0.467-1.244-5.04-2.434-7.771-3.144c-4.884-1.271-9.498-2.471-10.378-5.758
	c-0.882-3.288,2.514-6.635,6.108-10.178c2.011-1.981,5.375-5.297,5.158-6.609c-0.217-1.307-4.464-3.355-7.003-4.582
	c-4.55-2.196-8.849-4.271-9.075-7.674c-0.225-3.391,3.751-6.01,7.961-8.783c2.36-1.554,6.312-4.156,6.354-5.492
	c0.042-1.315-3.716-4.15-5.962-5.844c-4.041-3.048-7.858-5.926-7.413-9.317c0.441-3.361,4.847-5.147,9.51-7.038
	c2.625-1.064,7.02-2.845,7.325-4.156c0.297-1.272-2.823-4.78-4.688-6.876c-3.371-3.79-6.555-7.369-5.448-10.616
	c1.089-3.198,5.748-4.083,10.68-5.019c2.792-0.53,7.463-1.417,8.025-2.654c0.535-1.178-1.835-5.215-3.251-7.627
	c-2.572-4.383-5.002-8.522-3.282-11.503c1.722-2.981,6.524-2.946,11.604-2.91c2.797,0.021,7.478,0.054,8.23-0.998
	c0.79-1.105-0.778-5.595-1.714-8.276c-1.655-4.741-3.219-9.218-0.994-11.76c2.258-2.582,6.951-1.614,11.919-0.59
	c2.748,0.567,7.346,1.515,8.299,0.622c0.982-0.92,0.328-5.617-0.063-8.422c-0.694-4.984-1.351-9.692,1.34-11.755
	c2.713-2.082,7.115-0.215,11.775,1.762c2.589,1.097,6.922,2.937,8.042,2.241c1.135-0.705,1.413-5.429,1.58-8.25
	c0.296-5.032,0.575-9.786,3.624-11.286c3.06-1.506,7.007,1.179,11.185,4.022c2.331,1.585,6.228,4.238,7.47,3.773
	c1.245-0.467,2.434-5.04,3.145-7.771c1.271-4.885,2.471-9.498,5.759-10.38c3.288-0.88,6.634,2.515,10.177,6.11
	c1.981,2.011,5.303,5.376,6.608,5.158c1.306-0.217,3.357-4.464,4.582-7.002c2.197-4.551,4.272-8.85,7.676-9.076
	c3.379-0.23,6.01,3.751,8.782,7.961c1.554,2.361,4.158,6.312,5.494,6.355c0.006,0,0.014,0,0.021,0c1.324,0,4.137-3.729,5.822-5.962
	c3.047-4.041,5.92-7.857,9.315-7.414c3.362,0.441,5.147,4.846,7.039,9.511c1.064,2.625,2.845,7.019,4.155,7.326
	c1.275,0.299,4.781-2.825,6.877-4.688c3.79-3.372,7.369-6.556,10.617-5.449c3.197,1.089,4.082,5.749,5.019,10.682
	c0.53,2.791,1.417,7.462,2.653,8.024c1.182,0.536,5.216-1.834,7.627-3.25c4.384-2.573,8.523-5.002,11.504-3.282
	c2.98,1.721,2.945,6.521,2.91,11.604c-0.021,2.796-0.053,7.478,0.998,8.23c1.107,0.79,5.594-0.778,8.276-1.715
	c4.739-1.655,9.219-3.219,11.759-0.994c2.582,2.259,1.615,6.951,0.59,11.918c-0.566,2.747-1.514,7.345-0.621,8.298
	c0.92,0.982,5.616,0.328,8.424-0.063c4.982-0.695,9.691-1.351,11.754,1.339c2.08,2.714,0.215,7.115-1.762,11.776
	c-1.098,2.589-2.936,6.924-2.24,8.042c0.703,1.136,5.428,1.414,8.25,1.58c5.032,0.296,9.783,0.576,11.284,3.625
	c1.506,3.06-1.179,7.006-4.022,11.185c-1.586,2.33-4.237,6.229-3.771,7.469c0.467,1.245,5.039,2.434,7.771,3.144
	c4.885,1.271,9.498,2.471,10.378,5.759c0.883,3.288-2.515,6.634-6.109,10.177c-2.01,1.981-5.375,5.297-5.156,6.609
	c0.215,1.305,4.463,3.356,7,4.582c4.551,2.197,8.851,4.272,9.077,7.676c0.225,3.391-3.753,6.009-7.962,8.781
	c-2.36,1.555-6.312,4.157-6.355,5.493c-0.041,1.314,3.717,4.15,5.962,5.844c4.041,3.047,7.858,5.927,7.413,9.316
	c-0.44,3.361-4.846,5.146-9.511,7.038c-2.625,1.065-7.02,2.845-7.325,4.155c-0.297,1.273,2.822,4.781,4.688,6.877
	c3.371,3.789,6.555,7.369,5.447,10.617c-1.088,3.197-5.748,4.082-10.681,5.018c-2.791,0.529-7.464,1.416-8.024,2.652
	c-0.535,1.179,1.834,5.217,3.25,7.627c2.572,4.385,5.002,8.523,3.281,11.504c-1.722,2.981-6.524,2.948-11.604,2.91
	c-2.793-0.021-7.479-0.054-8.23,0.998c-0.789,1.105,0.778,5.595,1.716,8.277c1.654,4.74,3.218,9.219,0.993,11.76
	c-2.258,2.582-6.949,1.614-11.918,0.59c-2.748-0.565-7.346-1.514-8.299-0.621c-0.981,0.92-0.328,5.616,0.064,8.422
	c0.693,4.983,1.35,9.692-1.34,11.756c-2.714,2.08-7.115,0.215-11.777-1.762c-2.59-1.098-6.922-2.938-8.041-2.24
	c-1.136,0.704-1.414,5.427-1.58,8.25c-0.296,5.032-0.576,9.785-3.623,11.285c-3.064,1.508-7.01-1.179-11.188-4.021
	c-2.33-1.586-6.238-4.239-7.468-3.773c-1.243,0.468-2.433,5.039-3.145,7.771c-1.271,4.885-2.47,9.498-5.759,10.379
	c-3.291,0.884-6.635-2.514-10.177-6.108c-1.98-2.011-5.286-5.389-6.608-5.156c-1.306,0.215-3.356,4.463-4.581,7
	c-2.198,4.551-4.272,8.85-7.677,9.076C259.879,399.725,259.787,399.729,259.697,399.729z M245.682,381.756
	c0.044,0,0.087,0.002,0.131,0.004c3.224,0.102,5.748,3.935,8.419,7.992c1.563,2.373,4.169,6.332,5.457,6.332
	c0.014,0,0.025-0.002,0.041-0.002c1.285-0.084,3.382-4.43,4.635-7.024c2.107-4.364,4.098-8.487,7.268-9.012
	c3.176-0.519,6.394,2.738,9.801,6.194c2.019,2.049,5.391,5.473,6.637,5.148c1.238-0.333,2.451-4.994,3.176-7.777
	c1.223-4.697,2.376-9.133,5.389-10.266c3.006-1.128,6.793,1.444,10.801,4.171c2.383,1.622,6.373,4.331,7.527,3.767
	c1.145-0.564,1.426-5.363,1.594-8.23c0.287-4.85,0.556-9.43,3.297-11.132c2.724-1.692,6.932,0.093,11.386,1.98
	c2.658,1.128,7.107,3.017,8.137,2.225c1.005-0.771,0.316-5.707-0.054-8.36c-0.671-4.819-1.306-9.371,1.055-11.583
	c2.331-2.185,6.799-1.264,11.527-0.29c2.834,0.586,7.578,1.564,8.439,0.581c0.826-0.946-0.812-5.638-1.693-8.158
	c-1.606-4.606-3.126-8.958-1.238-11.599c1.853-2.591,6.406-2.561,11.221-2.523c2.903,0.019,7.761,0.057,8.422-1.088
	c0.659-1.144-1.8-5.334-3.268-7.836c-2.439-4.156-4.743-8.08-3.426-10.98c1.344-2.955,5.871-3.814,10.663-4.726
	c2.624-0.497,7.507-1.425,7.911-2.612c0.421-1.237-2.798-4.857-4.722-7.02c-3.21-3.609-6.239-7.017-5.513-10.128
	c0.735-3.149,4.994-4.876,9.505-6.704c2.481-1.007,7.101-2.879,7.267-4.135c0.168-1.285-3.689-4.193-5.994-5.933
	c-3.863-2.915-7.512-5.666-7.41-8.868c0.103-3.227,3.937-5.75,7.994-8.422c2.398-1.58,6.412-4.223,6.329-5.496
	c-0.085-1.286-4.429-3.383-7.024-4.636c-4.363-2.107-8.486-4.098-9.012-7.268c-0.527-3.177,2.738-6.394,6.193-9.8
	c2.051-2.02,5.48-5.399,5.148-6.638c-0.332-1.239-4.992-2.451-7.775-3.175c-4.697-1.222-9.133-2.376-10.266-5.39
	c-1.131-3.008,1.444-6.793,4.171-10.801c1.621-2.382,4.335-6.37,3.765-7.525c-0.562-1.145-5.361-1.427-8.229-1.596
	c-4.851-0.285-9.43-0.555-11.132-3.296c-1.69-2.723,0.093-6.932,1.982-11.387c1.126-2.658,3.013-7.107,2.224-8.136
	c-0.77-1.004-5.707-0.317-8.359,0.053c-4.82,0.671-9.373,1.307-11.584-1.054c-2.187-2.331-1.266-6.797-0.291-11.526
	c0.586-2.835,1.564-7.579,0.581-8.44c-0.944-0.826-5.638,0.812-8.157,1.692c-4.605,1.608-8.956,3.128-11.598,1.239
	c-2.59-1.852-2.558-6.403-2.523-11.221c0.02-2.903,0.057-7.761-1.088-8.422c-1.148-0.664-5.334,1.799-7.837,3.269
	c-4.153,2.439-8.079,4.744-10.98,3.425c-2.955-1.343-3.814-5.87-4.726-10.662c-0.497-2.624-1.426-7.507-2.613-7.912
	c-1.237-0.427-4.857,2.798-7.02,4.721c-3.609,3.21-7.02,6.241-10.126,5.515c-3.151-0.736-4.876-4.996-6.706-9.505
	c-1.006-2.482-2.879-7.102-4.135-7.267c-1.291-0.171-4.195,3.689-5.932,5.994c-2.916,3.864-5.666,7.537-8.871,7.41
	c-3.225-0.103-5.748-3.936-8.42-7.994c-1.58-2.399-4.225-6.424-5.497-6.329c-1.286,0.085-3.382,4.429-4.635,7.023
	c-2.107,4.365-4.097,8.488-7.268,9.013c-3.177,0.525-6.394-2.739-9.8-6.195c-2.019-2.049-5.396-5.476-6.638-5.147
	c-1.238,0.332-2.451,4.992-3.175,7.776c-1.222,4.696-2.375,9.133-5.39,10.265c-3.011,1.13-6.794-1.446-10.801-4.172
	c-2.382-1.621-6.368-4.334-7.526-3.765c-1.145,0.562-1.427,5.362-1.596,8.229c-0.285,4.85-0.554,9.432-3.296,11.133
	c-2.724,1.69-6.931-0.094-11.386-1.983c-2.658-1.127-7.106-3.013-8.136-2.225c-1.005,0.771-0.317,5.708,0.053,8.36
	c0.671,4.82,1.306,9.372-1.054,11.584c-2.332,2.185-6.799,1.264-11.527,0.289c-2.835-0.584-7.579-1.563-8.44-0.579
	c-0.826,0.945,0.812,5.637,1.692,8.158c1.608,4.605,3.127,8.956,1.238,11.597c-1.852,2.59-6.406,2.555-11.221,2.523
	c-2.904-0.02-7.761-0.056-8.421,1.088c-0.66,1.144,1.799,5.333,3.268,7.836c2.439,4.155,4.743,8.08,3.426,10.979
	c-1.343,2.956-5.87,3.816-10.663,4.726c-2.623,0.499-7.506,1.426-7.91,2.614c-0.422,1.237,2.798,4.856,4.722,7.019
	c3.209,3.608,6.24,7.016,5.514,10.127c-0.736,3.15-4.995,4.876-9.505,6.705c-2.482,1.006-7.101,2.879-7.266,4.134
	c-0.169,1.285,3.689,4.195,5.994,5.934c3.863,2.914,7.512,5.666,7.41,8.87c-0.103,3.224-3.936,5.748-7.993,8.42
	c-2.399,1.58-6.414,4.224-6.329,5.496c0.086,1.286,4.429,3.383,7.023,4.635c4.365,2.107,8.488,4.098,9.013,7.268
	c0.526,3.178-2.738,6.395-6.195,9.801c-2.049,2.02-5.479,5.398-5.147,6.638c0.332,1.237,4.992,2.451,7.776,3.175
	c4.696,1.222,9.133,2.375,10.265,5.39c1.131,3.009-1.444,6.794-4.171,10.8c-1.621,2.384-4.333,6.371-3.765,7.527
	c0.563,1.145,5.362,1.427,8.229,1.595c4.85,0.286,9.431,0.554,11.132,3.296c1.69,2.723-0.093,6.932-1.982,11.387
	c-1.127,2.658-3.013,7.107-2.224,8.137c0.77,1.004,5.708,0.316,8.36-0.055c4.819-0.672,9.372-1.307,11.584,1.055
	c2.185,2.331,1.264,6.799,0.289,11.527c-0.585,2.835-1.563,7.579-0.58,8.439c0.945,0.828,5.637-0.811,8.158-1.692
	c4.606-1.606,8.956-3.126,11.597-1.238c2.591,1.851,2.558,6.402,2.524,11.22c-0.021,2.903-0.056,7.762,1.088,8.422
	c1.144,0.658,5.333-1.799,7.836-3.269c4.156-2.438,8.082-4.74,10.979-3.425c2.957,1.344,3.816,5.871,4.726,10.663
	c0.499,2.623,1.425,7.507,2.613,7.911c1.238,0.426,4.857-2.797,7.021-4.722c3.607-3.208,7.015-6.243,10.127-5.513
	c3.149,0.734,4.876,4.995,6.705,9.504c1.006,2.482,2.878,7.102,4.134,7.268c1.295,0.182,4.194-3.691,5.934-5.995
	C239.817,385.358,242.534,381.756,245.682,381.756z"/>
<polygon fill="none" points="246.691,316.668 262.801,316.668 254.984,296.41 "/>
<path fill="none" d="M206.169,323.658v-23.974c0-4.597-2.479-6.473-8.557-6.473h-19.068v37.962h18.113
	C205.183,331.174,206.169,326.885,206.169,323.658z"/>
<path fill="none" d="M289.652,244.625c15.979,0,23.42-10.125,23.42-31.864c0-20.705-8.057-31.204-23.946-31.204
	c-15.366,0-23.156,10.455-23.156,31.073C265.97,235.355,272.83,244.625,289.652,244.625z"/>
<path fill="#FFFFFF" d="M239.316,236.643v-8.312c0-6.224-2.031-11.638-6.041-16.115c3.958-4.571,6.041-10.236,6.041-16.476v-5.806
	c0-15.926-10.608-24.345-30.679-24.345h-45.853v18.739h42.554c9.281,0,12.732,2.592,12.732,9.565v0.528
	c0,3.993-1.32,9.301-12.732,9.301h-30.151V221.8h30.151c8.257,0,12.732,1.44,12.732,9.038v1.715c0,7.068-3.451,9.697-12.732,9.697
	h-42.686v18.738h45.984C228.708,260.988,239.316,252.57,239.316,236.643z"/>
<path fill="#FFFFFF" d="M297.715,261.781c13.83,0,24.383-4.236,31.365-12.586c6.812-8.147,10.266-20.317,10.266-36.17
	c0.001-16.382-3.432-28.239-10.49-36.25c-7.178-8.149-17.884-12.109-32.723-12.109c-29.346,0-43.609,16.034-43.609,49.019
	C252.523,246.498,266.883,261.781,297.715,261.781z M295.605,181.557c15.89,0,23.946,10.5,23.946,31.204
	c0,21.739-7.441,31.864-23.419,31.864c-16.822,0-23.684-9.27-23.684-31.996C272.449,192.011,280.24,181.557,295.605,181.557z"/>
<path fill="#FFFFFF" d="M221.02,288.575c0-5.693-2.134-10.291-6.171-13.292c-3.677-2.734-8.979-4.123-15.761-4.123h-35.396v63.843
	h34.614c8.01,0,13.675-1.512,17.306-4.611c3.639-3.048,5.408-7.521,5.408-13.673V288.575z M178.543,284.1h19.068
	c6.078,0,8.557,1.875,8.557,6.473v23.976c0,3.227-0.986,7.515-9.513,7.515h-18.113V284.1z"/>
<path fill="#FFFFFF" d="M247.238,271.16l-26.541,63.843h15.528l6.428-15.116h24.122l6.166,15.116h15.61l-25.9-63.843H247.238z
	 M262.801,307.558h-16.109l8.293-20.259L262.801,307.558z"/>
<polygon fill="#FFFFFF" points="321.09,271.16 305.659,294.678 290.063,271.16 273.623,271.16 298.153,307.541 298.153,335.003 
	312.916,335.003 312.916,307.544 337.634,271.16 "/>
<path fill="#FFFFFF" d="M126.94,370.366l5.139,5.048l-13.466,32.663l-4.738-4.653l3.333-8.133l-10.043-9.865l-8.172,3.381
	l-4.705-4.621L126.94,370.366z M111.74,382.904l7.908,7.768l5.929-13.711L111.74,382.904z"/>
<path fill="#FFFFFF" d="M157.256,423.123c-1.684,2.644-3.59,3.98-5.829,4.273c-2.497,0.35-5.374-0.707-8.647-2.793l-15.03-9.577
	l17.596-27.611l15.384,9.802c2.604,1.658,4.748,3.691,5.64,6.033c0.81,2.125,0.664,4.529-0.97,7.093L157.256,423.123z
	 M159.457,407.832c1.936-3.037,0.104-5.037-2.263-6.545l-9.349-5.958l-11.864,18.619l8.915,5.681c3.353,2.137,5.89,1.811,7.624-0.91
	L159.457,407.832z"/>
<path fill="#FFFFFF" d="M179.827,442.545l-6.028-2.305l-0.883-35.393l6.247,2.391l0.091,28.428l18.91-21.158l6.116,2.339
	L179.827,442.545z"/>
<path fill="#FFFFFF" d="M216.58,418.932l7.092,1.25l7.39,34.549l-6.54-1.154l-1.856-8.592l-13.863-2.447l-4.822,7.412l-6.494-1.146
	L216.58,418.932z M211.148,437.87l10.915,1.927l-2.874-14.66L211.148,437.87z"/>
<path fill="#FFFFFF" d="M248.021,430.498l0.907,24.584l-6.357,0.235l-1.207-32.72l7.993-0.294l17.088,24.223l-0.916-24.819
	l6.358-0.234l1.206,32.719l-7.806,0.289L248.021,430.498z"/>
<path fill="#FFFFFF" d="M305.109,413.811l1.277,5.178l-10.4,2.562l6.555,26.613l-6.178,1.521l-6.553-26.614l-10.629,2.617
	l-1.275-5.177L305.109,413.811z"/>
<path fill="#FFFFFF" d="M316.307,409.037l6.592-2.899l25.344,24.618l-6.08,2.675l-6.316-6.112l-12.888,5.67l0.11,8.843l-6.037,2.655
	L316.307,409.037z M322.314,427.805l10.145-4.465l-10.534-10.592L322.314,427.805z"/>
<path fill="#FFFFFF" d="M348.695,403.031l7.467,10.529c0.812,1.145,1.766,1.844,2.837,2.059c1.396,0.271,2.991-0.229,4.784-1.5
	l8.735-6.195l-4.87-6.867l-5.836,4.141l-3.084-4.351l10.719-7.602l11.039,15.563l-14.307,10.146
	c-2.898,2.057-5.513,3.222-7.861,3.225c-2.491,0.046-4.693-1.2-6.668-3.986l-8.766-12.36c-1.542-2.175-1.928-4.252-1.502-6.159
	c0.63-2.912,3.074-5.448,5.668-7.289l14.496-10.28l3.084,4.349l-14,9.932c-2.098,1.486-2.513,1.953-2.75,3.152
	C347.604,400.766,347.938,401.963,348.695,403.031z"/>
<path fill="#FFFFFF" d="M377.617,379.836l2.846,2.705l10.475-11.014l3.762,3.576l-10.473,11.017l2.745,2.608
	c1.017,0.969,2.089,1.47,3.181,1.477c1.422-0.004,2.891-0.802,4.404-2.395l9.41-9.896l3.864,3.672l-9.41,9.898
	c-2.901,3.051-5.532,4.938-8.168,5.334c-2.242,0.322-4.513-0.481-6.817-2.672l-10.981-10.442c-2.103-1.999-2.817-4.163-2.638-6.253
	c0.225-2.816,2.042-5.543,4.137-7.746l10.151-10.677l3.864,3.675l-9.732,10.235c-1.772,1.864-2.09,2.401-2.092,3.626
	C376.109,377.822,376.667,378.934,377.617,379.836z"/>
<path fill="#FFFFFF" d="M72.594,177.677l6.078-13.625l4.741,2.116l-6.079,13.625l12.77,5.697l-2.591,5.809l-22.081-9.852
	c-2.904-1.296-4.369-3.179-4.822-5.377c-0.528-2.489,0.245-5.371,1.446-8.061l6.041-13.539l4.869,2.172l-5.717,12.813
	c-0.686,1.538-1.02,2.976-0.675,4.154c0.297,1.054,1.065,1.858,2.432,2.467L72.594,177.677z"/>
<path fill="#FFFFFF" d="M84.838,157.759c-9.264-6.256-10.917-14.087-4.923-22.964c5.863-8.683,13.356-10,22.813-3.613
	c9.032,6.099,10.594,13.813,4.836,22.341C101.518,162.476,93.792,163.806,84.838,157.759z M88.4,152.15
	c6.821,4.606,11.494,4.207,15.185-1.259c3.69-5.465,2.314-9.78-4.545-14.413c-7.094-4.79-11.571-4.428-15.235,0.999
	C79.511,143.835,82.973,148.486,88.4,152.15z"/>
<path fill="#FFFFFF" d="M99.452,110.683l16.23,15.649c1.145,1.104,2.377,1.577,3.6,1.456c1.288-0.123,2.597-0.875,3.96-2.289
	l6.851-7.105l3.838,3.701l-7.012,7.273c-2.695,2.794-5.372,4.762-8.111,5.11c-2.145,0.271-4.342-0.482-6.699-2.756l-17.072-16.46
	L99.452,110.683z"/>
<path fill="#FFFFFF" d="M120.943,90.526l13.831,17.803c0.975,1.255,2.128,1.9,3.354,1.955c1.292,0.062,2.695-0.495,4.247-1.701
	l7.793-6.054l3.271,4.21l-7.979,6.199c-3.065,2.381-5.995,3.947-8.755,3.901c-2.162-0.038-4.229-1.098-6.237-3.683L115.92,94.429
	L120.943,90.526z"/>
<path fill="#FFFFFF" d="M146.467,91.562c-5.321-9.831-3.165-17.54,6.255-22.638c9.214-4.986,16.467-2.689,21.899,7.347
	c5.188,9.584,3.005,17.147-6.044,22.045C159.075,103.458,151.61,101.063,146.467,91.562z M152.219,88.236
	c3.918,7.239,8.246,9.045,14.046,5.906c5.8-3.139,6.576-7.602,2.635-14.882c-4.073-7.528-8.211-9.276-13.97-6.16
	C148.183,76.751,149.102,82.477,152.219,88.236z"/>
<path fill="#FFFFFF" d="M216.342,80.339l-6.22,1.722l-12.647-22.024l-0.063,25.542l-6.22,1.722l-18.333-28.894l6.445-1.784
	l12.629,21.786l0.486-25.416l5.995-1.659l12.945,21.699l0.126-25.317l6.31-1.746L216.342,80.339z"/>
<path fill="#FFFFFF" d="M239.349,63.66l-13.876,1.309l-0.462-4.89l13.876-1.309L239.349,63.66z"/>
<path fill="#FFFFFF" d="M266.839,45.016l-0.087,5.331l-10.711-0.174l-0.444,27.407l-6.36-0.103l0.445-27.407l-10.944-0.178
	l0.086-5.332L266.839,45.016z"/>
<path fill="#FFFFFF" d="M295.969,83.078l-6.25-1.176l2.595-13.789l-15.03-2.828l-2.594,13.789l-6.251-1.176l6.054-32.173l6.25,1.176
	l-2.543,13.513l15.029,2.828l2.544-13.513l6.25,1.176L295.969,83.078z"/>
<path fill="#FFFFFF" d="M320.361,92.236l-2.489-16.116l-6.876-2.713l-5.166,13.096l-5.873-2.317l12.016-30.454l15.184,5.991
	c5.091,2.008,9.426,5.93,6.953,12.196l-0.394,1c-1.521,3.725-5.078,6.243-9.339,5.316l2.598,16.611L320.361,92.236z M312.902,68.578
	l9.006,3.554c2.654,1.047,5.131,1.522,6.471-1.872c1.115-2.828-0.605-4.713-3.432-5.829l-9.008-3.553L312.902,68.578z"/>
<path fill="#FFFFFF" d="M336.65,81.542c5.943-9.468,13.716-11.381,22.787-5.686c8.875,5.57,10.441,13.015,4.373,22.68
	c-5.794,9.23-13.453,11.05-22.168,5.579C332.492,98.371,330.906,90.693,336.65,81.542z M342.375,84.915
	c-4.376,6.972-3.821,11.628,1.764,15.135c5.588,3.507,9.854,1.988,14.256-5.023c4.55-7.25,4.038-11.713-1.508-15.194
	C350.39,75.754,345.855,79.369,342.375,84.915z"/>
<path fill="#FFFFFF" d="M400.528,109.708l-16.39,17.526c-4.505,4.817-10.982,2.089-15.356-2.001l-2.425-2.268
	c-4.817-4.504-7.106-10.616-2.922-15.092l16.39-17.526l4.612,4.313l-15.432,16.501c-2.204,2.357-1.547,5.214,1.324,7.898
	l2.084,1.949c2.834,2.652,5.73,3.118,7.935,0.761l15.431-16.501L400.528,109.708z"/>
<path fill="#FFFFFF" d="M403.168,128.002l-10.416,7.625c-1.133,0.829-1.817,1.793-2.018,2.867c-0.248,1.4,0.275,2.988,1.574,4.762
	l6.326,8.643l6.794-4.974l-4.229-5.774l4.304-3.15l7.764,10.605l-15.398,11.273l-10.361-14.153c-2.1-2.868-3.305-5.464-3.343-7.813
	c-0.083-2.489,1.13-4.711,3.886-6.728l12.228-8.953c2.151-1.575,4.225-1.99,6.138-1.594c2.921,0.585,5.494,2.992,7.373,5.558
	l10.5,14.342l-4.304,3.149l-10.141-13.851c-1.52-2.075-1.991-2.483-3.195-2.703C405.416,126.877,404.225,127.228,403.168,128.002z"
	/>
<path fill="#FFFFFF" d="M411.908,188.656l-2.73-5.746l12.675-6.019l-6.562-13.815l-12.674,6.021l-2.729-5.746l29.572-14.046
	l2.729,5.746l-12.42,5.899l6.561,13.814l12.422-5.899l2.729,5.746L411.908,188.656z"/>
<path fill="#1E1E1E" d="M229.51,292.732l-7.5-4.621l-0.674-55.686l3.703-1.332l15.527-5.618c0,0,3.995-2.825,6.727-7.055
	c9.25-14.241,18.733-24.109,28.19-29.34l8.326-4.672l-0.062,42.004l-2.797,1.608c-8.856,5.151-17.604,14.501-25.976,27.78
	c-1.844,2.926-3.068,4.916-3.741,6.08l-0.031,0.055c-1.286,2.166-2.401,4.201-3.313,6.049l-0.051,0.101
	c-4.514,8.635-6.396,12.91-9,18.829l-3.92,8.908L229.51,292.732z"/>
<path fill="#F2AA1D" d="M226.204,235.136l0.059,49.446l5.663,3.226l0.722,0.413l1.747-3.969c2.655-6.032,4.579-10.396,9.142-19.122
	c0.964-1.955,2.136-4.097,3.494-6.382c0.748-1.295,2.043-3.394,3.838-6.243c8.79-13.942,18.094-23.835,27.665-29.401l0.363-0.209
	l0.046-30.886l-1.104,0.62c-8.746,4.837-17.653,14.165-26.46,27.725c-6.799,10.524-13.001,22.639-18.471,36.01
	c0.015-6.911,0.139-16.825,0.139-16.825c0-1.068,0.113-1.666,0.38-2.982l0.807-4.325l-7.545,2.73L226.204,235.136z"/>
<path fill="#FEBE10" d="M92.402,359.379c-0.691,0-1.369-0.336-1.778-0.957c-1.346-2.045-2.669-4.145-3.936-6.241
	c-0.606-1.005-0.284-2.311,0.722-2.918c1.004-0.606,2.312-0.286,2.918,0.722c1.237,2.05,2.531,4.102,3.847,6.1
	c0.646,0.981,0.374,2.301-0.607,2.945C93.209,359.267,92.803,359.379,92.402,359.379z M409.074,357.562
	c-0.394,0-0.791-0.109-1.146-0.336c-0.987-0.635-1.275-1.949-0.641-2.938c1.291-2.014,2.562-4.082,3.777-6.145
	c0.596-1.014,1.898-1.351,2.909-0.756c1.013,0.596,1.351,1.898,0.754,2.91c-1.24,2.111-2.54,4.226-3.862,6.285
	C410.459,357.217,409.773,357.562,409.074,357.562z M83.129,343.684c-0.763,0-1.501-0.413-1.882-1.135
	c-1.146-2.174-2.261-4.391-3.313-6.592c-0.507-1.059-0.059-2.329,1-2.836c1.059-0.508,2.329-0.059,2.835,1.002
	c1.029,2.15,2.119,4.318,3.239,6.442c0.549,1.038,0.15,2.325-0.889,2.872C83.804,343.604,83.464,343.684,83.129,343.684z
	 M418.168,341.758c-0.326,0-0.658-0.075-0.969-0.234c-1.045-0.535-1.457-1.818-0.922-2.862c1.093-2.134,2.158-4.313,3.166-6.481
	c0.494-1.064,1.758-1.527,2.824-1.032c1.063,0.495,1.525,1.759,1.031,2.823c-1.029,2.217-2.119,4.448-3.236,6.631
	C419.686,341.336,418.939,341.758,418.168,341.758z M75.418,327.166c-0.837,0-1.632-0.499-1.968-1.322
	c-0.93-2.274-1.825-4.59-2.659-6.883c-0.401-1.104,0.168-2.324,1.271-2.724c1.101-0.401,2.323,0.167,2.725,1.271
	c0.815,2.24,1.688,4.503,2.598,6.727c0.445,1.088-0.076,2.328-1.163,2.773C75.959,327.114,75.686,327.166,75.418,327.166z
	 M425.69,325.145c-0.261,0-0.525-0.049-0.782-0.149c-1.091-0.432-1.627-1.667-1.194-2.759c0.878-2.221,1.726-4.494,2.52-6.758
	c0.39-1.107,1.603-1.691,2.711-1.302s1.69,1.603,1.302,2.71c-0.812,2.314-1.68,4.641-2.578,6.912
	C427.338,324.635,426.536,325.145,425.69,325.145z M69.348,309.979c-0.916,0-1.761-0.597-2.037-1.519
	c-0.701-2.345-1.366-4.736-1.977-7.107c-0.292-1.137,0.392-2.294,1.529-2.587c1.138-0.293,2.296,0.391,2.589,1.528
	c0.596,2.318,1.246,4.655,1.933,6.948c0.336,1.125-0.304,2.309-1.428,2.646C69.754,309.947,69.549,309.979,69.348,309.979z
	 M431.562,307.879c-0.194,0-0.391-0.026-0.587-0.084c-1.129-0.322-1.782-1.5-1.458-2.628c0.659-2.302,1.283-4.647,1.852-6.973
	c0.279-1.14,1.431-1.837,2.571-1.559c1.14,0.28,1.837,1.431,1.558,2.571c-0.582,2.377-1.219,4.777-1.893,7.131
	C433.338,307.271,432.486,307.879,431.562,307.879z M64.977,292.283c-0.996,0-1.885-0.703-2.084-1.719
	c-0.47-2.398-0.899-4.842-1.277-7.264c-0.181-1.16,0.614-2.248,1.773-2.428c1.162-0.182,2.247,0.611,2.427,1.772
	c0.369,2.368,0.789,4.757,1.249,7.103c0.226,1.151-0.525,2.269-1.677,2.494C65.25,292.271,65.113,292.283,64.977,292.283z
	 M435.729,290.123c-0.127,0-0.256-0.012-0.385-0.036c-1.156-0.211-1.92-1.319-1.708-2.474c0.433-2.354,0.824-4.75,1.165-7.119
	c0.166-1.162,1.232-1.973,2.408-1.802c1.161,0.166,1.967,1.244,1.801,2.406c-0.35,2.425-0.751,4.874-1.193,7.281
	C437.629,289.405,436.736,290.123,435.729,290.123z M62.343,274.252c-1.082,0-2.007-0.823-2.114-1.922
	c-0.236-2.432-0.428-4.905-0.571-7.352c-0.069-1.173,0.826-2.18,1.998-2.248c1.192-0.067,2.177,0.826,2.247,1.998
	c0.141,2.393,0.328,4.814,0.559,7.19c0.113,1.169-0.742,2.208-1.911,2.321C62.48,274.248,62.411,274.252,62.343,274.252z
	 M438.153,272.043c-0.061,0-0.121-0.002-0.184-0.007c-1.169-0.101-2.037-1.13-1.937-2.3c0.203-2.377,0.361-4.799,0.475-7.199
	c0.056-1.172,1.061-2.08,2.223-2.024c1.172,0.055,2.08,1.05,2.025,2.222c-0.115,2.457-0.279,4.934-0.486,7.364
	C440.174,271.207,439.246,272.043,438.153,272.043z M61.456,256.042c-1.174,0-2.126-0.952-2.126-2.126l0-0.227
	c0-2.473,0.047-4.954,0.14-7.389c0.045-1.172,1.034-2.098,2.206-2.042c1.173,0.044,2.088,1.032,2.043,2.206
	c-0.091,2.382-0.137,4.807-0.137,7.21l0,0.242C63.582,255.09,62.63,256.042,61.456,256.042z M438.83,253.818
	c-1.163,0-2.113-0.938-2.125-2.104c-0.025-2.394-0.098-4.821-0.213-7.212c-0.055-1.173,0.85-2.169,2.021-2.226
	c1.18-0.056,2.17,0.848,2.227,2.021c0.117,2.445,0.191,4.925,0.217,7.373c0.012,1.174-0.93,2.137-2.104,2.148
	C438.846,253.818,438.838,253.818,438.83,253.818z M62.325,237.594c-0.067,0-0.136-0.003-0.205-0.01
	c-1.169-0.112-2.025-1.15-1.914-2.319c0.233-2.436,0.518-4.901,0.845-7.328c0.157-1.164,1.233-1.98,2.391-1.823
	c1.164,0.157,1.979,1.227,1.823,2.391c-0.32,2.373-0.598,4.783-0.826,7.165C64.333,236.771,63.408,237.594,62.325,237.594z
	 M437.771,235.616c-1.073,0-1.995-0.81-2.111-1.901c-0.252-2.379-0.556-4.788-0.901-7.155c-0.17-1.162,0.636-2.241,1.798-2.411
	c1.167-0.167,2.241,0.637,2.41,1.798c0.353,2.422,0.664,4.885,0.922,7.319c0.124,1.167-0.722,2.215-1.89,2.339
	C437.922,235.613,437.846,235.616,437.771,235.616z M64.936,219.555c-0.135,0-0.271-0.013-0.409-0.04
	c-1.152-0.224-1.905-1.34-1.681-2.492c0.469-2.408,0.989-4.834,1.549-7.212c0.27-1.144,1.414-1.852,2.557-1.583
	s1.851,1.413,1.583,2.557c-0.547,2.324-1.057,4.696-1.515,7.049C66.822,218.85,65.932,219.555,64.936,219.555z M434.969,217.601
	c-0.988,0-1.873-0.693-2.08-1.699c-0.48-2.343-1.016-4.709-1.588-7.034c-0.281-1.14,0.413-2.292,1.554-2.573
	c1.14-0.28,2.293,0.416,2.573,1.556c0.587,2.378,1.135,4.799,1.627,7.196c0.236,1.15-0.505,2.274-1.655,2.51
	C435.255,217.586,435.111,217.601,434.969,217.601z"/>
<path fill="#FEBE10" d="M97.322,351.777c-0.287-0.279-0.657-0.481-1.081-0.561c-1.153-0.223-2.267,0.533-2.487,1.687
	c-0.326,1.698-0.687,3.404-1.062,5.103c-1.625-0.424-3.25-0.861-4.854-1.326c-1.128-0.327-2.308,0.322-2.634,1.45
	c-0.327,1.129,0.323,2.308,1.45,2.632c2.353,0.683,4.749,1.328,7.125,1.917c0.721,0.179,1.447-0.034,1.956-0.503
	c0.295-0.271,0.516-0.631,0.619-1.049c0.01-0.041,0.01-0.083,0.018-0.123c0.008-0.028,0.021-0.055,0.028-0.082
	c0.555-2.386,1.069-4.814,1.529-7.217C98.069,352.973,97.817,352.26,97.322,351.777z"/>
<path fill="#FEBE10" d="M439.711,206.697c-2.014-1.392-4.082-2.763-6.149-4.078c-0.628-0.397-1.384-0.426-2.015-0.14
	c-0.23,0.102-0.44,0.253-0.625,0.437c-0.152,0.135-0.291,0.286-0.402,0.467c-1.283,2.085-2.541,4.223-3.74,6.359
	c-0.365,0.646-0.353,1.403-0.037,2.018c0.185,0.355,0.472,0.664,0.85,0.876c1.021,0.577,2.318,0.213,2.893-0.811
	c0.839-1.489,1.711-2.976,2.595-4.451c1.416,0.925,2.829,1.863,4.213,2.819c0.967,0.669,2.292,0.427,2.958-0.541
	C440.918,208.689,440.676,207.364,439.711,206.697z"/>
</svg>
