<?xml version="1.0" encoding="utf-8"?>
<!-- Generator: Adobe Illustrator 15.0.2, SVG Export Plug-In . SVG Version: 6.00 Build 0)  -->
<!DOCTYPE svg PUBLIC "-//W3C//DTD SVG 1.1//EN" "http://www.w3.org/Graphics/SVG/1.1/DTD/svg11.dtd">
<svg version="1.1" xmlns="http://www.w3.org/2000/svg" xmlns:xlink="http://www.w3.org/1999/xlink" x="0px" y="0px" width="736.5px"
	 height="340px" viewBox="321.5 0 736.5 340" enable-background="new 321.5 0 736.5 340" xml:space="preserve">
<g id="Layer_1">
	<g>
		<rect x="322" fill="#0067B1" width="736" height="339.588"/>
	</g>
	<g>
		<rect x="337.213" y="39.302" fill="none" width="705.574" height="260.983"/>
	</g>
	<g>
		<g enable-background="new    ">
			<path fill="#FFFFFF" d="M385.549,44.332c0,3.472-1.484,5.487-4.228,5.487h-2.744v7.28h-2.128V38.815h4.76
				C384.037,38.815,385.549,40.748,385.549,44.332z M378.577,48.056h2.604c1.568,0,2.268-1.092,2.268-3.696
				c0-2.66-0.7-3.668-2.268-3.668h-2.604V48.056z"/>
			<path fill="#FFFFFF" d="M394.257,45.031c-0.336-0.224-0.7-0.308-1.12-0.308c-1.568,0-2.548,1.372-2.744,3.92V57.1h-1.988V42.96
				h1.708l0.112,2.323c0.672-1.819,1.68-2.548,2.94-2.548c0.476,0,0.98,0.112,1.344,0.336L394.257,45.031z"/>
			<path fill="#FFFFFF" d="M399.493,43.52V57.1h-1.988V43.52H399.493z M399.437,38.815v2.548h-1.876v-2.548H399.437z"/>
			<path fill="#FFFFFF" d="M411.645,57.1h-1.988v-9.716c0-2.212-0.784-2.884-1.876-2.884c-1.008,0-1.792,0.728-2.156,1.792V57.1
				h-1.988V42.96h1.736v1.456c0.728-1.148,1.764-1.708,2.912-1.708c1.26,0,2.268,0.588,2.8,1.96c0.644-1.232,1.764-1.96,3.108-1.96
				c2.128,0,3.444,1.428,3.444,4.676V57.1h-1.988v-9.716c0-1.904-0.616-2.884-1.932-2.884c-1.232,0-2.072,0.812-2.072,2.884V57.1z"
				/>
			<path fill="#FFFFFF" d="M421.164,45.844c0.728-1.848,1.932-3.164,3.92-3.164c2.52,0,3.584,1.764,3.584,4.368v7.672
				c0,0.7,0.308,1.092,0.924,1.092h0.336V57.1c-0.28,0.084-0.644,0.168-1.008,0.168c-0.98,0-1.652-0.504-1.96-1.204
				c-0.784,0.868-1.764,1.26-2.912,1.26c-1.988,0-3.248-1.428-3.248-3.779c0-2.66,1.372-4.536,5.04-4.536h0.84v-1.96
				c0-1.876-0.616-2.688-1.82-2.688c-1.036,0-1.82,0.756-2.352,2.156L421.164,45.844z M426.68,54.523V50.52h-0.84
				c-2.352,0-3.136,1.064-3.136,2.884c0,1.736,0.7,2.38,1.764,2.38C425.448,55.783,426.12,55.363,426.68,54.523z"/>
			<path fill="#FFFFFF" d="M438.552,45.031c-0.336-0.224-0.7-0.308-1.12-0.308c-1.568,0-2.548,1.372-2.744,3.92V57.1H432.7V42.96
				h1.708l0.112,2.323c0.672-1.819,1.68-2.548,2.94-2.548c0.476,0,0.98,0.112,1.344,0.336L438.552,45.031z"/>
			<path fill="#FFFFFF" d="M446.784,56.428c-0.784,2.548-1.876,3.612-4.032,3.752l-0.168-1.54c1.316-0.196,1.96-0.756,2.408-2.324
				l0.084-0.308l-4.508-13.048h2.156l3.332,10.556l2.716-10.556h2.044L446.784,56.428z"/>
			<path fill="#FFFFFF" d="M467.699,38.815v1.933h-3.556V57.1h-2.128V40.748h-3.556v-1.933H467.699z"/>
			<path fill="#FFFFFF" d="M474.363,56.428c-0.784,2.548-1.876,3.612-4.032,3.752l-0.168-1.54c1.316-0.196,1.96-0.756,2.408-2.324
				l0.084-0.308l-4.508-13.048h2.156l3.332,10.556l2.716-10.556h2.044L474.363,56.428z"/>
			<path fill="#FFFFFF" d="M483.295,56.063v4.032h-1.988V42.96h1.736l0.112,1.204c0.728-0.925,1.82-1.456,3.164-1.456
				c2.324,0,3.584,1.735,3.584,4.676v5.264c0,2.968-1.316,4.676-3.668,4.676C485.031,57.323,484.023,56.903,483.295,56.063z
				 M483.295,54.355c0.504,0.7,1.26,1.26,2.408,1.26c1.484,0,2.212-1.008,2.212-2.939v-5.236c0-1.988-0.7-2.968-2.184-2.968
				c-1.12,0-1.96,0.616-2.436,1.316V54.355z"/>
			<path fill="#FFFFFF" d="M495.055,50.071v2.633c0,1.932,0.84,2.939,2.38,2.939c1.232,0,1.932-0.644,2.436-2.436l1.512,0.504
				c-0.588,2.464-1.932,3.611-4.116,3.611c-2.744,0-4.2-1.903-4.2-4.563v-5.488c0-2.66,1.456-4.563,4.172-4.563
				c2.66,0,4.088,1.987,4.088,4.647v2.716H495.055z M495.055,48.672h4.48v-1.513c0-1.848-0.812-2.8-2.24-2.8
				c-1.54,0-2.24,1.008-2.24,2.828V48.672z"/>
			<path fill="#FFFFFF" d="M509.978,45.144h-2.884V57.1h-1.96V45.144h-1.512v-1.596h1.512v-0.504c0-2.716,1.344-4.2,4.62-4.34
				l0.112,1.483c-2.072,0.141-2.828,0.924-2.828,2.856v0.504h2.94V45.144z"/>
			<path fill="#FFFFFF" d="M512.582,45.844c0.728-1.848,1.932-3.164,3.92-3.164c2.52,0,3.584,1.764,3.584,4.368v7.672
				c0,0.7,0.308,1.092,0.924,1.092h0.336V57.1c-0.28,0.084-0.644,0.168-1.008,0.168c-0.98,0-1.652-0.504-1.96-1.204
				c-0.784,0.868-1.764,1.26-2.912,1.26c-1.988,0-3.248-1.428-3.248-3.779c0-2.66,1.372-4.536,5.04-4.536h0.84v-1.96
				c0-1.876-0.616-2.688-1.82-2.688c-1.036,0-1.82,0.756-2.352,2.156L512.582,45.844z M518.098,54.523V50.52h-0.84
				c-2.352,0-3.136,1.064-3.136,2.884c0,1.736,0.7,2.38,1.764,2.38C516.866,55.783,517.538,55.363,518.098,54.523z"/>
			<path fill="#FFFFFF" d="M530.222,46.487c-0.392-1.456-1.204-2.071-2.268-2.071c-1.428,0-2.24,0.924-2.24,2.912v5.376
				c0,1.987,0.812,2.939,2.24,2.939c1.148,0,1.876-0.616,2.296-2.156l1.484,0.504c-0.532,2.044-1.82,3.332-3.892,3.332
				c-2.744,0-4.116-1.987-4.116-4.535v-5.517c0-2.604,1.4-4.563,4.088-4.563c1.932,0,3.304,1.204,3.864,3.22L530.222,46.487z"/>
			<path fill="#FFFFFF" d="M536.27,50.071v2.633c0,1.932,0.84,2.939,2.38,2.939c1.232,0,1.932-0.644,2.436-2.436l1.512,0.504
				c-0.588,2.464-1.932,3.611-4.116,3.611c-2.744,0-4.2-1.903-4.2-4.563v-5.488c0-2.66,1.456-4.563,4.172-4.563
				c2.66,0,4.088,1.987,4.088,4.647v2.716H536.27z M536.27,48.672h4.48v-1.513c0-1.848-0.812-2.8-2.24-2.8
				c-1.54,0-2.24,1.008-2.24,2.828V48.672z"/>
			<path fill="#FFFFFF" d="M545.958,43.828h1.932v2.128h-1.932V43.828z M545.958,54.972h1.932V57.1h-1.932V54.972z"/>
		</g>
		<g enable-background="new    ">
			<path fill="#FFFFFF" d="M600.333,42.315l-1.96,0.812c-0.392-1.54-1.26-2.269-2.436-2.269c-1.344,0-1.904,0.84-1.904,2.212
				c0,3.668,6.356,3.641,6.356,9.24c0,3.248-1.792,5.04-4.592,5.04c-2.296,0-4.228-1.512-4.704-4.256l2.128-0.672
				c0.42,1.876,1.428,2.604,2.548,2.604c1.372,0,2.016-0.756,2.016-2.352c0-4.061-6.468-3.948-6.468-9.464
				c0-2.66,1.652-4.676,4.424-4.676C598.232,38.536,599.661,39.991,600.333,42.315z"/>
			<path fill="#FFFFFF" d="M608.873,45.536h-2.66v8.008c0,1.147,0.532,1.708,1.428,1.708c0.364,0,0.7-0.084,1.008-0.225l0.28,1.681
				c-0.588,0.363-1.316,0.615-2.212,0.615c-2.128,0-3.08-1.315-3.08-3.863v-7.784l-1.456-0.364v-1.82l1.596-0.111l0.644-3.08h1.792
				v3.136h2.66V45.536z"/>
			<path fill="#FFFFFF" d="M617.944,45.536c-0.308-0.225-0.672-0.309-1.092-0.309c-1.428,0-2.268,1.148-2.492,3.528V57.1h-2.576
				V42.876h2.184l0.14,2.184c0.672-1.764,1.652-2.408,2.828-2.408c0.476,0,0.98,0.141,1.288,0.336L617.944,45.536z"/>
			<path fill="#FFFFFF" d="M620.324,45.983c0.7-1.987,2.016-3.388,4.144-3.388c2.66,0,3.78,1.82,3.78,4.452v7.392
				c0,0.616,0.28,0.98,0.84,0.98h0.308v1.651c-0.336,0.112-0.784,0.196-1.204,0.196c-1.064,0-1.708-0.476-2.1-1.12
				c-0.756,0.812-1.708,1.176-2.828,1.176c-2.016,0-3.304-1.54-3.304-3.892c0-2.576,1.344-4.564,5.012-4.564h0.7V47.02
				c0-1.652-0.504-2.268-1.54-2.268c-0.896,0-1.596,0.644-2.072,2.016L620.324,45.983z M625.672,54.384v-3.612h-0.7
				c-1.876,0-2.548,0.896-2.548,2.437c0,1.651,0.588,2.184,1.456,2.184C624.692,55.392,625.224,55.056,625.672,54.384z"/>
			<path fill="#FFFFFF" d="M637.516,45.536h-2.66v8.008c0,1.147,0.532,1.708,1.428,1.708c0.364,0,0.7-0.084,1.008-0.225l0.28,1.681
				c-0.588,0.363-1.316,0.615-2.212,0.615c-2.128,0-3.08-1.315-3.08-3.863v-7.784l-1.456-0.364v-1.82l1.596-0.111l0.644-3.08h1.792
				v3.136h2.66V45.536z"/>
			<path fill="#FFFFFF" d="M646.112,45.536h-2.66v8.008c0,1.147,0.532,1.708,1.428,1.708c0.364,0,0.7-0.084,1.008-0.225l0.28,1.681
				c-0.588,0.363-1.316,0.615-2.212,0.615c-2.128,0-3.08-1.315-3.08-3.863v-7.784l-1.456-0.364v-1.82l1.596-0.111l0.644-3.08h1.792
				v3.136h2.66V45.536z"/>
			<path fill="#FFFFFF" d="M655.239,42.876h2.576V57.1h-2.24l-0.14-1.092c-0.756,0.896-1.792,1.344-3.052,1.344
				c-2.24,0-3.556-1.708-3.556-4.844v-9.632h2.548v9.659c0,1.736,0.616,2.576,1.82,2.576c0.952,0,1.624-0.504,2.044-1.092V42.876z"
				/>
			<path fill="#FFFFFF" d="M669.911,57.1h-2.576v-9.604c0-1.988-0.616-2.576-1.54-2.576c-0.84,0-1.484,0.588-1.792,1.456V57.1
				h-2.576V42.876h2.24v1.372c0.728-1.12,1.736-1.624,2.884-1.624c1.232,0,2.184,0.588,2.716,1.819
				c0.7-1.147,1.792-1.819,3.108-1.819c2.128,0,3.444,1.428,3.444,4.844V57.1h-2.576v-9.604c0-1.765-0.504-2.576-1.624-2.576
				c-1.008,0-1.708,0.7-1.708,2.576V57.1z"/>
			<path fill="#FFFFFF" d="M684.135,38.731V57.1h-2.716V43.771h-2.884v-1.96h1.26c1.568,0,2.072-0.42,2.296-3.08H684.135z"/>
		</g>
		<g>
			<g enable-background="new    ">
				<path fill="#FFFFFF" d="M379.865,126.339V93.504c0-4.177,3.312-7.561,7.489-7.561h13.897c4.249,0,7.633,3.384,7.633,7.561
					v32.835c0,4.176-3.384,7.561-7.633,7.561h-13.897C383.177,133.899,379.865,130.515,379.865,126.339z M400.603,95.376
					c0-1.08-0.864-1.872-1.944-1.872h-8.569c-1.08,0-1.944,0.792-1.944,1.872v29.091c0,1.08,0.864,1.872,1.944,1.872h8.569
					c1.08,0,1.944-0.792,1.944-1.872V95.376z"/>
				<path fill="#FFFFFF" d="M441.138,85.943v47.956h-8.281V94.224l-12.241,3.961v-8.281l12.241-3.96H441.138z"/>
				<path fill="#FFFFFF" d="M456.905,117.482c0-4.177,2.52-5.329,6.264-6.985c4.537-2.016,6.769-2.808,11.305-4.824
					c1.008-0.432,1.656-1.008,1.656-2.088v-8.209c0-1.08-0.864-1.872-1.944-1.872h-7.128c-1.08,0-1.944,0.792-1.944,1.872v4.248
					l-8.281-1.439v-4.681c0-4.177,3.312-7.561,7.489-7.561h12.457c4.249,0,7.633,3.384,7.633,7.561v11.881
					c0,3.24-1.512,4.681-4.825,6.265c-3.312,1.584-7.417,3.385-12.745,5.904c-1.008,0.504-1.656,0.864-1.656,1.944v6.841h19.658
					v7.561h-27.938V117.482z"/>
				<path fill="#FFFFFF" d="M518.394,95.376c0-1.08-0.864-1.872-1.944-1.872h-7.128c-1.08,0-1.944,0.792-1.944,1.872v3.816
					l-8.137-1.44v-4.248c0-4.177,3.312-7.561,7.489-7.561h12.313c4.249,0,7.633,3.384,7.633,7.561v11.017
					c0,2.16-1.368,3.816-3.024,4.753c1.944,0.864,3.384,2.376,3.384,5.185v11.881c0,4.176-3.384,7.561-7.632,7.561h-12.817
					c-4.176,0-7.489-3.385-7.489-7.561v-4.248l8.137-1.44v3.816c0,1.08,0.864,1.872,1.944,1.872h7.633
					c1.08,0,1.944-0.792,1.944-1.872v-9.289c0-1.08-0.864-1.872-1.944-1.872h-10.297v-7.561h10.153c1.008,0,1.728-0.864,1.728-1.872
					V95.376z"/>
				<path fill="#FFFFFF" d="M538.767,115.034l19.514-29.091h8.28v29.091h7.705l-0.576,7.2h-7.129v11.665h-8.28v-11.665h-19.514
					V115.034z M558.281,115.034v-16.49l-10.513,16.49H558.281z"/>
				<path fill="#FFFFFF" d="M612.208,85.943v7.561h-18.361v12.097c4.177-0.72,8.425-1.151,11.953-1.151
					c4.896,0,7.633,3.384,7.633,7.561v14.329c0,4.176-3.385,7.561-7.633,7.561h-13.033c-4.176,0-7.488-3.385-7.488-7.561v-2.376
					l8.28-1.44v1.944c0,1.08,0.864,1.872,1.944,1.872h7.705c1.08,0,1.943-0.792,1.943-1.872V114.17c0-1.152-0.72-1.872-1.943-1.872
					c-1.801,0-5.545,0.216-7.417,0.576c-1.44,0.287-1.944,1.296-1.944,2.376v1.944l-8.28-0.864V85.943H612.208z"/>
				<path fill="#FFFFFF" d="M636.398,85.943h12.817c4.177,0,7.488,3.384,7.488,7.561v3.96l-8.28,1.44v-3.528
					c0-1.08-0.864-1.872-1.944-1.872h-7.488c-1.08,0-1.944,0.792-1.944,1.872v13.105c3.889-1.225,8.929-2.089,12.457-2.089
					c4.896,0,7.633,3.385,7.633,7.562v12.385c0,4.176-3.385,7.561-7.633,7.561h-13.249c-4.177,0-7.489-3.385-7.489-7.561V93.504
					C628.765,89.327,632.15,85.943,636.398,85.943z M637.046,124.467c0,1.08,0.864,1.872,1.944,1.872h7.92
					c1.08,0,1.944-0.792,1.944-1.872v-8.353c0-1.08-0.72-1.872-1.944-1.872c-1.8,0-6.192,0.863-7.92,1.439
					c-1.368,0.433-1.944,1.296-1.944,2.376V124.467z"/>
				<path fill="#FFFFFF" d="M668.869,85.943h28.515v6.984l-15.193,40.972h-8.209l15.121-40.396h-20.233V85.943z"/>
				<path fill="#FFFFFF" d="M708.757,126.339v-11.81c0-2.808,1.368-4.32,3.312-5.256c-1.656-0.864-2.952-2.521-2.952-4.681V93.504
					c0-4.177,3.312-7.561,7.488-7.561h13.178c4.248,0,7.633,3.384,7.633,7.561v11.089c0,2.16-1.368,3.816-3.024,4.753
					c1.944,0.863,3.384,2.376,3.384,5.184v11.81c0,4.176-3.384,7.561-7.632,7.561h-13.897
					C712.07,133.899,708.757,130.515,708.757,126.339z M729.496,115.25c0-1.08-0.864-1.872-1.944-1.872h-8.568
					c-1.08,0-1.944,0.792-1.944,1.872v9.217c0,1.08,0.864,1.872,1.944,1.872h8.568c1.08,0,1.944-0.792,1.944-1.872V115.25z
					 M729.135,95.376c0-1.08-0.864-1.872-1.944-1.872h-7.849c-1.08,0-1.943,0.792-1.943,1.872v8.568
					c0,1.081,0.863,1.873,1.943,1.873h8.065c1.008,0,1.728-0.864,1.728-1.873V95.376z"/>
				<path fill="#FFFFFF" d="M774.207,133.899h-13.178c-4.176,0-7.488-3.385-7.488-7.561v-3.961l8.281-1.439v3.528
					c0,1.08,0.863,1.872,1.943,1.872h7.85c1.08,0,1.943-0.792,1.943-1.872v-13.033c-3.889,1.224-8.928,2.088-12.457,2.088
					c-4.896,0-7.633-3.384-7.633-7.561V93.504c0-4.177,3.385-7.561,7.633-7.561h13.25c4.176,0,7.488,3.384,7.488,7.561v32.835
					C781.84,130.515,778.455,133.899,774.207,133.899z M773.559,95.376c0-1.08-0.863-1.872-1.943-1.872h-7.922
					c-1.08,0-1.943,0.792-1.943,1.872v8.425c0,1.08,0.721,1.872,1.943,1.872c1.801,0,6.193-0.864,7.922-1.44
					c1.367-0.432,1.943-1.296,1.943-2.376V95.376z"/>
			</g>
		</g>
		<g enable-background="new    ">
			<path fill="#FFFFFF" d="M416.516,210.7h-8.712l-3.457-10.44h-16.201l-3.312,10.44h-8.713l16.202-47.956h7.993L416.516,210.7z
				 M390.738,192.555h11.089l-5.544-18.29L390.738,192.555z"/>
			<path fill="#FFFFFF" d="M429.184,162.744h23.69c4.249,0,7.633,3.384,7.633,7.561v10.297c0,2.16-1.584,4.536-3.816,5.257
				c2.016,0.359,4.176,2.376,4.176,5.185v12.097c0,4.176-3.384,7.561-7.632,7.561h-24.05V162.744z M450.138,182.258
				c1.008-0.072,1.728-0.864,1.728-1.872v-7.921c0-1.08-0.864-1.872-1.944-1.872h-12.097v11.665H450.138z M437.825,202.852h12.457
				c1.081,0,1.944-0.792,1.944-1.872v-9.073c0-1.08-0.864-1.872-1.944-1.872h-12.457V202.852z"/>
			<path fill="#FFFFFF" d="M499.889,194.066l8.641,1.44v7.272c0,4.393-3.528,7.921-7.921,7.921h-16.201
				c-4.393,0-7.849-3.528-7.849-7.921v-32.114c0-4.393,3.456-7.921,7.849-7.921h16.201c4.393,0,7.921,3.528,7.921,7.921v6.84
				l-8.641,1.44v-6.408c0-1.08-0.864-1.872-1.944-1.872h-10.801c-1.08,0-1.944,0.792-1.944,1.872v28.37
				c0,1.08,0.864,1.872,1.944,1.872h10.801c1.08,0,1.944-0.792,1.944-1.872V194.066z"/>
			<path fill="#FFFFFF" d="M524.583,162.744h23.402c4.392,0,7.921,3.528,7.921,7.921v32.114c0,4.393-3.529,7.921-7.921,7.921
				h-23.402V162.744z M547.265,172.537c0-1.08-0.864-1.872-1.944-1.872h-12.097v32.114h12.097c1.08,0,1.944-0.792,1.944-1.872
				V172.537z"/>
			<path fill="#FFFFFF" d="M572.318,162.744h29.091v7.921h-20.45v11.881h18.649v7.921h-18.649v12.312h20.45v7.921h-29.091V162.744z"
				/>
			<path fill="#FFFFFF" d="M616.742,210.7v-47.956h29.45v7.921h-20.81v11.881h19.01v7.921h-19.01V210.7H616.742z"/>
			<path fill="#FFFFFF" d="M673.479,185.21h16.993v17.569c0,4.393-3.528,7.921-7.92,7.921H666.35c-4.392,0-7.849-3.528-7.849-7.921
				v-32.114c0-4.393,3.457-7.921,7.849-7.921h16.202c4.392,0,7.92,3.528,7.92,7.921v5.328l-8.641,1.44v-4.896
				c0-1.08-0.863-1.872-1.943-1.872h-10.802c-1.08,0-1.943,0.792-1.943,1.872v28.37c0,1.08,0.863,1.872,1.943,1.872h10.802
				c1.08,0,1.943-0.792,1.943-1.872v-8.064h-8.353V185.21z"/>
			<path fill="#FFFFFF" d="M731.079,190.179h-16.273V210.7h-8.641v-47.956h8.641v19.514h16.273v-19.514h8.641V210.7h-8.641V190.179z
				"/>
			<path fill="#FFFFFF" d="M765.133,210.7h-8.641v-47.956h8.641V210.7z"/>
			<path fill="#FFFFFF" d="M807.902,162.744v40.035c0,4.393-3.457,7.921-7.85,7.921h-13.465c-4.393,0-7.92-3.528-7.92-7.921v-6.192
				l8.641-1.44v5.761c0,1.08,0.863,1.872,1.943,1.872h8.064c1.08,0,1.945-0.792,1.945-1.872v-38.163H807.902z"/>
			<path fill="#FFFFFF" d="M824.314,162.744h8.641v22.466l14.979-22.466h10.008l-16.129,23.834L858.59,210.7h-10.008l-15.627-22.682
				V210.7h-8.641V162.744z"/>
			<path fill="#FFFFFF" d="M870.682,162.744h8.641v40.035h19.586v7.921h-28.227V162.744z"/>
			<path fill="#FFFFFF" d="M921.154,182.042V210.7h-8.352v-47.956h8.352l12.818,29.379l12.816-29.379h8.354V210.7h-8.354v-28.658
				l-9.145,20.449h-7.344L921.154,182.042z"/>
		</g>
		<g>
			<g enable-background="new    ">
				<path fill="#FFFFFF" d="M415.076,287.5h-8.353l-18.146-31.035V287.5h-8.353v-47.956h8.353l18.146,31.179v-31.179h8.353V287.5z"
					/>
				<path fill="#FFFFFF" d="M431.488,279.579v-32.114c0-4.393,3.456-7.921,7.849-7.921h16.921c4.393,0,7.921,3.528,7.921,7.921
					v32.114c0,4.393-3.528,7.921-7.921,7.921h-16.921C434.944,287.5,431.488,283.972,431.488,279.579z M455.538,249.337
					c0-1.08-0.864-1.872-1.944-1.872h-11.521c-1.08,0-1.944,0.792-1.944,1.872v28.37c0,1.08,0.864,1.872,1.944,1.872h11.521
					c1.08,0,1.944-0.792,1.944-1.872V249.337z"/>
				<path fill="#FFFFFF" d="M480.592,239.544h24.41c4.393,0,7.921,3.528,7.921,7.921v13.608c0,4.393-3.528,7.921-7.921,7.921h-15.77
					V287.5h-8.641V239.544z M504.282,249.337c0-1.08-0.864-1.872-1.944-1.872h-13.105v13.608h13.105c1.08,0,1.944-0.792,1.944-1.872
					V249.337z"/>
				<path fill="#FFFFFF" d="M526.095,279.579v-32.114c0-4.393,3.456-7.921,7.849-7.921h16.921c4.393,0,7.921,3.528,7.921,7.921
					v32.114c0,4.393-3.528,7.921-7.921,7.921h-4.249v11.593h-8.353V287.5h-4.32C529.551,287.5,526.095,283.972,526.095,279.579z
					 M550.145,249.337c0-1.08-0.864-1.872-1.944-1.872H536.68c-1.08,0-1.944,0.792-1.944,1.872v28.37
					c0,1.08,0.864,1.872,1.944,1.872h11.521c1.08,0,1.944-0.792,1.944-1.872V249.337z"/>
				<path fill="#FFFFFF" d="M592.913,268.994h-9.073V287.5h-8.641v-47.956h25.13c4.393,0,7.921,3.528,7.921,7.921v13.608
					c0,3.745-2.521,6.841-5.977,7.705l9.217,18.722h-9.505L592.913,268.994z M599.609,249.337c0-1.08-0.864-1.872-1.944-1.872
					h-13.825v13.608h13.825c1.08,0,1.944-0.792,1.944-1.872V249.337z"/>
				<path fill="#FFFFFF" d="M632.871,265.106c-4.248-1.297-7.704-3.385-7.704-7.777v-9.864c0-4.393,3.456-7.921,7.849-7.921h15.266
					c4.392,0,7.92,3.528,7.92,7.921v5.616l-8.641,1.44v-5.185c0-1.08-0.864-1.872-1.944-1.872h-9.864
					c-1.08,0-1.944,0.792-1.944,1.872v5.977c0,1.08,0.864,1.8,1.944,2.088c4.248,1.225,7.849,2.16,13.104,3.672
					c4.104,1.152,7.489,3.385,7.489,7.777v10.729c0,4.393-3.456,7.921-7.849,7.921h-15.554c-4.393,0-7.921-3.528-7.921-7.921v-5.473
					l8.642-1.439v5.04c0,1.08,0.863,1.872,1.943,1.872h10.153c1.08,0,1.944-0.792,1.944-1.872v-6.912
					c0-1.08-0.792-1.729-1.944-2.017C640.288,267.267,638.2,266.69,632.871,265.106z"/>
				<path fill="#FFFFFF" d="M668.078,239.544h34.707v7.921h-13.033V287.5h-8.641v-40.035h-13.033V239.544z"/>
				<path fill="#FFFFFF" d="M738.566,239.544h8.641v40.035c0,4.393-3.528,7.921-7.92,7.921h-16.202
					c-4.392,0-7.849-3.528-7.849-7.921v-40.035h8.642v38.163c0,1.08,0.863,1.872,1.943,1.872h10.802c1.08,0,1.943-0.792,1.943-1.872
					V239.544z"/>
				<path fill="#FFFFFF" d="M782.773,287.5h-8.424l-14.689-47.956h8.568l10.297,34.851l10.369-34.851h8.568L782.773,287.5z"/>
				<path fill="#FFFFFF" d="M830.076,239.544h7.561l8.785,32.69l5.041-32.69h8.496l-8.424,47.956h-8.643l-9.072-34.491l-9,34.491
					h-8.641l-8.426-47.956h8.498l5.039,32.69L830.076,239.544z"/>
				<path fill="#FFFFFF" d="M888.539,255.313l8.93-15.77h9.072l-13.25,23.618L906.9,287.5h-9.072l-9.289-16.489l-9.217,16.489
					h-9.072l13.537-24.338l-13.178-23.618h9.072L888.539,255.313z"/>
				<path fill="#FFFFFF" d="M933.609,258.626l9.434-19.082h9.145l-14.256,28.658V287.5h-8.643v-19.298l-14.256-28.658h9.145
					L933.609,258.626z"/>
				<path fill="#FFFFFF" d="M994.883,287.5H962.48v-7.921l21.818-32.114h-21.242v-7.921h31.539v7.921l-21.963,32.114h22.25V287.5z"
					/>
			</g>
		</g>
	</g>
</g>
<g id="Layer_2">
</g>
</svg>
